<svg width="201" height="41" viewBox="0 0 201 41" fill="none" xmlns="http://www.w3.org/2000/svg">
<path d="M60.9356 12.6932C60.9356 13.9426 60.7531 15.0446 60.3881 15.9991C60.0231 16.9537 59.5247 17.7539 58.893 18.3997C58.2753 19.0314 57.5524 19.5087 56.7241 19.8315C55.8959 20.1544 55.0185 20.3159 54.092 20.3159C53.1655 20.3159 52.2881 20.1544 51.4598 19.8315C50.6316 19.5087 49.9016 19.0314 49.2699 18.3997C48.6522 17.7539 48.1609 16.9537 47.7959 15.9991C47.4309 15.0446 47.2484 13.9426 47.2484 12.6932C47.2484 11.4438 47.4309 10.3488 47.7959 9.40826C48.1609 8.45367 48.6522 7.66051 49.2699 7.0288C49.9016 6.38305 50.6316 5.89873 51.4598 5.57586C52.2881 5.25298 53.1655 5.09154 54.092 5.09154C55.0185 5.09154 55.8959 5.25298 56.7241 5.57586C57.5524 5.89873 58.2753 6.38305 58.893 7.0288C59.5247 7.66051 60.0231 8.45367 60.3881 9.40826C60.7531 10.3488 60.9356 11.4438 60.9356 12.6932ZM59.4194 12.6932C59.4194 11.7105 59.2931 10.8331 59.0404 10.061C58.7877 9.2749 58.4298 8.60809 57.9665 8.0606C57.5032 7.51311 56.9417 7.09899 56.2819 6.81823C55.6362 6.52343 54.9062 6.37603 54.092 6.37603C53.2778 6.37603 52.5408 6.52343 51.881 6.81823C51.2352 7.09899 50.6807 7.51311 50.2175 8.0606C49.7542 8.60809 49.3962 9.2749 49.1436 10.061C48.8909 10.8331 48.7645 11.7105 48.7645 12.6932C48.7645 13.6758 48.8909 14.5602 49.1436 15.3464C49.3962 16.1185 49.7542 16.7783 50.2175 17.3257C50.6807 17.8732 51.2352 18.2944 51.881 18.5892C52.5408 18.884 53.2778 19.0314 54.092 19.0314C54.9062 19.0314 55.6362 18.884 56.2819 18.5892C56.9417 18.2944 57.5032 17.8732 57.9665 17.3257C58.4298 16.7783 58.7877 16.1185 59.0404 15.3464C59.2931 14.5602 59.4194 13.6758 59.4194 12.6932ZM73.3469 9.78729C73.3469 10.8823 73.0592 11.7456 72.4836 12.3773C71.908 13.009 71.15 13.4653 70.2094 13.746C70.434 14.0268 70.7218 14.4058 71.0728 14.8831C71.4378 15.3604 71.8098 15.8868 72.1888 16.4624C72.5678 17.0239 72.9398 17.6135 73.3048 18.2312C73.6698 18.8489 73.9786 19.4385 74.2313 20H72.6942C72.3994 19.4385 72.0765 18.877 71.7255 18.3154C71.3886 17.7539 71.0377 17.2134 70.6727 16.694C70.3217 16.1606 69.9778 15.6692 69.6409 15.22C69.304 14.7708 69.0092 14.3777 68.7565 14.0408C68.3073 14.0829 67.858 14.104 67.4088 14.104H65.0504V20H63.6185V5.68114C64.1239 5.54076 64.7135 5.44249 65.3873 5.38634C66.0752 5.31615 66.7069 5.28106 67.2825 5.28106C69.2899 5.28106 70.799 5.66008 71.8098 6.41814C72.8345 7.1762 73.3469 8.29925 73.3469 9.78729ZM67.4509 6.52343C66.9175 6.52343 66.4472 6.54449 66.0401 6.5866C65.647 6.61468 65.3171 6.64275 65.0504 6.67083V12.8827H67.0298C67.6896 12.8827 68.3143 12.8546 68.9039 12.7985C69.4935 12.7283 70.0059 12.5879 70.441 12.3773C70.8762 12.1527 71.2202 11.8368 71.4728 11.4297C71.7255 11.0226 71.8519 10.4681 71.8519 9.76623C71.8519 9.12048 71.7255 8.58703 71.4728 8.16589C71.2202 7.74474 70.8903 7.41485 70.4832 7.1762C70.0761 6.92351 69.6058 6.75506 69.0723 6.67083C68.5529 6.57256 68.0125 6.52343 67.4509 6.52343ZM85.374 5.4074V6.64977H80.6993V20H79.2674V6.64977H74.5928V5.4074H85.374ZM99.8872 12.6932C99.8872 13.9426 99.7047 15.0446 99.3397 15.9991C98.9747 16.9537 98.4763 17.7539 97.8446 18.3997C97.2269 19.0314 96.504 19.5087 95.6757 19.8315C94.8475 20.1544 93.9701 20.3159 93.0436 20.3159C92.1171 20.3159 91.2397 20.1544 90.4114 19.8315C89.5832 19.5087 88.8532 19.0314 88.2215 18.3997C87.6038 17.7539 87.1125 16.9537 86.7475 15.9991C86.3825 15.0446 86.2 13.9426 86.2 12.6932C86.2 11.4438 86.3825 10.3488 86.7475 9.40826C87.1125 8.45367 87.6038 7.66051 88.2215 7.0288C88.8532 6.38305 89.5832 5.89873 90.4114 5.57586C91.2397 5.25298 92.1171 5.09154 93.0436 5.09154C93.9701 5.09154 94.8475 5.25298 95.6757 5.57586C96.504 5.89873 97.2269 6.38305 97.8446 7.0288C98.4763 7.66051 98.9747 8.45367 99.3397 9.40826C99.7047 10.3488 99.8872 11.4438 99.8872 12.6932ZM98.371 12.6932C98.371 11.7105 98.2447 10.8331 97.992 10.061C97.7393 9.2749 97.3814 8.60809 96.9181 8.0606C96.4548 7.51311 95.8933 7.09899 95.2335 6.81823C94.5878 6.52343 93.8578 6.37603 93.0436 6.37603C92.2294 6.37603 91.4924 6.52343 90.8326 6.81823C90.1868 7.09899 89.6323 7.51311 89.1691 8.0606C88.7058 8.60809 88.3478 9.2749 88.0952 10.061C87.8425 10.8331 87.7161 11.7105 87.7161 12.6932C87.7161 13.6758 87.8425 14.5602 88.0952 15.3464C88.3478 16.1185 88.7058 16.7783 89.1691 17.3257C89.6323 17.8732 90.1868 18.2944 90.8326 18.5892C91.4924 18.884 92.2294 19.0314 93.0436 19.0314C93.8578 19.0314 94.5878 18.884 95.2335 18.5892C95.8933 18.2944 96.4548 17.8732 96.9181 17.3257C97.3814 16.7783 97.7393 16.1185 97.992 15.3464C98.2447 14.5602 98.371 13.6758 98.371 12.6932ZM114.152 12.6932C114.152 13.9426 113.955 15.0305 113.562 15.957C113.169 16.8835 112.614 17.6556 111.898 18.2733C111.197 18.891 110.354 19.3542 109.372 19.6631C108.389 19.9719 107.308 20.1263 106.129 20.1263C105.539 20.1263 104.922 20.0912 104.276 20.0211C103.63 19.9649 103.061 19.8737 102.57 19.7473V5.68114C103.061 5.54076 103.63 5.44249 104.276 5.38634C104.922 5.31615 105.539 5.28106 106.129 5.28106C107.308 5.28106 108.389 5.43548 109.372 5.74431C110.354 6.05315 111.197 6.51641 111.898 7.13409C112.614 7.75176 113.169 8.52386 113.562 9.45037C113.955 10.3769 114.152 11.4578 114.152 12.6932ZM104.002 18.7366C104.086 18.7506 104.297 18.7787 104.634 18.8208C104.985 18.8629 105.539 18.884 106.297 18.884C107.35 18.884 108.27 18.7436 109.056 18.4628C109.842 18.168 110.502 17.7539 111.035 17.2205C111.569 16.687 111.969 16.0413 112.235 15.2832C112.502 14.5111 112.635 13.6478 112.635 12.6932C112.635 11.7386 112.502 10.8823 112.235 10.1242C111.969 9.36614 111.569 8.72039 111.035 8.18694C110.502 7.65349 109.842 7.24639 109.056 6.96563C108.27 6.67083 107.35 6.52343 106.297 6.52343C105.539 6.52343 104.985 6.54449 104.634 6.5866C104.297 6.62871 104.086 6.65679 104.002 6.67083V18.7366ZM129.926 12.6932C129.926 13.9426 129.744 15.0446 129.379 15.9991C129.014 16.9537 128.516 17.7539 127.884 18.3997C127.266 19.0314 126.543 19.5087 125.715 19.8315C124.887 20.1544 124.009 20.3159 123.083 20.3159C122.156 20.3159 121.279 20.1544 120.451 19.8315C119.623 19.5087 118.893 19.0314 118.261 18.3997C117.643 17.7539 117.152 16.9537 116.787 15.9991C116.422 15.0446 116.239 13.9426 116.239 12.6932C116.239 11.4438 116.422 10.3488 116.787 9.40826C117.152 8.45367 117.643 7.66051 118.261 7.0288C118.893 6.38305 119.623 5.89873 120.451 5.57586C121.279 5.25298 122.156 5.09154 123.083 5.09154C124.009 5.09154 124.887 5.25298 125.715 5.57586C126.543 5.89873 127.266 6.38305 127.884 7.0288C128.516 7.66051 129.014 8.45367 129.379 9.40826C129.744 10.3488 129.926 11.4438 129.926 12.6932ZM128.41 12.6932C128.41 11.7105 128.284 10.8331 128.031 10.061C127.779 9.2749 127.421 8.60809 126.957 8.0606C126.494 7.51311 125.933 7.09899 125.273 6.81823C124.627 6.52343 123.897 6.37603 123.083 6.37603C122.269 6.37603 121.532 6.52343 120.872 6.81823C120.226 7.09899 119.672 7.51311 119.208 8.0606C118.745 8.60809 118.387 9.2749 118.134 10.061C117.882 10.8331 117.755 11.7105 117.755 12.6932C117.755 13.6758 117.882 14.5602 118.134 15.3464C118.387 16.1185 118.745 16.7783 119.208 17.3257C119.672 17.8732 120.226 18.2944 120.872 18.5892C121.532 18.884 122.269 19.0314 123.083 19.0314C123.897 19.0314 124.627 18.884 125.273 18.5892C125.933 18.2944 126.494 17.8732 126.957 17.3257C127.421 16.7783 127.779 16.1185 128.031 15.3464C128.284 14.5602 128.41 13.6758 128.41 12.6932ZM142.548 20C142.282 19.5087 141.938 18.9331 141.517 18.2733C141.11 17.6135 140.66 16.9116 140.169 16.1676C139.678 15.4095 139.158 14.6374 138.611 13.8513C138.063 13.0511 137.516 12.279 136.968 11.535C136.435 10.777 135.908 10.068 135.389 9.40826C134.884 8.74847 134.427 8.17992 134.02 7.70263V20H132.609V5.4074H133.747C134.462 6.20757 135.228 7.13409 136.042 8.18694C136.87 9.22576 137.677 10.2927 138.463 11.3876C139.249 12.4686 139.979 13.5284 140.653 14.5673C141.341 15.6061 141.903 16.5115 142.338 17.2836V5.4074H143.749V20H142.548ZM156.277 5.4074V6.64977H151.603V20H150.171V6.64977H145.496V5.4074H156.277ZM158.538 19.0945C158.538 19.4174 158.433 19.6912 158.223 19.9158C158.026 20.1404 157.745 20.2527 157.38 20.2527C157.015 20.2527 156.727 20.1404 156.517 19.9158C156.32 19.6912 156.222 19.4174 156.222 19.0945C156.222 18.7717 156.32 18.4979 156.517 18.2733C156.727 18.0487 157.015 17.9364 157.38 17.9364C157.745 17.9364 158.026 18.0487 158.223 18.2733C158.433 18.4979 158.538 18.7717 158.538 19.0945ZM165.026 5.28106C167.09 5.28106 168.627 5.67412 169.637 6.46026C170.648 7.24639 171.154 8.36242 171.154 9.80834C171.154 10.6366 171.006 11.3455 170.711 11.9351C170.417 12.5107 169.995 12.981 169.448 13.3459C168.9 13.6969 168.227 13.9566 167.426 14.1251C166.64 14.2795 165.749 14.3567 164.752 14.3567H162.773V20H161.341V5.68114C161.846 5.54076 162.436 5.44249 163.11 5.38634C163.798 5.31615 164.436 5.28106 165.026 5.28106ZM165.089 6.52343C164.556 6.52343 164.099 6.54449 163.72 6.5866C163.355 6.61468 163.04 6.64275 162.773 6.67083V13.1143H164.584C165.356 13.1143 166.051 13.0722 166.668 12.988C167.3 12.8897 167.834 12.7212 168.269 12.4826C168.718 12.2299 169.062 11.886 169.301 11.4508C169.539 11.0156 169.659 10.4611 169.659 9.78729C169.659 9.14153 169.525 8.60809 169.258 8.18694C169.006 7.7658 168.662 7.4359 168.227 7.19726C167.805 6.94457 167.321 6.76909 166.774 6.67083C166.226 6.57256 165.665 6.52343 165.089 6.52343ZM183.004 9.78729C183.004 10.8823 182.717 11.7456 182.141 12.3773C181.566 13.009 180.808 13.4653 179.867 13.746C180.092 14.0268 180.379 14.4058 180.73 14.8831C181.095 15.3604 181.467 15.8868 181.846 16.4624C182.225 17.0239 182.597 17.6135 182.962 18.2312C183.327 18.8489 183.636 19.4385 183.889 20H182.352C182.057 19.4385 181.734 18.877 181.383 18.3154C181.046 17.7539 180.695 17.2134 180.33 16.694C179.979 16.1606 179.635 15.6692 179.298 15.22C178.961 14.7708 178.667 14.3777 178.414 14.0408C177.965 14.0829 177.516 14.104 177.066 14.104H174.708V20H173.276V5.68114C173.781 5.54076 174.371 5.44249 175.045 5.38634C175.733 5.31615 176.364 5.28106 176.94 5.28106C178.947 5.28106 180.457 5.66008 181.467 6.41814C182.492 7.1762 183.004 8.29925 183.004 9.78729ZM177.108 6.52343C176.575 6.52343 176.105 6.54449 175.698 6.5866C175.305 6.61468 174.975 6.64275 174.708 6.67083V12.8827H176.687C177.347 12.8827 177.972 12.8546 178.561 12.7985C179.151 12.7283 179.663 12.5879 180.099 12.3773C180.534 12.1527 180.878 11.8368 181.13 11.4297C181.383 11.0226 181.509 10.4681 181.509 9.76623C181.509 9.12048 181.383 8.58703 181.13 8.16589C180.878 7.74474 180.548 7.41485 180.141 7.1762C179.734 6.92351 179.263 6.75506 178.73 6.67083C178.21 6.57256 177.67 6.52343 177.108 6.52343ZM198.864 12.6932C198.864 13.9426 198.681 15.0446 198.316 15.9991C197.951 16.9537 197.453 17.7539 196.821 18.3997C196.204 19.0314 195.481 19.5087 194.653 19.8315C193.824 20.1544 192.947 20.3159 192.02 20.3159C191.094 20.3159 190.216 20.1544 189.388 19.8315C188.56 19.5087 187.83 19.0314 187.198 18.3997C186.581 17.7539 186.089 16.9537 185.724 15.9991C185.359 15.0446 185.177 13.9426 185.177 12.6932C185.177 11.4438 185.359 10.3488 185.724 9.40826C186.089 8.45367 186.581 7.66051 187.198 7.0288C187.83 6.38305 188.56 5.89873 189.388 5.57586C190.216 5.25298 191.094 5.09154 192.02 5.09154C192.947 5.09154 193.824 5.25298 194.653 5.57586C195.481 5.89873 196.204 6.38305 196.821 7.0288C197.453 7.66051 197.951 8.45367 198.316 9.40826C198.681 10.3488 198.864 11.4438 198.864 12.6932ZM197.348 12.6932C197.348 11.7105 197.221 10.8331 196.969 10.061C196.716 9.2749 196.358 8.60809 195.895 8.0606C195.432 7.51311 194.87 7.09899 194.21 6.81823C193.565 6.52343 192.835 6.37603 192.02 6.37603C191.206 6.37603 190.469 6.52343 189.809 6.81823C189.164 7.09899 188.609 7.51311 188.146 8.0606C187.683 8.60809 187.325 9.2749 187.072 10.061C186.819 10.8331 186.693 11.7105 186.693 12.6932C186.693 13.6758 186.819 14.5602 187.072 15.3464C187.325 16.1185 187.683 16.7783 188.146 17.3257C188.609 17.8732 189.164 18.2944 189.809 18.5892C190.469 18.884 191.206 19.0314 192.02 19.0314C192.835 19.0314 193.565 18.884 194.21 18.5892C194.87 18.2944 195.432 17.8732 195.895 17.3257C196.358 16.7783 196.716 16.1185 196.969 15.3464C197.221 14.5602 197.348 13.6758 197.348 12.6932Z" fill="black"/>
<path d="M50.6463 38.0297C50.0905 38.0297 49.572 37.9301 49.0909 37.731C48.6181 37.5319 48.2033 37.2416 47.8466 36.86C47.4982 36.4785 47.2203 36.0098 47.013 35.454C46.8139 34.8899 46.7143 34.247 46.7143 33.5253C46.7143 32.8037 46.8222 32.1649 47.0378 31.6091C47.2618 31.0451 47.5563 30.5722 47.9213 30.1907C48.2863 29.8091 48.7093 29.5229 49.1905 29.3321C49.6716 29.133 50.1734 29.0335 50.696 29.0335C51.0196 29.0335 51.314 29.0542 51.5795 29.0957C51.8449 29.1372 52.0772 29.1911 52.2763 29.2574C52.4754 29.3155 52.6454 29.3777 52.7864 29.4441C52.9275 29.5022 53.0353 29.5561 53.11 29.6058L52.8362 30.34C52.6288 30.2155 52.3634 30.0953 52.0399 29.9791C51.7247 29.8547 51.3306 29.7925 50.8578 29.7925C50.3186 29.7925 49.8458 29.8837 49.4393 30.0662C49.0411 30.2487 48.7052 30.5059 48.4314 30.8377C48.1577 31.1695 47.9503 31.5635 47.8093 32.0198C47.6766 32.476 47.6102 32.982 47.6102 33.5378C47.6102 34.1102 47.6766 34.6286 47.8093 35.0931C47.9503 35.5494 48.1536 35.9393 48.419 36.2628C48.6844 36.5863 49.008 36.8351 49.3895 37.0093C49.7794 37.1835 50.2232 37.2706 50.7209 37.2706C51.2684 37.2706 51.7247 37.2209 52.0896 37.1213C52.4629 37.0135 52.745 36.9057 52.9358 36.7978L53.1722 37.5195C53.1141 37.561 53.0146 37.6108 52.8735 37.6688C52.7325 37.7186 52.5542 37.7725 52.3385 37.8306C52.1228 37.8886 51.874 37.9343 51.5919 37.9674C51.3099 38.0089 50.9947 38.0297 50.6463 38.0297ZM60.0777 29.2201V29.9542H57.3154V37.843H56.4692V29.9542H53.7069V29.2201H60.0777ZM64.1637 34.8194C64.3379 34.4295 64.5162 34.0065 64.6987 33.5502C64.8812 33.0857 65.0596 32.6087 65.2338 32.1193C65.408 31.6216 65.5697 31.128 65.719 30.6386C65.8767 30.1409 66.0135 29.6681 66.1297 29.2201H67.0255C66.8596 29.7925 66.6896 30.3358 66.5154 30.8501C66.3495 31.3561 66.1753 31.8497 65.9928 32.3308C65.8186 32.8037 65.6361 33.2723 65.4453 33.7369C65.2545 34.1931 65.0554 34.6535 64.848 35.118C64.7153 35.4167 64.5702 35.7319 64.4125 36.0637C64.2549 36.3955 64.06 36.7024 63.8277 36.9845C63.5955 37.2582 63.3093 37.4863 62.9692 37.6688C62.6374 37.843 62.2267 37.9301 61.7373 37.9301C61.5217 37.9301 61.3309 37.9052 61.165 37.8555C61.0073 37.814 60.8912 37.7725 60.8166 37.731L60.9783 37.0342C61.0364 37.0674 61.1318 37.1089 61.2645 37.1587C61.3972 37.2001 61.5714 37.2209 61.7871 37.2209C62.0691 37.2209 62.3138 37.1794 62.5212 37.0964C62.7369 37.0052 62.9194 36.8891 63.0687 36.748C63.2263 36.607 63.3632 36.4411 63.4793 36.2503C63.5955 36.0595 63.6992 35.8605 63.7904 35.6531C63.4088 35.0724 63.0521 34.4876 62.7203 33.8986C62.3968 33.3097 62.0982 32.7373 61.8244 32.1815C61.559 31.6257 61.3143 31.099 61.0903 30.6013C60.8746 30.0953 60.6838 29.6349 60.5179 29.2201H61.4636C61.7456 29.9833 62.1106 30.8543 62.5586 31.8331C63.0148 32.812 63.5498 33.8074 64.1637 34.8194ZM67.3236 37.843V40.1449H66.5148V37.1089H67.2863C67.7093 36.6858 68.037 36.184 68.2692 35.6033C68.5098 35.0226 68.6882 34.4005 68.8043 33.7369C68.9287 33.065 69.0034 32.3682 69.0283 31.6465C69.0531 30.9248 69.0656 30.2073 69.0656 29.4939V29.2201H73.545V37.1089H74.3538V40.1449H73.545V37.843H67.3236ZM69.8993 29.9542V30.0538C69.8993 30.6345 69.8827 31.2442 69.8495 31.8829C69.8246 32.5216 69.7582 33.1562 69.6504 33.7866C69.5509 34.4088 69.3932 35.006 69.1776 35.5784C68.9702 36.1508 68.684 36.6609 68.319 37.1089H72.6989V29.9542H69.8993ZM75.6312 37.843V29.2201H76.4649V36.2379C76.7221 35.7817 77.0497 35.2466 77.4479 34.6328C77.8544 34.0189 78.2899 33.3926 78.7544 32.7539C79.2189 32.1069 79.6918 31.4764 80.1729 30.8626C80.6623 30.2404 81.1185 29.6929 81.5416 29.2201H82.2135V37.843H81.3798V30.5764C81.131 30.8584 80.8572 31.1944 80.5586 31.5843C80.26 31.9741 79.9489 32.393 79.6254 32.841C79.3102 33.2806 78.9908 33.7369 78.6673 34.2097C78.3438 34.6742 78.0369 35.1305 77.7465 35.5784C77.4562 36.0181 77.1866 36.4328 76.9377 36.8227C76.6972 37.2126 76.4981 37.5527 76.3405 37.843H75.6312ZM88.7583 29.9667C88.6006 29.9501 88.4016 29.9335 88.161 29.9169C87.9287 29.892 87.655 29.8796 87.3398 29.8796C86.9997 29.8796 86.6679 29.9086 86.3443 29.9667C86.0291 30.0248 85.7471 30.1284 85.4982 30.2778C85.2494 30.4188 85.0503 30.6137 84.901 30.8626C84.7517 31.1031 84.677 31.4101 84.677 31.7833C84.677 32.1898 84.7475 32.5175 84.8885 32.7663C85.0378 33.0069 85.2411 33.1935 85.4982 33.3263C85.7554 33.4507 86.0623 33.5336 86.419 33.5751C86.784 33.6166 87.178 33.6373 87.6011 33.6373H88.7583V29.9667ZM89.6044 37.843H88.7583V34.359H87.3895C87.2651 34.359 87.1158 34.3549 86.9416 34.3466C86.7674 34.3383 86.6181 34.3258 86.4937 34.3092C86.3443 34.5083 86.1784 34.7447 85.9959 35.0185C85.8217 35.2922 85.6434 35.5867 85.4609 35.9019C85.2867 36.2089 85.1125 36.5282 84.9383 36.86C84.7724 37.1918 84.6148 37.5195 84.4655 37.843H83.5696C83.7023 37.5278 83.8641 37.1918 84.0549 36.8351C84.2456 36.4702 84.4406 36.1176 84.6397 35.7775C84.8388 35.4374 85.0254 35.1305 85.1996 34.8567C85.3821 34.5747 85.5273 34.3549 85.6351 34.1973C85.4775 34.1558 85.2908 34.0894 85.0752 33.9982C84.8678 33.9069 84.6687 33.7742 84.4779 33.6C84.2871 33.4175 84.1254 33.1852 83.9926 32.9032C83.8599 32.6212 83.7936 32.2603 83.7936 31.8207C83.7936 30.9497 84.1171 30.2861 84.7641 29.8298C85.4111 29.3736 86.3029 29.1455 87.4393 29.1455C87.7794 29.1455 88.1486 29.1662 88.5467 29.2077C88.9532 29.2409 89.3057 29.2989 89.6044 29.3819V37.843ZM94.0937 37.843V40.1449H93.2849V37.1089H94.0564C94.4794 36.6858 94.8071 36.184 95.0394 35.6033C95.2799 35.0226 95.4583 34.4005 95.5744 33.7369C95.6988 33.065 95.7735 32.3682 95.7984 31.6465C95.8233 30.9248 95.8357 30.2073 95.8357 29.4939V29.2201H100.315V37.1089H101.124V40.1449H100.315V37.843H94.0937ZM96.6694 29.9542V30.0538C96.6694 30.6345 96.6528 31.2442 96.6196 31.8829C96.5947 32.5216 96.5284 33.1562 96.4205 33.7866C96.321 34.4088 96.1634 35.006 95.9477 35.5784C95.7403 36.1508 95.4541 36.6609 95.0891 37.1089H99.469V29.9542H96.6694ZM102.401 37.843V29.2201H103.235V36.2379C103.492 35.7817 103.82 35.2466 104.218 34.6328C104.624 34.0189 105.06 33.3926 105.525 32.7539C105.989 32.1069 106.462 31.4764 106.943 30.8626C107.432 30.2404 107.889 29.6929 108.312 29.2201H108.984V37.843H108.15V30.5764C107.901 30.8584 107.627 31.1944 107.329 31.5843C107.03 31.9741 106.719 32.393 106.396 32.841C106.08 33.2806 105.761 33.7369 105.437 34.2097C105.114 34.6742 104.807 35.1305 104.517 35.5784C104.226 36.0181 103.957 36.4328 103.708 36.8227C103.467 37.2126 103.268 37.5527 103.111 37.843H102.401ZM112.816 29.7676C112.418 29.7676 112.044 29.8174 111.696 29.9169C111.348 30.0165 111.053 30.1492 110.813 30.3151L110.514 29.6058C110.73 29.4648 111.045 29.3363 111.46 29.2201C111.874 29.0957 112.331 29.0335 112.828 29.0335C113.251 29.0335 113.637 29.0791 113.985 29.1703C114.334 29.2533 114.632 29.386 114.881 29.5685C115.13 29.7427 115.325 29.9667 115.466 30.2404C115.607 30.5142 115.678 30.8377 115.678 31.211C115.678 31.4349 115.64 31.6506 115.566 31.858C115.491 32.0654 115.383 32.2562 115.242 32.4304C115.101 32.6046 114.923 32.758 114.707 32.8908C114.491 33.0152 114.243 33.1064 113.961 33.1645C114.234 33.2143 114.5 33.2972 114.757 33.4134C115.014 33.5295 115.238 33.683 115.429 33.8737C115.62 34.0562 115.773 34.2844 115.889 34.5581C116.005 34.8236 116.063 35.1346 116.063 35.4913C116.063 35.9559 115.98 36.3499 115.815 36.6734C115.649 36.9886 115.416 37.2499 115.118 37.4573C114.827 37.6564 114.475 37.8015 114.06 37.8928C113.654 37.984 113.206 38.0297 112.716 38.0297C112.401 38.0297 112.111 38.0089 111.845 37.9674C111.58 37.926 111.339 37.8762 111.124 37.8181C110.916 37.7518 110.738 37.6896 110.589 37.6315C110.439 37.5651 110.323 37.5071 110.24 37.4573L110.514 36.7232C110.597 36.7729 110.709 36.831 110.85 36.8974C110.991 36.9554 111.153 37.0176 111.335 37.084C111.526 37.1421 111.737 37.1918 111.97 37.2333C112.202 37.2748 112.455 37.2955 112.729 37.2955C113.085 37.2955 113.413 37.2665 113.712 37.2084C114.01 37.1421 114.268 37.0384 114.483 36.8974C114.699 36.748 114.865 36.5614 114.981 36.3374C115.105 36.1052 115.168 35.8231 115.168 35.4913C115.168 35.1097 115.093 34.7987 114.944 34.5581C114.794 34.3175 114.587 34.1309 114.321 33.9982C114.064 33.8572 113.757 33.7618 113.401 33.712C113.044 33.6539 112.662 33.6249 112.256 33.6249H111.684V32.9032H112.418C112.691 32.9032 112.969 32.8783 113.251 32.8285C113.533 32.7705 113.786 32.6792 114.01 32.5548C114.243 32.4304 114.429 32.2603 114.57 32.0446C114.72 31.829 114.794 31.5594 114.794 31.2359C114.794 30.8128 114.628 30.4644 114.297 30.1907C113.965 29.9086 113.471 29.7676 112.816 29.7676ZM123.426 37.843C123.268 37.42 123.119 37.0135 122.978 36.6236C122.837 36.2337 122.7 35.8522 122.567 35.4789H118.374C118.233 35.8522 118.092 36.2337 117.951 36.6236C117.81 37.0135 117.665 37.42 117.515 37.843H116.632C116.964 36.9471 117.275 36.1135 117.565 35.342C117.855 34.5623 118.137 33.8281 118.411 33.1396C118.693 32.4428 118.971 31.7751 119.245 31.1363C119.519 30.4976 119.809 29.8589 120.116 29.2201H120.862C121.169 29.8589 121.46 30.4976 121.733 31.1363C122.007 31.7751 122.281 32.4428 122.555 33.1396C122.837 33.8281 123.123 34.5623 123.413 35.342C123.704 36.1135 124.019 36.9471 124.359 37.843H123.426ZM120.464 30.1907C120.149 30.9041 119.842 31.6299 119.544 32.3682C119.253 33.1064 118.95 33.9028 118.635 34.7572H122.306C121.991 33.9028 121.684 33.1064 121.385 32.3682C121.086 31.6299 120.78 30.9041 120.464 30.1907ZM125.35 37.843V29.2201H126.183V36.2379C126.441 35.7817 126.768 35.2466 127.166 34.6328C127.573 34.0189 128.008 33.3926 128.473 32.7539C128.937 32.1069 129.41 31.4764 129.891 30.8626C130.381 30.2404 130.837 29.6929 131.26 29.2201H131.932V37.843H131.098V30.5764C130.849 30.8584 130.576 31.1944 130.277 31.5843C129.978 31.9741 129.667 32.393 129.344 32.841C129.029 33.2806 128.709 33.7369 128.386 34.2097C128.062 34.6742 127.755 35.1305 127.465 35.5784C127.175 36.0181 126.905 36.4328 126.656 36.8227C126.416 37.2126 126.217 37.5527 126.059 37.843H125.35ZM128.635 28.374C128.17 28.374 127.788 28.2454 127.49 27.9883C127.191 27.7311 127 27.3661 126.917 26.8933L127.577 26.7191C127.627 27.0011 127.735 27.2334 127.9 27.4159C128.075 27.5901 128.319 27.6772 128.635 27.6772C128.95 27.6772 129.19 27.5901 129.356 27.4159C129.53 27.2334 129.642 27.0011 129.692 26.7191L130.352 26.8933C130.269 27.3661 130.078 27.7311 129.779 27.9883C129.481 28.2454 129.099 28.374 128.635 28.374ZM139.447 29.2201H140.293V37.843H139.447V33.6995H134.769V37.843H133.923V29.2201H134.769V32.9654H139.447V29.2201ZM148.087 37.843C147.93 37.42 147.78 37.0135 147.639 36.6236C147.498 36.2337 147.362 35.8522 147.229 35.4789H143.036C142.895 35.8522 142.754 36.2337 142.612 36.6236C142.471 37.0135 142.326 37.42 142.177 37.843H141.294C141.625 36.9471 141.936 36.1135 142.227 35.342C142.517 34.5623 142.799 33.8281 143.073 33.1396C143.355 32.4428 143.633 31.7751 143.907 31.1363C144.18 30.4976 144.471 29.8589 144.778 29.2201H145.524C145.831 29.8589 146.121 30.4976 146.395 31.1363C146.669 31.7751 146.943 32.4428 147.216 33.1396C147.498 33.8281 147.785 34.5623 148.075 35.342C148.365 36.1135 148.68 36.9471 149.021 37.843H148.087ZM145.126 30.1907C144.811 30.9041 144.504 31.6299 144.205 32.3682C143.915 33.1064 143.612 33.9028 143.297 34.7572H146.967C146.652 33.9028 146.345 33.1064 146.047 32.3682C145.748 31.6299 145.441 30.9041 145.126 30.1907ZM155.344 34.8194C155.518 34.4295 155.696 34.0065 155.879 33.5502C156.061 33.0857 156.239 32.6087 156.414 32.1193C156.588 31.6216 156.75 31.128 156.899 30.6386C157.057 30.1409 157.193 29.6681 157.31 29.2201H158.205C158.04 29.7925 157.869 30.3358 157.695 30.8501C157.529 31.3561 157.355 31.8497 157.173 32.3308C156.998 32.8037 156.816 33.2723 156.625 33.7369C156.434 34.1931 156.235 34.6535 156.028 35.118C155.895 35.4167 155.75 35.7319 155.592 36.0637C155.435 36.3955 155.24 36.7024 155.008 36.9845C154.775 37.2582 154.489 37.4863 154.149 37.6688C153.817 37.843 153.407 37.9301 152.917 37.9301C152.702 37.9301 152.511 37.9052 152.345 37.8555C152.187 37.814 152.071 37.7725 151.996 37.731L152.158 37.0342C152.216 37.0674 152.312 37.1089 152.444 37.1587C152.577 37.2001 152.751 37.2209 152.967 37.2209C153.249 37.2209 153.494 37.1794 153.701 37.0964C153.917 37.0052 154.099 36.8891 154.249 36.748C154.406 36.607 154.543 36.4411 154.659 36.2503C154.775 36.0595 154.879 35.8605 154.97 35.6531C154.589 35.0724 154.232 34.4876 153.9 33.8986C153.577 33.3097 153.278 32.7373 153.004 32.1815C152.739 31.6257 152.494 31.099 152.27 30.6013C152.055 30.0953 151.864 29.6349 151.698 29.2201H152.643C152.926 29.9833 153.291 30.8543 153.738 31.8331C154.195 32.812 154.73 33.8074 155.344 34.8194ZM161.142 29.9542V30.2031C161.142 31.1156 161.108 31.9949 161.042 32.841C160.984 33.6871 160.839 34.4959 160.607 35.2673C160.499 35.624 160.362 35.96 160.196 36.2752C160.038 36.5904 159.843 36.8683 159.611 37.1089C159.379 37.3495 159.105 37.5444 158.79 37.6937C158.483 37.843 158.126 37.926 157.72 37.9426L157.633 37.2209C157.915 37.1877 158.164 37.1213 158.379 37.0218C158.603 36.914 158.798 36.7729 158.964 36.5987C159.138 36.4245 159.288 36.2172 159.412 35.9766C159.545 35.7277 159.665 35.4415 159.773 35.118C159.989 34.4461 160.13 33.6871 160.196 32.841C160.271 31.9949 160.308 31.0451 160.308 29.9916V29.2201H164.8V37.843H163.954V29.9542H161.142ZM173.929 29.2201H174.775V37.843H173.929V29.2201ZM168.939 33.1769C168.666 33.1769 168.413 33.1852 168.18 33.2018C167.956 33.2184 167.774 33.235 167.633 33.2516V37.0964C167.791 37.113 167.977 37.1338 168.193 37.1587C168.409 37.1753 168.662 37.1835 168.952 37.1835C169.309 37.1835 169.649 37.1545 169.972 37.0964C170.304 37.0384 170.59 36.9347 170.831 36.7854C171.08 36.6361 171.275 36.4328 171.416 36.1757C171.565 35.9102 171.64 35.5743 171.64 35.1678C171.64 34.7779 171.569 34.4544 171.428 34.1973C171.287 33.9401 171.096 33.7369 170.856 33.5876C170.615 33.4382 170.329 33.3346 169.997 33.2765C169.674 33.2101 169.321 33.1769 168.939 33.1769ZM168.89 32.4428C170.101 32.4428 171.009 32.6709 171.615 33.1272C172.22 33.5834 172.523 34.2636 172.523 35.1678C172.523 36.0388 172.229 36.7149 171.64 37.196C171.059 37.6771 170.151 37.9177 168.915 37.9177C168.591 37.9177 168.23 37.8969 167.832 37.8555C167.434 37.8223 167.085 37.7642 166.787 37.6813V29.2201H167.633V32.5175C167.699 32.5092 167.786 32.5009 167.894 32.4926C168.002 32.4843 168.114 32.476 168.23 32.4677C168.346 32.4594 168.462 32.4553 168.579 32.4553C168.695 32.447 168.798 32.4428 168.89 32.4428ZM177.615 33.2889V37.0964C177.773 37.113 177.96 37.1338 178.175 37.1587C178.399 37.1753 178.669 37.1835 178.984 37.1835C179.357 37.1835 179.714 37.1545 180.054 37.0964C180.394 37.0384 180.689 36.9347 180.938 36.7854C181.195 36.6361 181.398 36.437 181.547 36.1881C181.705 35.9393 181.784 35.624 181.784 35.2425C181.784 34.8443 181.709 34.5208 181.56 34.2719C181.419 34.0148 181.211 33.8157 180.938 33.6747C180.672 33.5253 180.349 33.4258 179.967 33.376C179.586 33.318 179.158 33.2889 178.686 33.2889H177.615ZM178.797 32.5672C179.411 32.5672 179.959 32.617 180.44 32.7166C180.921 32.8161 181.323 32.9737 181.647 33.1894C181.979 33.3968 182.232 33.6705 182.406 34.0106C182.58 34.3507 182.667 34.7572 182.667 35.23C182.667 36.1342 182.352 36.8103 181.722 37.2582C181.091 37.6979 180.166 37.9177 178.947 37.9177C178.598 37.9177 178.221 37.8969 177.815 37.8555C177.416 37.8223 177.068 37.7642 176.769 37.6813V29.2201H181.896V29.9542H177.615V32.5672H178.797ZM189.403 37.843C189.121 37.4117 188.801 36.9845 188.444 36.5614C188.096 36.1383 187.727 35.7402 187.337 35.3669C186.947 34.9936 186.549 34.6535 186.143 34.3466C185.744 34.0397 185.359 33.7825 184.985 33.5751V37.843H184.139V29.2201H184.985V33.2392C185.301 32.9571 185.649 32.6336 186.031 32.2686C186.42 31.8953 186.802 31.522 187.175 31.1488C187.557 30.7755 187.914 30.4188 188.245 30.0787C188.577 29.7386 188.843 29.4524 189.042 29.2201H190.062C189.822 29.4773 189.531 29.7842 189.191 30.1409C188.851 30.4893 188.49 30.8501 188.109 31.2234C187.727 31.5967 187.345 31.9658 186.964 32.3308C186.591 32.6875 186.255 33.0027 185.956 33.2765C186.196 33.4258 186.454 33.6124 186.727 33.8364C187.009 34.0521 187.291 34.2927 187.573 34.5581C187.864 34.8153 188.146 35.089 188.42 35.3793C188.702 35.6614 188.963 35.9476 189.204 36.2379C189.452 36.5282 189.672 36.8103 189.863 37.084C190.062 37.3577 190.224 37.6108 190.348 37.843H189.403ZM191.339 37.843V29.2201H192.173V36.2379C192.43 35.7817 192.758 35.2466 193.156 34.6328C193.562 34.0189 193.998 33.3926 194.462 32.7539C194.927 32.1069 195.4 31.4764 195.881 30.8626C196.37 30.2404 196.826 29.6929 197.249 29.2201H197.921V37.843H197.088V30.5764C196.839 30.8584 196.565 31.1944 196.266 31.5843C195.968 31.9741 195.657 32.393 195.333 32.841C195.018 33.2806 194.699 33.7369 194.375 34.2097C194.052 34.6742 193.745 35.1305 193.454 35.5784C193.164 36.0181 192.894 36.4328 192.646 36.8227C192.405 37.2126 192.206 37.5527 192.048 37.843H191.339Z" fill="black"/>
<path fill-rule="evenodd" clip-rule="evenodd" d="M19.1443 0.0168937C18.3965 0.0553688 17.5466 0.134556 17.221 0.196161C17.0857 0.221751 16.8542 0.260226 16.7066 0.281701C16.2149 0.353103 15.8575 0.422985 15.7857 0.461773C15.7466 0.482845 15.6004 0.514386 15.4608 0.531834C15.3212 0.549282 15.1972 0.579435 15.1852 0.598852C15.1732 0.618268 15.0628 0.648019 14.9398 0.664931C14.8169 0.681842 14.705 0.713919 14.6912 0.736244C14.6774 0.758523 14.6282 0.776777 14.5819 0.776777C14.5005 0.776777 13.6238 1.04874 13.4414 1.13057C13.3922 1.15262 13.2211 1.217 13.0612 1.2736C12.9013 1.33024 12.7202 1.40253 12.6587 1.4343C12.5971 1.46606 12.5128 1.49214 12.4712 1.49232C12.4296 1.49246 12.3841 1.51116 12.3701 1.53389C12.356 1.55661 12.2844 1.58842 12.2109 1.60457C12.1373 1.62072 12.0772 1.65083 12.0772 1.67155C12.0772 1.69226 12.0141 1.72304 11.937 1.74C11.8598 1.75691 11.7038 1.81668 11.5903 1.87278C11.4768 1.92893 11.2732 2.02878 11.1379 2.09473C10.6924 2.3118 10.272 2.54265 9.82849 2.81367C9.58802 2.9606 9.35154 3.10067 9.30292 3.12496C9.2543 3.14926 9.21454 3.18451 9.21454 3.20326C9.21454 3.22205 9.19361 3.23739 9.16802 3.23739C9.12812 3.23739 8.87934 3.39371 8.81198 3.46109C8.74757 3.52551 8.49673 3.68478 8.4597 3.68478C8.43612 3.68478 8.41018 3.70079 8.40195 3.72039C8.39377 3.73994 8.28642 3.83063 8.16341 3.92185C7.77481 4.2101 7.68025 4.28503 7.51722 4.43392C7.42982 4.51378 7.346 4.57923 7.33101 4.57932C7.30655 4.57955 7.21977 4.65372 6.84392 4.9957C6.78241 5.05167 6.60126 5.21497 6.44136 5.35862C6.28145 5.50223 6.07011 5.69439 5.97171 5.78556C5.78027 5.96304 5.06094 6.73706 4.87585 6.96473C4.81435 7.04043 4.73357 7.13389 4.69631 7.1725C4.6591 7.21111 4.57957 7.31289 4.51959 7.3987C4.45961 7.48446 4.39851 7.56472 4.38384 7.57702C4.33383 7.61899 3.77405 8.35937 3.63969 8.56127C3.56597 8.672 3.41143 8.89976 3.29621 9.0674C3.18099 9.23503 3.0867 9.37999 3.0867 9.38951C3.0867 9.39904 3.02632 9.49631 2.95252 9.60569C2.87872 9.71508 2.81833 9.82017 2.81833 9.83927C2.81833 9.85837 2.79042 9.9058 2.75634 9.94463C2.59862 10.1243 1.47647 12.3535 1.47647 12.4872C1.47647 12.5249 1.30404 12.9793 1.24759 13.0904C1.22586 13.1331 1.20796 13.1935 1.20783 13.2246C1.20765 13.2557 1.17938 13.3352 1.14494 13.4012C1.1105 13.4672 1.06783 13.5873 1.05007 13.6682C1.03231 13.749 1.00132 13.846 0.9811 13.8837C0.960927 13.9214 0.901214 14.1032 0.84839 14.2878C0.79561 14.4723 0.734376 14.6837 0.712414 14.7576C0.671756 14.8941 0.554388 15.4002 0.432278 15.9655C0.0591961 17.6927 -0.080581 19.6711 0.0450172 21.446C0.112066 22.3928 0.282929 23.6356 0.426374 24.2197C0.459608 24.3551 0.530324 24.6671 0.583506 24.9132C0.636689 25.1592 0.696849 25.4109 0.7172 25.4724C0.737507 25.5339 0.79731 25.7353 0.850089 25.9198C0.902869 26.1043 0.963566 26.2956 0.984947 26.3448C1.00637 26.394 1.07405 26.5853 1.13541 26.7698C1.35602 27.4334 1.38227 27.5014 1.60627 27.988C1.68249 28.1536 1.74484 28.303 1.74484 28.32C1.74484 28.3621 2.44771 29.7563 2.55345 29.9239C2.60001 29.9977 2.6565 30.0984 2.679 30.1476C2.7015 30.1968 2.76819 30.3075 2.82719 30.3936C2.88623 30.4798 2.94885 30.5804 2.96634 30.6173C2.98387 30.6542 3.03804 30.7448 3.0867 30.8187C3.13537 30.8925 3.19879 30.9982 3.2276 31.0535C3.25641 31.1089 3.29688 31.1542 3.31755 31.1542C3.33817 31.1542 3.35508 31.173 3.35508 31.196C3.35508 31.2736 4.31366 32.5822 4.76327 33.1184C5.33213 33.7969 6.69631 35.1307 7.35284 35.6504C7.4461 35.7242 7.58176 35.84 7.65436 35.9077C7.72691 35.9754 7.79731 36.0307 7.81077 36.0307C7.8441 36.0307 8.24911 36.3578 8.26777 36.3998C8.276 36.4182 8.30807 36.4333 8.33911 36.4333C8.37015 36.4333 8.43201 36.4736 8.47652 36.5228C8.52102 36.572 8.58454 36.6123 8.61763 36.6123C8.65073 36.6123 8.67779 36.63 8.67779 36.6516C8.67779 36.6732 8.73818 36.716 8.81198 36.7465C8.88578 36.7771 8.94617 36.8198 8.94617 36.8414C8.94617 36.8631 8.9671 36.8807 8.99268 36.8807C9.04564 36.8807 9.31862 37.0646 9.34126 37.1156C9.34949 37.134 9.37319 37.1492 9.39399 37.1492C9.43129 37.1492 9.97636 37.4598 10.0197 37.5057C10.039 37.5262 10.3866 37.7138 10.8471 37.9521C10.9209 37.9903 10.9915 38.0351 11.0041 38.0516C11.0167 38.0681 11.0821 38.0954 11.1495 38.1123C11.2169 38.1292 11.2721 38.161 11.2721 38.183C11.2721 38.2049 11.2931 38.2229 11.3188 38.2229C11.3446 38.2229 11.5106 38.2907 11.6879 38.3737C11.8651 38.4567 12.1158 38.562 12.2449 38.6079C12.374 38.6538 12.4797 38.7057 12.4797 38.7235C12.4797 38.7412 12.5504 38.769 12.6368 38.7852C12.7232 38.8013 12.8049 38.8325 12.8183 38.8543C12.8318 38.8761 12.8769 38.8946 12.9185 38.8955C12.9601 38.8963 13.0746 38.9359 13.173 38.9834C13.2714 39.031 13.386 39.0705 13.4276 39.0714C13.4692 39.0722 13.5143 39.0908 13.5277 39.1126C13.5412 39.1344 13.6254 39.166 13.7148 39.1827C13.8042 39.1995 13.9101 39.2309 13.9501 39.2526C14.0177 39.2891 14.342 39.3854 14.9398 39.5464C15.0751 39.5829 15.2462 39.6309 15.32 39.6532C15.3938 39.6754 15.575 39.7171 15.7226 39.7458C15.8702 39.7745 16.1318 39.8264 16.304 39.8612C16.4762 39.896 16.7782 39.9449 16.975 39.9697C17.1718 39.9946 17.4636 40.0355 17.6235 40.0606C17.7834 40.0857 18.4074 40.1325 19.0101 40.1644C19.8972 40.2113 20.3105 40.2117 21.1795 40.1665C21.7699 40.1357 22.4039 40.0886 22.5884 40.0619C22.7729 40.0351 23.0648 39.9931 23.237 39.9685C23.8558 39.8803 24.8058 39.6889 24.8511 39.6433C24.8695 39.6249 24.9292 39.6098 24.9837 39.6098C25.0383 39.6098 25.191 39.5776 25.3229 39.5383C26.2344 39.2669 26.6016 39.1514 26.6693 39.1149C26.712 39.0918 26.7724 39.0728 26.8035 39.0726C26.8346 39.0725 26.9103 39.0466 26.9718 39.015C27.0333 38.9834 27.1843 38.9206 27.3073 38.8754C27.4303 38.8302 27.5913 38.767 27.6651 38.735C27.7389 38.703 27.9805 38.6009 28.2019 38.5081C28.6328 38.3276 29.8505 37.7146 29.9239 37.6413C29.9362 37.629 30.057 37.5599 30.1923 37.4879C30.3276 37.4158 30.6033 37.2497 30.805 37.1188C31.0066 36.9879 31.1928 36.8807 31.2187 36.8807C31.2446 36.8807 31.2658 36.8638 31.2658 36.8432C31.2658 36.8225 31.3169 36.7823 31.3793 36.7539C31.4417 36.7254 31.5172 36.6816 31.5471 36.6566C31.5768 36.6316 31.8142 36.4532 32.0745 36.2602C32.5317 35.921 32.7234 35.7693 32.873 35.628C32.9121 35.5911 32.999 35.518 33.066 35.4655C33.4168 35.191 34.9336 33.742 34.9336 33.6814C34.9336 33.6707 35.0191 33.5757 35.1237 33.4704C35.2282 33.3651 35.4243 33.138 35.5594 32.9659C35.6944 32.7938 35.8507 32.6026 35.9065 32.5411C35.9624 32.4796 36.0192 32.394 36.0329 32.351C36.0466 32.3079 36.0735 32.2727 36.0927 32.2727C36.1228 32.2727 36.5184 31.7245 36.7227 31.3997C36.861 31.1798 37.0593 30.9076 37.0917 30.8932C37.1102 30.885 37.1253 30.8595 37.1253 30.8364C37.1253 30.8134 37.1802 30.7094 37.2474 30.6053C37.4063 30.3589 37.4379 30.3057 37.5784 30.0492C37.643 29.9311 37.737 29.764 37.7871 29.6778C37.8774 29.5225 38.2858 28.7053 38.402 28.4475C38.4352 28.3737 38.5159 28.1943 38.5813 28.0489C38.6467 27.9035 38.749 27.6518 38.8086 27.4896C38.8682 27.3275 38.9352 27.1546 38.9574 27.1054C39.0134 26.9813 39.2443 26.279 39.3619 25.8751C39.4156 25.6905 39.4776 25.4791 39.4995 25.4053C39.5216 25.3315 39.5805 25.0899 39.6306 24.8684C39.6807 24.647 39.7493 24.345 39.783 24.1974C39.9659 23.398 40.1089 22.2614 40.1731 21.0992C40.2632 19.4657 40.1253 17.6622 39.7857 16.0326C39.6823 15.5367 39.5339 14.8971 39.495 14.7799C39.4745 14.7184 39.4143 14.5171 39.3611 14.3325C39.2623 13.9898 39.1569 13.6648 39.0927 13.5049C39.0729 13.4557 38.983 13.204 38.8929 12.9456C38.8029 12.6873 38.7016 12.4155 38.6679 12.3417C38.132 11.1666 37.7644 10.4485 37.3624 9.79158C37.3323 9.74237 37.2932 9.6719 37.2755 9.63499C37.2578 9.59809 37.0325 9.25584 36.7748 8.87444C36.3746 8.28224 36.1929 8.03184 35.94 7.72404C35.8554 7.62109 35.8016 7.55412 35.6246 7.33096C35.527 7.20793 35.4033 7.05694 35.3496 6.99542C35.2959 6.93391 35.2156 6.84112 35.1711 6.78923C34.9412 6.52142 34.4056 5.94295 34.3108 5.85996C34.2511 5.8078 34.0699 5.64168 33.9082 5.49083C33.7464 5.33997 33.5352 5.14871 33.4388 5.06581C33.3424 4.98291 33.2315 4.88489 33.1923 4.84798C33.1531 4.81107 33.021 4.70034 32.8989 4.60192C32.6522 4.4031 32.4461 4.22822 32.3586 4.14335C32.3269 4.11257 32.2913 4.08742 32.2794 4.08742C32.2598 4.08742 31.5391 3.56676 31.413 3.46149C31.3833 3.43666 31.3473 3.41635 31.333 3.41635C31.2952 3.41635 31.0225 3.22111 31.0049 3.18147C30.9967 3.16304 30.9707 3.14792 30.9472 3.14792C30.9237 3.14792 30.7998 3.07745 30.672 2.99133C30.5441 2.90521 30.4141 2.83475 30.383 2.83475C30.3519 2.83475 30.3265 2.81461 30.3265 2.79001C30.3265 2.7654 30.3044 2.74527 30.2775 2.74527C30.2505 2.74527 30.1706 2.70407 30.0999 2.65373C29.9178 2.52399 28.5429 1.82916 28.3325 1.76053C28.2361 1.72908 28.1471 1.68984 28.1348 1.67343C28.1225 1.65696 27.9816 1.59621 27.8217 1.5384C27.6618 1.4806 27.5108 1.41971 27.4862 1.40312C27.4616 1.38652 27.3107 1.32746 27.1508 1.27181C26.9909 1.2162 26.8198 1.15289 26.7706 1.13111C26.612 1.06096 25.7101 0.776777 25.646 0.776777C25.612 0.776777 25.5491 0.75745 25.5064 0.733828C25.4636 0.710251 25.3281 0.668465 25.2051 0.64104C24.6154 0.509464 24.4845 0.477968 24.4223 0.452736C24.3854 0.437749 24.2244 0.401913 24.0645 0.373101C23.3441 0.243181 22.9709 0.189316 22.3871 0.130932C22.0427 0.0964834 21.6804 0.0573373 21.582 0.0439157C21.2694 0.00127995 19.7707 -0.0153628 19.1443 0.0168937ZM18.697 1.11809C18.697 1.13357 18.5878 1.2493 18.4544 1.37533C17.5662 2.21409 16.8264 2.92154 16.4139 3.32687C16.151 3.58523 15.6771 4.03821 15.3609 4.33349C15.0447 4.62876 14.6569 4.99767 14.4992 5.15327C14.3416 5.30887 14.1658 5.45401 14.1086 5.47575C14.0514 5.49749 13.1331 5.53646 12.068 5.56232C11.0029 5.58822 9.58937 5.62898 8.92675 5.65291C8.26414 5.67689 7.71116 5.68557 7.69783 5.67224C7.66849 5.64294 8.03777 5.29536 8.09824 5.29536C8.12182 5.29536 8.14105 5.27975 8.14105 5.26065C8.14105 5.2266 8.5814 4.88856 8.91231 4.66849C9.0044 4.60729 9.07986 4.54206 9.08004 4.52362C9.08022 4.50519 9.10741 4.49007 9.14051 4.49007C9.17361 4.49007 9.23713 4.44981 9.28163 4.40059C9.32614 4.35138 9.388 4.31112 9.41904 4.31112C9.45008 4.31112 9.48215 4.29599 9.49038 4.27756C9.51301 4.22661 9.78599 4.04269 9.83895 4.04269C9.86454 4.04269 9.88547 4.02734 9.88547 4.00855C9.88547 3.9898 9.92523 3.95455 9.97386 3.93026C10.0225 3.90596 10.2524 3.77032 10.4848 3.62885C10.7172 3.48735 10.9273 3.37161 10.9518 3.37161C10.9762 3.37161 11.0029 3.35649 11.0112 3.33805C11.0305 3.29457 11.9568 2.83475 12.0251 2.83475C12.0537 2.83475 12.0772 2.81461 12.0772 2.79001C12.0772 2.7654 12.0991 2.74527 12.1258 2.74527C12.1526 2.74527 12.2987 2.68778 12.4505 2.6175C12.6023 2.54721 12.7767 2.47536 12.838 2.45782C12.8992 2.44029 13.0098 2.39899 13.0836 2.36602C13.256 2.28903 13.6859 2.12761 14.09 1.98807C14.332 1.9045 14.6734 1.80612 14.8951 1.75597C15.0058 1.73096 15.1266 1.69803 15.1635 1.68282C15.2279 1.65629 15.3448 1.62788 16.0357 1.47098C16.5451 1.35529 17.0748 1.26608 17.6397 1.20085C17.9315 1.16716 18.1815 1.12842 18.1951 1.11478C18.2295 1.08033 18.697 1.08341 18.697 1.11809ZM22.1385 1.13433C22.2752 1.15871 22.5482 1.19857 22.745 1.22286C23.3607 1.29887 23.977 1.41703 24.7242 1.60225C25.6482 1.83131 25.7898 1.87282 26.4127 2.09795C26.6587 2.18684 26.9003 2.27135 26.9495 2.28572C26.9987 2.30003 27.0787 2.33887 27.1272 2.37193C27.1757 2.40503 27.2422 2.4321 27.275 2.4321C27.3288 2.4321 27.4755 2.49107 27.8955 2.68138C27.9731 2.71655 28.0586 2.74527 28.0856 2.74527C28.1127 2.74527 28.1348 2.7654 28.1348 2.79001C28.1348 2.81461 28.1581 2.83475 28.1866 2.83475C28.2431 2.83475 28.9036 3.15306 28.9399 3.1978C28.9522 3.21292 29.0126 3.24084 29.0741 3.25976C29.1356 3.27869 29.196 3.30826 29.2083 3.32548C29.2206 3.34266 29.3715 3.43312 29.5437 3.52649C29.716 3.61986 29.9363 3.75408 30.0334 3.82476C30.1305 3.89541 30.2345 3.95321 30.2645 3.95321C30.2945 3.95321 30.3257 3.96833 30.334 3.98676C30.3557 4.03575 30.6286 4.22164 30.6788 4.22164C30.7024 4.22164 30.7283 4.23676 30.7365 4.25519C30.7583 4.30418 31.0312 4.49007 31.0813 4.49007C31.1049 4.49007 31.1309 4.50698 31.1391 4.5277C31.1473 4.54836 31.3603 4.71246 31.6124 4.89236C31.8646 5.07225 32.0709 5.23653 32.0709 5.25738C32.0709 5.27827 32.0905 5.29536 32.1143 5.29536C32.1382 5.29536 32.2539 5.38766 32.3715 5.50044L32.5853 5.70552L31.4671 5.67998C30.8521 5.66593 29.4171 5.63019 28.2783 5.60061L26.2077 5.54679L26.0623 5.40989C25.6844 5.05391 24.8262 4.25076 24.6459 4.08447C24.5352 3.98233 24.1347 3.60398 23.7558 3.2437C22.7862 2.32178 22.6256 2.17011 22.3565 1.92253C21.8659 1.47103 21.5149 1.13298 21.5149 1.11182C21.5149 1.0746 21.877 1.08766 22.1385 1.13433ZM21.4031 2.43935C21.5261 2.55442 21.7173 2.73283 21.828 2.83578C21.9387 2.93876 22.3312 3.31032 22.7003 3.66151C23.0693 4.01271 23.4851 4.4082 23.6244 4.54045C23.9234 4.82431 24.7903 5.63426 24.9797 5.80659C25.0885 5.90564 25.1005 5.93445 25.0468 5.96845C25.0108 5.99118 24.9563 6.0101 24.9255 6.01051C24.8948 6.01087 24.8696 6.0297 24.8696 6.05238C24.8696 6.07502 24.8092 6.10683 24.7354 6.12302C24.6616 6.13922 24.6012 6.16942 24.6012 6.19013C24.6012 6.21085 24.5408 6.24104 24.467 6.25724C24.3932 6.27344 24.3328 6.30363 24.3328 6.32435C24.3328 6.34506 24.2725 6.37526 24.1987 6.39146C24.1249 6.40765 24.0645 6.43785 24.0645 6.45856C24.0645 6.47928 24.0041 6.50948 23.9303 6.52567C23.8565 6.54187 23.7961 6.57206 23.7961 6.59278C23.7961 6.61349 23.7357 6.64369 23.6619 6.65989C23.5881 6.67608 23.5277 6.70628 23.5277 6.72699C23.5277 6.74771 23.4673 6.77791 23.3935 6.7941C23.3197 6.8103 23.2594 6.83991 23.2594 6.85991C23.2594 6.87991 23.2042 6.91011 23.1368 6.92702C23.0694 6.94393 23.004 6.97127 22.9914 6.98777C22.9789 7.00428 22.8982 7.05215 22.8121 7.09412C22.726 7.13613 22.084 7.45359 21.3855 7.79964L20.1155 8.4288L19.9318 8.3344C19.8308 8.28251 19.6375 8.18176 19.5021 8.11058C19.3668 8.0394 19.2327 7.98083 19.2039 7.98043C19.1753 7.98003 19.1451 7.96455 19.1368 7.94612C19.1287 7.92769 18.9614 7.83203 18.7651 7.73361C18.5688 7.63518 18.2568 7.4722 18.0718 7.37141C17.8868 7.27061 17.5039 7.06692 17.221 6.91874C16.9381 6.77057 16.5657 6.573 16.3935 6.47972C16.2213 6.3864 15.9093 6.22145 15.7002 6.11309C15.4911 6.00474 15.3051 5.90148 15.2869 5.88354C15.2687 5.86564 15.4886 5.63036 15.7757 5.36068C16.4037 4.77067 16.425 4.75027 17.3869 3.81899C17.8063 3.41299 18.4689 2.77882 18.8593 2.40973C19.2497 2.04064 19.6889 1.62502 19.8352 1.48615L20.1012 1.23369L20.6404 1.73194C20.9369 2.00597 21.2801 2.32428 21.4031 2.43935ZM13.5766 6.71581C13.5593 6.8081 13.5292 6.90371 13.5097 6.92832C13.4901 6.95292 13.4594 7.04352 13.4414 7.12964C13.4234 7.21576 13.3932 7.30636 13.3743 7.33096C13.3554 7.35557 13.3248 7.44608 13.3064 7.53211C13.288 7.61814 13.248 7.749 13.2176 7.82291C13.1477 7.99287 13.0645 8.23164 13.0148 8.40469C12.9937 8.47851 12.7526 9.1932 12.4791 9.9929C12.2056 10.7926 11.965 11.5129 11.9445 11.5936C11.9239 11.6742 11.885 11.7669 11.8579 11.7995C11.8124 11.8544 11.5034 11.9604 10.713 12.1925C10.5407 12.243 10.369 12.2998 10.3313 12.3185C10.2936 12.3373 10.1929 12.3676 10.1076 12.3859C10.0223 12.4042 9.93244 12.4343 9.90783 12.4528C9.88323 12.4714 9.78514 12.5007 9.68987 12.5179C9.5946 12.535 9.4839 12.5664 9.44386 12.5876C9.40383 12.6087 9.27045 12.6552 9.14745 12.691C8.61195 12.8465 7.84436 13.0896 7.77754 13.1249C7.73751 13.1459 7.6268 13.1773 7.53153 13.1945C7.43626 13.2117 7.33817 13.2409 7.31357 13.2595C7.28897 13.278 7.19839 13.3079 7.11229 13.3259C7.02619 13.3439 6.93561 13.3737 6.91101 13.392C6.88641 13.4104 6.81091 13.4387 6.74328 13.4548L6.62027 13.4842L6.62126 12.7564C6.62184 12.356 6.65163 11.1225 6.6875 10.0153C6.72337 8.90799 6.75312 7.72784 6.75356 7.3927L6.75446 6.78336L6.96692 6.75621C7.0838 6.74127 8.30467 6.69863 9.67999 6.66141C11.0554 6.62418 12.1909 6.58343 12.2034 6.5709C12.216 6.55833 12.5371 6.54804 12.9171 6.54804H13.6079L13.5766 6.71581ZM30.3265 6.68418C31.5934 6.70977 32.8162 6.74274 33.0438 6.75742L33.4575 6.78412V7.28824C33.4575 7.56553 33.4864 8.51398 33.5218 9.39596C33.5572 10.2779 33.5982 11.5884 33.613 12.3081C33.642 13.7222 33.6489 13.681 33.4046 13.5535C33.3386 13.5191 33.2179 13.4766 33.1362 13.4592C33.0546 13.4417 32.9677 13.412 32.9431 13.393C32.9185 13.3741 32.8286 13.3437 32.7433 13.3254C32.658 13.3071 32.5574 13.2754 32.5197 13.2549C32.482 13.2344 31.8674 13.0253 31.154 12.7901C30.4406 12.555 29.826 12.3453 29.7883 12.3243C29.7506 12.3032 29.6499 12.271 29.5646 12.2527C29.4793 12.2344 29.3894 12.2049 29.3648 12.187C29.3402 12.1691 29.1691 12.1091 28.9846 12.0536C28.3482 11.8622 28.3239 11.8457 28.2672 11.5691C28.2484 11.4773 28.2081 11.3317 28.1775 11.2456C28.0405 10.8584 28.0081 10.7609 27.94 10.5298C27.9002 10.3944 27.8067 10.0924 27.7322 9.85869C27.6578 9.62493 27.5642 9.32294 27.5244 9.18761C27.4846 9.05228 27.4265 8.87109 27.3954 8.78496C27.3642 8.69884 27.2738 8.41699 27.1945 8.15862C27.1152 7.90026 27.0239 7.60834 26.9917 7.50992C26.8779 7.16181 26.7482 6.71129 26.7482 6.66355C26.7481 6.61058 26.658 6.61005 30.3265 6.68418ZM15.2897 7.07193C15.6016 7.23701 15.9775 7.43333 16.1251 7.50813C16.2727 7.58293 16.4036 7.6542 16.4159 7.6665C16.437 7.68762 16.6141 7.77947 17.9143 8.44365C18.2095 8.59447 18.4654 8.73799 18.483 8.76259C18.5029 8.79033 18.3755 8.82787 18.1475 8.86138C17.9455 8.89113 17.6593 8.9454 17.5117 8.98199C17.3641 9.01859 17.1427 9.0721 17.0197 9.10086C16.8967 9.12967 16.7759 9.16922 16.7513 9.18877C16.7267 9.20832 16.6309 9.23848 16.5384 9.25579C16.4458 9.27306 16.3591 9.30509 16.3456 9.32688C16.3322 9.34871 16.291 9.36656 16.2542 9.36656C16.2174 9.36656 16.1029 9.40459 15.9997 9.45112C15.8965 9.4976 15.7063 9.57281 15.5772 9.61822C15.4481 9.66358 15.3424 9.71454 15.3424 9.73141C15.3424 9.74827 15.282 9.77538 15.2082 9.79158C15.1344 9.80777 15.074 9.83797 15.074 9.85869C15.074 9.8794 15.0136 9.9096 14.9398 9.92579C14.866 9.94199 14.8056 9.9738 14.8056 9.99644C14.8056 10.0191 14.7833 10.0376 14.7559 10.0376C14.6988 10.0376 14.0609 10.4175 13.665 10.6872C13.2434 10.9746 13.2681 10.9688 13.305 10.7711C13.3229 10.6753 13.3536 10.5767 13.3731 10.5521C13.3927 10.5275 13.4234 10.4369 13.4414 10.3508C13.4594 10.2647 13.4896 10.1741 13.5085 10.1495C13.5274 10.1249 13.5576 10.0343 13.5756 9.94816C13.5936 9.86204 13.6238 9.77145 13.6427 9.74684C13.6616 9.72223 13.692 9.63231 13.7103 9.54699C13.7286 9.46168 13.7595 9.36102 13.779 9.3233C13.7985 9.28559 13.8582 9.12386 13.9118 8.96392C13.9654 8.80398 14.027 8.63285 14.0488 8.58364C14.0706 8.53443 14.1071 8.41363 14.13 8.31521C14.1754 8.11939 14.247 7.90366 14.3418 7.67617C14.3755 7.59537 14.4031 7.50204 14.4031 7.46876C14.4031 7.43552 14.4331 7.35065 14.4699 7.28014C14.5066 7.20968 14.5368 7.12078 14.537 7.08262C14.5373 6.98791 14.6406 6.77249 14.6858 6.77209C14.706 6.77191 14.9777 6.9068 15.2897 7.07193ZM25.8309 7.20793C25.8966 7.42326 25.9773 7.67992 26.0104 7.77835C26.0434 7.87677 26.0846 8.02709 26.1019 8.11241C26.1192 8.19773 26.1495 8.29839 26.1691 8.3361C26.1887 8.37382 26.2788 8.64627 26.3693 8.94155C26.4597 9.23682 26.5798 9.61934 26.6361 9.79158C26.8881 10.5631 26.9913 10.9771 26.9317 10.9771C26.9087 10.9771 26.8831 10.9593 26.8749 10.9374C26.8568 10.8891 25.851 10.2297 25.6049 10.1047C25.508 10.0555 25.4184 10.0018 25.4059 9.98525C25.3933 9.96874 25.3279 9.94141 25.2605 9.9245C25.1931 9.90759 25.138 9.87578 25.138 9.85386C25.138 9.83189 25.116 9.81395 25.0893 9.81395C25.0625 9.81395 24.9102 9.75355 24.7507 9.67973C24.5912 9.60592 24.4501 9.54552 24.4371 9.54552C24.4241 9.54552 24.35 9.51604 24.2725 9.48002C24.195 9.44401 23.9504 9.35565 23.729 9.28366C22.9125 9.01823 22.6839 8.96038 22.0517 8.85918C21.8044 8.81964 21.7338 8.794 21.7833 8.7617C21.8802 8.69835 25.6467 6.82112 25.6819 6.81862C25.6982 6.81741 25.7652 6.99265 25.8309 7.20793ZM5.63946 10.8206C5.61298 11.731 5.57876 12.8206 5.56333 13.2418L5.53533 14.0077L5.3286 14.2319C5.2149 14.3552 4.85013 14.7434 4.51802 15.0947C3.763 15.8931 3.34036 16.3447 3.05951 16.6533C2.93914 16.7855 2.64948 17.0912 2.41577 17.3328C2.18207 17.5743 1.79964 17.974 1.56593 18.2211C1.33222 18.4681 1.12311 18.6706 1.10124 18.6712C1.07906 18.6717 1.07534 18.5682 1.09283 18.4373C1.1101 18.3081 1.15214 17.981 1.18632 17.7103C1.32605 16.6023 1.49924 15.7194 1.72601 14.9589C1.7664 14.8235 1.82629 14.617 1.85912 14.5C1.892 14.383 1.9327 14.2648 1.94957 14.2375C1.96647 14.2101 1.99617 14.1247 2.01559 14.0476C2.035 13.9706 2.11542 13.7364 2.19423 13.5272C2.27309 13.3181 2.36648 13.0676 2.40177 12.9707C2.53422 12.6068 3.1296 11.3666 3.36867 10.9565C3.43988 10.8344 3.56942 10.6029 3.65655 10.442C3.74372 10.2811 3.84235 10.1177 3.87576 10.0788C3.90922 10.04 3.93655 9.98463 3.93655 9.95581C3.93655 9.927 3.95534 9.90343 3.97828 9.90343C4.00123 9.90343 4.03388 9.85967 4.05083 9.80621C4.06778 9.75275 4.09972 9.68729 4.12177 9.66081C4.30301 9.44298 4.33911 9.39265 4.33911 9.35784C4.33911 9.33596 4.35977 9.29373 4.385 9.26402C4.41027 9.23432 4.59643 8.98696 4.79874 8.71437C5.00105 8.44173 5.19678 8.18762 5.23368 8.14959C5.27058 8.11156 5.38129 7.98468 5.47969 7.86765L5.65861 7.65483L5.67305 8.41006C5.68102 8.82541 5.6659 9.91014 5.63946 10.8206ZM34.912 8.07631C34.9616 8.13388 35.0622 8.26152 35.1356 8.35995C35.209 8.45837 35.2841 8.54561 35.3026 8.5538C35.321 8.56203 35.3361 8.59724 35.3361 8.63209C35.3361 8.66699 35.3538 8.69549 35.3754 8.69549C35.397 8.69549 35.5324 8.87167 35.6763 9.08695C35.8202 9.30227 35.9535 9.48512 35.9725 9.49331C35.9915 9.50154 36.007 9.52525 36.007 9.5461C36.007 9.5669 36.0876 9.70528 36.1861 9.85363C36.3765 10.1403 36.5946 10.51 36.7038 10.7311C36.7402 10.8049 36.8125 10.9358 36.8644 11.0219C37.1598 11.5121 37.6412 12.5549 38.0002 13.4825C38.0728 13.6701 38.4448 14.8447 38.5315 15.1602C38.5653 15.2832 38.625 15.4964 38.6642 15.6339C38.7034 15.7714 38.7355 15.9345 38.7355 15.9963C38.7355 16.0581 38.7553 16.1671 38.7796 16.2384C38.8364 16.4059 38.949 17.1181 39.0264 17.7998C39.0599 18.095 39.1013 18.4222 39.1184 18.5268C39.1573 18.7649 39.1044 18.7706 38.9125 18.5491C38.8326 18.4569 38.4532 18.0575 38.0693 17.6618C37.4851 17.0595 36.2781 15.7962 35.761 15.2458C35.6872 15.1672 35.4269 14.8987 35.1825 14.649C34.654 14.1091 34.6738 14.1779 34.6676 12.8562C34.6654 12.3763 34.6342 11.3194 34.5983 10.5074C34.5624 9.69539 34.5325 8.71897 34.532 8.33758L34.5311 7.64413L34.6764 7.80788C34.7563 7.89793 34.8623 8.01873 34.912 8.07631ZM21.4478 9.8122C21.8846 9.87336 22.287 9.94476 22.4542 9.9908C23.177 10.1897 23.5528 10.3071 23.8185 10.4174C23.8923 10.448 24.0223 10.5009 24.1074 10.535C24.3668 10.6387 25.616 11.2765 25.6747 11.3351C25.7423 11.4026 25.9909 11.5587 26.0308 11.5587C26.0563 11.5587 26.0773 11.5747 26.0773 11.5943C26.0773 11.6138 26.253 11.7598 26.4677 11.9186C26.8133 12.1744 27.6889 13.0026 28.003 13.371C28.205 13.6079 28.6455 14.2117 28.8515 14.5339C29.1452 14.9935 29.1392 14.9826 29.4101 15.5405C29.5475 15.8234 29.6791 16.0899 29.7025 16.1326C29.7259 16.1754 29.745 16.2327 29.745 16.2601C29.745 16.2875 29.7728 16.3733 29.8067 16.4509C30.0223 16.9441 30.2255 17.7621 30.3732 18.7321C30.5296 19.7593 30.4824 21.1501 30.256 22.1841C30.1154 22.8264 29.8877 23.6309 29.8261 23.703C29.8061 23.7264 29.7891 23.7767 29.7882 23.8149C29.7874 23.853 29.7478 23.9647 29.7003 24.0632C29.6527 24.1616 29.6132 24.2673 29.6124 24.298C29.6115 24.3288 29.5907 24.354 29.5661 24.354C29.5415 24.354 29.5214 24.3761 29.5214 24.4031C29.5214 24.4604 29.1963 25.1199 29.0715 25.3158C29.0244 25.3896 28.9656 25.4903 28.9407 25.5395C28.8657 25.6875 28.8007 25.7812 28.3827 26.3431C27.8916 27.0033 27.1454 27.7624 26.4899 28.2686C26.458 28.2932 26.405 28.3374 26.372 28.3669C26.2573 28.4693 25.2486 29.1229 25.0709 29.2099C24.9725 29.2581 24.8817 29.3111 24.8691 29.3276C24.8566 29.3441 24.7912 29.3714 24.7238 29.3883C24.6564 29.4052 24.6012 29.437 24.6012 29.459C24.6012 29.4809 24.5791 29.4989 24.5521 29.4989C24.525 29.4989 24.4395 29.5276 24.362 29.5628C23.9657 29.7423 23.7971 29.812 23.7589 29.812C23.7358 29.812 23.6592 29.8421 23.5887 29.8789C23.5183 29.9156 23.4266 29.9458 23.385 29.946C23.3434 29.9461 23.298 29.9647 23.2841 29.9871C23.2702 30.0096 23.1734 30.042 23.069 30.0593C22.9646 30.0765 22.859 30.1059 22.8344 30.1246C22.8098 30.1433 22.6915 30.1729 22.5714 30.1903C22.4514 30.2077 22.3105 30.2399 22.2583 30.2619C22.0746 30.3394 20.676 30.4831 20.106 30.4831C19.5394 30.4831 18.1565 30.3406 17.9366 30.2596C17.8751 30.2369 17.7443 30.2052 17.6459 30.1891C17.3904 30.1475 16.7877 29.9632 16.483 29.8335C16.4092 29.8021 16.2431 29.7395 16.1139 29.6943C15.9848 29.6491 15.8791 29.5967 15.8791 29.5778C15.8791 29.559 15.8558 29.5436 15.8273 29.5436C15.7591 29.5436 15.1007 29.2178 15.0815 29.1745C15.0732 29.156 15.0428 29.141 15.0138 29.141C14.9847 29.141 14.8564 29.0705 14.7285 28.9844C14.6007 28.8983 14.4768 28.8278 14.4533 28.8278C14.4298 28.8278 14.4038 28.8127 14.3956 28.7942C14.3874 28.7758 14.3002 28.7061 14.2018 28.6393C13.5344 28.1866 12.4482 27.1691 11.9911 26.5685C11.8601 26.3963 11.7352 26.2486 11.7137 26.2404C11.6922 26.2322 11.6746 26.2049 11.6746 26.1798C11.6746 26.1546 11.6178 26.0606 11.5483 25.971C11.2069 25.5305 10.5891 24.3333 10.3561 23.6605C10.3134 23.5375 10.2615 23.3965 10.2407 23.3473C10.1487 23.1298 9.91088 22.068 9.8195 21.4664C9.72802 20.8637 9.72767 19.3477 9.81887 18.7412C9.91365 18.1113 10.1752 16.9582 10.2456 16.8603C10.2632 16.8357 10.2926 16.7457 10.3109 16.6604C10.3292 16.5751 10.3607 16.4744 10.381 16.4367C10.4013 16.399 10.4476 16.2977 10.4839 16.2115C10.7279 15.6329 10.8405 15.3931 11.0197 15.0707C11.2152 14.7189 11.2949 14.5806 11.3286 14.5352C11.3474 14.5098 11.5268 14.2677 11.7273 13.997C12.1872 13.3761 12.2161 13.3431 12.8403 12.7219C13.3965 12.1685 13.6285 11.9614 13.692 11.9614C13.7141 11.9614 13.7322 11.9463 13.7322 11.9278C13.7323 11.9094 13.8229 11.8371 13.9335 11.7671C14.0442 11.6972 14.1347 11.6217 14.1347 11.5994C14.1347 11.577 14.1556 11.5587 14.1812 11.5587C14.2211 11.5587 14.4697 11.4026 14.5373 11.3351C14.5496 11.3228 14.6301 11.275 14.7162 11.2289C14.8023 11.1829 15.0237 11.0614 15.2082 10.959C15.3927 10.8566 15.7248 10.6965 15.9462 10.6033C16.1676 10.51 16.4092 10.4083 16.483 10.3772C16.5568 10.3462 16.7379 10.2844 16.8855 10.24C17.0331 10.1957 17.1941 10.1432 17.2433 10.1234C17.3375 10.0857 17.5884 10.0264 18.0708 9.92785C18.2307 9.89519 18.4219 9.85511 18.4958 9.83882C18.9698 9.73418 20.7744 9.7179 21.4478 9.8122ZM19.9187 10.7065C19.8403 10.7543 19.7548 10.8334 19.7287 10.8823C19.696 10.9432 19.6811 12.2065 19.6811 14.8904C19.6811 18.6475 19.6778 18.8078 19.6007 18.7665C19.5565 18.7429 18.7341 17.9368 17.773 16.9754L16.0256 15.2273L15.7847 15.2288C15.6215 15.2298 15.5131 15.2558 15.4491 15.3093C15.3203 15.417 15.2324 15.6765 15.2717 15.8331C15.2934 15.9194 15.877 16.5339 17.0898 17.7473C18.0722 18.7302 18.8759 19.5412 18.8759 19.5494C18.8759 19.5576 17.5881 19.57 16.0142 19.5769L13.1523 19.5893L13.0061 19.7356C12.8793 19.8625 12.8599 19.912 12.8599 20.1098C12.8599 20.3193 12.8741 20.3499 13.0351 20.4892L13.2103 20.6407L16.0543 20.6409L18.8983 20.6411L17.6971 21.8332C17.0364 22.4888 16.4578 23.0876 16.4113 23.1639C16.3023 23.3426 16.304 23.5337 16.416 23.7176C16.5228 23.8927 16.6916 23.9667 16.9169 23.9373C17.064 23.9181 17.2268 23.7719 18.3706 22.6314L19.6587 21.3472L19.6811 25.3374L19.7034 29.3277L19.8289 29.4357C19.9249 29.5182 20.0063 29.5436 20.1752 29.5436C20.3657 29.5436 20.413 29.5246 20.5194 29.4052L20.6427 29.2667L20.6651 25.3037L20.6875 21.3407L22.4766 23.1391C24.4369 25.1096 24.4319 25.1056 24.759 24.9512C24.8554 24.9057 24.9597 24.8181 24.9907 24.7566C25.0598 24.6198 25.065 24.3788 25.0014 24.26C24.9755 24.2117 24.1705 23.3825 23.2125 22.4175C22.2544 21.4526 21.4705 20.658 21.4704 20.6518C21.4703 20.6457 22.7295 20.6407 24.2687 20.6407C26.2539 20.6407 27.0956 20.626 27.1649 20.5903C27.3999 20.4693 27.4639 20.3673 27.4639 20.114C27.4639 19.9027 27.4467 19.8552 27.3313 19.7474C27.2583 19.6792 27.1351 19.6108 27.0573 19.5952C26.9795 19.5796 25.6906 19.5669 24.1931 19.5669C22.6955 19.5669 21.4702 19.5587 21.4702 19.5487C21.4702 19.5387 22.0208 18.9801 22.6938 18.3072C23.9924 17.0089 24.0752 16.9005 23.9734 16.6318C23.8618 16.3374 23.6125 16.2066 23.3365 16.2977C23.2374 16.3304 22.7822 16.7504 21.9385 17.5875L20.6875 18.8288L20.6651 14.8918C20.6404 10.5507 20.6595 10.8109 20.3577 10.6831C20.1588 10.5989 20.0891 10.6026 19.9187 10.7065ZM10.959 13.2385C10.959 13.2519 10.8214 13.4684 10.6533 13.7194C10.1822 14.4229 9.90828 14.9251 9.62318 15.6076C9.23954 16.526 9.06608 17.0931 8.8772 18.0458C8.83578 18.255 8.7982 18.4438 8.79382 18.4654C8.78648 18.5013 8.56611 18.0643 7.25417 15.4123C6.84526 14.5858 6.82947 14.5432 6.91038 14.484C6.95704 14.4499 7.02127 14.422 7.05307 14.422C7.08492 14.422 7.28736 14.3645 7.50299 14.2941C7.71863 14.2238 8.046 14.1209 8.23051 14.0655C8.41501 14.0101 8.59871 13.9483 8.63875 13.9281C8.67878 13.9078 8.78948 13.8772 8.88475 13.86C8.98003 13.8428 9.07812 13.8136 9.10272 13.795C9.12732 13.7764 9.21722 13.7463 9.30252 13.728C9.38782 13.7098 9.48846 13.6794 9.52616 13.6607C9.56387 13.6419 9.74569 13.5823 9.9302 13.5282C10.1147 13.4741 10.3059 13.4131 10.3551 13.3925C10.6329 13.2766 10.959 13.1934 10.959 13.2385ZM29.6393 13.3725C29.8327 13.435 30.0219 13.5029 30.0596 13.5234C30.0973 13.5438 30.1979 13.5756 30.2832 13.5938C30.3685 13.6121 30.4584 13.6425 30.483 13.6615C30.5076 13.6804 30.5982 13.7106 30.6843 13.7286C30.7704 13.7466 30.861 13.7767 30.8856 13.7957C30.9102 13.8146 31.0008 13.8448 31.0869 13.8628C31.173 13.8808 31.2636 13.911 31.2882 13.9299C31.3128 13.9488 31.4033 13.979 31.4894 13.997C31.5755 14.015 31.6661 14.0452 31.6907 14.0641C31.7153 14.083 31.8059 14.1132 31.892 14.1312C31.9781 14.1492 32.0687 14.1778 32.0933 14.1947C32.1179 14.2117 32.3795 14.3028 32.6748 14.3972C32.97 14.4916 33.2645 14.59 33.3292 14.6158L33.4469 14.6628L33.0878 15.3589C32.8904 15.7418 32.5686 16.367 32.3728 16.7484C32.177 17.1298 31.9186 17.623 31.7985 17.8445C31.6784 18.066 31.5456 18.3163 31.5034 18.4009L31.4266 18.5546L31.3439 18.1325C31.2208 17.5038 31.0361 16.7993 30.9249 16.5344C30.891 16.4536 30.8632 16.3587 30.8632 16.3234C30.8632 16.2518 30.794 16.0816 30.463 15.3392C30.3862 15.1669 30.2824 14.9555 30.2323 14.8694C30.1822 14.7833 30.1094 14.6373 30.0706 14.545C30.0316 14.4528 29.9849 14.3773 29.9667 14.3773C29.9485 14.3773 29.921 14.3269 29.9056 14.2654C29.8901 14.2039 29.8577 14.1536 29.8336 14.1536C29.8095 14.1536 29.7898 14.1345 29.7898 14.1111C29.7898 14.063 29.5685 13.7208 29.3791 13.4761C29.2615 13.324 29.2288 13.2588 29.2703 13.2588C29.2798 13.2588 29.4458 13.3099 29.6393 13.3725ZM6.40374 15.9879C6.59111 16.3693 7.06063 17.3255 7.44713 18.1129C7.83358 18.9003 8.21262 19.671 8.28942 19.8255L8.42906 20.1064L8.3018 20.34C8.1661 20.5891 7.71085 21.4628 7.35253 22.1618C7.2327 22.3955 7.12459 22.5968 7.11224 22.6092C7.09994 22.6215 7.04332 22.7322 6.98647 22.8552C6.92962 22.9782 6.86583 23.1091 6.84468 23.146C6.82352 23.1829 6.70736 23.4044 6.58646 23.6381C6.4656 23.8719 6.28964 24.2041 6.19549 24.3763C6.10133 24.5486 5.9959 24.7448 5.9612 24.8125C5.92649 24.8802 5.88234 24.9356 5.86311 24.9356C5.84387 24.9356 5.72091 24.8198 5.58986 24.6783C5.4588 24.5368 5.10867 24.1692 4.8118 23.8613C4.51494 23.5535 4.12293 23.1408 3.94071 22.9442C3.57724 22.5521 2.82679 21.7705 1.87098 20.7885C1.53099 20.4392 1.25283 20.1352 1.25283 20.1129C1.25283 20.0697 1.53811 19.7466 2.01322 19.2519C2.87281 18.3568 3.59044 17.5982 3.74247 17.4241C3.83689 17.3158 4.04502 17.0929 4.20492 16.9287C4.36483 16.7644 4.69913 16.4101 4.94778 16.1412C5.19642 15.8723 5.5161 15.5271 5.65816 15.3742L5.91642 15.096L5.98973 15.1952C6.03008 15.2498 6.21637 15.6065 6.40374 15.9879ZM34.7255 15.6473C34.926 15.8537 35.3316 16.2798 35.6269 16.5942C35.9221 16.9086 36.3196 17.3253 36.5102 17.5202C36.7009 17.7152 36.8569 17.8807 36.8569 17.8882C36.8569 17.8956 37.1337 18.183 37.4719 18.5267C38.2004 19.267 38.8707 19.9825 38.9225 20.0751C38.9598 20.1418 38.9149 20.192 37.3514 21.8312C36.5834 22.6364 35.8563 23.4165 35.7107 23.5913C35.64 23.6763 35.401 23.9321 35.1796 24.1597C34.9582 24.3873 34.6708 24.6852 34.541 24.8216C34.4112 24.9581 34.2879 25.0698 34.2671 25.0698C34.2462 25.0698 34.1442 24.8936 34.0405 24.6783C33.9367 24.463 33.83 24.2466 33.8032 24.1974C33.7764 24.1482 33.5897 23.7757 33.3884 23.3697C32.2774 21.1296 31.8025 20.1555 31.8025 20.1165C31.8025 20.0522 32.7804 18.1361 32.8364 18.0906C32.8516 18.0783 32.8795 18.0179 32.8984 17.9564C32.9173 17.8948 32.9452 17.8344 32.9604 17.8221C32.9755 17.8098 33.0799 17.6186 33.1923 17.3971C33.3047 17.1757 33.5446 16.7126 33.7253 16.3681C33.9061 16.0236 34.106 15.637 34.1695 15.5089C34.233 15.3808 34.3021 15.2751 34.323 15.274C34.3439 15.2729 34.525 15.4409 34.7255 15.6473ZM1.44811 21.8215C1.62363 22.0034 1.91611 22.3104 2.09807 22.5037C2.44565 22.873 3.07141 23.5272 4.25301 24.7566C4.64317 25.1626 5.0808 25.6209 5.22545 25.7749L5.48846 26.055L5.5174 26.5579C5.53332 26.8344 5.54683 27.3928 5.54741 27.7988C5.54795 28.2048 5.57778 29.2014 5.6137 30.0134C5.69743 31.906 5.70034 32.5464 5.62506 32.5149C5.59433 32.502 5.48864 32.3824 5.39023 32.249C5.29183 32.1156 5.1962 32.006 5.17777 32.0054C5.15934 32.0048 5.14423 31.974 5.14423 31.9371C5.14423 31.9002 5.12826 31.87 5.10871 31.87C5.03321 31.87 3.95046 30.3125 3.68455 29.8214C3.61406 29.6912 3.49271 29.4697 3.41488 29.3292C3.27282 29.0728 2.8517 28.2375 2.80116 28.112C2.78631 28.0751 2.75611 28.0147 2.73406 27.9778C2.71201 27.9409 2.66429 27.8402 2.62801 27.7541C2.48354 27.4113 2.40517 27.2339 2.34479 27.1129C2.31003 27.0433 2.28159 26.9516 2.28159 26.9094C2.28159 26.8671 2.25989 26.8108 2.23337 26.7842C2.20689 26.7578 2.16816 26.6681 2.14736 26.5852C2.12656 26.5022 2.05754 26.2833 1.99398 26.0988C1.70244 25.2525 1.38102 23.9762 1.31804 23.4144C1.30283 23.2791 1.27322 23.0979 1.25216 23.0118C1.23113 22.9257 1.19195 22.6438 1.16511 22.3855C1.13828 22.1271 1.10415 21.8201 1.0893 21.7032C1.07445 21.5863 1.07727 21.4907 1.09565 21.4907C1.11399 21.4907 1.2726 21.6395 1.44811 21.8215ZM39.1226 21.6361C39.1085 21.7161 39.0758 22.0029 39.0499 22.2736C39.024 22.5443 38.9836 22.8463 38.9602 22.9447C38.9368 23.0431 38.9052 23.2344 38.8898 23.3697C38.8587 23.6434 38.7671 24.1083 38.6671 24.4994C38.4331 25.4144 38.4191 25.4629 38.1795 26.1882C38.0048 26.7169 37.9092 26.9747 37.7317 27.3962C37.5913 27.7291 37.1443 28.6828 37.0815 28.7831C37.0584 28.82 36.9886 28.9508 36.9264 29.0739C36.8642 29.1969 36.7431 29.4183 36.6571 29.566C36.5713 29.7136 36.4756 29.8847 36.4446 29.9463C36.4136 30.0078 36.3629 30.0847 36.3319 30.1172C36.3008 30.1497 36.2754 30.1965 36.2754 30.2211C36.2754 30.2457 36.2503 30.2939 36.2195 30.3282C36.0993 30.4623 36.0518 30.5251 36.0518 30.5501C36.0518 30.5879 35.8566 30.8607 35.8169 30.8783C35.7985 30.8865 35.7834 30.9186 35.7834 30.9497C35.7834 30.9807 35.7431 31.0426 35.6939 31.0871C35.6447 31.1316 35.6045 31.193 35.6045 31.2235C35.6045 31.2539 35.5743 31.2904 35.5374 31.3046C35.5005 31.3188 35.4703 31.3612 35.4703 31.3989C35.4703 31.4365 35.4549 31.4674 35.4361 31.4674C35.4173 31.4674 35.3522 31.5479 35.2914 31.6463C35.2306 31.7447 35.1688 31.8253 35.1542 31.8253C35.1396 31.8253 35.0652 31.9109 34.9889 32.0154C34.9126 32.12 34.7787 32.2861 34.6914 32.3845L34.5327 32.5635L34.5329 31.3555C34.533 30.6912 34.5614 29.258 34.5961 28.1706L34.6592 26.1936L34.9417 25.9067C35.0971 25.7489 35.3114 25.5213 35.4179 25.4007C35.5244 25.2802 35.776 25.0085 35.977 24.7969C36.8297 23.8994 37.4896 23.2013 37.6433 23.0342C37.7338 22.9357 37.9613 22.6927 38.1487 22.4941C38.3361 22.2955 38.6203 21.9896 38.7802 21.8142C38.9401 21.6389 39.0884 21.4944 39.1096 21.4931C39.1308 21.4918 39.1367 21.5561 39.1226 21.6361ZM9.01836 22.8105C9.14199 23.2904 9.2242 23.5682 9.28709 23.718C9.32099 23.7987 9.34873 23.8927 9.34873 23.9268C9.34873 23.9609 9.37646 24.0458 9.41036 24.1155C9.44422 24.1851 9.50161 24.3126 9.53784 24.3987C9.66169 24.6931 9.90488 25.2263 9.9357 25.2711C9.95261 25.2957 10.0452 25.4682 10.1414 25.6545C10.2906 25.9434 10.706 26.61 10.7807 26.6804C10.7938 26.6927 10.841 26.7601 10.8856 26.8302L10.9668 26.9576L10.819 26.9252C10.7377 26.9073 10.6403 26.8759 10.6026 26.8553C10.5649 26.8348 9.85975 26.5955 9.03562 26.3236C8.2115 26.0516 7.50635 25.8118 7.46864 25.7907C7.43094 25.7695 7.33396 25.7377 7.25318 25.72C7.17236 25.7022 7.05226 25.6595 6.98629 25.6251C6.92027 25.5906 6.84114 25.5623 6.81037 25.5622C6.77964 25.562 6.75446 25.555 6.75446 25.5467C6.75446 25.5384 6.85228 25.342 6.9718 25.1105C7.09136 24.879 7.28758 24.4982 7.4079 24.2645C7.52822 24.0307 7.64179 23.8328 7.66022 23.8246C7.67864 23.8163 7.6939 23.7861 7.69403 23.7575C7.69421 23.7287 7.72109 23.6549 7.75379 23.5934C8.1843 22.7837 8.31961 22.5268 8.49615 22.184C8.61025 21.9625 8.72127 21.7526 8.74292 21.7175C8.76953 21.6745 8.80943 21.798 8.86579 22.0979C8.91168 22.3422 8.98034 22.6628 9.01836 22.8105ZM32.4071 23.704C32.9393 24.7737 33.3621 25.6696 33.3464 25.6949C33.3308 25.7202 33.2887 25.7408 33.253 25.7408C33.2172 25.7408 33.153 25.7595 33.1102 25.7823C33.0396 25.8199 32.2919 26.0576 31.7355 26.2192C31.6124 26.2549 31.4809 26.3003 31.4432 26.32C31.4055 26.3397 31.3049 26.3696 31.2196 26.3865C31.1343 26.4033 31.0243 26.4342 30.9751 26.4552C30.9259 26.4761 30.6441 26.5671 30.3489 26.6575C30.0537 26.7478 29.7719 26.8384 29.7227 26.8588C29.5339 26.937 29.2083 27.0247 29.2083 26.9973C29.2083 26.9698 29.6023 26.4015 29.6982 26.2908C29.724 26.2611 29.745 26.2267 29.745 26.2145C29.745 26.2022 29.7923 26.1225 29.8502 26.0372C29.9557 25.8817 30.4798 24.8457 30.6226 24.5105C30.7882 24.1217 30.9369 23.6976 31.0617 23.2579C31.2372 22.6399 31.2658 22.5289 31.2658 22.4653C31.2658 22.3775 31.4048 21.7591 31.4245 21.7591C31.4326 21.7591 31.8748 22.6343 32.4071 23.704ZM7.51485 26.8986C7.82236 27.0005 8.11421 27.1013 8.16341 27.1228C8.21262 27.1442 8.67556 27.2986 9.19217 27.4659C9.70879 27.6332 10.1919 27.7951 10.2657 27.8257C10.3395 27.8563 10.5508 27.9248 10.7353 27.9778C10.9198 28.0308 11.1016 28.0902 11.1393 28.1097C11.1771 28.1293 11.2777 28.1603 11.363 28.1786C11.4483 28.1969 11.5382 28.2268 11.5628 28.2452C11.5874 28.2636 11.6586 28.2908 11.721 28.3056C11.839 28.3337 11.8524 28.361 12.0099 28.8949C12.0534 29.0425 12.1139 29.2338 12.1443 29.3199C12.1746 29.406 12.2325 29.5872 12.2728 29.7226C12.3452 29.9655 12.6361 30.8855 12.8881 31.6687C12.9594 31.8902 13.0501 32.1821 13.0896 32.3174C13.1292 32.4527 13.1893 32.6296 13.2232 32.7104C13.2571 32.7912 13.2849 32.8834 13.2849 32.9154C13.2849 32.9473 13.3273 33.1088 13.3793 33.2743C13.4312 33.4397 13.4656 33.5831 13.4558 33.593C13.4459 33.6029 12.5731 33.5907 11.5163 33.5659C10.4594 33.5412 8.95972 33.5094 8.18363 33.4952L6.77249 33.4695L6.7172 32.0322C6.68679 31.2418 6.64309 29.7796 6.62014 28.7831C6.59719 27.7865 6.56794 26.8988 6.55519 26.8103C6.51798 26.5525 6.45133 26.5464 7.51485 26.8986ZM33.5917 27.1837C33.5917 27.4112 33.5611 28.6041 33.5238 29.8344C33.4864 31.0647 33.4512 32.3834 33.4455 32.7648L33.4351 33.4582L32.5853 33.4846C31.0571 33.5321 28.3092 33.611 27.4483 33.6321L26.6053 33.6528L26.636 33.4884C26.6529 33.398 26.6828 33.3039 26.7023 33.2793C26.7219 33.2547 26.7528 33.1647 26.7711 33.0794C26.7894 32.9941 26.8196 32.8935 26.8384 32.8557C26.8571 32.818 27.0448 32.2637 27.2554 31.624C27.6871 30.3128 27.7161 30.2263 27.9087 29.6778C27.939 29.5917 27.9803 29.4608 28.0006 29.387C28.0456 29.2235 28.1292 28.9877 28.2093 28.7987C28.2421 28.7211 28.269 28.6365 28.269 28.6106C28.269 28.479 28.3815 28.3377 28.5085 28.3098C28.5843 28.2932 28.6771 28.2642 28.7148 28.2454C28.7525 28.2266 28.9343 28.1672 29.1188 28.1134C29.3033 28.0595 29.5348 27.9895 29.6332 27.9578C29.7316 27.9261 29.9329 27.8645 30.0805 27.8211C30.2281 27.7777 30.4193 27.7173 30.5054 27.687C30.5915 27.6566 30.7727 27.5987 30.908 27.5584C31.0433 27.5181 31.3435 27.4252 31.5751 27.3518C31.8067 27.2785 32.0636 27.2059 32.1459 27.1904C32.2282 27.175 32.3055 27.1462 32.3176 27.1266C32.3298 27.1069 32.4252 27.0767 32.5296 27.0595C32.6341 27.0422 32.7396 27.0126 32.7642 26.9936C32.7888 26.9746 32.8794 26.9444 32.9655 26.9264C33.0516 26.9084 33.1422 26.8781 33.1668 26.8589C33.2211 26.8168 33.3553 26.782 33.4911 26.775C33.5886 26.77 33.5917 26.7828 33.5917 27.1837ZM13.9558 29.7226C14.0011 29.7679 14.1606 29.8615 14.2801 29.913C14.3477 29.9421 14.4031 29.9816 14.4031 30.0008C14.4031 30.02 14.426 30.0357 14.454 30.0357C14.4821 30.0357 14.5978 30.0923 14.7112 30.1614C14.8246 30.2305 15.1691 30.3939 15.4766 30.5245C15.7841 30.6551 16.0759 30.7798 16.1251 30.8016C16.4947 30.9652 17.3719 31.1982 18.0127 31.3029C18.1899 31.3319 18.3551 31.3758 18.3799 31.4007C18.4102 31.431 18.1131 31.6032 17.473 31.9263C16.9493 32.1907 16.4973 32.4069 16.4684 32.4069C16.4395 32.4069 16.4159 32.4254 16.4159 32.4481C16.4159 32.4707 16.3555 32.5025 16.2817 32.5187C16.2079 32.5349 16.1475 32.5651 16.1475 32.5858C16.1475 32.6065 16.0871 32.6367 16.0133 32.6529C15.9395 32.6691 15.8791 32.6993 15.8791 32.72C15.8791 32.7408 15.8187 32.771 15.7449 32.7872C15.6711 32.8034 15.6107 32.8335 15.6107 32.8543C15.6107 32.875 15.5504 32.9052 15.4766 32.9214C15.4028 32.9376 15.3424 32.9678 15.3424 32.9885C15.3424 33.0092 15.282 33.0394 15.2082 33.0556C15.1344 33.0718 15.074 33.102 15.074 33.1227C15.074 33.1434 15.0136 33.1736 14.9398 33.1898C14.866 33.206 14.8056 33.2345 14.8056 33.253C14.8056 33.2715 14.7367 33.3078 14.6523 33.3337C14.4789 33.3869 14.4873 33.399 14.3358 32.8766C14.293 32.729 14.2303 32.5421 14.1963 32.4613C14.1624 32.3805 14.1347 32.2851 14.1347 32.2494C14.1347 32.2137 14.0772 32.0081 14.0068 31.7924C13.9365 31.5767 13.8333 31.2493 13.7776 31.0647C13.7218 30.8802 13.6602 30.6889 13.6406 30.6397C13.575 30.4744 13.2896 29.5228 13.2599 29.3701L13.2305 29.219L13.5819 29.4596C13.7753 29.5919 13.9435 29.7103 13.9558 29.7226ZM26.9271 29.3155C26.9271 29.3543 26.6016 30.3451 26.2863 31.266C26.2021 31.5121 26.0165 32.0717 25.8739 32.5094C25.7313 32.9472 25.5901 33.3391 25.56 33.3803C25.5092 33.4497 25.493 33.4488 25.3328 33.3672C25.2379 33.3188 25.1503 33.2669 25.138 33.2518C25.1257 33.2366 25.0653 33.2087 25.0038 33.1898C24.9423 33.1709 24.8819 33.1427 24.8696 33.1273C24.8573 33.1118 24.7365 33.0442 24.6012 32.9771C24.4659 32.91 24.1741 32.7579 23.9527 32.6391C23.4975 32.395 22.5581 31.8974 22.0421 31.627C21.8524 31.5276 21.7132 31.4301 21.7329 31.4104C21.7526 31.3907 21.9381 31.3464 22.145 31.312C22.8969 31.187 23.3415 31.0677 24.1512 30.7736C24.58 30.6178 25.7733 30.0441 25.8014 29.9801C25.8097 29.9615 25.8377 29.9463 25.8638 29.9463C25.916 29.9463 26.7841 29.3704 26.8203 29.3118C26.8508 29.2625 26.9271 29.2652 26.9271 29.3155ZM20.3729 31.9109C20.4194 31.9468 21.3519 32.442 21.8504 32.6954C21.998 32.7705 22.1288 32.8443 22.1411 32.8594C22.1534 32.8746 22.2138 32.9024 22.2753 32.9214C22.3368 32.9403 22.3972 32.9682 22.4095 32.9833C22.4218 32.9985 22.5627 33.0779 22.7226 33.1598C22.8825 33.2417 23.3354 33.4733 23.729 33.6743C24.1226 33.8753 24.4547 34.052 24.467 34.067C24.4793 34.082 24.5955 34.1447 24.7253 34.2064L24.9612 34.3186L24.687 34.5819C24.5361 34.7267 24.1966 35.0565 23.9325 35.3149C23.2505 35.9821 21.7973 37.3707 21.5641 37.5781C21.4559 37.6743 21.0947 38.0199 20.7614 38.3459C20.4282 38.672 20.1269 38.9387 20.092 38.9387C20.057 38.9387 19.8729 38.7827 19.683 38.592C19.493 38.4013 19.1688 38.0943 18.9625 37.9097C18.7563 37.7252 18.4601 37.4484 18.3044 37.2946C18.1486 37.1408 18.0112 37.0149 17.9991 37.0149C17.987 37.0149 17.9327 36.9689 17.8786 36.9127C17.7672 36.7969 16.0417 35.1549 15.7673 34.9035C15.3289 34.5017 15.1187 34.299 15.1187 34.2781C15.1187 34.2464 17.5531 33.0332 17.6166 33.0332C17.645 33.0332 17.6683 33.0147 17.6683 32.992C17.6683 32.9694 17.7287 32.9376 17.8025 32.9214C17.8763 32.9052 17.9366 32.875 17.9366 32.8543C17.9366 32.8335 17.997 32.8034 18.0708 32.7872C18.1446 32.771 18.205 32.7408 18.205 32.72C18.205 32.6993 18.2654 32.6691 18.3392 32.6529C18.413 32.6367 18.4734 32.6065 18.4734 32.5858C18.4734 32.5651 18.5338 32.5349 18.6076 32.5187C18.6814 32.5025 18.7418 32.4723 18.7418 32.4516C18.7418 32.4309 18.8021 32.4007 18.8759 32.3845C18.9497 32.3683 19.0101 32.3381 19.0101 32.3174C19.0101 32.2967 19.0705 32.2665 19.1443 32.2503C19.2181 32.2341 19.2785 32.2039 19.2785 32.1832C19.2785 32.1625 19.3389 32.1323 19.4127 32.1161C19.4865 32.0999 19.5469 32.0697 19.5469 32.049C19.5469 32.0283 19.6073 31.9981 19.6811 31.9819C19.7549 31.9657 19.8152 31.9368 19.8152 31.9177C19.8152 31.8986 19.8806 31.8633 19.9606 31.8392C20.0993 31.7975 20.263 31.826 20.3729 31.9109ZM11.4733 34.5776C12.5558 34.5909 13.5676 34.6129 13.7219 34.6265C14.002 34.6511 14.0027 34.6515 14.3774 35.0166C14.5836 35.2175 14.857 35.4764 14.9848 35.5918C15.1126 35.7071 15.3827 35.9588 15.585 36.151C15.7873 36.3432 16.2211 36.7521 16.5491 37.0597C16.877 37.3673 17.3485 37.8127 17.5969 38.0495C17.8453 38.2864 18.1088 38.5343 18.1826 38.6006C18.4953 38.8814 18.6994 39.0854 18.6835 39.1014C18.6622 39.1227 17.5442 39.0347 17.4223 39.0022C17.3731 38.989 17.1617 38.9501 16.9526 38.9157C16.7435 38.8813 16.4315 38.8231 16.2593 38.7865C16.0871 38.7499 15.8456 38.6993 15.7226 38.674C15.5996 38.6488 15.4285 38.6083 15.3424 38.584C15.2563 38.5597 15.0349 38.4973 14.8504 38.4453C14.6659 38.3933 14.4746 38.335 14.4254 38.3157C14.3762 38.2963 14.185 38.2331 14.0005 38.1752C13.816 38.1173 13.6459 38.0539 13.6226 38.0345C13.5992 38.0151 13.5528 37.9992 13.5195 37.9992C13.4861 37.9992 13.3744 37.9612 13.2712 37.9146C13.168 37.8681 12.9779 37.7929 12.8487 37.7475C12.7196 37.7022 12.6139 37.6512 12.6139 37.6343C12.6139 37.6175 12.5508 37.5898 12.4737 37.5728C12.3966 37.5559 12.2406 37.4964 12.1271 37.4405C11.354 37.0603 11.1448 36.9549 11.0261 36.8854C10.9523 36.8422 10.7812 36.7463 10.6459 36.6724C10.2828 36.4738 10.1852 36.4159 10.1299 36.3662C10.1025 36.3416 10.0062 36.2817 9.91571 36.233C9.82526 36.1844 9.75128 36.129 9.75128 36.11C9.75128 36.091 9.73035 36.0754 9.70477 36.0754C9.65181 36.0754 9.37883 35.8915 9.3562 35.8406C9.34797 35.8221 9.32202 35.807 9.29845 35.807C9.25287 35.807 9.02927 35.6565 8.88449 35.5283C8.83645 35.4858 8.71492 35.3952 8.61446 35.327C8.514 35.2588 8.39811 35.1728 8.35691 35.1359C8.31572 35.099 8.16185 34.9782 8.01501 34.8675C7.51011 34.4868 7.50138 34.4921 8.57264 34.5248C9.08559 34.5405 10.3909 34.5643 11.4733 34.5776ZM32.5182 34.5446C32.5182 34.5638 32.375 34.6997 32.2 34.8466C32.025 34.9934 31.8553 35.1387 31.823 35.1695C31.7906 35.2003 31.7511 35.2254 31.735 35.2254C31.6983 35.2254 31.2934 35.549 31.2733 35.5945C31.265 35.613 31.2391 35.628 31.2155 35.628C31.1785 35.628 30.9277 35.7873 30.8632 35.8517C30.7988 35.9162 30.548 36.0754 30.511 36.0754C30.4874 36.0754 30.4614 36.0917 30.4532 36.1116C30.445 36.1315 30.2572 36.256 30.0358 36.3883C29.8144 36.5206 29.6231 36.6402 29.6108 36.6541C29.5911 36.6764 29.3812 36.7869 28.6268 37.1717C28.2378 37.3701 27.8428 37.5466 27.721 37.5763C27.6534 37.5927 27.598 37.6199 27.598 37.6366C27.598 37.6533 27.4521 37.7165 27.2738 37.7771C27.0954 37.8377 26.9428 37.9024 26.9346 37.9209C26.9264 37.9394 26.8861 37.9546 26.8451 37.9547C26.8041 37.9549 26.7166 37.9832 26.6506 38.0176C26.5846 38.0521 26.4638 38.0945 26.3822 38.112C26.3006 38.1295 26.2137 38.1592 26.1891 38.1781C26.1645 38.1971 26.0746 38.2275 25.9893 38.2458C25.904 38.264 25.8034 38.2951 25.7656 38.3148C25.6752 38.3621 25.2903 38.4748 25.0932 38.5118C25.0071 38.528 24.8964 38.5595 24.8472 38.5819C24.798 38.6041 24.6471 38.6443 24.5118 38.671C24.3765 38.6977 24.1249 38.7499 23.9527 38.7869C23.5216 38.8797 22.9157 38.9753 22.4095 39.0305C22.1758 39.056 21.8689 39.0926 21.7274 39.1119C21.5859 39.1313 21.4702 39.1376 21.4702 39.1262C21.4702 39.0981 23.2003 37.4275 24.2153 36.4755C24.3843 36.317 24.7396 35.9759 25.0048 35.7175C25.2699 35.4592 25.6173 35.125 25.7766 34.9748L26.0664 34.7019L27.1565 34.6699C27.7561 34.6523 29.1222 34.6123 30.1923 34.5809C31.2624 34.5495 32.2236 34.5206 32.3281 34.5167C32.4326 34.5128 32.5182 34.5253 32.5182 34.5446Z" fill="black"/>
</svg>
