<svg width="32" height="33" viewBox="0 0 32 33" fill="none" xmlns="http://www.w3.org/2000/svg">
<path fill-rule="evenodd" clip-rule="evenodd" d="M15.263 1.01303C14.6864 1.0427 14.031 1.10376 13.7799 1.15127C13.6755 1.171 13.497 1.20067 13.3832 1.21723C13.004 1.27229 12.7284 1.32618 12.673 1.35609C12.6429 1.37234 12.5302 1.39667 12.4225 1.41012C12.3149 1.42358 12.2192 1.44683 12.21 1.4618C12.2007 1.47677 12.1156 1.49972 12.0208 1.51276C11.9259 1.5258 11.8397 1.55053 11.829 1.56775C11.8184 1.58493 11.7805 1.59901 11.7447 1.59901C11.682 1.59901 11.0059 1.80873 10.8653 1.87183C10.8273 1.88884 10.6954 1.93849 10.5721 1.98213C10.4488 2.0258 10.3091 2.08156 10.2616 2.10605C10.2142 2.13055 10.1492 2.15066 10.1171 2.1508C10.085 2.1509 10.0499 2.16532 10.0391 2.18285C10.0283 2.20037 9.97301 2.2249 9.91634 2.23736C9.85964 2.24981 9.81325 2.27303 9.81325 2.289C9.81325 2.30498 9.76458 2.32871 9.70511 2.34179C9.64565 2.35483 9.52534 2.40092 9.4378 2.44418C9.35026 2.48748 9.19325 2.56448 9.08891 2.61534C8.7454 2.78273 8.42121 2.96075 8.07918 3.16975C7.89375 3.28305 7.71139 3.39107 7.6739 3.4098C7.6364 3.42853 7.60574 3.45572 7.60574 3.47017C7.60574 3.48466 7.5896 3.4965 7.56987 3.4965C7.5391 3.4965 7.34725 3.61704 7.29531 3.669C7.24564 3.71868 7.05221 3.84149 7.02365 3.84149C7.00547 3.84149 6.98546 3.85385 6.97912 3.86896C6.9728 3.88403 6.89002 3.95396 6.79517 4.02431C6.4955 4.24659 6.42258 4.30438 6.29686 4.41919C6.22946 4.48078 6.16482 4.53125 6.15327 4.53132C6.1344 4.53149 6.06749 4.58869 5.77765 4.85241C5.73022 4.89557 5.59053 5.02149 5.46722 5.13227C5.34391 5.24302 5.18093 5.39119 5.10505 5.4615C4.95742 5.59836 4.40272 6.19524 4.25999 6.37081C4.21256 6.42919 4.15027 6.50126 4.12153 6.53103C4.09284 6.5608 4.03151 6.63929 3.98525 6.70546C3.939 6.7716 3.89188 6.83349 3.88057 6.84298C3.84201 6.87534 3.41034 7.44628 3.30672 7.60197C3.24988 7.68736 3.13071 7.863 3.04186 7.99227C2.953 8.12154 2.88029 8.23332 2.88029 8.24067C2.88029 8.24802 2.83373 8.32302 2.77682 8.40737C2.7199 8.49173 2.67334 8.57277 2.67334 8.5875C2.67334 8.60223 2.65182 8.6388 2.62553 8.66874C2.50391 8.8073 1.63857 10.5264 1.63857 10.6294C1.63857 10.6585 1.5056 11.0089 1.46207 11.0946C1.44531 11.1275 1.43151 11.1741 1.43141 11.1981C1.43127 11.2221 1.40947 11.2833 1.38291 11.3343C1.35636 11.3852 1.32345 11.4778 1.30976 11.5401C1.29606 11.6024 1.27216 11.6772 1.25657 11.7063C1.24101 11.7354 1.19497 11.8756 1.15423 12.018C1.11353 12.1603 1.06631 12.3233 1.04937 12.3802C1.01802 12.4855 0.927513 12.8758 0.833349 13.3117C0.545649 14.6436 0.43786 16.1693 0.534715 17.5379C0.586419 18.268 0.718179 19.2265 0.828796 19.6769C0.854424 19.7813 0.908956 20.0219 0.949967 20.2117C0.990979 20.4014 1.03737 20.5955 1.05307 20.6429C1.06872 20.6903 1.11484 20.8456 1.15554 20.9879C1.19624 21.1302 1.24305 21.2777 1.25954 21.3157C1.27606 21.3536 1.32824 21.5011 1.37557 21.6434C1.54568 22.1551 1.56593 22.2075 1.73867 22.5828C1.79744 22.7105 1.84553 22.8257 1.84553 22.8388C1.84553 22.8712 2.38754 23.9464 2.46908 24.0756C2.50498 24.1326 2.54855 24.2102 2.5659 24.2481C2.58325 24.2861 2.63467 24.3715 2.68017 24.4379C2.7257 24.5043 2.77399 24.5819 2.78748 24.6104C2.801 24.6388 2.84277 24.7087 2.88029 24.7656C2.91782 24.8226 2.96673 24.9041 2.98894 24.9468C3.01116 24.9894 3.04237 25.0244 3.05831 25.0244C3.07421 25.0244 3.08725 25.0389 3.08725 25.0566C3.08725 25.1164 3.82645 26.1256 4.17317 26.5391C4.61184 27.0623 5.66382 28.0909 6.1701 28.4916C6.24202 28.5485 6.34663 28.6378 6.40261 28.69C6.45856 28.7422 6.51285 28.7849 6.52323 28.7849C6.54893 28.7849 6.86126 29.0371 6.87564 29.0695C6.88199 29.0837 6.90672 29.0954 6.93066 29.0954C6.95459 29.0954 7.0023 29.1264 7.03662 29.1644C7.07094 29.2023 7.11991 29.2334 7.14544 29.2334C7.17096 29.2334 7.19183 29.247 7.19183 29.2637C7.19183 29.2803 7.2384 29.3133 7.29531 29.3369C7.35222 29.3604 7.39878 29.3934 7.39878 29.41C7.39878 29.4267 7.41493 29.4404 7.43466 29.4404C7.4755 29.4404 7.686 29.5822 7.70346 29.6215C7.7098 29.6357 7.72808 29.6474 7.74412 29.6474C7.77289 29.6474 8.19321 29.8869 8.2266 29.9223C8.2415 29.9381 8.50957 30.0827 8.86467 30.2666C8.92158 30.296 8.97605 30.3305 8.98574 30.3433C8.99543 30.356 9.0459 30.3771 9.09788 30.3901C9.14986 30.4031 9.19238 30.4277 9.19238 30.4446C9.19238 30.4615 9.20863 30.4754 9.22846 30.4754C9.24833 30.4754 9.37637 30.5277 9.51302 30.5917C9.64968 30.6556 9.84301 30.7369 9.94259 30.7723C10.0422 30.8076 10.1237 30.8477 10.1237 30.8614C10.1237 30.875 10.1782 30.8965 10.2448 30.9089C10.3114 30.9214 10.3744 30.9454 10.3848 30.9622C10.3952 30.9791 10.4299 30.9934 10.462 30.994C10.4941 30.9947 10.5824 31.0252 10.6583 31.0619C10.7342 31.0985 10.8225 31.129 10.8546 31.1297C10.8867 31.1303 10.9214 31.1446 10.9318 31.1615C10.9422 31.1783 11.0071 31.2026 11.0761 31.2155C11.145 31.2285 11.2267 31.2527 11.2575 31.2694C11.3097 31.2976 11.5597 31.3718 12.0208 31.496C12.1251 31.5241 12.257 31.5611 12.3139 31.5783C12.3708 31.5955 12.5105 31.6276 12.6244 31.6497C12.7382 31.6718 12.94 31.7119 13.0728 31.7387C13.2056 31.7656 13.4384 31.8033 13.5902 31.8224C13.7419 31.8416 13.967 31.8731 14.0903 31.8925C14.2136 31.9119 14.6948 31.9479 15.1596 31.9725C15.8436 32.0087 16.1623 32.009 16.8324 31.9741C17.2877 31.9504 17.7767 31.9141 17.9189 31.8935C18.0612 31.8728 18.2863 31.8404 18.4191 31.8215C18.8963 31.7534 19.6288 31.6058 19.6638 31.5707C19.6779 31.5565 19.724 31.5448 19.7661 31.5448C19.8081 31.5448 19.9259 31.52 20.0276 31.4898C20.7305 31.2804 21.0137 31.1914 21.0659 31.1632C21.0988 31.1454 21.1454 31.1307 21.1694 31.1306C21.1933 31.1305 21.2518 31.1105 21.2992 31.0862C21.3466 31.0619 21.463 31.0134 21.5579 30.9785C21.6527 30.9437 21.7769 30.8949 21.8338 30.8703C21.8907 30.8456 22.077 30.7669 22.2477 30.6953C22.58 30.5561 23.5191 30.0834 23.5756 30.0269C23.5852 30.0174 23.6783 29.9641 23.7826 29.9086C23.887 29.853 24.0996 29.7249 24.2551 29.624C24.4106 29.523 24.5541 29.4404 24.5741 29.4404C24.5941 29.4404 24.6104 29.4273 24.6104 29.4114C24.6104 29.3955 24.6498 29.3645 24.698 29.3426C24.7461 29.3206 24.8043 29.2868 24.8273 29.2675C24.8503 29.2482 25.0333 29.1106 25.234 28.9618C25.5866 28.7003 25.7344 28.5833 25.8498 28.4744C25.88 28.4459 25.9469 28.3895 25.9987 28.349C26.2691 28.1373 27.4388 27.0199 27.4388 26.9732C27.4388 26.965 27.5048 26.8917 27.5854 26.8105C27.666 26.7293 27.8172 26.5542 27.9214 26.4215C28.0256 26.2887 28.146 26.1413 28.1891 26.0939C28.2322 26.0464 28.276 25.9804 28.2866 25.9473C28.2971 25.914 28.3179 25.8869 28.3327 25.8869C28.3559 25.8869 28.661 25.4642 28.8185 25.2137C28.9252 25.0441 29.0781 24.8342 29.1031 24.8231C29.1173 24.8168 29.1289 24.7971 29.1289 24.7793C29.1289 24.7616 29.1713 24.6813 29.2231 24.6011C29.3456 24.4111 29.37 24.3701 29.4783 24.1723C29.5282 24.0812 29.6006 23.9523 29.6393 23.8859C29.7089 23.7661 30.0239 23.1359 30.1134 22.9371C30.1391 22.8802 30.2013 22.7419 30.2517 22.6297C30.3022 22.5176 30.381 22.3235 30.427 22.1985C30.473 22.0734 30.5246 21.9401 30.5418 21.9021C30.585 21.8065 30.763 21.2649 30.8537 20.9534C30.8951 20.8111 30.9429 20.6481 30.9599 20.5912C30.9768 20.5342 31.0223 20.3479 31.0609 20.1772C31.0995 20.0064 31.1524 19.7735 31.1785 19.6597C31.3194 19.0433 31.4298 18.1668 31.4792 17.2705C31.5487 16.0109 31.4424 14.6201 31.1805 13.3634C31.1008 12.981 30.9863 12.4878 30.9563 12.3974C30.9406 12.35 30.8941 12.1948 30.8531 12.0525C30.7769 11.7882 30.6956 11.5375 30.6461 11.4142C30.6309 11.3763 30.5615 11.1822 30.4921 10.983C30.4226 10.7837 30.3445 10.5741 30.3185 10.5172C29.9052 9.61104 29.6218 9.05732 29.3118 8.55072C29.2886 8.51277 29.2585 8.45843 29.2448 8.42997C29.2311 8.40151 29.0574 8.13758 28.8586 7.84347C28.55 7.3868 28.4099 7.1937 28.2149 6.95635C28.1497 6.87696 28.1082 6.82532 27.9717 6.65323C27.8964 6.55836 27.801 6.44192 27.7596 6.39448C27.7183 6.34704 27.6563 6.27549 27.622 6.23547C27.4447 6.02896 27.0317 5.58287 26.9585 5.51888C26.9125 5.47865 26.7728 5.35055 26.6481 5.23422C26.5233 5.11788 26.3605 4.9704 26.2861 4.90647C26.2118 4.84254 26.1263 4.76695 26.096 4.73849C26.0658 4.71003 25.964 4.62464 25.8698 4.54874C25.6795 4.39542 25.5206 4.26056 25.4532 4.19512C25.4287 4.17138 25.4012 4.15199 25.3921 4.15199C25.3769 4.15199 24.8212 3.75048 24.724 3.66931C24.7011 3.65016 24.6733 3.6345 24.6622 3.6345C24.6331 3.6345 24.4228 3.48394 24.4092 3.45337C24.4029 3.43916 24.3829 3.4275 24.3648 3.4275C24.3466 3.4275 24.2511 3.37316 24.1525 3.30675C24.0539 3.24034 23.9536 3.186 23.9297 3.186C23.9057 3.186 23.8861 3.17047 23.8861 3.1515C23.8861 3.13252 23.8691 3.117 23.8483 3.117C23.8275 3.117 23.7659 3.08522 23.7114 3.04641C23.5709 2.94636 22.5107 2.41055 22.3484 2.35762C22.2741 2.33337 22.2055 2.30311 22.196 2.29045C22.1865 2.27776 22.0778 2.23091 21.9545 2.18633C21.8312 2.14176 21.7148 2.0948 21.6958 2.082C21.6769 2.0692 21.5605 2.02367 21.4371 1.98075C21.3138 1.93786 21.1819 1.88905 21.144 1.87225C21.0217 1.81815 20.3262 1.59901 20.2768 1.59901C20.2505 1.59901 20.202 1.5841 20.1691 1.56589C20.1361 1.54771 20.0316 1.51548 19.9367 1.49433C19.4821 1.39287 19.3811 1.36858 19.3331 1.34912C19.3047 1.33757 19.1805 1.30993 19.0572 1.28771C18.5017 1.18753 18.2139 1.14599 17.7637 1.10097C17.4981 1.0744 17.2187 1.04422 17.1429 1.03387C16.9018 1.00099 15.7461 0.988153 15.263 1.01303ZM14.9181 1.86221C14.9181 1.87414 14.8339 1.96339 14.731 2.06058C14.046 2.70738 13.4756 3.25293 13.1575 3.5655C12.9547 3.76473 12.5893 4.11404 12.3455 4.34174C12.1016 4.56944 11.8026 4.85393 11.681 4.97392C11.5594 5.09391 11.4239 5.20582 11.3797 5.22259C11.3356 5.23936 10.6275 5.26941 9.80618 5.28935C8.98485 5.30932 7.89478 5.34075 7.38381 5.35921C6.87285 5.3777 6.44642 5.3844 6.43614 5.37411C6.41351 5.35152 6.69828 5.08349 6.74491 5.08349C6.76309 5.08349 6.77792 5.07145 6.77792 5.05672C6.77792 5.03046 7.1175 4.76978 7.37267 4.60008C7.44369 4.55288 7.50188 4.50258 7.50202 4.48837C7.50216 4.47415 7.52313 4.46249 7.54865 4.46249C7.57418 4.46249 7.62316 4.43144 7.65748 4.39349C7.6918 4.35554 7.7395 4.32449 7.76344 4.32449C7.78738 4.32449 7.81211 4.31283 7.81845 4.29862C7.83591 4.25932 8.04641 4.11749 8.08725 4.11749C8.10698 4.11749 8.12312 4.10566 8.12312 4.09117C8.12312 4.07671 8.15379 4.04953 8.19128 4.0308C8.22877 4.01206 8.40606 3.90746 8.58528 3.79837C8.76451 3.68925 8.92655 3.6 8.94542 3.6C8.96425 3.6 8.98484 3.58834 8.99119 3.57412C9.00609 3.54059 9.72043 3.186 9.7731 3.186C9.79517 3.186 9.81325 3.17047 9.81325 3.1515C9.81325 3.13252 9.83015 3.117 9.85077 3.117C9.87143 3.117 9.98409 3.07267 10.1012 3.01847C10.2182 2.96427 10.3527 2.90886 10.3999 2.89534C10.4472 2.88181 10.5324 2.84997 10.5893 2.82454C10.7223 2.76517 11.0538 2.64069 11.3654 2.53309C11.5521 2.46864 11.8153 2.39278 11.9863 2.3541C12.0716 2.33482 12.1648 2.30943 12.1932 2.2977C12.2429 2.27724 12.3331 2.25533 12.8658 2.13434C13.2587 2.04512 13.6671 1.97633 14.1028 1.92603C14.3278 1.90005 14.5205 1.87018 14.5311 1.85965C14.5576 1.83309 14.9181 1.83547 14.9181 1.86221ZM17.5719 1.87473C17.6774 1.89353 17.8879 1.92427 18.0397 1.943C18.5145 2.00162 18.9897 2.09273 19.5659 2.23556C20.2785 2.4122 20.3876 2.44422 20.868 2.61782C21.0577 2.68637 21.244 2.75154 21.2819 2.76262C21.3199 2.77366 21.3815 2.8036 21.419 2.8291C21.4564 2.85463 21.5077 2.8755 21.5329 2.8755C21.5744 2.8755 21.6876 2.92097 22.0115 3.06773C22.0713 3.09485 22.1372 3.117 22.1581 3.117C22.1789 3.117 22.196 3.13252 22.196 3.1515C22.196 3.17047 22.214 3.186 22.236 3.186C22.2795 3.186 22.7888 3.43146 22.8168 3.46596C22.8263 3.47763 22.8729 3.49915 22.9203 3.51375C22.9677 3.52834 23.0143 3.55114 23.0238 3.56443C23.0333 3.57767 23.1497 3.64743 23.2825 3.71943C23.4153 3.79144 23.5852 3.89494 23.6601 3.94944C23.735 4.00392 23.8152 4.04849 23.8383 4.04849C23.8614 4.04849 23.8855 4.06015 23.8919 4.07437C23.9086 4.11215 24.1191 4.25549 24.1578 4.25549C24.1759 4.25549 24.1959 4.26715 24.2023 4.28137C24.2191 4.31914 24.4295 4.46249 24.4682 4.46249C24.4864 4.46249 24.5064 4.47553 24.5127 4.49151C24.519 4.50745 24.6833 4.63399 24.8778 4.77271C25.0722 4.91144 25.2313 5.03812 25.2313 5.0542C25.2313 5.07031 25.2464 5.08349 25.2648 5.08349C25.2832 5.08349 25.3724 5.15466 25.4631 5.24164L25.628 5.39978L24.7657 5.38008C24.2914 5.36925 23.1848 5.34168 22.3066 5.31888L20.7099 5.27738L20.5978 5.17181C20.3064 4.89729 19.6446 4.27795 19.5056 4.14972C19.4202 4.07095 19.1113 3.77919 18.8191 3.50136C18.0714 2.79042 17.9476 2.67347 17.7401 2.48255C17.3617 2.13438 17.0911 1.87369 17.0911 1.85738C17.0911 1.82867 17.3703 1.83875 17.5719 1.87473ZM17.0049 2.88109C17.0997 2.96982 17.2472 3.10741 17.3326 3.18679C17.4179 3.26621 17.7206 3.55273 18.0052 3.82356C18.2897 4.09438 18.6104 4.39936 18.7178 4.50134C18.9484 4.72024 19.6169 5.34482 19.7629 5.47772C19.8469 5.5541 19.8561 5.57632 19.8147 5.60254C19.787 5.62006 19.7449 5.63466 19.7212 5.63497C19.6975 5.63524 19.678 5.64977 19.678 5.66726C19.678 5.68472 19.6315 5.70925 19.5746 5.72173C19.5177 5.73422 19.4711 5.75751 19.4711 5.77348C19.4711 5.78946 19.4245 5.81275 19.3676 5.82523C19.3107 5.83772 19.2641 5.86101 19.2641 5.87698C19.2641 5.89296 19.2176 5.91624 19.1607 5.92873C19.1037 5.94122 19.0572 5.96451 19.0572 5.98048C19.0572 5.99646 19.0106 6.01974 18.9537 6.03223C18.8968 6.04472 18.8502 6.06801 18.8502 6.08398C18.8502 6.09996 18.8037 6.12324 18.7468 6.13573C18.6898 6.14822 18.6433 6.17151 18.6433 6.18748C18.6433 6.20346 18.5967 6.22674 18.5398 6.23923C18.4829 6.25172 18.4363 6.27456 18.4363 6.28998C18.4363 6.3054 18.3938 6.32869 18.3418 6.34173C18.2898 6.35477 18.2394 6.37585 18.2297 6.38858C18.2201 6.40131 18.1578 6.43823 18.0914 6.47059C18.025 6.50298 17.53 6.74779 16.9913 7.01465L16.012 7.49982L15.8703 7.42703C15.7924 7.38701 15.6433 7.30931 15.539 7.25442C15.4346 7.19953 15.3312 7.15437 15.309 7.15406C15.2869 7.15375 15.2636 7.14182 15.2573 7.1276C15.251 7.11339 15.122 7.03963 14.9706 6.96373C14.8192 6.88783 14.5786 6.76215 14.4359 6.68442C14.2933 6.60669 13.998 6.44961 13.7799 6.33535C13.5617 6.22109 13.2745 6.06873 13.1418 5.9968C13.009 5.92484 12.7684 5.79763 12.6071 5.71408C12.4459 5.63052 12.3025 5.55089 12.2884 5.53706C12.2744 5.52326 12.444 5.34182 12.6653 5.13386C13.1496 4.67887 13.166 4.66314 13.9078 3.94499C14.2312 3.63191 14.7422 3.14287 15.0432 2.85825C15.3443 2.57363 15.683 2.25312 15.7958 2.14604L16.001 1.95135L16.4167 2.33558C16.6453 2.54689 16.91 2.79236 17.0049 2.88109ZM10.9695 6.17886C10.9562 6.25003 10.933 6.32376 10.9179 6.34273C10.9028 6.36171 10.8791 6.43157 10.8653 6.49798C10.8514 6.56439 10.8281 6.63426 10.8135 6.65323C10.7989 6.6722 10.7754 6.742 10.7612 6.80834C10.747 6.87468 10.7162 6.9756 10.6927 7.03259C10.6388 7.16365 10.5746 7.34778 10.5363 7.48123C10.52 7.53815 10.3341 8.08928 10.1232 8.70597C9.91227 9.32265 9.72674 9.8781 9.71091 9.9403C9.69508 10.0025 9.66503 10.074 9.64416 10.0991C9.60909 10.1414 9.37078 10.2232 8.76123 10.4022C8.62844 10.4411 8.49599 10.4849 8.46691 10.4994C8.43783 10.5138 8.36022 10.5372 8.29445 10.5513C8.22867 10.5654 8.15934 10.5886 8.14037 10.6029C8.1214 10.6173 8.04576 10.6398 7.97229 10.6531C7.89882 10.6663 7.81345 10.6905 7.78258 10.7068C7.75171 10.7231 7.64885 10.759 7.554 10.7866C7.14106 10.9065 6.54914 11.094 6.4976 11.1212C6.46673 11.1374 6.38137 11.1616 6.3079 11.1748C6.23443 11.1881 6.15879 11.2107 6.13982 11.225C6.12085 11.2393 6.051 11.2623 5.9846 11.2762C5.9182 11.2901 5.84836 11.313 5.82939 11.3272C5.81041 11.3413 5.75219 11.3631 5.70004 11.3756L5.60519 11.3983L5.60594 10.837C5.60639 10.5283 5.62936 9.57709 5.65703 8.72322C5.68469 7.86935 5.70763 6.95928 5.70797 6.70084L5.70866 6.23095L5.8725 6.21001C5.96263 6.19849 6.9041 6.16561 7.96467 6.13691C9.02527 6.1082 9.90093 6.07677 9.91062 6.06711C9.92031 6.05742 10.1679 6.04948 10.4609 6.04948H10.9937L10.9695 6.17886ZM23.8861 6.15447C24.8631 6.1742 25.806 6.19963 25.9815 6.21094L26.3006 6.23154V6.62028C26.3006 6.83411 26.3229 7.56551 26.3502 8.24564C26.3774 8.92573 26.4091 9.9363 26.4205 10.4913C26.4428 11.5818 26.4481 11.55 26.2598 11.4517C26.2089 11.4252 26.1158 11.3924 26.0528 11.379C25.9899 11.3655 25.9229 11.3425 25.9039 11.328C25.8849 11.3134 25.8156 11.2899 25.7498 11.2758C25.684 11.2617 25.6064 11.2373 25.5774 11.2215C25.5483 11.2057 25.0744 11.0444 24.5242 10.863C23.9741 10.6817 23.5001 10.52 23.4711 10.5038C23.442 10.4875 23.3644 10.4627 23.2986 10.4486C23.2328 10.4345 23.1635 10.4117 23.1445 10.3979C23.1255 10.3841 22.9936 10.3378 22.8513 10.2951C22.3606 10.1474 22.3418 10.1347 22.2981 9.92147C22.2836 9.85064 22.2525 9.73838 22.229 9.67196C22.1232 9.3734 22.0983 9.29823 22.0458 9.11997C22.0151 9.0156 21.943 8.78273 21.8855 8.60247C21.8281 8.42221 21.756 8.18933 21.7253 8.08497C21.6946 7.98061 21.6498 7.84089 21.6258 7.77447C21.6017 7.70806 21.532 7.49071 21.4709 7.29148C21.4097 7.09224 21.3393 6.86713 21.3145 6.79123C21.2267 6.52279 21.1267 6.17537 21.1267 6.13856C21.1266 6.09771 21.0571 6.0973 23.8861 6.15447ZM12.2906 6.45348C12.5311 6.58078 12.821 6.73217 12.9348 6.78985C13.0486 6.84753 13.1495 6.90249 13.159 6.91198C13.1753 6.92826 13.3119 6.99909 14.3145 7.51128C14.5421 7.62757 14.7395 7.73825 14.7531 7.75722C14.7684 7.77861 14.6702 7.80756 14.4944 7.8334C14.3385 7.85634 14.1179 7.89819 14.0041 7.92641C13.8902 7.95463 13.7195 7.99589 13.6246 8.01808C13.5298 8.0403 13.4367 8.07079 13.4177 8.08587C13.3987 8.10095 13.3248 8.1242 13.2535 8.13755C13.1821 8.15087 13.1152 8.17557 13.1048 8.19237C13.0945 8.20921 13.0627 8.22297 13.0343 8.22297C13.006 8.22297 12.9176 8.2523 12.838 8.28818C12.7585 8.32402 12.6118 8.38202 12.5123 8.41703C12.4127 8.45202 12.3312 8.49131 12.3312 8.50432C12.3312 8.51732 12.2846 8.53823 12.2277 8.55072C12.1708 8.56321 12.1242 8.5865 12.1242 8.60247C12.1242 8.61844 12.0777 8.64173 12.0208 8.65422C11.9638 8.66671 11.9173 8.69124 11.9173 8.70869C11.9173 8.72619 11.9 8.74047 11.879 8.74047C11.8349 8.74047 11.343 9.03341 11.0377 9.24141C10.7126 9.46296 10.7316 9.45851 10.7601 9.30609C10.7739 9.23219 10.7976 9.15619 10.8126 9.13722C10.8277 9.11824 10.8514 9.04838 10.8653 8.98197C10.8791 8.91556 10.9024 8.84569 10.917 8.82672C10.9316 8.80774 10.9549 8.73788 10.9687 8.67147C10.9826 8.60506 11.0059 8.53519 11.0205 8.51622C11.0351 8.49725 11.0585 8.4279 11.0726 8.36211C11.0867 8.29632 11.1105 8.21869 11.1256 8.18961C11.1406 8.16053 11.1867 8.03581 11.228 7.91247C11.2693 7.78914 11.3169 7.65717 11.3337 7.61922C11.3504 7.58128 11.3786 7.48813 11.3962 7.41223C11.4313 7.26122 11.4865 7.09486 11.5596 6.91943C11.5856 6.85712 11.6068 6.78516 11.6068 6.75949C11.6068 6.73386 11.63 6.66841 11.6584 6.61404C11.6867 6.5597 11.71 6.49115 11.7101 6.46172C11.7104 6.38869 11.79 6.22257 11.8249 6.22226C11.8405 6.22212 12.05 6.32614 12.2906 6.45348ZM20.4194 6.55836C20.47 6.7244 20.5323 6.92233 20.5577 6.99823C20.5832 7.07413 20.615 7.19005 20.6283 7.25584C20.6417 7.32163 20.665 7.39925 20.6801 7.42834C20.6953 7.45742 20.7648 7.66752 20.8345 7.89522C20.9043 8.12292 20.9969 8.4179 21.0402 8.55072C21.2346 9.14567 21.3142 9.46497 21.2682 9.46497C21.2505 9.46497 21.2308 9.45117 21.2244 9.43433C21.2105 9.39707 20.4349 8.88854 20.2451 8.79222C20.1704 8.75427 20.1013 8.7128 20.0916 8.70007C20.0819 8.68734 20.0315 8.66626 19.9795 8.65322C19.9275 8.64018 19.885 8.61565 19.885 8.59874C19.885 8.5818 19.8681 8.56797 19.8475 8.56797C19.8268 8.56797 19.7093 8.5214 19.5864 8.46447C19.4634 8.40755 19.3546 8.36097 19.3445 8.36097C19.3345 8.36097 19.2774 8.33824 19.2176 8.31046C19.1578 8.28269 18.9692 8.21455 18.7985 8.15904C18.1688 7.95436 17.9925 7.90975 17.505 7.83171C17.3143 7.80121 17.2599 7.78144 17.2981 7.75653C17.3728 7.70768 20.2773 6.26007 20.3045 6.25814C20.317 6.25721 20.3687 6.39234 20.4194 6.55836ZM4.84884 9.34422C4.82842 10.0463 4.80203 10.8865 4.79013 11.2113L4.76854 11.802L4.60912 11.9749C4.52144 12.0699 4.24015 12.3693 3.98405 12.6402C3.40182 13.2558 3.0759 13.6041 2.85932 13.8421C2.7665 13.944 2.54313 14.1798 2.36291 14.3661C2.18269 14.5523 1.88778 14.8606 1.70756 15.0511C1.52733 15.2416 1.36608 15.3978 1.34922 15.3982C1.33211 15.3986 1.32924 15.3188 1.34273 15.2178C1.35605 15.1182 1.38847 14.8659 1.41482 14.6572C1.52257 13.8028 1.65613 13.1219 1.831 12.5354C1.86215 12.4311 1.90834 12.2718 1.93365 12.1816C1.95901 12.0913 1.99039 12.0002 2.0034 11.9791C2.01643 11.9581 2.03934 11.8922 2.05431 11.8328C2.06928 11.7733 2.13129 11.5927 2.19207 11.4315C2.25288 11.2702 2.3249 11.077 2.35211 11.0023C2.45425 10.7217 2.91337 9.76525 3.09773 9.44903C3.15265 9.35488 3.25253 9.17634 3.31973 9.05228C3.38695 8.92822 3.46301 8.80222 3.48877 8.77224C3.51457 8.7423 3.53565 8.69959 3.53565 8.67737C3.53565 8.65515 3.55013 8.63697 3.56783 8.63697C3.58552 8.63697 3.6107 8.60323 3.62378 8.562C3.63685 8.52077 3.66148 8.4703 3.67848 8.44988C3.81824 8.2819 3.84608 8.24308 3.84608 8.21624C3.84608 8.19937 3.86201 8.16681 3.88147 8.1439C3.90096 8.12099 4.04451 7.93024 4.20052 7.72003C4.35653 7.50979 4.50747 7.31383 4.53592 7.28451C4.56438 7.25518 4.64975 7.15734 4.72563 7.06709L4.8636 6.90297L4.87474 7.48537C4.88088 7.80566 4.86922 8.64214 4.84884 9.34422ZM27.4222 7.228C27.4604 7.2724 27.538 7.37083 27.5946 7.44673C27.6512 7.52263 27.7091 7.5899 27.7234 7.59621C27.7376 7.60256 27.7492 7.62971 27.7492 7.65659C27.7492 7.6835 27.7629 7.70547 27.7795 7.70547C27.7962 7.70547 27.9006 7.84133 28.0116 8.00735C28.1226 8.1734 28.2253 8.3144 28.24 8.32071C28.2546 8.32706 28.2666 8.34534 28.2666 8.36142C28.2666 8.37746 28.3288 8.48417 28.4047 8.59857C28.5515 8.81961 28.7197 9.10472 28.8039 9.27522C28.832 9.33214 28.8878 9.43305 28.9278 9.49946C29.1556 9.87748 29.5268 10.6817 29.8037 11.397C29.8597 11.5416 30.1465 12.4474 30.2133 12.6907C30.2394 12.7856 30.2855 12.95 30.3157 13.056C30.3459 13.162 30.3707 13.2878 30.3707 13.3355C30.3707 13.3831 30.3859 13.4672 30.4046 13.5222C30.4485 13.6513 30.5353 14.2005 30.595 14.7262C30.6208 14.9539 30.6528 15.2062 30.6659 15.2868C30.6959 15.4705 30.6551 15.4749 30.5072 15.3041C30.4456 15.2329 30.1529 14.925 29.8569 14.6198C29.4064 14.1554 28.4757 13.1812 28.0769 12.7567C28.02 12.6961 27.8193 12.489 27.6308 12.2965C27.2233 11.8802 27.2385 11.9332 27.2338 10.914C27.232 10.5439 27.208 9.72889 27.1803 9.10272C27.1526 8.47655 27.1296 7.72359 27.1292 7.42948L27.1284 6.89473L27.2405 7.021C27.3021 7.09045 27.3839 7.1836 27.4222 7.228ZM17.0394 8.56662C17.3762 8.61379 17.6865 8.66885 17.8155 8.70435C18.3728 8.8577 18.6626 8.9483 18.8675 9.0333C18.9244 9.0569 19.0247 9.09771 19.0903 9.12397C19.2903 9.20401 20.2537 9.6958 20.2989 9.74096C20.351 9.79302 20.5427 9.91346 20.5735 9.91346C20.5932 9.91346 20.6093 9.92578 20.6093 9.94086C20.6093 9.95593 20.7448 10.0685 20.9104 10.191C21.1769 10.3882 21.8521 11.0269 22.0943 11.3109C22.2501 11.4936 22.5898 11.9592 22.7487 12.2078C22.9752 12.5622 22.9705 12.5538 23.1794 12.9839C23.2854 13.2022 23.3869 13.4076 23.4049 13.4406C23.4229 13.4735 23.4377 13.5178 23.4377 13.5389C23.4377 13.56 23.4591 13.6262 23.4852 13.686C23.6516 14.0663 23.8082 14.6971 23.9221 15.4452C24.0427 16.2373 24.0063 17.3097 23.8318 18.1072C23.7233 18.6024 23.5477 19.2228 23.5002 19.2784C23.4848 19.2964 23.4717 19.3353 23.471 19.3647C23.4704 19.3941 23.4399 19.4803 23.4032 19.5562C23.3665 19.6321 23.3361 19.7136 23.3354 19.7373C23.3347 19.761 23.3187 19.7804 23.2997 19.7804C23.2808 19.7804 23.2652 19.7975 23.2652 19.8183C23.2652 19.8625 23.0146 20.3711 22.9183 20.5222C22.882 20.5791 22.8366 20.6567 22.8174 20.6947C22.7597 20.8088 22.7095 20.881 22.3872 21.3143C22.0084 21.8234 21.433 22.4088 20.9276 22.7991C20.903 22.8181 20.8621 22.8522 20.8366 22.8749C20.7482 22.9539 19.9703 23.4579 19.8333 23.5251C19.7574 23.5622 19.6874 23.6031 19.6777 23.6158C19.668 23.6285 19.6176 23.6496 19.5656 23.6626C19.5136 23.6757 19.4711 23.7002 19.4711 23.7171C19.4711 23.7341 19.454 23.7479 19.4332 23.7479C19.4123 23.7479 19.3464 23.77 19.2866 23.7972C18.981 23.9356 18.851 23.9894 18.8216 23.9894C18.8037 23.9894 18.7447 24.0126 18.6903 24.0409C18.636 24.0693 18.5653 24.0925 18.5332 24.0927C18.5011 24.0928 18.4661 24.1071 18.4554 24.1244C18.4447 24.1417 18.3701 24.1668 18.2896 24.18C18.209 24.1933 18.1276 24.216 18.1086 24.2304C18.0897 24.2449 17.9984 24.2677 17.9058 24.2811C17.8133 24.2945 17.7046 24.3193 17.6644 24.3363C17.5227 24.396 16.4442 24.5069 16.0046 24.5069C15.5677 24.5069 14.5013 24.397 14.3317 24.3345C14.2843 24.317 14.1834 24.2926 14.1075 24.2802C13.9105 24.2481 13.4457 24.106 13.2107 24.0059C13.1538 23.9817 13.0258 23.9334 12.9262 23.8985C12.8266 23.8637 12.7451 23.8233 12.7451 23.8088C12.7451 23.7943 12.7271 23.7824 12.7051 23.7824C12.6525 23.7824 12.1448 23.5312 12.13 23.4978C12.1236 23.4835 12.1002 23.4719 12.0778 23.4719C12.0554 23.4719 11.9564 23.4176 11.8578 23.3511C11.7592 23.2847 11.6637 23.2304 11.6456 23.2304C11.6274 23.2304 11.6074 23.2188 11.6011 23.2045C11.5948 23.1903 11.5275 23.1365 11.4516 23.085C10.937 22.7359 10.0993 21.9513 9.74688 21.4882C9.64582 21.3553 9.54955 21.2415 9.53296 21.2352C9.51637 21.2288 9.50282 21.2078 9.50282 21.1884C9.50282 21.169 9.45898 21.0965 9.40537 21.0274C9.14213 20.6877 8.66576 19.7645 8.48602 19.2457C8.45315 19.1508 8.4131 19.0421 8.39706 19.0042C8.32608 18.8364 8.14271 18.0176 8.07225 17.5537C8.00171 17.0889 8.00143 15.9198 8.07176 15.4522C8.14485 14.9664 8.34656 14.0772 8.40082 14.0017C8.41444 13.9827 8.43711 13.9134 8.45121 13.8476C8.46529 13.7818 8.4896 13.7042 8.50526 13.6751C8.52089 13.646 8.55659 13.5679 8.5846 13.5014C8.77275 13.0552 8.8596 12.8703 8.99774 12.6217C9.14851 12.3504 9.21001 12.2438 9.23598 12.2087C9.25047 12.1892 9.38882 12.0024 9.54341 11.7937C9.8981 11.3149 9.92034 11.2894 10.4017 10.8105C10.8306 10.3837 11.0095 10.224 11.0585 10.224C11.0755 10.224 11.0895 10.2123 11.0895 10.1981C11.0896 10.1838 11.1594 10.1281 11.2447 10.0742C11.3301 10.0202 11.3999 9.96204 11.3999 9.94479C11.3999 9.92757 11.416 9.91346 11.4358 9.91346C11.4665 9.91346 11.6582 9.79302 11.7104 9.74096C11.7198 9.73148 11.7819 9.69466 11.8483 9.65913C11.9147 9.62363 12.0854 9.52996 12.2277 9.45099C12.37 9.37202 12.6261 9.24855 12.7968 9.17665C12.9676 9.10472 13.1538 9.0263 13.2107 9.00232C13.2676 8.97838 13.4073 8.93077 13.5212 8.89655C13.635 8.86232 13.7592 8.82185 13.7971 8.80664C13.8697 8.77752 14.0632 8.73181 14.4352 8.65581C14.5585 8.63062 14.706 8.59971 14.7629 8.58715C15.1284 8.50646 16.5201 8.4939 17.0394 8.56662ZM15.8602 9.25624C15.7998 9.29312 15.7338 9.35412 15.7136 9.39186C15.6885 9.43881 15.6769 10.413 15.6769 12.4826C15.6769 15.3799 15.6744 15.5035 15.615 15.4717C15.5809 15.4534 14.9467 14.8319 14.2055 14.0905L12.8581 12.7424L12.6722 12.7436C12.5465 12.7444 12.4628 12.7644 12.4135 12.8057C12.3142 12.8887 12.2464 13.0888 12.2767 13.2096C12.2934 13.2762 12.7435 13.75 13.6787 14.6858C14.4362 15.4437 15.0561 16.0691 15.0561 16.0754C15.0561 16.0818 14.063 16.0913 12.8492 16.0966L10.6423 16.1062L10.5296 16.219C10.4318 16.3168 10.4169 16.355 10.4169 16.5076C10.4169 16.6691 10.4278 16.6927 10.552 16.8001L10.687 16.9169L12.8802 16.9171L15.0733 16.9173L14.147 17.8365C13.6375 18.3421 13.1914 18.8039 13.1555 18.8627C13.0715 19.0005 13.0727 19.1479 13.1591 19.2897C13.2415 19.4247 13.3716 19.4818 13.5454 19.4591C13.6588 19.4443 13.7843 19.3315 14.6664 18.4521L15.6597 17.4617L15.6769 20.5388L15.6942 23.6159L15.791 23.6991C15.865 23.7628 15.9278 23.7824 16.058 23.7824C16.2049 23.7824 16.2414 23.7677 16.3234 23.6756L16.4185 23.5688L16.4358 20.5128L16.453 17.4567L17.8327 18.8436C19.3444 20.3631 19.3405 20.3601 19.5928 20.241C19.6671 20.2059 19.7475 20.1383 19.7714 20.0909C19.8247 19.9854 19.8287 19.7996 19.7797 19.708C19.7597 19.6707 19.1389 19.0313 18.4002 18.2872C17.6614 17.543 17.0569 16.9303 17.0568 16.9256C17.0567 16.9208 18.0278 16.9169 19.2147 16.9169C20.7455 16.9169 21.3946 16.9056 21.448 16.8781C21.6292 16.7848 21.6786 16.7061 21.6786 16.5108C21.6786 16.3478 21.6654 16.3112 21.5764 16.2281C21.5201 16.1755 21.425 16.1227 21.3651 16.1107C21.3051 16.0987 20.3112 16.0889 19.1563 16.0889C18.0015 16.0889 17.0566 16.0826 17.0566 16.0749C17.0566 16.0672 17.4812 15.6364 18.0002 15.1175C19.0016 14.1163 19.0654 14.0327 18.9869 13.8255C18.9009 13.5985 18.7087 13.4976 18.4958 13.5679C18.4194 13.5931 18.0684 13.917 17.4178 14.5625L16.453 15.5197L16.4358 12.4837C16.4168 9.13608 16.4314 9.33676 16.1987 9.23823C16.0453 9.17327 15.9916 9.17613 15.8602 9.25624ZM8.95094 11.2088C8.95094 11.2191 8.84487 11.3861 8.71522 11.5797C8.35194 12.1221 8.14071 12.5094 7.92086 13.0357C7.62502 13.7439 7.49126 14.1812 7.3456 14.9159C7.31366 15.0772 7.28468 15.2228 7.2813 15.2395C7.27565 15.2671 7.1057 14.9301 6.09401 12.8851C5.77868 12.2477 5.76651 12.2149 5.8289 12.1693C5.86488 12.143 5.91441 12.1215 5.93893 12.1215C5.96349 12.1215 6.1196 12.0771 6.28589 12.0228C6.45218 11.9686 6.70463 11.8893 6.84691 11.8466C6.98919 11.8038 7.13085 11.7561 7.16172 11.7405C7.19259 11.7249 7.27796 11.7013 7.35143 11.6881C7.4249 11.6748 7.50054 11.6523 7.51951 11.6379C7.53848 11.6236 7.60781 11.6004 7.67358 11.5863C7.73936 11.5722 7.81697 11.5488 7.84605 11.5344C7.87512 11.5199 8.01533 11.4739 8.15762 11.4322C8.2999 11.3905 8.44735 11.3434 8.48529 11.3276C8.69952 11.2382 8.95094 11.174 8.95094 11.2088ZM23.3562 11.3121C23.5053 11.3603 23.6512 11.4127 23.6803 11.4285C23.7094 11.4443 23.787 11.4687 23.8527 11.4828C23.9185 11.4969 23.9879 11.5204 24.0068 11.535C24.0258 11.5495 24.0956 11.5728 24.162 11.5867C24.2284 11.6006 24.2983 11.6239 24.3173 11.6385C24.3362 11.653 24.4061 11.6763 24.4725 11.6902C24.5389 11.7041 24.6087 11.7274 24.6277 11.742C24.6467 11.7565 24.7165 11.7798 24.7829 11.7937C24.8493 11.8076 24.9191 11.8309 24.9381 11.8455C24.9571 11.86 25.0269 11.8833 25.0933 11.8972C25.1597 11.9111 25.2296 11.9331 25.2485 11.9462C25.2675 11.9593 25.4693 12.0295 25.6969 12.1023C25.9246 12.1751 26.1517 12.251 26.2016 12.2709L26.2924 12.3072L26.0155 12.8439C25.8632 13.1392 25.6151 13.6213 25.4641 13.9154C25.3131 14.2096 25.1138 14.5899 25.0212 14.7607C24.9286 14.9315 24.8262 15.1245 24.7937 15.1898L24.7344 15.3083L24.6707 14.9828C24.5757 14.498 24.4333 13.9547 24.3475 13.7504C24.3214 13.6881 24.3 13.6149 24.3 13.5877C24.3 13.5325 24.2467 13.4013 23.9914 12.8287C23.9321 12.6959 23.8521 12.5329 23.8135 12.4664C23.7749 12.4 23.7187 12.2875 23.6887 12.2163C23.6587 12.1452 23.6227 12.087 23.6087 12.087C23.5946 12.087 23.5734 12.0481 23.5615 12.0007C23.5496 11.9533 23.5246 11.9145 23.506 11.9145C23.4874 11.9145 23.4722 11.8997 23.4722 11.8817C23.4722 11.8446 23.3016 11.5807 23.1556 11.392C23.0648 11.2747 23.0396 11.2245 23.0716 11.2245C23.0789 11.2245 23.207 11.2639 23.3562 11.3121ZM5.43821 13.3289C5.5827 13.6231 5.94476 14.3605 6.24281 14.9677C6.54082 15.5749 6.83311 16.1691 6.89233 16.2883L7.00002 16.5049L6.90189 16.6851C6.79724 16.8771 6.44618 17.5509 6.16986 18.0899C6.07745 18.2702 5.99409 18.4254 5.98457 18.4349C5.97508 18.4444 5.93141 18.5298 5.88757 18.6247C5.84373 18.7195 5.79455 18.8205 5.77823 18.8489C5.76192 18.8774 5.67234 19.0482 5.57911 19.2284C5.48591 19.4087 5.35022 19.6648 5.27761 19.7977C5.20501 19.9305 5.12371 20.0818 5.09694 20.134C5.07018 20.1862 5.03613 20.2289 5.0213 20.2289C5.00647 20.2289 4.91165 20.1397 4.81059 20.0305C4.70952 19.9214 4.43952 19.6379 4.21059 19.4005C3.98167 19.1631 3.67938 18.8449 3.53886 18.6933C3.25857 18.3909 2.67986 17.7882 1.94279 17.0309C1.68062 16.7616 1.46611 16.5271 1.46611 16.5099C1.46611 16.4766 1.6861 16.2275 2.05248 15.846C2.71535 15.1557 3.26875 14.5708 3.38599 14.4365C3.4588 14.353 3.61929 14.1811 3.7426 14.0544C3.86591 13.9278 4.12371 13.6545 4.31545 13.4472C4.50719 13.2398 4.75371 12.9737 4.86326 12.8557L5.06241 12.6412L5.11895 12.7177C5.15006 12.7598 5.29372 13.0348 5.43821 13.3289ZM27.2784 13.0663C27.433 13.2255 27.7458 13.5541 27.9734 13.7965C28.2011 14.039 28.5076 14.3603 28.6547 14.5106C28.8017 14.6609 28.922 14.7886 28.922 14.7944C28.922 14.8001 29.1354 15.0217 29.3962 15.2867C29.958 15.8576 30.4749 16.4094 30.5149 16.4808C30.5436 16.5322 30.509 16.5709 29.3033 17.835C28.7111 18.4559 28.1504 19.0575 28.0381 19.1923C27.9836 19.2579 27.7993 19.4551 27.6285 19.6306C27.4578 19.8061 27.2362 20.0358 27.1361 20.1411C27.036 20.2463 26.9409 20.3324 26.9248 20.3324C26.9087 20.3324 26.8301 20.1966 26.7501 20.0305C26.6701 19.8645 26.5878 19.6976 26.5671 19.6597C26.5465 19.6217 26.4025 19.3345 26.2472 19.0214C25.3905 17.294 25.0243 16.5428 25.0243 16.5127C25.0243 16.4631 25.7784 14.9856 25.8216 14.9504C25.8333 14.9409 25.8548 14.8944 25.8694 14.8469C25.884 14.7995 25.9055 14.7529 25.9172 14.7434C25.9288 14.7339 26.0093 14.5865 26.096 14.4157C26.1827 14.2449 26.3677 13.8878 26.5071 13.6222C26.6465 13.3565 26.8006 13.0584 26.8496 12.9596C26.8986 12.8608 26.9518 12.7793 26.968 12.7785C26.9841 12.7776 27.1238 12.9071 27.2784 13.0663ZM1.6167 17.8275C1.75205 17.9678 1.9776 18.2046 2.11791 18.3536C2.38595 18.6384 2.8685 19.1429 3.77968 20.0909C4.08056 20.404 4.41803 20.7574 4.52958 20.8762L4.73239 21.0922L4.75471 21.4799C4.76699 21.6932 4.77741 22.1238 4.77785 22.4369C4.77827 22.75 4.80127 23.5185 4.82897 24.1446C4.89354 25.6041 4.89578 26.0979 4.83773 26.0737C4.81404 26.0638 4.73253 25.9715 4.65665 25.8687C4.58076 25.7658 4.50702 25.6813 4.49281 25.6808C4.4786 25.6803 4.46694 25.6566 4.46694 25.6281C4.46694 25.5997 4.45463 25.5764 4.43955 25.5764C4.38133 25.5764 3.54637 24.3753 3.34132 23.9966C3.28696 23.8962 3.19338 23.7254 3.13336 23.6171C3.02382 23.4193 2.69907 22.7752 2.6601 22.6784C2.64864 22.6499 2.62536 22.6034 2.60836 22.5749C2.59135 22.5464 2.55455 22.4688 2.52658 22.4024C2.41517 22.1381 2.35474 22.0013 2.30817 21.908C2.28137 21.8543 2.25943 21.7836 2.25943 21.751C2.25943 21.7184 2.2427 21.675 2.22225 21.6545C2.20183 21.6341 2.17196 21.565 2.15592 21.501C2.13988 21.437 2.08666 21.2682 2.03765 21.1259C1.81283 20.4733 1.56497 19.4891 1.5164 19.0559C1.50467 18.9516 1.48184 18.8118 1.46559 18.7454C1.44938 18.679 1.41917 18.4617 1.39847 18.2624C1.37778 18.0632 1.35146 17.8264 1.34001 17.7363C1.32855 17.6461 1.33073 17.5724 1.3449 17.5724C1.35905 17.5724 1.48136 17.6872 1.6167 17.8275ZM30.6692 17.6845C30.6583 17.7462 30.6331 17.9674 30.6131 18.1762C30.5931 18.3849 30.562 18.6178 30.5439 18.6937C30.5259 18.7696 30.5015 18.9171 30.4897 19.0214C30.4657 19.2325 30.395 19.591 30.3179 19.8925C30.1375 20.5982 30.1267 20.6356 29.9419 21.1949C29.8072 21.6026 29.7335 21.8014 29.5965 22.1264C29.4883 22.3831 29.1436 23.1185 29.0952 23.1959C29.0774 23.2244 29.0236 23.3253 28.9756 23.4201C28.9276 23.515 28.8342 23.6858 28.7679 23.7996C28.7017 23.9135 28.628 24.0455 28.6041 24.0929C28.5802 24.1403 28.541 24.1997 28.5171 24.2247C28.4932 24.2498 28.4736 24.2858 28.4736 24.3048C28.4736 24.3238 28.4542 24.361 28.4305 24.3874C28.3377 24.4908 28.3011 24.5393 28.3011 24.5586C28.3011 24.5877 28.1506 24.798 28.12 24.8116C28.1058 24.818 28.0942 24.8427 28.0942 24.8666C28.0942 24.8906 28.0631 24.9383 28.0252 24.9726C27.9872 25.007 27.9562 25.0543 27.9562 25.0778C27.9562 25.1013 27.9329 25.1294 27.9045 25.1404C27.876 25.1513 27.8527 25.184 27.8527 25.2131C27.8527 25.2421 27.8409 25.2659 27.8264 25.2659C27.8119 25.2659 27.7617 25.328 27.7147 25.4039C27.6678 25.4798 27.6202 25.5419 27.609 25.5419C27.5977 25.5419 27.5403 25.6079 27.4815 25.6885C27.4226 25.7691 27.3194 25.8972 27.2521 25.9731L27.1297 26.1111L27.1298 25.1796C27.1299 24.6673 27.1518 23.5621 27.1786 22.7236L27.2273 21.199L27.4451 20.9778C27.5649 20.8561 27.7302 20.6806 27.8123 20.5876C27.8945 20.4947 28.0885 20.2851 28.2435 20.122C28.901 19.4299 29.4099 18.8915 29.5284 18.7627C29.5982 18.6868 29.7736 18.4994 29.9181 18.3462C30.0627 18.1931 30.2818 17.9572 30.4051 17.8219C30.5285 17.6867 30.6428 17.5753 30.6591 17.5743C30.6755 17.5733 30.68 17.6229 30.6692 17.6845ZM7.45446 18.5902C7.54979 18.9602 7.61319 19.1745 7.66168 19.29C7.68783 19.3523 7.70922 19.4248 7.70922 19.451C7.70922 19.4773 7.7306 19.5428 7.75675 19.5965C7.78286 19.6502 7.82711 19.7485 7.85505 19.8149C7.95056 20.0419 8.13809 20.4531 8.16186 20.4877C8.1749 20.5066 8.2463 20.6397 8.32045 20.7833C8.43552 21.0061 8.75588 21.5202 8.81349 21.5744C8.82356 21.5839 8.85998 21.6359 8.8944 21.6899L8.95697 21.7882L8.84301 21.7632C8.7803 21.7494 8.70521 21.7252 8.67614 21.7093C8.64706 21.6935 8.10329 21.509 7.46777 21.2993C6.83225 21.0896 6.28848 20.9047 6.2594 20.8883C6.23032 20.872 6.15554 20.8475 6.09325 20.8338C6.03092 20.8201 5.93831 20.7872 5.88744 20.7606C5.83653 20.7341 5.77551 20.7122 5.75178 20.7121C5.72808 20.712 5.70866 20.7066 5.70866 20.7002C5.70866 20.6938 5.7841 20.5424 5.87626 20.3638C5.96846 20.1853 6.11978 19.8917 6.21256 19.7114C6.30534 19.5311 6.39292 19.3785 6.40713 19.3722C6.42134 19.3658 6.4331 19.3425 6.43321 19.3204C6.43335 19.2983 6.45408 19.2414 6.47929 19.1939C6.81128 18.5695 6.91562 18.3714 7.05176 18.1071C7.13975 17.9363 7.22536 17.7744 7.24205 17.7473C7.26257 17.7142 7.29334 17.8094 7.3368 18.0407C7.37219 18.2291 7.42514 18.4763 7.45446 18.5902ZM25.4905 19.2792C25.901 20.1041 26.227 20.795 26.2149 20.8145C26.2029 20.834 26.1704 20.8499 26.1428 20.8499C26.1152 20.8499 26.0657 20.8643 26.0328 20.8819C25.9783 20.9109 25.4017 21.0942 24.9726 21.2188C24.8778 21.2463 24.7763 21.2813 24.7473 21.2965C24.7182 21.3117 24.6406 21.3348 24.5748 21.3478C24.509 21.3608 24.4242 21.3846 24.3862 21.4008C24.3483 21.4169 24.131 21.4871 23.9033 21.5568C23.6757 21.6264 23.4584 21.6963 23.4205 21.712C23.2749 21.7723 23.0238 21.8399 23.0238 21.8188C23.0238 21.7976 23.3277 21.3593 23.4016 21.274C23.4215 21.2511 23.4377 21.2246 23.4377 21.2152C23.4377 21.2057 23.4742 21.1442 23.5188 21.0785C23.6001 20.9585 24.0043 20.1596 24.1144 19.9012C24.2421 19.6013 24.3568 19.2743 24.4531 18.9352C24.5884 18.4587 24.6104 18.373 24.6104 18.324C24.6104 18.2563 24.7176 17.7794 24.7328 17.7794C24.7391 17.7794 25.0801 18.4543 25.4905 19.2792ZM6.29503 21.7427C6.53217 21.8212 6.75723 21.899 6.79517 21.9156C6.83311 21.9321 7.19011 22.0512 7.58849 22.1802C7.98688 22.3091 8.3594 22.434 8.41631 22.4576C8.47322 22.4813 8.6362 22.534 8.77848 22.5749C8.92076 22.6158 9.06097 22.6616 9.09005 22.6767C9.11912 22.6918 9.19673 22.7157 9.26251 22.7297C9.32828 22.7438 9.39761 22.767 9.41658 22.7811C9.43556 22.7953 9.49043 22.8163 9.53858 22.8277C9.62957 22.8493 9.63992 22.8705 9.76133 23.2821C9.79493 23.396 9.84156 23.5435 9.86498 23.6099C9.8884 23.6763 9.933 23.816 9.96412 23.9204C10.0199 24.1077 10.2442 24.8172 10.4386 25.4211C10.4935 25.5919 10.5635 25.817 10.594 25.9214C10.6245 26.0257 10.6708 26.1621 10.697 26.2244C10.7232 26.2867 10.7445 26.3579 10.7445 26.3825C10.7445 26.4071 10.7773 26.5316 10.8174 26.6593C10.8574 26.7868 10.8839 26.8974 10.8763 26.905C10.8687 26.9127 10.1957 26.9032 9.38071 26.8842C8.56573 26.8651 7.40924 26.8406 6.81076 26.8297L5.72256 26.8098L5.67993 25.7015C5.65648 25.0919 5.62278 23.9644 5.60508 23.1959C5.58739 22.4274 5.56483 21.7428 5.555 21.6746C5.5263 21.4758 5.47491 21.4711 6.29503 21.7427ZM26.404 21.9625C26.4041 22.138 26.3805 23.0579 26.3517 24.0066C26.3228 24.9554 26.2957 25.9723 26.2913 26.2664L26.2833 26.8011L25.628 26.8215C24.4495 26.8581 22.3305 26.9189 21.6666 26.9352L21.0166 26.9511L21.0402 26.8244C21.0533 26.7547 21.0763 26.6821 21.0913 26.6631C21.1064 26.6441 21.1303 26.5748 21.1444 26.509C21.1585 26.4432 21.1818 26.3656 21.1963 26.3365C21.2107 26.3074 21.3554 25.88 21.5179 25.3866C21.8507 24.3755 21.8731 24.3088 22.0217 23.8859C22.045 23.8195 22.0769 23.7186 22.0925 23.6616C22.1272 23.5355 22.1916 23.3537 22.2534 23.2079C22.2787 23.1481 22.2995 23.0829 22.2995 23.0629C22.2995 22.9614 22.3862 22.8525 22.4842 22.831C22.5426 22.8181 22.6142 22.7958 22.6432 22.7813C22.6723 22.7668 22.8125 22.721 22.9548 22.6795C23.0971 22.6379 23.2756 22.5839 23.3515 22.5595C23.4274 22.535 23.5826 22.4876 23.6964 22.4541C23.8102 22.4206 23.9577 22.3741 24.0241 22.3506C24.0905 22.3272 24.2302 22.2826 24.3345 22.2515C24.4388 22.2204 24.6704 22.1488 24.849 22.0922C25.0276 22.0357 25.2256 21.9796 25.2891 21.9677C25.3526 21.9558 25.4122 21.9336 25.4216 21.9185C25.4309 21.9033 25.5045 21.88 25.585 21.8668C25.6656 21.8535 25.747 21.8306 25.7659 21.816C25.7849 21.8013 25.8548 21.778 25.9211 21.7641C25.9875 21.7503 26.0574 21.7269 26.0764 21.7121C26.1182 21.6796 26.2217 21.6528 26.3264 21.6474C26.4016 21.6435 26.404 21.6534 26.404 21.9625ZM11.2619 23.9204C11.2969 23.9554 11.4198 24.0275 11.512 24.0672C11.5641 24.0896 11.6068 24.1201 11.6068 24.1349C11.6068 24.1498 11.6245 24.1619 11.6461 24.1619C11.6678 24.1619 11.757 24.2055 11.8445 24.2588C11.9319 24.3121 12.1975 24.4381 12.4347 24.5388C12.6718 24.6395 12.8969 24.7357 12.9348 24.7525C13.2198 24.8787 13.8963 25.0583 14.3904 25.1391C14.527 25.1614 14.6544 25.1953 14.6736 25.2144C14.6969 25.2378 14.4678 25.3707 13.9742 25.6198C13.5704 25.8236 13.2218 25.9904 13.1995 25.9904C13.1772 25.9904 13.159 26.0047 13.159 26.0222C13.159 26.0396 13.1124 26.0641 13.0555 26.0766C12.9986 26.0891 12.952 26.1124 12.952 26.1284C12.952 26.1443 12.9055 26.1676 12.8486 26.1801C12.7917 26.1926 12.7451 26.2159 12.7451 26.2319C12.7451 26.2478 12.6985 26.2711 12.6416 26.2836C12.5847 26.2961 12.5381 26.3194 12.5381 26.3354C12.5381 26.3513 12.4916 26.3746 12.4347 26.3871C12.3777 26.3996 12.3312 26.4229 12.3312 26.4389C12.3312 26.4548 12.2846 26.4781 12.2277 26.4906C12.1708 26.5031 12.1242 26.5264 12.1242 26.5424C12.1242 26.5583 12.0777 26.5816 12.0208 26.5941C11.9638 26.6066 11.9173 26.6286 11.9173 26.6428C11.9173 26.6571 11.8641 26.6851 11.7991 26.7051C11.6653 26.7461 11.6718 26.7554 11.555 26.3526C11.522 26.2388 11.4736 26.0946 11.4474 26.0323C11.4213 25.97 11.3999 25.8965 11.3999 25.869C11.3999 25.8414 11.3555 25.6828 11.3013 25.5165C11.2471 25.3502 11.1675 25.0977 11.1245 24.9554C11.0815 24.8131 11.034 24.6656 11.0189 24.6276C10.9683 24.5002 10.7482 23.7663 10.7253 23.6486L10.7026 23.5321L10.9736 23.7176C11.1227 23.8196 11.2524 23.9109 11.2619 23.9204ZM21.2647 23.6064C21.2647 23.6364 21.0137 24.4005 20.7706 25.1106C20.7056 25.3004 20.5625 25.7319 20.4525 26.0695C20.3426 26.4071 20.2336 26.7093 20.2105 26.741C20.1713 26.7946 20.1588 26.7939 20.0352 26.7309C19.9621 26.6936 19.8945 26.6536 19.885 26.6419C19.8755 26.6302 19.8289 26.6087 19.7815 26.5941C19.7341 26.5795 19.6875 26.5578 19.678 26.5459C19.6686 26.534 19.5754 26.4818 19.4711 26.4301C19.3667 26.3783 19.1417 26.261 18.971 26.1695C18.62 25.9812 17.8956 25.5975 17.4976 25.389C17.3513 25.3123 17.244 25.2371 17.2592 25.2219C17.2744 25.2067 17.4175 25.1726 17.577 25.1461C18.1568 25.0497 18.4997 24.9577 19.1241 24.7309C19.4547 24.6107 20.375 24.1683 20.3966 24.119C20.403 24.1047 20.4246 24.0929 20.4447 24.0929C20.485 24.0929 21.1544 23.6488 21.1824 23.6036C21.2058 23.5656 21.2647 23.5677 21.2647 23.6064ZM16.2104 25.6079C16.2463 25.6356 16.9654 26.0175 17.3498 26.2129C17.4636 26.2708 17.5645 26.3277 17.574 26.3393C17.5835 26.351 17.6301 26.3725 17.6775 26.3871C17.7249 26.4017 17.7715 26.4232 17.781 26.4349C17.7905 26.4466 17.8991 26.5078 18.0224 26.571C18.1457 26.6342 18.495 26.8127 18.7985 26.9678C19.102 27.1228 19.3581 27.259 19.3676 27.2706C19.3771 27.2821 19.4667 27.3305 19.5668 27.3781L19.7487 27.4646L19.5372 27.6676C19.4209 27.7793 19.1591 28.0336 18.9554 28.2329C18.4295 28.7474 17.3088 29.8182 17.1291 29.9781C17.0456 30.0524 16.7671 30.3188 16.5101 30.5702C16.2531 30.8217 16.0208 31.0274 15.9938 31.0274C15.9668 31.0274 15.8249 30.907 15.6784 30.76C15.5319 30.6129 15.2819 30.3762 15.1229 30.2339C14.9638 30.0915 14.7354 29.8781 14.6153 29.7595C14.4952 29.6409 14.3892 29.5439 14.3799 29.5439C14.3706 29.5439 14.3287 29.5084 14.287 29.465C14.201 29.3757 12.8704 28.1095 12.6589 27.9156C12.3208 27.6058 12.1587 27.4495 12.1587 27.4333C12.1587 27.4089 14.036 26.4734 14.0849 26.4734C14.1068 26.4734 14.1248 26.4591 14.1248 26.4416C14.1248 26.4241 14.1713 26.3996 14.2283 26.3871C14.2852 26.3746 14.3317 26.3513 14.3317 26.3354C14.3317 26.3194 14.3783 26.2961 14.4352 26.2836C14.4921 26.2711 14.5387 26.2478 14.5387 26.2319C14.5387 26.2159 14.5853 26.1926 14.6422 26.1801C14.6991 26.1676 14.7456 26.1443 14.7456 26.1284C14.7456 26.1124 14.7922 26.0891 14.8491 26.0766C14.906 26.0641 14.9526 26.0409 14.9526 26.0249C14.9526 26.0089 14.9992 25.9856 15.0561 25.9731C15.113 25.9606 15.1596 25.9374 15.1596 25.9214C15.1596 25.9054 15.2061 25.8821 15.263 25.8696C15.3199 25.8571 15.3665 25.8339 15.3665 25.8179C15.3665 25.8019 15.4131 25.7786 15.47 25.7661C15.5269 25.7536 15.5735 25.7304 15.5735 25.7144C15.5735 25.6984 15.62 25.6751 15.6769 25.6626C15.7338 25.6501 15.7804 25.6279 15.7804 25.6131C15.7804 25.5984 15.8308 25.5712 15.8925 25.5526C15.9994 25.5205 16.1257 25.5424 16.2104 25.6079ZM9.3476 27.6643C10.1823 27.6746 10.9626 27.6916 11.0815 27.702C11.2976 27.721 11.2981 27.7213 11.587 28.0028C11.7461 28.1578 11.9569 28.3574 12.0554 28.4464C12.154 28.5353 12.3623 28.7294 12.5183 28.8776C12.6743 29.0258 13.0088 29.3412 13.2617 29.5784C13.5146 29.8155 13.8782 30.159 14.0697 30.3417C14.2613 30.5243 14.4645 30.7155 14.5214 30.7666C14.7625 30.9832 14.9199 31.1405 14.9077 31.1528C14.8912 31.1692 14.0291 31.1014 13.9351 31.0763C13.8971 31.0662 13.7342 31.0361 13.5729 31.0096C13.4117 30.9831 13.1711 30.9382 13.0383 30.91C12.9055 30.8818 12.7192 30.8427 12.6244 30.8232C12.5295 30.8038 12.3976 30.7725 12.3312 30.7538C12.2648 30.7351 12.094 30.687 11.9518 30.6469C11.8095 30.6068 11.662 30.5618 11.6241 30.5469C11.5862 30.532 11.4387 30.4833 11.2964 30.4386C11.1541 30.3939 11.023 30.3451 11.005 30.3301C10.9869 30.3151 10.9511 30.3029 10.9254 30.3029C10.8998 30.3029 10.8136 30.2735 10.734 30.2376C10.6544 30.2018 10.5078 30.1438 10.4082 30.1088C10.3087 30.0738 10.2272 30.0345 10.2272 30.0215C10.2272 30.0085 10.1785 29.9871 10.119 29.9741C10.0596 29.961 9.93925 29.9151 9.8517 29.8721C9.25557 29.5788 9.09425 29.4975 9.00268 29.4439C8.94576 29.4107 8.81383 29.3367 8.70949 29.2797C8.42948 29.1265 8.35422 29.0819 8.31162 29.0436C8.29051 29.0246 8.21622 28.9784 8.14644 28.9409C8.0767 28.9034 8.01965 28.8607 8.01965 28.846C8.01965 28.8314 8.0035 28.8194 7.98377 28.8194C7.94294 28.8194 7.73243 28.6775 7.71498 28.6382C7.70863 28.624 7.68862 28.6124 7.67045 28.6124C7.6353 28.6124 7.46287 28.4963 7.35122 28.3975C7.31418 28.3647 7.22046 28.2948 7.14299 28.2422C7.06552 28.1896 6.97615 28.1233 6.94438 28.0949C6.91262 28.0664 6.79396 27.9733 6.68072 27.8879C6.29138 27.5943 6.28465 27.5984 7.11074 27.6236C7.5063 27.6357 8.51289 27.654 9.3476 27.6643ZM25.5762 27.6388C25.5762 27.6537 25.4658 27.7585 25.3308 27.8717C25.1959 27.9849 25.065 28.097 25.0401 28.1207C25.0152 28.1445 24.9846 28.1639 24.9723 28.1639C24.944 28.1639 24.6318 28.4134 24.6162 28.4485C24.6099 28.4627 24.5898 28.4744 24.5717 28.4744C24.5431 28.4744 24.3497 28.5972 24.3 28.6469C24.2503 28.6965 24.0569 28.8194 24.0283 28.8194C24.0102 28.8194 23.9902 28.8319 23.9838 28.8472C23.9775 28.8626 23.8326 28.9586 23.6619 29.0606C23.4912 29.1626 23.3437 29.2549 23.3342 29.2656C23.319 29.2828 23.1571 29.368 22.5754 29.6647C22.2755 29.8178 21.9708 29.9538 21.8769 29.9767C21.8247 29.9894 21.7821 30.0104 21.7821 30.0232C21.7821 30.0361 21.6695 30.0849 21.532 30.1316C21.3945 30.1783 21.2768 30.2282 21.2704 30.2425C21.2641 30.2567 21.2331 30.2685 21.2015 30.2686C21.1698 30.2687 21.1023 30.2905 21.0514 30.3171C21.0005 30.3436 20.9074 30.3764 20.8445 30.3898C20.7816 30.4033 20.7145 30.4263 20.6956 30.4409C20.6766 30.4554 20.6073 30.4789 20.5415 30.493C20.4757 30.5071 20.3981 30.5311 20.369 30.5463C20.2993 30.5827 20.0025 30.6697 19.8505 30.6982C19.7841 30.7107 19.6987 30.735 19.6608 30.7522C19.6229 30.7694 19.5064 30.8003 19.4021 30.8209C19.2978 30.8415 19.1037 30.8818 18.971 30.9103C18.6386 30.9818 18.1713 31.0556 17.781 31.0981C17.6007 31.1178 17.3641 31.1461 17.255 31.1609C17.1459 31.1758 17.0566 31.1808 17.0566 31.1719C17.0566 31.1502 18.3908 29.862 19.1735 29.1279C19.3038 29.0056 19.5778 28.7426 19.7823 28.5434C19.9867 28.3441 20.2546 28.0864 20.3775 27.9706L20.601 27.7601L21.4416 27.7355C21.9039 27.722 22.9574 27.691 23.7826 27.6669C24.6079 27.6426 25.349 27.6204 25.4296 27.6174C25.5102 27.6144 25.5762 27.624 25.5762 27.6388Z" fill="url(#paint0_linear_2884_531)" stroke="url(#paint1_linear_2884_531)" stroke-width="0.4"/>
<defs>
<linearGradient id="paint0_linear_2884_531" x1="1.46875" y1="0.999998" x2="32.6236" y2="2.1736" gradientUnits="userSpaceOnUse">
<stop stop-color="#5173EC"/>
<stop offset="0.24279" stop-color="#455FE1"/>
<stop offset="1" stop-color="#1211A9"/>
</linearGradient>
<linearGradient id="paint1_linear_2884_531" x1="1.46875" y1="0.999998" x2="32.6236" y2="2.1736" gradientUnits="userSpaceOnUse">
<stop stop-color="#5173EC"/>
<stop offset="0.24279" stop-color="#455FE1"/>
<stop offset="1" stop-color="#1211A9"/>
</linearGradient>
</defs>
</svg>
