<svg width="31" height="30" viewBox="0 0 31 30" fill="none" xmlns="http://www.w3.org/2000/svg">
<path d="M8.93867 1H22.0598C26.6456 1 29.5 4.23711 29.5 8.81822V21.1818C29.5 25.7629 26.6456 29 22.0582 29H8.93867C4.35289 29 1.5 25.7629 1.5 21.1818V8.81822C1.5 4.23711 4.36689 1 8.93867 1Z" stroke="url(#paint0_linear_2884_571)" stroke-width="1.5" stroke-linecap="round" stroke-linejoin="round"/>
<path opacity="0.4" d="M29.4966 11.4222L1.98193 5.74445M12.0153 7.81333L8.0346 28.9627" stroke="url(#paint1_linear_2884_571)" stroke-width="1.5" stroke-linecap="round" stroke-linejoin="round"/>
<path d="M19.5829 18.7769V18.7286M19.5829 24.5589C18.9171 24.5589 15.4171 21.7278 15.4171 18.7644C15.4171 17.6598 15.8559 16.6004 16.637 15.8193C17.4181 15.0382 18.4775 14.5994 19.5821 14.5994C20.6867 14.5994 21.7461 15.0382 22.5272 15.8193C23.3083 16.6004 23.7471 17.6598 23.7471 18.7644C23.7471 21.7278 20.2487 24.5589 19.5829 24.5589Z" stroke="url(#paint2_linear_2884_571)" stroke-width="1.5" stroke-linecap="round" stroke-linejoin="round"/>
<defs>
<linearGradient id="paint0_linear_2884_571" x1="2.375" y1="0.999999" x2="30.5148" y2="2.06002" gradientUnits="userSpaceOnUse">
<stop stop-color="#5173EC"/>
<stop offset="0.24279" stop-color="#455FE1"/>
<stop offset="1" stop-color="#1211A9"/>
</linearGradient>
<linearGradient id="paint1_linear_2884_571" x1="2.84177" y1="5.74444" x2="30.478" y2="6.97814" gradientUnits="userSpaceOnUse">
<stop stop-color="#5173EC"/>
<stop offset="0.24279" stop-color="#455FE1"/>
<stop offset="1" stop-color="#1211A9"/>
</linearGradient>
<linearGradient id="paint2_linear_2884_571" x1="15.6774" y1="14.5994" x2="24.0526" y2="14.8633" gradientUnits="userSpaceOnUse">
<stop stop-color="#5173EC"/>
<stop offset="0.24279" stop-color="#455FE1"/>
<stop offset="1" stop-color="#1211A9"/>
</linearGradient>
</defs>
</svg>
