<svg width="525" height="495" viewBox="0 0 525 495" fill="none" xmlns="http://www.w3.org/2000/svg">
<path fill-rule="evenodd" clip-rule="evenodd" d="M250.162 3.2181C240.508 3.71484 229.535 4.73718 225.331 5.53252C223.584 5.86291 220.595 6.35964 218.69 6.63688C212.341 7.55872 207.728 8.46092 206.8 8.9617C206.296 9.23374 204.408 9.64095 202.606 9.86621C200.804 10.0915 199.202 10.4808 199.048 10.7314C198.892 10.9821 197.467 11.3662 195.88 11.5846C194.292 11.8029 192.848 12.217 192.67 12.5052C192.492 12.7929 191.857 13.0285 191.259 13.0285C190.208 13.0285 178.889 16.5397 176.535 17.5961C175.899 17.8809 173.691 18.7121 171.626 19.4427C169.562 20.1739 167.223 21.1073 166.429 21.5174C165.635 21.9275 164.546 22.2643 164.009 22.2666C163.472 22.2683 162.884 22.5097 162.703 22.8032C162.522 23.0966 161.597 23.5072 160.648 23.7158C159.698 23.9243 158.922 24.313 158.922 24.5804C158.922 24.8478 158.107 25.2452 157.111 25.4641C156.116 25.6825 154.102 26.4541 152.636 27.1784C151.17 27.9033 148.542 29.1925 146.795 30.0439C141.044 32.8464 135.616 35.8267 129.89 39.3258C126.786 41.2226 123.733 43.0311 123.105 43.3447C122.477 43.6583 121.964 44.1135 121.964 44.3555C121.964 44.5981 121.694 44.7962 121.363 44.7962C120.848 44.7962 117.636 46.8143 116.767 47.6842C115.935 48.5159 112.697 50.5721 112.218 50.5721C111.914 50.5721 111.579 50.7789 111.473 51.0319C111.367 51.2843 109.981 52.4551 108.393 53.6328C103.376 57.3542 102.156 58.3217 100.051 60.2439C98.9223 61.2749 97.8401 62.12 97.6467 62.1211C97.3308 62.124 96.2105 63.0817 91.358 67.4968C90.564 68.2194 88.2253 70.3276 86.1608 72.1822C84.0964 74.0363 81.3678 76.5171 80.0974 77.6942C77.6258 79.9855 68.339 89.9785 65.9494 92.9178C65.1554 93.8951 64.1125 95.1017 63.6315 95.6002C63.151 96.0986 62.1243 97.4127 61.3499 98.5205C60.5755 99.6277 59.7867 100.664 59.5973 100.823C58.9517 101.365 51.7247 110.923 49.99 113.53C49.0383 114.959 47.0431 117.9 45.5556 120.064C44.068 122.228 42.8507 124.1 42.8507 124.223C42.8507 124.346 42.0712 125.602 41.1183 127.014C40.1655 128.426 39.3859 129.783 39.3859 130.029C39.3859 130.276 39.0256 130.888 38.5856 131.39C36.5494 133.709 22.0619 162.49 22.0619 164.215C22.0619 164.702 19.8358 170.569 19.107 172.003C18.8263 172.555 18.5954 173.334 18.5936 173.736C18.5913 174.137 18.2264 175.163 17.7817 176.016C17.3371 176.868 16.7861 178.418 16.5569 179.462C16.3276 180.505 15.9275 181.758 15.6664 182.244C15.406 182.731 14.6351 185.079 13.9531 187.462C13.2717 189.844 12.4811 192.574 12.1976 193.527C11.6727 195.29 10.1574 201.823 8.58091 209.122C3.76425 231.42 1.95966 256.963 3.58119 279.877C4.44682 292.1 6.65274 308.147 8.50468 315.688C8.93374 317.435 9.84672 321.464 10.5333 324.64C11.2199 327.817 11.9966 331.066 12.2594 331.86C12.5215 332.654 13.2936 335.254 13.975 337.636C14.6564 340.019 15.4401 342.488 15.7161 343.123C15.9927 343.759 16.8664 346.228 17.6587 348.611C20.5068 357.177 20.8457 358.055 23.7377 364.338C24.7217 366.475 25.5267 368.404 25.5267 368.624C25.5267 369.167 34.601 387.167 35.9662 389.331C36.5673 390.284 37.2966 391.583 37.5871 392.219C37.8776 392.854 38.7386 394.284 39.5003 395.396C40.2625 396.507 41.071 397.807 41.2968 398.284C41.5231 398.76 42.2224 399.93 42.8507 400.883C43.479 401.836 44.2979 403.201 44.6698 403.915C45.0416 404.63 45.5643 405.215 45.831 405.215C46.0973 405.215 46.3155 405.457 46.3155 405.754C46.3155 406.756 58.6913 423.651 64.496 430.574C71.8402 439.333 89.4524 456.554 97.9285 463.263C99.1325 464.216 100.884 465.711 101.821 466.584C102.758 467.458 103.667 468.172 103.841 468.172C104.271 468.172 109.5 472.396 109.741 472.938C109.847 473.176 110.261 473.371 110.662 473.371C111.062 473.371 111.861 473.891 112.436 474.526C113.01 475.161 113.83 475.681 114.258 475.681C114.685 475.681 115.034 475.909 115.034 476.189C115.034 476.468 115.814 477.019 116.767 477.414C117.719 477.808 118.499 478.36 118.499 478.639C118.499 478.919 118.769 479.147 119.1 479.147C119.783 479.147 123.308 481.521 123.6 482.179C123.706 482.417 124.012 482.612 124.281 482.612C124.762 482.612 131.799 486.622 132.358 487.215C132.608 487.48 137.096 489.901 143.041 492.979C143.994 493.472 144.905 494.05 145.068 494.263C145.23 494.476 146.075 494.829 146.945 495.047C147.815 495.266 148.527 495.676 148.527 495.959C148.527 496.243 148.799 496.474 149.131 496.474C149.464 496.474 151.608 497.351 153.895 498.422C156.183 499.493 159.42 500.853 161.087 501.445C162.754 502.037 164.119 502.708 164.119 502.937C164.119 503.166 165.031 503.525 166.146 503.734C167.262 503.943 168.317 504.345 168.49 504.626C168.664 504.908 169.246 505.147 169.783 505.158C170.32 505.169 171.799 505.68 173.07 506.294C174.34 506.908 175.819 507.418 176.356 507.429C176.893 507.44 177.475 507.679 177.649 507.961C177.823 508.242 178.91 508.65 180.064 508.867C181.218 509.083 182.585 509.489 183.102 509.768C183.975 510.24 188.161 511.483 195.88 513.562C197.627 514.033 199.835 514.653 200.788 514.94C201.741 515.227 204.08 515.766 205.985 516.136C207.891 516.506 211.269 517.177 213.492 517.626C215.716 518.075 219.614 518.706 222.154 519.027C224.695 519.348 228.463 519.876 230.528 520.201C232.592 520.525 240.648 521.128 248.429 521.54C259.882 522.146 265.218 522.151 276.436 521.567C284.059 521.169 292.245 520.562 294.627 520.216C297.009 519.871 300.777 519.329 303 519.012C310.989 517.872 323.254 515.401 323.839 514.813C324.076 514.575 324.847 514.38 325.551 514.38C326.256 514.38 328.227 513.965 329.93 513.457C341.698 509.953 346.439 508.462 347.313 507.991C347.864 507.693 348.644 507.447 349.045 507.445C349.446 507.443 350.425 507.109 351.219 506.701C352.013 506.294 353.962 505.482 355.55 504.899C357.138 504.315 359.216 503.499 360.169 503.086C361.122 502.673 364.24 501.355 367.099 500.157C372.662 497.826 388.384 489.912 389.331 488.966C389.49 488.807 391.049 487.916 392.796 486.986C394.543 486.055 398.103 483.911 400.706 482.221C403.31 480.53 405.713 479.147 406.047 479.147C406.382 479.147 406.655 478.928 406.655 478.662C406.655 478.395 407.315 477.877 408.121 477.509C408.927 477.142 409.901 476.576 410.287 476.253C410.671 475.93 413.735 473.627 417.095 471.135C422.999 466.756 425.473 464.798 427.405 462.974C427.91 462.498 429.031 461.553 429.897 460.876C434.425 457.331 454.008 438.624 454.008 437.842C454.008 437.704 455.113 436.478 456.462 435.118C457.812 433.758 460.343 430.827 462.087 428.605C463.831 426.382 465.848 423.914 466.569 423.12C467.29 422.326 468.024 421.221 468.201 420.665C468.378 420.109 468.725 419.655 468.973 419.655C469.362 419.655 474.469 412.577 477.107 408.385C478.893 405.545 481.453 402.031 481.871 401.846C482.109 401.739 482.304 401.409 482.304 401.112C482.304 400.815 483.013 399.472 483.88 398.128C485.932 394.947 486.34 394.261 488.153 390.949C488.988 389.424 490.201 387.266 490.848 386.154C492.014 384.149 497.287 373.598 498.786 370.27C499.215 369.317 500.258 367.001 501.101 365.123C501.946 363.246 503.266 359.997 504.036 357.903C504.806 355.81 505.67 353.578 505.957 352.942C506.68 351.341 509.662 342.274 511.18 337.059C511.874 334.676 512.673 331.947 512.957 330.994C513.241 330.041 514.002 326.922 514.649 324.063C515.295 321.204 516.181 317.305 516.617 315.399C518.977 305.079 520.824 290.405 521.652 275.4C522.816 254.311 521.036 231.026 516.651 209.988C515.316 203.585 513.4 195.328 512.898 193.815C512.634 193.021 511.856 190.422 511.169 188.039C509.893 183.615 508.533 179.419 507.704 177.354C507.449 176.719 506.288 173.47 505.125 170.134C503.962 166.798 502.655 163.29 502.22 162.337C495.301 147.165 490.556 137.895 485.365 129.414C484.977 128.778 484.472 127.869 484.243 127.392C484.015 126.916 481.105 122.497 477.779 117.573C472.612 109.927 470.266 106.695 467.001 102.721C465.909 101.392 465.215 100.527 462.929 97.646C461.669 96.0576 460.072 94.1083 459.379 93.3141C458.686 92.5199 457.649 91.3219 457.075 90.6519C454.107 87.1945 447.192 79.7262 445.967 78.6547C445.197 77.9813 442.858 75.8367 440.77 73.889C438.681 71.9414 435.954 69.4722 434.71 68.4019C433.466 67.3316 432.033 66.0661 431.527 65.5896C431.021 65.1131 429.316 63.6835 427.739 62.4128C424.554 59.846 421.894 57.5882 420.764 56.4925C420.355 56.0951 419.894 55.7705 419.742 55.7705C419.488 55.7705 410.184 49.0484 408.556 47.6894C408.173 47.3688 407.708 47.1066 407.523 47.1066C407.035 47.1066 403.515 44.5859 403.287 44.0742C403.181 43.8362 402.846 43.641 402.542 43.641C402.238 43.641 400.639 42.7313 398.989 41.6194C397.338 40.5076 395.659 39.5978 395.258 39.5978C394.857 39.5978 394.529 39.3379 394.529 39.0203C394.529 38.7026 394.244 38.4427 393.896 38.4427C393.548 38.4427 392.516 37.9107 391.604 37.2609C389.252 35.5859 371.502 26.6153 368.785 25.7292C367.54 25.3232 366.392 24.8166 366.233 24.6047C366.074 24.3921 364.255 23.6077 362.19 22.8615C360.126 22.1152 358.177 21.3291 357.859 21.1148C357.542 20.9006 355.593 20.1381 353.528 19.4196C351.464 18.7017 349.255 17.8844 348.62 17.6031C346.573 16.6974 334.929 13.0285 334.102 13.0285C333.662 13.0285 332.85 12.779 332.298 12.474C331.747 12.1697 329.997 11.6302 328.409 11.2761C320.796 9.57741 319.106 9.17079 318.303 8.84502C317.826 8.65153 315.748 8.18888 313.683 7.81691C304.383 6.13957 299.565 5.44415 292.028 4.69039C287.582 4.24564 282.904 3.74025 281.634 3.56697C277.597 3.01652 258.249 2.80166 250.162 3.2181ZM244.387 17.435C244.387 17.6348 242.977 19.1291 241.254 20.7562C229.787 31.5849 220.237 40.7184 214.911 45.9514C211.516 49.287 205.398 55.1351 201.316 58.9472C197.233 62.7594 192.227 67.5222 190.192 69.5311C188.156 71.5399 185.887 73.4137 185.148 73.6944C184.409 73.9751 172.555 74.4781 158.803 74.812C145.053 75.1464 126.803 75.6726 118.248 75.9816C109.694 76.2912 102.555 76.4033 102.382 76.2311C102.004 75.8528 106.771 71.3655 107.552 71.3655C107.856 71.3655 108.105 71.1639 108.105 70.9173C108.105 70.4777 113.79 66.1134 118.062 63.2723C119.251 62.4821 120.225 61.64 120.227 61.402C120.23 61.164 120.581 60.9688 121.008 60.9688C121.435 60.9688 122.255 60.449 122.83 59.8136C123.405 59.1783 124.203 58.6584 124.604 58.6584C125.005 58.6584 125.419 58.4632 125.525 58.2252C125.817 57.5674 129.342 55.1929 130.025 55.1929C130.356 55.1929 130.626 54.9948 130.626 54.7522C130.626 54.5102 131.139 54.055 131.767 53.7414C132.395 53.4277 135.363 51.6765 138.363 49.8501C141.364 48.0232 144.077 46.529 144.393 46.529C144.708 46.529 145.053 46.3337 145.159 46.0958C145.408 45.5344 157.368 39.5978 158.25 39.5978C158.619 39.5978 158.922 39.3379 158.922 39.0203C158.922 38.7026 159.205 38.4427 159.55 38.4427C159.896 38.4427 161.782 37.7005 163.742 36.793C165.702 35.8857 167.953 34.958 168.744 34.7316C169.535 34.5052 170.962 33.9721 171.915 33.5464C174.141 32.5524 179.691 30.4684 184.908 28.6669C188.033 27.5879 192.44 26.3178 195.302 25.6703C196.731 25.3475 198.291 24.9223 198.767 24.726C199.599 24.3834 201.109 24.0167 210.028 21.9911C216.605 20.4974 223.443 19.3457 230.737 18.5035C234.504 18.0686 237.731 17.5684 237.907 17.3923C238.351 16.9475 244.387 16.9874 244.387 17.435ZM288.817 17.6447C290.583 17.9595 294.107 18.4741 296.648 18.7877C304.597 19.7691 312.554 21.2945 322.201 23.6857C334.13 26.643 335.957 27.179 344 30.0855C347.176 31.2331 350.295 32.3242 350.93 32.5096C351.565 32.6944 352.598 33.1958 353.224 33.6226C353.85 34.0501 354.709 34.3995 355.132 34.3995C355.827 34.3995 357.721 35.1608 363.144 37.6179C364.145 38.0718 365.249 38.4427 365.598 38.4427C365.947 38.4427 366.233 38.7026 366.233 39.0203C366.233 39.3379 366.534 39.5978 366.902 39.5978C367.631 39.5978 376.158 43.7074 376.627 44.285C376.786 44.4802 377.566 44.8407 378.36 45.085C379.154 45.3293 379.933 45.7111 380.092 45.9335C380.251 46.1553 382.2 47.3232 384.423 48.5286C386.646 49.734 389.491 51.4668 390.745 52.3794C391.998 53.2914 393.341 54.0377 393.728 54.0377C394.115 54.0377 394.519 54.2329 394.625 54.4709C394.906 55.1034 398.429 57.5033 399.077 57.5033C399.381 57.5033 399.716 57.6985 399.822 57.9364C400.103 58.5689 403.627 60.9688 404.274 60.9688C404.578 60.9688 404.913 61.1871 405.019 61.4546C405.125 61.7214 407.875 63.84 411.131 66.1625C414.387 68.485 417.05 70.606 417.05 70.8751C417.05 71.1449 417.302 71.3655 417.611 71.3655C417.919 71.3655 419.413 72.5571 420.931 74.0132L423.691 76.6609L409.254 76.3311C401.314 76.1497 382.788 75.6882 368.085 75.3064L341.353 74.6116L339.476 72.8441C334.597 68.2482 323.517 57.8793 321.19 55.7323C319.761 54.4137 314.589 49.529 309.697 44.8776C297.18 32.9752 295.106 31.0171 291.633 27.8207C285.298 21.9916 280.767 17.6273 280.767 17.3541C280.767 16.8736 285.442 17.0422 288.817 17.6447ZM279.324 34.4931C280.912 35.9786 283.381 38.2821 284.81 39.6111C286.239 40.9408 291.306 45.7377 296.07 50.2718C300.834 54.8059 306.203 59.9118 308.001 61.6192C311.861 65.284 323.054 75.7408 325.499 77.9657C326.904 79.2445 327.058 79.6164 326.365 80.0554C325.901 80.3488 325.197 80.5931 324.799 80.5983C324.403 80.603 324.078 80.8461 324.078 81.139C324.078 81.4312 323.298 81.8419 322.345 82.051C321.392 82.2601 320.613 82.6499 320.613 82.9174C320.613 83.1848 319.833 83.5747 318.88 83.7838C317.928 83.9929 317.148 84.3827 317.148 84.6502C317.148 84.9176 316.368 85.3075 315.416 85.5165C314.463 85.7256 313.683 86.1155 313.683 86.3829C313.683 86.6504 312.904 87.0402 311.951 87.2493C310.998 87.4584 310.218 87.8483 310.218 88.1157C310.218 88.3831 309.439 88.773 308.486 88.9821C307.533 89.1912 306.754 89.5811 306.754 89.8485C306.754 90.1159 305.974 90.5058 305.021 90.7149C304.068 90.924 303.289 91.3063 303.289 91.5645C303.289 91.8227 302.577 92.2126 301.706 92.4309C300.836 92.6493 299.992 93.0022 299.83 93.2153C299.668 93.4284 298.626 94.0464 297.514 94.5882C296.402 95.1306 288.115 99.2292 279.096 103.697L262.7 111.82L260.329 110.601C259.025 109.931 256.528 108.63 254.781 107.711C253.035 106.792 251.302 106.036 250.931 106.031C250.561 106.026 250.172 105.826 250.065 105.588C249.96 105.35 247.8 104.115 245.265 102.844C242.731 101.574 238.704 99.4695 236.315 98.1682C233.926 96.8669 228.983 94.2371 225.331 92.3241C221.678 90.4111 216.871 87.8604 214.647 86.6561C212.424 85.4513 208.396 83.3217 205.697 81.9228C202.997 80.5238 200.596 79.1907 200.361 78.9591C200.126 78.7281 202.965 75.6905 206.671 72.2088C214.779 64.5915 215.054 64.3281 227.473 52.3049C232.887 47.0632 241.441 38.8759 246.482 34.1107C251.523 29.3456 257.193 23.9797 259.082 22.1869L262.516 18.9275L269.476 25.3602C273.304 28.8979 277.736 33.0075 279.324 34.4931ZM178.28 89.7041C178.057 90.8957 177.668 92.13 177.416 92.4477C177.163 92.7654 176.767 93.935 176.535 95.0468C176.302 96.1587 175.913 97.3283 175.668 97.646C175.424 97.9637 175.03 99.1322 174.792 100.243C174.554 101.354 174.038 103.043 173.645 103.997C172.743 106.192 171.669 109.274 171.027 111.508C170.754 112.461 167.642 121.688 164.11 132.013C160.58 142.337 157.473 151.637 157.208 152.678C156.943 153.719 156.44 154.916 156.091 155.337C155.504 156.045 151.514 157.414 141.309 160.41C139.086 161.063 136.868 161.795 136.381 162.038C135.895 162.28 134.595 162.672 133.494 162.907C132.393 163.143 131.232 163.532 130.915 163.772C130.597 164.012 129.331 164.389 128.101 164.611C126.871 164.833 125.441 165.238 124.924 165.511C124.408 165.784 122.686 166.385 121.098 166.846C114.184 168.854 104.274 171.993 103.412 172.448C102.895 172.72 101.465 173.125 100.235 173.347C99.0054 173.568 97.739 173.946 97.4214 174.186C97.1038 174.426 95.9345 174.811 94.8228 175.044C93.7112 175.276 92.5418 175.66 92.2242 175.897C91.9066 176.134 90.9319 176.499 90.0587 176.708L88.4707 177.087L88.4834 167.69C88.4909 162.522 88.8755 146.597 89.3386 132.302C89.8018 118.006 90.1858 102.77 90.1915 98.4431L90.2031 90.5763L92.9461 90.2257C94.455 90.0328 110.217 89.4823 127.973 89.0017C145.73 88.5212 160.39 87.995 160.552 87.8333C160.714 87.671 164.86 87.5381 169.765 87.5381H178.684L178.28 89.7041ZM394.529 89.2957C410.885 89.6261 426.672 90.0518 429.61 90.2413L434.951 90.5861V97.0944C434.951 100.674 435.325 112.919 435.782 124.306C436.239 135.692 436.768 152.611 436.959 161.903C437.333 180.16 437.422 179.628 434.268 177.982C433.416 177.538 431.857 176.99 430.803 176.764C429.75 176.538 428.628 176.154 428.31 175.91C427.993 175.666 426.832 175.273 425.731 175.037C424.63 174.801 423.33 174.391 422.844 174.127C422.357 173.862 414.422 171.162 405.212 168.126C396.001 165.09 388.067 162.384 387.58 162.112C387.093 161.84 385.794 161.424 384.693 161.188C383.591 160.952 382.431 160.57 382.113 160.34C381.795 160.109 379.587 159.334 377.205 158.617C368.988 156.146 368.674 155.933 367.942 152.363C367.699 151.177 367.179 149.297 366.785 148.185C365.015 143.187 364.597 141.928 363.718 138.944C363.204 137.197 361.997 133.298 361.035 130.28C360.074 127.262 358.867 123.363 358.353 121.616C357.838 119.869 357.089 117.53 356.687 116.418C356.284 115.306 355.117 111.667 354.093 108.332C353.069 104.996 351.891 101.227 351.475 99.9564C350.005 95.4621 348.331 89.6458 348.331 89.0295C348.329 88.3456 347.166 88.3387 394.529 89.2957ZM200.397 94.3018C204.423 96.4331 209.277 98.9676 211.183 99.9333C213.088 100.899 214.777 101.819 214.936 101.978C215.209 102.251 217.495 103.436 234.281 112.011C238.093 113.958 241.397 115.811 241.624 116.129C241.88 116.487 240.236 116.972 237.293 117.404C234.684 117.788 230.99 118.489 229.084 118.962C227.178 119.434 224.32 120.125 222.732 120.496C221.144 120.868 219.585 121.379 219.267 121.631C218.95 121.884 217.713 122.273 216.518 122.496C215.323 122.719 214.203 123.133 214.03 123.414C213.856 123.696 213.324 123.927 212.849 123.927C212.374 123.927 210.895 124.417 209.563 125.018C208.231 125.618 205.776 126.589 204.109 127.175C202.441 127.761 201.077 128.419 201.077 128.637C201.077 128.855 200.297 129.205 199.345 129.414C198.392 129.623 197.612 130.013 197.612 130.28C197.612 130.547 196.833 130.937 195.88 131.146C194.927 131.356 194.147 131.766 194.147 132.058C194.147 132.351 193.859 132.59 193.506 132.59C192.768 132.59 184.532 137.495 179.422 140.977C173.978 144.686 174.297 144.612 174.774 142.06C175.005 140.823 175.401 139.55 175.653 139.233C175.906 138.915 176.302 137.745 176.535 136.634C176.767 135.522 177.156 134.352 177.401 134.034C177.645 133.717 178.035 132.547 178.267 131.435C178.499 130.323 178.889 129.154 179.133 128.836C179.377 128.518 179.77 127.357 180.006 126.256C180.242 125.155 180.641 123.855 180.893 123.368C181.144 122.881 181.916 120.793 182.608 118.728C183.3 116.663 184.095 114.454 184.377 113.819C184.657 113.183 185.129 111.624 185.424 110.353C186.011 107.825 186.935 105.04 188.16 102.103C188.594 101.06 188.95 99.8547 188.95 99.425C188.95 98.9959 189.338 97.9002 189.813 96.9899C190.287 96.0802 190.677 94.9325 190.679 94.4398C190.684 93.217 192.016 90.4359 192.601 90.4307C192.861 90.4284 196.369 92.1699 200.397 94.3018ZM336.488 96.0576C337.336 98.8376 338.379 102.151 338.805 103.422C339.232 104.693 339.764 106.633 339.987 107.735C340.211 108.836 340.601 110.136 340.855 110.623C341.108 111.11 342.271 114.627 343.439 118.439C344.607 122.252 346.157 127.19 346.883 129.414C350.138 139.374 351.47 144.72 350.7 144.72C350.403 144.72 350.073 144.489 349.967 144.207C349.733 143.583 336.748 135.069 333.571 133.457C332.32 132.821 331.163 132.127 331.001 131.914C330.839 131.701 329.995 131.348 329.125 131.13C328.254 130.911 327.542 130.501 327.542 130.218C327.542 129.934 327.259 129.702 326.914 129.702C326.568 129.702 324.601 128.923 322.543 127.97C320.484 127.017 318.662 126.237 318.494 126.237C318.326 126.237 317.37 125.856 316.369 125.391C315.368 124.926 312.211 123.786 309.352 122.856C298.81 119.429 295.859 118.683 287.697 117.376C284.504 116.865 283.594 116.534 284.232 116.117C285.484 115.3 334.11 91.0638 334.565 91.0314C334.775 91.0158 335.64 93.2783 336.488 96.0576ZM75.808 142.698C75.4661 154.452 75.0243 168.519 74.8251 173.958L74.4636 183.846L71.7946 186.74C70.3266 188.332 65.6174 193.344 61.3297 197.879C51.582 208.186 46.1256 214.018 42.4996 218.001C40.9457 219.708 37.206 223.656 34.1887 226.774C31.1714 229.892 26.2341 235.053 23.2168 238.242C20.1996 241.432 17.4999 244.046 17.2175 244.053C16.9311 244.06 16.8832 242.724 17.109 241.034C17.3319 239.366 17.8747 235.142 18.3159 231.648C20.1199 217.343 22.3558 205.945 25.2836 196.126C25.805 194.379 26.5783 191.712 27.0021 190.201C27.4266 188.69 27.9521 187.165 28.1698 186.812C28.3881 186.459 28.7715 185.357 29.0221 184.361C29.2727 183.366 30.311 180.343 31.3285 177.643C32.3466 174.943 33.5523 171.709 34.008 170.457C35.7178 165.76 43.4045 149.747 46.4911 144.453C47.4104 142.877 49.0828 139.888 50.2077 137.811C51.3332 135.734 52.6065 133.624 53.0378 133.122C53.4698 132.621 53.8226 131.906 53.8226 131.534C53.8226 131.162 54.0652 130.858 54.3614 130.858C54.6576 130.858 55.0792 130.293 55.298 129.603C55.5169 128.912 55.9292 128.067 56.2139 127.725C58.5538 124.913 59.0198 124.263 59.0198 123.814C59.0198 123.531 59.2866 122.986 59.6123 122.603C59.9386 122.219 62.342 119.026 64.9539 115.506C67.5658 111.987 70.0928 108.706 70.5692 108.215C71.0456 107.724 72.4748 106.086 73.7453 104.575L76.0551 101.827L76.2417 111.578C76.3444 116.94 76.1493 130.944 75.808 142.698ZM453.729 107.269C454.369 108.012 455.669 109.66 456.616 110.931C457.564 112.201 458.533 113.328 458.772 113.433C459.01 113.54 459.205 113.994 459.205 114.444C459.205 114.895 459.433 115.263 459.712 115.263C459.992 115.263 461.74 117.537 463.597 120.317C465.455 123.097 467.176 125.457 467.421 125.563C467.666 125.669 467.867 125.975 467.867 126.244C467.867 126.513 468.908 128.299 470.179 130.215C472.637 133.915 475.453 138.689 476.862 141.543C477.333 142.496 478.266 144.186 478.936 145.298C482.75 151.626 488.964 165.09 493.6 177.065C494.537 179.488 499.34 194.651 500.459 198.725C500.895 200.313 501.666 203.066 502.173 204.84C502.679 206.615 503.093 208.721 503.093 209.52C503.093 210.318 503.348 211.724 503.661 212.646C504.395 214.807 505.849 224.003 506.848 232.803C507.281 236.615 507.816 240.839 508.036 242.189C508.539 245.263 507.856 245.337 505.378 242.478C504.347 241.287 499.448 236.131 494.491 231.022C486.949 223.246 471.367 206.937 464.691 199.83C463.738 198.816 460.377 195.348 457.222 192.125C450.399 185.155 450.654 186.043 450.575 168.979C450.546 162.784 450.143 149.139 449.679 138.655C449.215 128.172 448.83 115.566 448.824 110.642L448.812 101.689L450.688 103.803C451.72 104.966 453.089 106.525 453.729 107.269ZM279.901 129.68C285.54 130.47 290.735 131.391 292.894 131.986C302.226 134.553 307.077 136.07 310.507 137.493C311.46 137.888 313.139 138.571 314.237 139.011C317.586 140.351 333.714 148.585 334.471 149.341C335.345 150.212 338.554 152.229 339.069 152.229C339.399 152.229 339.669 152.435 339.669 152.687C339.669 152.94 341.938 154.824 344.709 156.875C349.171 160.176 360.476 170.869 364.531 175.625C367.139 178.684 372.826 186.479 375.486 190.64C379.278 196.573 379.2 196.432 382.697 203.634C384.471 207.288 386.17 210.728 386.472 211.279C386.774 211.831 387.022 212.572 387.022 212.925C387.022 213.279 387.38 214.387 387.817 215.388C390.602 221.756 393.225 232.317 395.132 244.84C397.151 258.102 396.542 276.057 393.619 289.407C391.804 297.699 388.864 308.085 388.068 309.016C387.81 309.318 387.59 309.968 387.579 310.46C387.568 310.953 387.058 312.395 386.444 313.666C385.83 314.937 385.32 316.302 385.309 316.698C385.298 317.096 385.029 317.42 384.712 317.42C384.394 317.42 384.134 317.706 384.134 318.055C384.134 318.795 379.938 327.309 378.326 329.839C377.719 330.792 376.959 332.091 376.637 332.727C375.67 334.637 374.83 335.847 369.434 343.101C363.093 351.624 353.459 361.424 344.997 367.96C344.585 368.278 343.9 368.848 343.475 369.229C341.993 370.551 328.971 378.989 326.676 380.113C325.406 380.735 324.233 381.419 324.072 381.632C323.91 381.845 323.065 382.198 322.195 382.416C321.325 382.635 320.613 383.045 320.613 383.328C320.613 383.612 320.327 383.844 319.978 383.844C319.629 383.844 318.525 384.215 317.524 384.669C312.408 386.986 310.231 387.887 309.738 387.887C309.44 387.887 308.451 388.275 307.541 388.75C306.632 389.224 305.448 389.614 304.911 389.616C304.374 389.618 303.788 389.857 303.609 390.147C303.429 390.437 302.179 390.856 300.832 391.079C299.483 391.301 298.12 391.681 297.803 391.923C297.485 392.164 295.957 392.546 294.407 392.77C292.857 392.995 291.038 393.411 290.365 393.695C287.993 394.695 269.936 396.551 262.577 396.551C255.263 396.551 237.408 394.711 234.57 393.665C233.776 393.372 232.087 392.963 230.817 392.755C227.517 392.218 219.737 389.839 215.802 388.164C214.85 387.759 212.705 386.95 211.038 386.366C209.371 385.783 208.007 385.106 208.007 384.863C208.007 384.62 207.706 384.421 207.337 384.421C206.457 384.421 197.957 380.215 197.709 379.656C197.602 379.418 197.209 379.223 196.834 379.223C196.459 379.223 194.803 378.313 193.152 377.201C191.501 376.09 189.902 375.18 189.599 375.18C189.295 375.18 188.96 374.985 188.854 374.747C188.748 374.508 187.622 373.608 186.351 372.746C177.736 366.902 163.711 353.765 157.811 346.011C156.119 343.788 154.507 341.882 154.229 341.776C153.951 341.67 153.725 341.317 153.725 340.993C153.725 340.667 152.991 339.454 152.093 338.297C147.686 332.611 139.711 317.154 136.701 308.468C136.151 306.879 135.481 305.06 135.212 304.425C134.024 301.616 130.954 287.908 129.774 280.14C128.593 272.36 128.589 252.787 129.766 244.958C130.99 236.825 134.367 221.938 135.275 220.673C135.503 220.356 135.883 219.195 136.119 218.093C136.354 216.992 136.761 215.692 137.024 215.205C137.285 214.718 137.883 213.41 138.352 212.298C141.502 204.828 142.956 201.732 145.269 197.57C147.793 193.027 148.822 191.242 149.257 190.656C149.5 190.328 151.816 187.202 154.404 183.707C160.342 175.691 160.715 175.265 168.774 167.246C175.955 160.101 178.95 157.427 179.77 157.427C180.055 157.427 180.289 157.232 180.289 156.994C180.29 156.755 181.459 155.822 182.888 154.919C184.316 154.016 185.485 153.042 185.485 152.753C185.485 152.465 185.756 152.229 186.086 152.229C186.601 152.229 189.81 150.212 190.683 149.341C190.842 149.182 191.881 148.566 192.993 147.971C194.104 147.376 196.962 145.808 199.345 144.486C201.727 143.164 206.014 141.097 208.873 139.893C211.731 138.689 214.85 137.376 215.802 136.974C216.755 136.574 219.094 135.776 221 135.203C222.905 134.631 224.984 133.953 225.619 133.698C226.835 133.211 230.074 132.445 236.302 131.173C238.367 130.751 240.836 130.234 241.788 130.024C247.908 128.673 271.207 128.462 279.901 129.68ZM260.16 141.225C259.148 141.843 258.044 142.864 257.706 143.496C257.285 144.282 257.091 160.591 257.091 195.241C257.091 243.748 257.049 245.817 256.054 245.284C255.484 244.979 244.865 234.573 232.457 222.16L209.898 199.591L206.787 199.61C204.681 199.624 203.281 199.959 202.455 200.649C200.792 202.04 199.658 205.39 200.165 207.412C200.445 208.527 207.979 216.46 223.637 232.126C236.32 244.816 246.697 255.285 246.697 255.391C246.697 255.498 230.07 255.657 209.75 255.746L172.802 255.907L170.915 257.795C169.278 259.434 169.027 260.073 169.027 262.626C169.027 265.331 169.211 265.727 171.289 267.524L173.551 269.48L210.268 269.483L246.986 269.486L231.477 284.876C222.947 293.341 215.478 301.072 214.877 302.056C213.471 304.364 213.491 306.83 214.938 309.204C216.317 311.465 218.496 312.421 221.405 312.041C223.304 311.793 225.405 309.905 240.173 295.182L256.803 278.602L257.091 330.118L257.38 381.634L259 383.028C260.24 384.094 261.291 384.421 263.471 384.421C265.93 384.421 266.541 384.176 267.914 382.634L269.507 380.846L269.796 329.682L270.084 278.518L293.183 301.736C318.491 327.177 318.427 327.125 322.65 325.131C323.895 324.543 325.241 323.413 325.641 322.619C326.533 320.853 326.6 317.742 325.779 316.208C325.445 315.584 315.052 304.879 302.684 292.42C290.315 279.962 280.194 269.704 280.192 269.625C280.191 269.545 296.449 269.48 316.32 269.48C341.949 269.48 352.816 269.291 353.711 268.83C356.744 267.267 357.571 265.951 357.571 262.68C357.571 259.952 357.35 259.34 355.859 257.947C354.917 257.068 353.326 256.184 352.322 255.983C351.318 255.782 334.678 255.618 315.343 255.618C296.009 255.618 280.19 255.512 280.19 255.383C280.19 255.254 287.299 248.041 295.987 239.355C312.752 222.593 313.821 221.193 312.507 217.724C311.067 213.923 307.848 212.234 304.284 213.411C303.005 213.833 297.129 219.255 286.236 230.062L270.084 246.088L269.796 195.259C269.477 139.214 269.723 142.574 265.827 140.924C263.259 139.836 262.359 139.884 260.16 141.225ZM144.485 173.915C144.485 174.088 142.709 176.883 140.539 180.124C134.457 189.206 130.92 195.689 127.24 204.501C122.287 216.358 120.047 223.679 117.609 235.98C117.074 238.68 116.589 241.118 116.532 241.397C116.437 241.86 113.592 236.218 96.6546 201.98C91.3754 191.309 91.1715 190.759 92.2161 189.995C92.8184 189.555 93.6477 189.195 94.0583 189.195C94.4694 189.195 97.083 188.452 99.867 187.543C102.651 186.635 106.877 185.307 109.26 184.592C111.642 183.877 114.013 183.078 114.53 182.817C115.047 182.556 116.476 182.161 117.706 181.939C118.936 181.717 120.203 181.339 120.52 181.1C120.838 180.86 121.998 180.471 123.1 180.235C124.201 179.999 125.5 179.608 125.987 179.366C126.474 179.123 128.821 178.353 131.203 177.655C133.585 176.957 136.054 176.169 136.689 175.904C140.276 174.407 144.485 173.333 144.485 173.915ZM385.656 175.645C388.154 176.452 390.596 177.329 391.083 177.593C391.57 177.857 392.869 178.267 393.97 178.502C395.071 178.738 396.232 179.131 396.55 179.376C396.867 179.62 398.037 180.01 399.148 180.242C400.26 180.474 401.429 180.864 401.747 181.108C402.065 181.353 403.234 181.743 404.346 181.975C405.457 182.207 406.627 182.597 406.944 182.841C407.262 183.085 408.431 183.475 409.543 183.707C410.654 183.94 411.824 184.33 412.141 184.574C412.459 184.818 413.628 185.208 414.74 185.44C415.852 185.672 417.021 186.042 417.339 186.26C417.656 186.479 421.034 187.655 424.846 188.874C428.657 190.093 432.459 191.363 433.295 191.697L434.814 192.304L430.179 201.29C427.63 206.233 423.475 214.306 420.948 219.23C418.42 224.153 415.083 230.521 413.533 233.381C411.983 236.24 410.268 239.472 409.723 240.564L408.731 242.549L407.664 237.099C406.074 228.982 403.69 219.887 402.254 216.466C401.816 215.423 401.458 214.198 401.458 213.742C401.458 212.818 400.565 210.621 396.291 201.035C395.3 198.812 393.959 196.082 393.312 194.971C392.666 193.859 391.726 191.975 391.224 190.783C390.722 189.592 390.119 188.617 389.884 188.617C389.649 188.617 389.293 187.967 389.094 187.173C388.895 186.379 388.477 185.729 388.166 185.729C387.854 185.729 387.599 185.482 387.599 185.18C387.599 184.56 384.742 180.141 382.298 176.982C380.779 175.019 380.357 174.177 380.892 174.177C381.015 174.177 383.159 174.837 385.656 175.645ZM85.6752 209.41C88.0942 214.334 94.1559 226.68 99.1458 236.846C104.135 247.012 109.029 256.961 110.02 258.956L111.823 262.583L110.18 265.598C108.428 268.814 102.551 280.094 97.9244 289.118C96.3774 292.136 94.9816 294.735 94.8223 294.894C94.6635 295.053 93.9324 296.483 93.1984 298.071C92.4645 299.659 91.641 301.349 91.3678 301.825C91.0947 302.302 89.595 305.161 88.0341 308.179C86.4738 311.197 84.202 315.486 82.9865 317.709C81.7709 319.933 80.4098 322.467 79.9617 323.341C79.5136 324.215 78.9436 324.929 78.6953 324.929C78.447 324.929 76.8595 323.435 75.1676 321.608C73.4756 319.781 68.9552 315.035 65.1225 311.061C61.2899 307.086 56.2289 301.758 53.8763 299.22C49.1838 294.158 39.4951 284.067 27.1552 271.389C22.7658 266.88 19.1746 262.954 19.1746 262.666C19.1746 262.108 22.8576 257.938 28.9915 251.55C40.0893 239.994 49.3542 230.201 51.317 227.952C52.536 226.555 55.223 223.677 57.2874 221.557C59.3519 219.436 63.6679 214.861 66.878 211.39C70.0882 207.918 74.2153 203.462 76.0494 201.488L79.3837 197.897L80.3301 199.177C80.851 199.881 83.2561 204.486 85.6752 209.41ZM451.322 205.014C453.911 207.678 459.147 213.179 462.959 217.239C466.77 221.297 471.902 226.678 474.364 229.194C476.825 231.711 478.839 233.848 478.839 233.944C478.839 234.04 482.412 237.75 486.779 242.188C496.184 251.745 504.838 260.983 505.507 262.179C505.989 263.039 505.409 263.687 485.223 284.851C475.308 295.246 465.92 305.318 464.041 307.575C463.128 308.672 460.042 311.974 457.184 314.913C454.325 317.851 450.616 321.696 448.94 323.459C447.264 325.22 445.673 326.662 445.403 326.662C445.133 326.662 443.817 324.388 442.478 321.608C441.138 318.829 439.76 316.034 439.414 315.399C439.068 314.764 436.658 309.955 434.059 304.713C419.715 275.793 413.585 263.217 413.585 262.712C413.585 261.883 426.21 237.145 426.933 236.557C427.129 236.398 427.489 235.619 427.733 234.825C427.977 234.03 428.337 233.251 428.533 233.092C428.728 232.933 430.076 230.464 431.527 227.605C432.979 224.746 436.076 218.767 438.409 214.32C440.743 209.872 443.324 204.88 444.144 203.227C444.964 201.573 445.855 200.209 446.125 200.194C446.394 200.18 448.733 202.349 451.322 205.014ZM21.6958 284.725C23.9618 287.074 27.7378 291.038 30.087 293.533C34.5745 298.3 42.6532 306.746 57.9082 322.619C62.9455 327.86 68.5954 333.777 70.4629 335.766L73.8584 339.382L74.2321 345.874C74.4376 349.444 74.612 356.654 74.6196 361.895C74.6265 367.137 75.0117 380.003 75.4754 390.486C76.5564 414.921 76.5939 423.188 75.622 422.782C75.2253 422.616 73.8608 421.071 72.5903 419.35C71.3199 417.627 70.0853 416.212 69.8474 416.204C69.6094 416.196 69.4143 415.799 69.4143 415.323C69.4143 414.846 69.2081 414.456 68.9557 414.456C67.981 414.456 54.0022 394.348 50.5692 388.007C49.6591 386.326 48.0924 383.467 47.0876 381.653C45.2536 378.343 39.8167 367.559 39.1642 365.938C38.9725 365.462 38.5827 364.682 38.298 364.206C38.0133 363.729 37.3971 362.429 36.9288 361.318C35.0636 356.892 34.0519 354.602 33.2723 353.04C32.8236 352.141 32.4563 350.958 32.4563 350.412C32.4563 349.866 32.1762 349.139 31.8338 348.797C31.4919 348.455 30.9919 347.298 30.7233 346.226C30.4548 345.155 29.5638 342.329 28.7432 339.947C24.9793 329.021 20.8296 312.543 20.0165 305.291C19.8202 303.544 19.4379 301.204 19.1659 300.093C18.8945 298.981 18.3886 295.342 18.0421 292.006C17.6957 288.671 17.2551 284.707 17.0633 283.198C16.8716 281.689 16.908 280.454 17.1453 280.454C17.3821 280.454 19.4298 282.376 21.6958 284.725ZM508.09 282.332C507.908 283.364 507.486 287.068 507.151 290.562C506.817 294.057 506.296 297.956 505.994 299.226C505.692 300.497 505.283 302.966 505.085 304.713C504.684 308.247 503.5 314.249 502.21 319.298C499.188 331.112 499.008 331.738 495.914 341.102C493.659 347.928 492.425 351.256 490.132 356.697C488.321 360.995 482.55 373.307 481.739 374.602C481.441 375.079 480.54 376.768 479.737 378.357C478.934 379.945 477.369 382.804 476.26 384.71C475.151 386.616 473.917 388.825 473.516 389.62C473.116 390.414 472.461 391.407 472.061 391.827C471.66 392.247 471.332 392.85 471.332 393.168C471.332 393.486 471.007 394.108 470.61 394.551C469.058 396.282 468.445 397.093 468.445 397.416C468.445 397.904 465.924 401.425 465.413 401.653C465.174 401.759 464.98 402.173 464.98 402.574C464.98 402.975 464.46 403.774 463.825 404.348C463.19 404.923 462.67 405.715 462.67 406.109C462.67 406.502 462.28 406.973 461.804 407.157C461.327 407.339 460.937 407.887 460.937 408.374C460.937 408.86 460.739 409.258 460.496 409.258C460.254 409.258 459.413 410.298 458.628 411.568C457.842 412.839 457.045 413.879 456.856 413.879C456.668 413.879 455.707 414.984 454.722 416.333C453.737 417.683 452.009 419.828 450.881 421.099L448.833 423.409L448.835 407.814C448.836 399.237 449.203 380.733 449.651 366.695L450.466 341.171L454.113 337.468C456.12 335.43 458.886 332.491 460.261 330.935C461.636 329.379 464.884 325.871 467.48 323.139C478.488 311.552 487.007 302.539 488.991 300.381C490.161 299.111 493.097 295.973 495.517 293.409C497.936 290.845 501.606 286.896 503.67 284.632C505.734 282.368 507.648 280.502 507.922 280.485C508.196 280.468 508.272 281.299 508.09 282.332ZM119.431 297.493C121.027 303.689 122.089 307.276 122.9 309.209C123.338 310.253 123.696 311.466 123.696 311.906C123.696 312.346 124.054 313.442 124.492 314.341C124.929 315.241 125.67 316.886 126.138 317.998C127.737 321.799 130.876 328.683 131.274 329.261C131.493 329.579 132.688 331.806 133.93 334.211C135.856 337.941 141.219 346.547 142.184 347.455C142.352 347.614 142.962 348.485 143.539 349.39L144.586 351.035L142.678 350.616C141.628 350.385 140.371 349.979 139.884 349.714C139.398 349.449 130.294 346.36 119.654 342.849C109.014 339.338 99.9103 336.242 99.4235 335.969C98.9367 335.696 97.6848 335.285 96.6419 335.056C95.5984 334.827 94.0479 334.276 93.1961 333.831C92.3438 333.386 91.3222 333.021 90.9249 333.019C90.5282 333.017 90.2031 332.927 90.2031 332.819C90.2031 332.712 91.466 330.177 93.009 327.188C94.5526 324.198 97.0859 319.283 98.6393 316.265C100.193 313.247 101.659 310.691 101.897 310.586C102.135 310.479 102.332 310.09 102.333 309.719C102.336 309.349 102.683 308.396 103.105 307.601C108.663 297.148 110.41 293.832 112.689 289.405C114.162 286.546 115.596 283.836 115.875 283.383C116.219 282.828 116.734 284.423 117.461 288.294C118.054 291.448 118.94 295.587 119.431 297.493ZM421.39 309.03C428.261 322.84 433.719 334.406 433.518 334.733C433.316 335.059 432.773 335.326 432.311 335.326C431.849 335.326 431.019 335.567 430.468 335.861C429.556 336.347 419.903 339.415 412.719 341.501C411.131 341.963 409.433 342.549 408.946 342.803C408.459 343.057 407.16 343.443 406.059 343.661C404.958 343.879 403.537 344.278 402.902 344.548C402.267 344.818 398.629 345.993 394.817 347.16C391.006 348.326 387.368 349.496 386.733 349.759C384.296 350.768 380.092 351.901 380.092 351.548C380.092 351.192 385.179 343.855 386.418 342.426C386.75 342.042 387.022 341.599 387.022 341.441C387.022 341.283 387.633 340.253 388.379 339.152C389.741 337.145 396.508 323.769 398.351 319.442C400.489 314.422 402.409 308.947 404.021 303.269C406.286 295.292 406.655 293.858 406.655 293.037C406.655 291.904 408.45 283.92 408.704 283.92C408.809 283.92 414.518 295.219 421.39 309.03ZM100.02 350.273C103.99 351.588 107.758 352.89 108.393 353.167C109.029 353.444 115.005 355.438 121.675 357.597C128.345 359.756 134.581 361.847 135.534 362.242C136.487 362.638 139.216 363.521 141.598 364.206C143.98 364.89 146.327 365.657 146.814 365.909C147.301 366.162 148.6 366.562 149.701 366.798C150.803 367.034 151.963 367.421 152.281 367.658C152.598 367.895 153.517 368.246 154.323 368.438C155.847 368.8 156.02 369.154 158.053 376.046C158.615 377.952 159.396 380.421 159.788 381.533C160.18 382.645 160.927 384.984 161.448 386.732C162.382 389.868 166.137 401.746 169.391 411.857C170.311 414.716 171.482 418.485 171.993 420.232C172.504 421.979 173.279 424.263 173.718 425.306C174.155 426.349 174.513 427.54 174.513 427.952C174.513 428.364 175.062 430.449 175.732 432.586C176.403 434.722 176.847 436.573 176.72 436.701C176.593 436.828 165.325 436.67 151.68 436.351C138.036 436.032 118.674 435.621 108.654 435.438L90.4358 435.106L89.7221 416.551C89.3294 406.345 88.7652 387.468 88.469 374.602C88.1727 361.736 87.7951 350.275 87.6305 349.133C87.15 345.805 86.2896 345.725 100.02 350.273ZM436.684 353.953C436.684 356.891 436.289 372.292 435.807 388.176C435.324 404.06 434.87 421.084 434.796 426.008L434.663 434.961L423.691 435.302C403.96 435.914 368.485 436.933 357.37 437.205L346.487 437.472L346.883 435.35C347.101 434.183 347.486 432.968 347.739 432.65C347.991 432.333 348.391 431.172 348.627 430.07C348.862 428.969 349.253 427.669 349.495 427.182C349.737 426.695 352.16 419.539 354.88 411.279C360.452 394.352 360.827 393.235 363.314 386.154C363.705 385.042 364.239 383.353 364.5 382.4C365.081 380.288 366.16 377.245 367.194 374.804C367.618 373.803 367.965 372.71 367.965 372.376C367.965 370.677 369.418 368.853 371.057 368.492C372.036 368.278 373.234 367.903 373.721 367.661C374.208 367.419 376.555 366.651 378.937 365.956C381.319 365.261 384.307 364.357 385.578 363.947C386.848 363.538 389.447 362.744 391.353 362.183C393.258 361.623 395.727 360.843 396.839 360.451C397.95 360.059 400.289 359.312 402.036 358.792C403.783 358.271 407.659 357.071 410.649 356.124C413.639 355.178 416.955 354.24 418.018 354.04C419.081 353.841 420.078 353.47 420.235 353.216C420.392 352.962 421.624 352.572 422.972 352.35C424.32 352.127 425.683 351.745 426.001 351.5C426.318 351.255 427.488 350.864 428.599 350.632C429.711 350.4 430.88 350.008 431.198 349.761C431.899 349.216 433.631 348.768 435.384 348.678C436.643 348.613 436.684 348.778 436.684 353.953ZM183.175 386.732C183.761 387.317 185.819 388.526 187.362 389.19C188.235 389.565 188.95 390.076 188.95 390.324C188.95 390.572 189.246 390.775 189.608 390.775C189.97 390.775 191.464 391.505 192.928 392.397C194.393 393.289 198.839 395.399 202.809 397.085C206.779 398.771 210.547 400.381 211.183 400.662C215.954 402.775 227.28 405.783 235.552 407.135C237.84 407.508 239.973 408.076 240.293 408.397C240.684 408.788 236.848 411.012 228.584 415.183C221.824 418.596 215.988 421.387 215.615 421.387C215.242 421.387 214.936 421.626 214.936 421.919C214.936 422.212 214.157 422.622 213.204 422.831C212.251 423.04 211.471 423.43 211.471 423.698C211.471 423.965 210.692 424.355 209.739 424.564C208.786 424.773 208.007 425.163 208.007 425.43C208.007 425.698 207.227 426.088 206.274 426.297C205.321 426.506 204.542 426.896 204.542 427.163C204.542 427.431 203.762 427.821 202.809 428.03C201.857 428.239 201.077 428.629 201.077 428.896C201.077 429.163 200.297 429.553 199.345 429.762C198.392 429.971 197.612 430.361 197.612 430.629C197.612 430.896 196.833 431.286 195.88 431.495C194.927 431.704 194.147 432.072 194.147 432.311C194.147 432.55 193.257 433.019 192.168 433.353C189.929 434.04 190.037 434.196 188.082 427.452C187.53 425.546 186.719 423.133 186.281 422.09C185.843 421.047 185.485 419.816 185.485 419.355C185.485 418.894 184.743 416.239 183.834 413.454C182.927 410.669 181.594 406.442 180.875 404.06C180.155 401.677 179.359 399.208 179.107 398.572C178.259 396.438 174.575 384.153 174.192 382.181L173.812 380.23L178.349 383.337C180.845 385.045 183.017 386.573 183.175 386.732ZM350.641 381.476C350.641 381.978 346.439 394.769 342.368 406.659C341.28 409.835 338.884 417.059 337.044 422.711C335.203 428.363 333.379 433.423 332.991 433.954C332.335 434.851 332.126 434.839 330.058 433.785C328.833 433.161 327.701 432.49 327.542 432.295C327.384 432.099 326.604 431.74 325.81 431.495C325.016 431.251 324.236 430.887 324.078 430.688C323.919 430.488 322.36 429.615 320.613 428.749C318.866 427.882 315.098 425.919 312.239 424.386C306.364 421.234 294.235 414.809 287.574 411.319C285.124 410.035 283.327 408.777 283.582 408.522C283.836 408.268 286.231 407.696 288.902 407.252C298.609 405.639 304.35 404.098 314.803 400.301C320.339 398.289 335.745 390.882 336.108 390.057C336.214 389.817 336.576 389.62 336.913 389.62C337.587 389.62 348.794 382.185 349.263 381.428C349.655 380.792 350.641 380.826 350.641 381.476ZM266.023 414.984C266.624 415.448 278.663 421.841 285.098 425.113C287.004 426.082 288.693 427.034 288.852 427.23C289.011 427.425 289.79 427.785 290.584 428.03C291.378 428.274 292.158 428.634 292.317 428.83C292.476 429.025 294.295 430.05 296.359 431.108C298.424 432.166 304.27 435.155 309.352 437.751C314.434 440.346 318.722 442.627 318.88 442.82C319.039 443.014 320.539 443.823 322.215 444.62L325.261 446.068L321.72 449.468C319.772 451.337 315.389 455.595 311.979 458.931C303.174 467.545 284.412 485.473 281.403 488.15C280.005 489.393 275.342 493.853 271.039 498.063C266.737 502.272 262.848 505.716 262.396 505.716C261.945 505.716 259.569 503.702 257.116 501.24C254.663 498.777 250.478 494.814 247.815 492.431C245.152 490.049 241.328 486.475 239.317 484.489C237.306 482.504 235.533 480.879 235.377 480.879C235.22 480.879 234.52 480.285 233.82 479.559C232.382 478.065 210.105 456.865 206.563 453.619C200.903 448.432 198.19 445.816 198.19 445.545C198.19 445.137 229.618 429.474 230.438 429.474C230.805 429.474 231.105 429.234 231.105 428.942C231.105 428.649 231.885 428.239 232.838 428.03C233.79 427.821 234.57 427.431 234.57 427.163C234.57 426.896 235.35 426.506 236.302 426.297C237.255 426.088 238.035 425.698 238.035 425.43C238.035 425.163 238.814 424.773 239.767 424.564C240.72 424.355 241.5 423.965 241.5 423.698C241.5 423.43 242.279 423.04 243.232 422.831C244.185 422.622 244.964 422.232 244.964 421.965C244.964 421.697 245.744 421.308 246.697 421.099C247.65 420.889 248.429 420.5 248.429 420.232C248.429 419.965 249.209 419.575 250.162 419.366C251.115 419.157 251.894 418.767 251.894 418.499C251.894 418.232 252.674 417.842 253.626 417.633C254.579 417.424 255.359 417.034 255.359 416.767C255.359 416.499 256.138 416.109 257.091 415.9C258.044 415.691 258.824 415.318 258.824 415.071C258.824 414.825 259.668 414.37 260.7 414.059C262.491 413.52 264.605 413.888 266.023 414.984ZM151.126 449.412C165.101 449.584 178.164 449.868 180.155 450.043C183.773 450.361 183.782 450.366 188.618 455.079C191.281 457.674 194.81 461.016 196.46 462.506C198.11 463.995 201.597 467.244 204.209 469.726C206.821 472.207 212.422 477.486 216.656 481.457C220.889 485.428 226.977 491.179 230.184 494.236C233.39 497.294 236.793 500.496 237.746 501.351C241.783 504.976 244.418 507.611 244.212 507.816C243.937 508.092 229.503 506.956 227.929 506.536C227.294 506.366 224.565 505.863 221.866 505.419C219.166 504.974 215.138 504.224 212.915 503.752C210.692 503.279 207.573 502.625 205.985 502.299C204.397 501.973 202.189 501.45 201.077 501.136C199.965 500.823 197.107 500.017 194.725 499.346C192.343 498.675 189.874 497.922 189.239 497.672C188.604 497.423 186.135 496.607 183.753 495.859C181.371 495.111 179.175 494.293 178.873 494.043C178.571 493.792 177.972 493.587 177.542 493.587C177.112 493.587 175.669 493.096 174.337 492.495C173.005 491.895 170.55 490.924 168.883 490.338C167.216 489.752 165.851 489.094 165.851 488.876C165.851 488.658 165.037 488.301 164.041 488.082C163.045 487.864 161.031 487.095 159.566 486.374C149.585 481.465 146.884 480.104 145.351 479.207C144.398 478.649 142.19 477.412 140.443 476.457C135.755 473.893 134.495 473.145 133.782 472.504C133.428 472.187 132.184 471.413 131.016 470.785C129.849 470.156 128.893 469.442 128.893 469.196C128.893 468.951 128.623 468.75 128.293 468.75C127.609 468.75 124.085 466.376 123.793 465.718C123.686 465.479 123.351 465.284 123.047 465.284C122.459 465.284 119.572 463.341 117.703 461.687C117.082 461.137 115.514 459.968 114.217 459.087C112.92 458.207 111.423 457.097 110.891 456.621C110.36 456.144 108.373 454.585 106.477 453.155C99.9588 448.24 99.8462 448.309 113.677 448.731C120.299 448.933 137.151 449.24 151.126 449.412ZM422.825 448.986C422.825 449.234 420.976 450.988 418.716 452.885C416.457 454.78 414.266 456.657 413.849 457.054C413.431 457.451 412.92 457.776 412.713 457.776C412.24 457.776 407.012 461.954 406.752 462.541C406.646 462.779 406.311 462.974 406.006 462.974C405.528 462.974 402.29 465.03 401.458 465.862C400.627 466.694 397.388 468.75 396.91 468.75C396.606 468.75 396.271 468.96 396.165 469.217C396.059 469.474 393.634 471.081 390.775 472.789C387.917 474.497 385.448 476.042 385.289 476.221C385.034 476.509 382.324 477.935 372.585 482.903C367.563 485.465 362.463 487.743 360.891 488.127C360.017 488.339 359.303 488.69 359.303 488.905C359.303 489.121 357.419 489.937 355.116 490.719C352.814 491.502 350.843 492.337 350.738 492.576C350.631 492.814 350.112 493.011 349.583 493.012C349.053 493.015 347.923 493.38 347.071 493.824C346.219 494.269 344.66 494.817 343.606 495.043C342.552 495.268 341.43 495.653 341.113 495.897C340.795 496.141 339.635 496.534 338.533 496.77C337.432 497.006 336.133 497.407 335.646 497.661C334.479 498.271 329.509 499.728 326.965 500.205C325.853 500.414 324.424 500.821 323.789 501.109C323.154 501.397 321.205 501.915 319.458 502.26C317.711 502.604 314.463 503.279 312.239 503.757C306.675 504.954 298.852 506.189 292.317 506.901C289.3 507.23 285.337 507.703 283.51 507.952C281.684 508.202 280.19 508.285 280.19 508.136C280.19 507.773 302.526 486.205 315.63 473.915C317.813 471.868 322.399 467.465 325.823 464.129C329.246 460.794 333.73 456.479 335.788 454.541L339.529 451.017L353.603 450.604C361.343 450.377 378.98 449.86 392.796 449.455C406.612 449.049 419.021 448.677 420.37 448.626C421.72 448.576 422.825 448.738 422.825 448.986Z" fill="white" stroke="white" stroke-width="5"/>
</svg>
