<svg width="97" height="30" viewBox="0 0 97 30" fill="none" xmlns="http://www.w3.org/2000/svg">
<g clip-path="url(#clip0_2588_38)">
<mask id="mask0_2588_38" style="mask-type:luminance" maskUnits="userSpaceOnUse" x="0" y="0" width="97" height="30">
<path d="M97 0H0V30H97V0Z" fill="white"/>
</mask>
<g mask="url(#mask0_2588_38)">
<path d="M41.886 1.2546L42.7127 0.927328C44.5315 5.36904e-05 45.6338 0.0545991 46.0196 0.109145C46.4053 0.16369 46.9565 0.545508 46.1298 1.80006C46.1849 1.80006 46.5156 1.63642 46.5707 1.63642C48.8855 0.545508 49.7122 0.16369 49.9877 0.0545991C50.2322 0.00997805 50.4846 0.0484216 50.7042 0.16369C50.8533 0.222211 50.9857 0.315823 51.09 0.436418C51.5309 0.872783 51.6411 1.09096 50.7042 2.23642C50.7593 2.40006 50.0428 3.21824 50.0428 3.43642C51.4207 2.61824 51.4758 3.10915 51.586 3.38187C51.7079 3.48508 51.8025 3.61614 51.8616 3.76369C52.0269 4.36369 51.9718 4.69096 51.0349 5.83642C51.0349 6.00006 50.3735 6.7637 50.3735 6.92733C51.4207 6.60006 51.4207 6.87279 51.586 7.09097C51.6937 7.18599 51.7866 7.29628 51.8616 7.41824C52.0269 7.85461 52.0269 7.9637 51.09 9.10915C51.4758 8.94552 51.7514 9.60006 51.4207 9.87279C51.3656 9.92733 50.9798 10.2001 50.9798 10.2546C51.4207 10.0364 51.5309 10.5819 51.2553 10.691C50.0415 11.2968 48.7897 11.8251 47.5076 12.2728C46.6809 12.3819 45.9644 11.6182 46.9014 10.691C46.9565 10.6364 46.4053 10.9092 46.2951 10.9092C43.6497 12.1092 42.7127 12.3273 42.2718 12.3273H42.1616C42.0753 12.3316 41.9894 12.3138 41.9122 12.2756C41.8349 12.2373 41.769 12.18 41.7207 12.1092C41.39 11.7819 41.3349 11.7273 42.1616 10.8546C42.0514 10.8001 42.6025 10.1455 42.4923 10.091C40.398 10.9637 40.1775 10.6364 39.9571 10.2546C39.8494 10.1596 39.7565 10.0493 39.6815 9.92733C39.5161 9.60006 39.5161 9.05461 40.6184 7.90915L41.39 6.81824C40.1775 7.30915 40.1224 6.98188 39.9571 6.60006C39.8472 6.48655 39.7543 6.35793 39.6815 6.21824C39.5161 5.5637 39.5161 5.18187 40.6735 3.76369C40.1224 3.98187 40.0673 3.87278 39.9571 3.87278C39.8398 3.81105 39.7439 3.71609 39.6815 3.60006C39.5713 3.27278 39.6264 3.0546 40.0122 1.96369C40.0673 1.90915 40.2326 1.2546 40.2877 1.20006C40.3166 1.00634 40.4165 0.829948 40.5685 0.704565C40.7205 0.579181 40.9138 0.513596 41.1115 0.520344C41.3093 0.527092 41.4975 0.605696 41.6404 0.741143C41.7832 0.87659 41.8707 1.05938 41.886 1.2546Z" fill="#1D8DCC"/>
<path d="M54.6724 2.34539C54.6702 2.03678 54.73 1.7308 54.8483 1.44526C54.9667 1.15971 55.1413 0.900283 55.3617 0.682052C55.5822 0.463823 55.8445 0.29114 56.1328 0.174041C56.4216 0.0569412 56.7307 -0.00224016 57.0421 -6.41739e-05H64.2069C64.5189 -0.00224016 64.828 0.0569412 65.1168 0.174041C65.4051 0.29114 65.6674 0.463823 65.8879 0.682052C66.1083 0.900283 66.2825 1.15971 66.401 1.44526C66.5195 1.7308 66.579 2.03678 66.5768 2.34539V9.43631C66.579 9.74493 66.5195 10.0509 66.401 10.3364C66.2825 10.622 66.1083 10.8814 65.8879 11.0996C65.6674 11.3179 65.4051 11.4905 65.1168 11.6077C64.828 11.7248 64.5189 11.7839 64.2069 11.7818H57.0421C56.7307 11.7839 56.4216 11.7248 56.1328 11.6077C55.8445 11.4905 55.5822 11.3179 55.3617 11.0996C55.1413 10.8814 54.9667 10.622 54.8483 10.3364C54.73 10.0509 54.6702 9.74493 54.6724 9.43631V2.34539Z" fill="#38BFC4"/>
<path d="M87.6308 26.4545C87.1309 26.6897 86.5864 26.8197 86.0325 26.8363C85.548 26.8422 85.0674 26.7482 84.6216 26.5604C84.1757 26.3726 83.7739 26.0951 83.4421 25.7454C82.7565 25.0007 82.3818 24.0258 82.395 23.0181C82.3658 22.5162 82.444 22.0138 82.6248 21.5439C82.805 21.0739 83.0839 20.6469 83.4421 20.2909C83.7739 19.9412 84.1757 19.6636 84.6216 19.4758C85.0674 19.288 85.548 19.1941 86.0325 19.1999C86.5324 19.1804 87.03 19.2734 87.4886 19.4718C87.9466 19.6702 88.3533 19.9689 88.6779 20.3454C89.3889 21.2443 89.7416 22.3699 89.67 23.509C89.6386 24.1385 89.4313 24.7471 89.0714 25.2671C88.7116 25.7871 88.2128 26.1981 87.6308 26.4545ZM54.7833 26.4545C54.2829 26.6897 53.7387 26.8197 53.185 26.8363C52.7004 26.8422 52.2198 26.7482 51.7739 26.5604C51.3279 26.3726 50.9264 26.0951 50.5946 25.7454C49.9085 25.0007 49.5342 24.0258 49.5475 23.0181C49.5183 22.5162 49.5965 22.0138 49.7769 21.5439C49.9574 21.0739 50.236 20.6469 50.5946 20.2909C50.9264 19.9412 51.3279 19.6636 51.7739 19.4758C52.2198 19.288 52.7004 19.1941 53.185 19.1999C53.6847 19.1804 54.1825 19.2734 54.6407 19.4718C55.0989 19.6702 55.5056 19.9689 55.8302 20.3454C56.5412 21.2443 56.8939 22.3699 56.8223 23.509C56.7908 24.1385 56.5836 24.7471 56.2237 25.2671C55.8638 25.7871 55.365 26.1981 54.7833 26.4545ZM57.3734 21.8727C57.2852 21.454 57.1364 21.0499 56.9325 20.6727C56.5257 20.0152 55.957 19.4709 55.2791 19.0909C54.6232 18.7265 53.8822 18.5384 53.1299 18.5454C52.5472 18.5295 51.9675 18.6327 51.427 18.8485C50.8864 19.0644 50.3967 19.3883 49.9884 19.7999C49.1667 20.6734 48.7132 21.8247 48.7208 23.0181C48.7186 23.5977 48.8309 24.1721 49.0515 24.709C49.2566 25.2592 49.5757 25.7609 49.9884 26.1818C50.3809 26.6165 50.872 26.953 51.4213 27.1636C51.983 27.382 52.5815 27.4931 53.185 27.4909C53.729 27.4845 54.2685 27.3925 54.7833 27.2181C55.5894 26.8984 56.2799 26.3476 56.7671 25.6363V27.3272H57.5387V23.509C57.5387 22.9595 57.4831 22.4114 57.3734 21.8727ZM39.9026 27.3272V14.509H40.6742V22.2545H41.556C42.0352 22.2563 42.5077 22.1441 42.9338 21.9272C43.4188 21.5936 43.8311 21.167 44.1463 20.6727L45.5793 18.6545H46.4611L45.0282 20.8363C44.8077 21.1636 44.5872 21.4363 44.3668 21.709C44.1602 21.9067 43.9392 22.089 43.7054 22.2545C44.0536 22.2664 44.396 22.3466 44.7126 22.4906C45.0291 22.6346 45.3137 22.8394 45.5496 23.0932C45.7855 23.3469 45.9681 23.6446 46.0867 23.9688C46.2053 24.293 46.2576 24.6374 46.2407 24.9818V27.2727H45.4691V25.2545C45.5068 24.6088 45.3115 23.9708 44.9179 23.4545C44.7035 23.2407 44.4443 23.0762 44.1586 22.9725C43.8729 22.8688 43.5677 22.8286 43.2645 22.8545H40.8395V27.2727L39.9026 27.3272ZM71.8683 23.4545C71.806 22.3331 72.1587 21.2277 72.8603 20.3454C73.1811 19.9637 73.5867 19.6615 74.0464 19.4626C74.5055 19.2637 75.0053 19.1738 75.5058 19.1999C75.9908 19.1941 76.4714 19.288 76.9172 19.4758C77.3631 19.6636 77.7649 19.9412 78.0961 20.2909C78.7905 21.0304 79.1664 22.0088 79.1433 23.0181C79.1631 23.519 79.0804 24.0187 78.9002 24.4873C78.7206 24.9559 78.4472 25.3837 78.0961 25.7454C77.7649 26.0951 77.3631 26.3726 76.9172 26.5604C76.4714 26.7482 75.9908 26.8422 75.5058 26.8363C74.9491 26.8461 74.3985 26.7147 73.9075 26.4545C73.3012 26.2173 72.7815 25.8035 72.4172 25.2679C72.0535 24.7323 71.8617 24.1 71.8683 23.4545ZM71.0967 23.509V29.9999H71.8683V25.6363C72.3687 26.3356 73.0554 26.8834 73.8524 27.2181C74.3605 27.4185 74.9045 27.5114 75.4507 27.4909C76.0542 27.4931 76.6527 27.382 77.2143 27.1636C77.7638 26.9528 78.2548 26.6164 78.6473 26.1818C79.0419 25.7468 79.3582 25.2488 79.5842 24.709C79.8052 24.1531 79.9176 23.5609 79.9149 22.9636C79.9441 22.3691 79.8465 21.7752 79.6283 21.2207C79.4095 20.6662 79.0755 20.1634 78.6473 19.7454C78.2466 19.3237 77.7583 18.9931 77.216 18.7765C76.6736 18.5599 76.09 18.4624 75.5058 18.4909C74.7529 18.4771 74.01 18.6655 73.3563 19.0363C72.679 19.4164 72.1102 19.9607 71.7029 20.6181C71.4759 20.9846 71.326 21.3928 71.262 21.8181C71.0983 22.3661 71.0421 22.9401 71.0967 23.509ZM60.9007 23.4545C60.8301 22.3322 61.1834 21.2239 61.8927 20.3454C62.2135 19.9637 62.6191 19.6615 63.0788 19.4626C63.5379 19.2637 64.0377 19.1738 64.5382 19.1999C65.0232 19.1941 65.5038 19.288 65.9496 19.4758C66.3955 19.6636 66.7973 19.9412 67.1285 20.2909C67.8229 21.0304 68.1988 22.0088 68.1757 23.0181C68.1955 23.519 68.1128 24.0187 67.9326 24.4873C67.7529 24.9559 67.4796 25.3837 67.1285 25.7454C66.7973 26.0951 66.3955 26.3726 65.9496 26.5604C65.5038 26.7482 65.0232 26.8422 64.5382 26.8363C63.9815 26.8461 63.4309 26.7147 62.9399 26.4545C62.3336 26.2173 61.8139 25.8035 61.4496 25.2679C61.0858 24.7323 60.8941 24.1 60.9007 23.4545ZM60.1842 23.509V29.9999H60.9558V25.6363C61.443 26.3354 62.1358 26.8688 62.9399 27.1636C63.448 27.3639 63.992 27.4569 64.5382 27.4363C65.1417 27.4385 65.7402 27.3275 66.3018 27.109C66.8513 26.8983 67.3423 26.5618 67.7348 26.1272C68.1294 25.6922 68.4457 25.1943 68.6717 24.6545C68.8927 24.0986 69.0046 23.5063 69.0024 22.909C69.0316 22.3145 68.934 21.7207 68.7158 21.1661C68.497 20.6116 68.163 20.1089 67.7348 19.6909C67.3341 19.2691 66.8458 18.9386 66.3035 18.722C65.7611 18.5053 65.1775 18.4079 64.5933 18.4363C63.8404 18.4225 63.0975 18.611 62.4438 18.9818C61.7665 19.3618 61.1977 19.9061 60.7904 20.5636C60.5634 20.93 60.4135 21.3382 60.3495 21.7636C60.1858 22.3302 60.1296 22.9221 60.1842 23.509ZM90.2211 21.8181C90.1329 21.3994 89.9841 20.9954 89.7802 20.6181C89.3906 19.9809 88.8405 19.4547 88.1836 19.0914C87.5266 18.728 86.7853 18.5399 86.0325 18.5454C85.4494 18.5244 84.8679 18.6253 84.3267 18.8415C83.7855 19.0576 83.2966 19.3842 82.891 19.7999C82.4782 20.2176 82.1536 20.7124 81.9359 21.2556C81.7182 21.7988 81.6124 22.3793 81.6234 22.9636C81.6267 23.5604 81.7386 24.1517 81.9541 24.709C82.18 25.2488 82.4969 25.7468 82.891 26.1818C83.284 26.6164 83.775 26.9528 84.324 27.1636C84.8861 27.382 85.4841 27.4931 86.0876 27.4909C86.7991 27.4871 87.4991 27.3172 88.1312 26.9949C88.7634 26.6726 89.3095 26.2071 89.7251 25.6363V27.3272H90.4967V23.509C90.3865 22.9636 90.3313 22.4181 90.2211 21.8181Z" fill="#38BFC4"/>
<path d="M26.7854 12.7091C26.7555 12.7126 26.7252 12.7096 26.6965 12.7001C26.6679 12.6907 26.6418 12.6751 26.6201 12.6545C26.3976 12.5934 26.2031 12.4586 26.0689 12.2727C25.6831 11.6182 25.7933 11.5636 27.7223 9.8727L29.1002 8.72724C25.5178 10.8545 25.4627 10.8 25.0769 10.6909C24.8698 10.6282 24.6932 10.4923 24.5808 10.3091C24.1951 9.65452 24.3053 9.59997 26.3996 7.79997L27.9428 6.54543C25.4627 7.96361 25.4076 7.96361 25.0769 7.85452C24.8544 7.79343 24.6599 7.65864 24.5257 7.4727C24.2502 6.98179 24.1951 6.8727 26.5098 4.47269C25.4076 5.07269 25.3524 5.07269 25.0769 5.01814C24.9625 4.99798 24.8539 4.95337 24.7588 4.88742C24.6635 4.82148 24.584 4.73579 24.5257 4.63632C24.2502 4.3636 24.2502 4.3636 24.8013 2.39996C24.919 2.04319 25.0111 1.67865 25.0769 1.30905C24.9115 1.3636 24.5257 0.763598 25.1871 0.545414C25.6831 0.327232 26.2894 -0.109132 26.7303 0.599961C26.8956 0.927234 26.9507 0.927234 26.5098 2.5636L27.557 1.90905C30.7536 0.0545043 30.7536 0.0545044 31.1394 0.163595C31.3618 0.224691 31.5564 0.359466 31.6905 0.545414C32.0212 1.09087 32.0212 1.09087 29.7064 3.59996L30.2576 3.27269C35.824 -4.09993e-05 35.824 -4.11009e-05 36.2649 0.163595C36.4721 0.226267 36.6486 0.362176 36.761 0.545414C37.1468 1.19996 37.0365 1.25451 34.8871 3.05451L33.3439 4.30905C36.0996 2.72723 36.1547 2.72723 36.4854 2.83632C36.6925 2.89899 36.869 3.0349 36.9814 3.21814C37.3672 3.87269 37.257 3.92723 35.328 5.56361L34.0053 6.70906C36.0996 5.50906 36.1547 5.56361 36.4854 5.61815C36.6925 5.68083 36.869 5.8167 36.9814 5.99997C37.257 6.49088 37.3121 6.54543 35.4382 8.78179C36.1547 8.39997 36.2098 8.45452 36.4854 8.45452C36.7009 8.51812 36.8838 8.66092 36.9965 8.85352C37.1092 9.04617 37.1432 9.27417 37.0916 9.49088C37.0671 9.61792 37.0079 9.7359 36.9205 9.83206C36.833 9.92817 36.7207 9.99881 36.5956 10.0363C36.4303 10.0909 35.2729 10.8 34.4462 11.2909C31.9661 12.7636 31.9661 12.7636 31.5803 12.6545C31.3578 12.5934 31.1633 12.4586 31.0291 12.2727C30.7536 11.7818 30.6985 11.7272 32.6274 9.49088L31.9661 9.8727C27.7774 12.3272 27.1161 12.7091 26.7854 12.7091Z" fill="#006495"/>
<path d="M22.3211 27.3273V18.6546H23.0376V20.3455C23.3612 19.8068 23.8159 19.3567 24.3603 19.0364C24.9062 18.7582 25.5099 18.6089 26.1239 18.6H26.3444C26.4574 18.5914 26.5709 18.6101 26.6751 18.6546V19.3637H26.6199C26.4352 19.3573 26.2511 19.3391 26.0688 19.3091C25.6721 19.3005 25.2784 19.3792 24.9162 19.5396C24.5541 19.6999 24.2324 19.9379 23.9745 20.2364C23.4025 20.9257 23.108 21.7998 23.1478 22.6909V27.2728L22.3211 27.3273ZM18.0773 18.6546H18.8489V23.5637C18.9105 24.6183 18.5546 25.6552 17.8569 26.4546C17.5298 26.8067 17.1277 27.0823 16.6796 27.2616C16.2316 27.4408 15.7489 27.5192 15.2665 27.4909C14.7841 27.5192 14.3014 27.4408 13.8534 27.2616C13.4053 27.0823 13.0032 26.8067 12.6762 26.4546C11.9936 25.6466 11.6399 24.6159 11.6841 23.5637V18.6546H12.4557V23.7818C12.4267 24.1784 12.4803 24.5766 12.613 24.9519C12.7457 25.3272 12.9548 25.6715 13.2273 25.9637C13.484 26.242 13.8003 26.4599 14.1532 26.6015C14.5061 26.743 14.8865 26.8046 15.2665 26.7818C15.6444 26.787 16.0194 26.7172 16.3697 26.5767C16.7199 26.4362 17.0382 26.2278 17.3057 25.9637C17.5782 25.6715 17.7873 25.3272 17.92 24.9519C18.0527 24.5766 18.1063 24.1784 18.0773 23.7818V18.6546ZM1.8739 20.2909C2.20561 19.9413 2.60721 19.6637 3.05315 19.4759C3.49909 19.2881 3.97963 19.1941 4.46424 19.2C4.99643 19.198 5.52283 19.3096 6.00744 19.5273C6.47569 19.7452 6.87565 20.0844 7.16483 20.5091L1.10231 24.5455C0.882055 24.0467 0.769431 23.508 0.771624 22.9637C0.771475 21.9643 1.16722 21.0047 1.8739 20.2909ZM8.04665 23.0728C8.02311 24.0673 7.63081 25.0187 6.94437 25.7455C6.62499 26.0924 6.23214 26.3652 5.79388 26.5443C5.3556 26.7235 4.88275 26.8046 4.40912 26.7818C3.92452 26.7877 3.44398 26.6938 2.99804 26.506C2.55209 26.3182 2.1505 26.0406 1.81878 25.6909C1.65853 25.52 1.51117 25.3377 1.37787 25.1455L8.15687 20.6728C7.77279 20.0021 7.22281 19.439 6.55858 19.0364C5.9051 18.6656 5.16225 18.4771 4.40912 18.4909C3.81465 18.4846 3.22502 18.5972 2.67568 18.8222C2.12634 19.0472 1.62866 19.3798 1.21253 19.8C0.430008 20.6933 -0.000528814 21.836 3.36369e-05 23.0182C-0.00223204 23.6155 0.109978 24.2077 0.330715 24.7637C0.556267 25.3165 0.893894 25.8177 1.32276 26.2364C1.73295 26.6372 2.22021 26.9525 2.75571 27.1637C3.28045 27.377 3.84184 27.4881 4.40912 27.4909C4.98178 27.4938 5.54934 27.3844 6.07909 27.1691C6.60879 26.9538 7.0902 26.6368 7.49551 26.2364C8.3345 25.3869 8.8254 24.2597 8.87335 23.0728H8.04665ZM28.8245 22.9637C28.7953 23.4656 28.8735 23.968 29.0539 24.4379C29.2344 24.9079 29.513 25.3349 29.8716 25.6909C30.1854 26.0258 30.563 26.2958 30.9828 26.4854C31.4025 26.675 31.8561 26.7805 32.3173 26.7957C32.7785 26.8109 33.2381 26.7356 33.6697 26.574C34.1013 26.4125 34.4963 26.168 34.8319 25.8546L34.9972 25.6909C35.6632 24.946 36.0309 23.9856 36.0309 22.9909C36.0309 21.9963 35.6632 21.0359 34.9972 20.2909C34.3524 19.6139 33.4632 19.2167 32.5236 19.186C31.584 19.1554 30.6703 19.4937 29.9819 20.1273L29.8165 20.2909C29.4809 20.6495 29.2204 21.0702 29.0502 21.529C28.8799 21.9878 28.8032 22.4754 28.8245 22.9637ZM27.9978 23.0182C27.9955 22.4209 28.1077 21.8286 28.3285 21.2728C28.554 20.7199 28.8916 20.2187 29.3205 19.8C29.7131 19.3654 30.2042 19.0289 30.7535 18.8182C31.8307 18.3817 33.0381 18.3817 34.1154 18.8182C34.6647 19.0289 35.1557 19.3654 35.5484 19.8C35.9594 20.233 36.2947 20.7307 36.5404 21.2728C36.9815 22.3955 36.9815 23.641 36.5404 24.7637C36.3277 25.3074 35.9877 25.7934 35.5484 26.1818C35.1557 26.6165 34.6647 26.9529 34.1154 27.1637C33.019 27.5999 31.7947 27.5999 30.6984 27.1637C30.1491 26.9529 29.658 26.6165 29.2654 26.1818C28.8365 25.7632 28.4989 25.2619 28.2734 24.7091C28.1631 24.1637 28.0529 23.5637 27.9978 23.0182Z" fill="#006495"/>
<path d="M94.2388 15.0248C94.2554 15.3431 94.2035 15.6613 94.0873 15.9594C93.9704 16.2575 93.7918 16.529 93.562 16.757C93.3316 16.9851 93.0555 17.1647 92.7507 17.2845C92.446 17.4044 92.1186 17.462 91.7896 17.4537C91.1172 17.4461 90.4757 17.1803 90.0055 16.7146C89.536 16.249 89.2764 15.6218 89.2841 14.9709C89.2924 14.3201 89.5668 13.6989 90.0474 13.244C90.5286 12.7892 91.1767 12.5379 91.8485 12.5456C92.177 12.5459 92.5022 12.6114 92.8031 12.7382C93.1046 12.8651 93.3752 13.0505 93.5995 13.283C93.8238 13.5154 93.9958 13.79 94.106 14.0896C94.2157 14.3893 94.2609 14.7075 94.2388 15.0248ZM93.8822 15.0248C93.89 14.6234 93.7737 14.2289 93.5482 13.8918C93.3228 13.5547 92.9988 13.2903 92.6174 13.1324C92.2365 12.9745 91.8149 12.9302 91.4076 13.0051C91.0003 13.0801 90.625 13.271 90.3302 13.5534C90.0353 13.8357 89.8341 14.1968 89.7526 14.5904C89.6705 14.984 89.7118 15.3923 89.8705 15.7631C90.0298 16.134 90.2993 16.4505 90.6449 16.6722C90.991 16.894 91.3972 17.011 91.8116 17.0082C92.355 17.0008 92.8748 16.7889 93.2594 16.4174C93.6447 16.0459 93.8657 15.5439 93.8751 15.0176L93.8822 15.0248Z" fill="#006495"/>
<path d="M90.9595 14.9884C90.9595 14.6161 90.9595 14.2288 90.9595 13.8641C90.9595 13.7122 91.0114 13.6439 91.1668 13.6439C91.5812 13.6246 91.9968 13.6424 92.4085 13.697C92.8296 13.7806 93.0219 14.0692 92.9552 14.5858C92.9552 14.6813 92.9304 14.775 92.8836 14.8577C92.8367 14.9403 92.77 15.0089 92.6896 15.0567C92.5639 15.125 92.5413 15.2238 92.6378 15.3529C92.7871 15.5524 92.9249 15.7603 93.0517 15.9758C93.1106 16.0822 93.2214 16.2189 93.0517 16.3328C92.9717 16.3657 92.8847 16.3724 92.8009 16.352C92.7177 16.3316 92.6427 16.2851 92.5859 16.2189C92.4382 15.9834 92.29 15.748 92.1351 15.5124C92.0602 15.4063 91.956 15.3252 91.8364 15.2793C91.7168 15.2334 91.5867 15.2246 91.4622 15.2542C91.3514 15.2542 91.3442 15.3529 91.3442 15.4365C91.3442 15.672 91.3442 15.9074 91.3442 16.1429C91.3442 16.3784 91.2847 16.348 91.1447 16.348C91.0042 16.348 90.9375 16.3025 90.9375 16.1505C90.9595 15.7631 90.9595 15.3757 90.9595 14.9884ZM91.8612 14.1528C91.3294 14.1528 91.3073 14.1528 91.3586 14.6313V14.6769C91.3586 14.7377 91.3586 14.7833 91.455 14.7833C91.7559 14.8293 92.0629 14.7979 92.3495 14.6921C92.4002 14.668 92.4421 14.6276 92.4691 14.5769C92.4956 14.5262 92.5055 14.468 92.4972 14.411C92.4972 14.2971 92.4013 14.2288 92.29 14.1984C92.1505 14.1593 92.0056 14.1439 91.8612 14.1528Z" fill="#006495"/>
</g>
</g>
<defs>
<clipPath id="clip0_2588_38">
<rect width="97" height="30" fill="white"/>
</clipPath>
</defs>
</svg>
