<svg width="117" height="40" viewBox="0 0 117 40" fill="none" xmlns="http://www.w3.org/2000/svg">
<g clip-path="url(#clip0_1890_2)" filter="url(#filter0_d_1890_2)">
<path d="M34.4823 12.2127V10.0349H28.0264V23.0227H30.2556V17.617H34.288V15.4391H30.2556V12.2127H34.4823Z" fill="white"/>
<path d="M38.4256 10.0334H36.2671V23.0228H38.4256V10.0334Z" fill="white"/>
<path d="M45.1875 13.0137C42.3256 13.0137 40.0857 15.3131 40.0857 18.2508C40.0897 19.6036 40.6254 20.8996 41.5754 21.8544C42.5254 22.8092 43.8119 23.3447 45.1528 23.3435C47.0959 23.3435 49.0691 22.0456 49.7184 20.3632H47.2993C46.8127 20.8845 45.9436 21.2204 45.0639 21.2204C44.469 21.2254 43.8882 21.0376 43.4069 20.6847C42.9256 20.3318 42.5692 19.8324 42.3903 19.2599L42.3512 19.1338H50.0031L50.0241 18.9924C50.0753 18.7002 50.1051 18.4046 50.113 18.1079C50.113 15.3465 47.8581 13.0137 45.1875 13.0137ZM42.3165 17.2234L42.3556 17.0973C42.7066 15.962 43.8906 15.1383 45.1709 15.1383C45.7776 15.1248 46.3728 15.3073 46.8695 15.6592C47.3662 16.011 47.7384 16.5138 47.9319 17.0942L47.9741 17.2219L42.3165 17.2234Z" fill="white"/>
<path d="M56.5192 18.0214L59.482 13.3345H56.971L55.2569 16.1323L53.487 13.3345H50.9941L53.9751 18.0199L50.5588 23.0229H53.2219L55.2554 19.7433L57.2889 23.0229H59.9505L56.5192 18.0214Z" fill="white"/>
<path d="M63.4695 13.3345H61.311V23.0229H63.4695V13.3345Z" fill="white"/>
<path d="M63.4695 10.0334H61.311V11.997H63.4695V10.0334Z" fill="white"/>
<path d="M16.9868 6.23257C16.2036 5.67938 14.8449 6.2888 14.8449 6.2888C14.8449 6.2888 13.4892 5.6809 12.7045 6.23257C11.9197 6.78424 12.4303 8.07452 12.5252 8.26904C12.6201 8.46357 12.9244 9.02893 12.9244 9.02893C12.8795 9.76388 12.9067 10.5015 13.0057 11.231C13.1714 12.2128 13.6474 12.5563 13.6866 12.5563C13.7257 12.5563 13.8372 12.5335 14.0149 11.5092C14.1927 10.4848 14.5858 9.54412 14.8449 9.34351C15.1085 9.55172 15.4926 10.494 15.6749 11.5183C15.8571 12.5426 15.9656 12.5654 16.0047 12.5654C16.0439 12.5654 16.5199 12.2219 16.6841 11.2402C16.7841 10.5107 16.8118 9.77304 16.7669 9.03805C16.7669 9.03805 17.0682 8.46966 17.1646 8.27816C17.261 8.08668 17.7686 6.78729 16.9868 6.23257Z" fill="white"/>
<path d="M23.6414 14.2385C23.9201 13.3175 22.926 12.202 22.926 12.202C22.926 12.202 23.0766 10.7097 22.3159 10.1306C21.5553 9.5516 20.4948 10.4346 20.3412 10.5866C20.1875 10.7385 19.7477 11.2051 19.7477 11.2051C19.0411 11.3894 18.3545 11.644 17.6976 11.965C16.821 12.4209 16.6433 12.9908 16.6583 13.0288C16.6734 13.0668 16.7261 13.1641 17.7474 13.0288C18.7686 12.8935 19.7763 12.9635 20.0535 13.1519C19.939 13.468 19.1708 14.1291 18.261 14.6215C17.3512 15.1139 17.3572 15.2294 17.3753 15.2613C17.3934 15.2932 17.8588 15.6488 18.8364 15.503C19.5545 15.3709 20.2579 15.1673 20.9362 14.8951C20.9362 14.8951 21.5658 15.0091 21.7781 15.0471C21.9906 15.085 23.3612 15.161 23.6414 14.2385Z" fill="white"/>
<path d="M18.1571 23.0806C19.1136 23.0608 19.8577 21.7599 19.8577 21.7599C19.8577 21.7599 21.3113 21.4422 21.6185 20.5289C21.9258 19.6155 20.7629 18.88 20.5641 18.7797C20.3653 18.6794 19.7975 18.4028 19.7975 18.4028C19.4032 17.783 18.949 17.2043 18.4418 16.6748C17.7339 15.9787 17.1479 15.9864 17.1162 16.0092C17.0846 16.0319 17.0123 16.1156 17.4642 17.0502C17.9161 17.9849 18.1571 18.9757 18.0667 19.2994C17.7323 19.2888 16.8707 18.7584 16.1251 18.0395C15.3795 17.3207 15.2771 17.3663 15.2454 17.3891C15.2138 17.4119 15.0376 17.9742 15.4759 18.8648C15.8228 19.5117 16.2319 20.1225 16.6975 20.6885C16.6975 20.6885 16.7864 21.3268 16.8225 21.5411C16.8587 21.7554 17.2021 23.0988 18.1571 23.0806Z" fill="white"/>
<path d="M6.0497 14.2387C5.76953 13.3177 6.76519 12.2022 6.76519 12.2022C6.76519 12.2022 6.61155 10.7113 7.37523 10.1308C8.13892 9.55023 9.19633 10.4347 9.34847 10.5867C9.5006 10.7387 9.94344 11.2052 9.94344 11.2052C10.65 11.3896 11.3367 11.6441 11.9935 11.9651C12.8686 12.421 13.0479 12.991 13.0328 13.029C13.0178 13.0669 12.9651 13.1642 11.9438 13.029C10.9225 12.8937 9.91633 12.9575 9.63767 13.1429C9.75215 13.4591 10.5203 14.1201 11.4301 14.6125C12.3399 15.105 12.3339 15.2204 12.3158 15.2524C12.2978 15.2843 11.8323 15.6399 10.8547 15.494C10.1361 15.3618 9.43229 15.1582 8.75348 14.8861C8.75348 14.8861 8.12536 15.0001 7.91298 15.0381C7.70059 15.0761 6.32987 15.1612 6.0497 14.2387Z" fill="white"/>
<path d="M11.5324 23.0806C10.5775 23.0608 9.83787 21.7599 9.83787 21.7599C9.83787 21.7599 8.38431 21.4422 8.07702 20.5289C7.76974 19.6155 8.93259 18.88 9.13142 18.7797C9.33025 18.6794 9.89812 18.4028 9.89812 18.4028C10.2918 17.7826 10.746 17.2038 11.2538 16.6748C11.9617 15.9787 12.5462 15.9864 12.5778 16.0092C12.6094 16.0319 12.6832 16.1156 12.2313 17.0502C11.7795 17.9849 11.5369 18.9757 11.6288 19.2994C11.9617 19.2888 12.8233 18.7584 13.5705 18.0395C14.3175 17.3207 14.4185 17.3663 14.4486 17.3891C14.4787 17.4119 14.664 17.9742 14.2226 18.8648C13.8756 19.5119 13.4659 20.1228 12.9995 20.6885C12.9995 20.6885 12.9122 21.3268 12.876 21.5411C12.8399 21.7554 12.4889 23.0988 11.5324 23.0806Z" fill="white"/>
<path d="M74.1699 17.181L73.7358 16.8542C74.3949 16.145 74.9972 15.6435 75.5437 15.3497C76.0898 15.0558 76.5528 14.9069 76.9323 14.9029C77.1048 14.8917 77.2752 14.9394 77.4177 15.0381C77.4718 15.0813 77.5154 15.1368 77.5444 15.2002C77.5733 15.2636 77.5875 15.3331 77.5848 15.4029C77.5848 15.5898 77.368 16.4135 76.8766 17.7874C76.0575 20.0883 75.4744 21.4135 75.4744 21.8816C75.4711 21.9623 75.4957 22.0417 75.5437 22.1065C75.5596 22.1329 75.5814 22.155 75.6076 22.1709C75.6338 22.1868 75.6639 22.196 75.6944 22.1977C75.9052 22.1977 76.4463 21.8005 77.3178 21.0062L77.7038 21.3709C76.8001 22.1977 76.14 22.7266 75.7245 22.9576C75.3084 23.1886 74.9688 23.3041 74.7045 23.3041C74.6035 23.3091 74.503 23.2929 74.4085 23.2566C74.3141 23.2202 74.2284 23.1645 74.1563 23.0928C74.0858 23.0134 74.0312 22.9207 73.9968 22.82C73.9619 22.7193 73.9471 22.6127 73.9532 22.5062C73.9532 21.7053 74.6488 19.8573 75.8599 16.6339C75.903 16.5065 75.9265 16.3732 75.9292 16.2387C75.9292 16.111 75.8703 16.0472 75.7518 16.0472C75.5902 16.0562 75.434 16.1087 75.2997 16.1992C74.9005 16.4989 74.5227 16.827 74.1699 17.181ZM77.6252 12.9135C77.7721 12.9081 77.9151 12.9579 78.0276 13.0533C78.0789 13.0976 78.1199 13.1529 78.1472 13.2153C78.1745 13.2776 78.1876 13.3453 78.1854 13.4135C78.1849 13.5143 78.163 13.6138 78.1215 13.7055C78.08 13.7971 78.02 13.8789 77.9446 13.9454C77.8731 14.0184 77.7879 14.0764 77.694 14.1158C77.6001 14.1552 77.4996 14.1753 77.398 14.1749C77.2533 14.1799 77.113 14.1287 77.0049 14.032C76.9525 13.9844 76.9115 13.9259 76.8842 13.8605C76.8569 13.7951 76.8438 13.7245 76.8466 13.6536C76.8455 13.5548 76.8657 13.457 76.905 13.3665C76.9443 13.2761 77.0027 13.1952 77.0753 13.1293C77.1485 13.0584 77.2348 13.0028 77.3292 12.9658C77.4232 12.9288 77.5242 12.911 77.6252 12.9135Z" fill="white"/>
<path d="M85.5315 14.8845L86.327 14.7097C85.8471 16.2102 85.4064 17.7143 85.0057 19.2219C84.7583 20.1077 84.5574 21.0061 84.4034 21.9134C84.3444 22.272 84.1276 24.5471 83.9879 25.1246C83.5041 27.1246 82.0566 27.7493 81.0202 27.7493C80.1296 27.7493 79.4263 27.5466 78.9114 27.1413C78.3965 26.7361 78.141 26.27 78.1448 25.7432C78.1557 25.1974 78.3763 24.6771 78.7591 24.2918C79.0605 23.9529 80.425 23.076 80.7734 22.6748C80.282 22.9179 79.9008 23.041 79.63 23.041C79.5033 23.0385 79.3794 23.0072 79.2664 22.9496C79.1533 22.892 79.0545 22.8095 78.9775 22.7082C78.7798 22.4603 78.6794 22.1477 78.6947 21.8298C78.6947 20.6505 79.0561 19.4792 79.7791 18.3161C80.502 17.153 81.3718 16.2801 82.388 15.6976C83.0148 15.3389 83.8 15.1596 84.7436 15.1596C84.9298 15.1596 85.1569 15.1657 85.4261 15.1778L85.5315 14.8845ZM83.2556 21.228C82.4093 22.2417 80.7417 23.2037 79.6753 24.4058C79.1915 24.9529 79.2505 25.3283 79.2882 25.6991C79.298 25.8895 79.3477 26.0757 79.434 26.2454C79.5203 26.4151 79.6409 26.5645 79.7884 26.6839C80.1253 26.9769 80.5588 27.1329 81.0038 27.1216C81.4554 27.1216 82.0582 26.7037 82.4153 26.1809C82.7418 25.6976 82.8401 25.2234 82.9455 24.6049C83.0405 23.9321 83.0935 23.2539 83.1049 22.5745C83.1213 22.3769 83.2977 21.8343 83.2556 21.228ZM84.4258 16.307C84.1489 16.2532 83.8677 16.2242 83.5854 16.2204C83.0121 16.2045 82.4481 16.3726 81.9752 16.7006C81.5264 17.0208 81.1436 17.5588 80.8274 18.3146C80.3868 19.3855 80.1662 20.2857 80.1662 21.0152C80.158 21.2922 80.2508 21.5626 80.4267 21.7751C80.4966 21.8667 80.5856 21.9415 80.6871 21.994C80.7892 22.0466 80.9012 22.0756 81.0158 22.079C81.2796 22.079 81.6061 21.9544 81.9949 21.7082C82.3738 21.4705 82.6987 21.1546 82.9482 20.7812C83.1956 20.4093 83.4462 19.7685 83.7012 18.8587L84.4258 16.307Z" fill="white"/>
<path d="M86.663 17.2098L86.3271 16.8739C87.1713 16.0877 87.8451 15.5659 88.3485 15.3086C88.7422 15.0824 89.1823 14.9503 89.635 14.9225C89.7502 14.9158 89.8643 14.9462 89.9615 15.0092C89.9965 15.0302 90.0259 15.0597 90.0467 15.095C90.0674 15.1303 90.0789 15.1703 90.0805 15.2113C90.0734 15.3139 90.0571 15.4157 90.0309 15.5153L89.5793 17.4499C90.3306 16.6632 91.1835 15.9813 92.1139 15.4225C92.6545 15.0963 93.0995 14.9326 93.449 14.9317C93.5604 14.9257 93.6718 14.9441 93.776 14.9855C93.8798 15.0269 93.9737 15.0905 94.0512 15.1718C94.2074 15.367 94.2849 15.6145 94.268 15.8648C94.2642 16.0914 94.2347 16.3168 94.179 16.5365C94.0791 16.955 93.8028 17.8617 93.3507 19.2569C92.9308 20.5639 92.7206 21.4322 92.7195 21.8618C92.7135 21.9642 92.7342 22.0665 92.7801 22.1581C92.7959 22.1884 92.8205 22.2135 92.85 22.2307C92.8795 22.2478 92.9133 22.2564 92.9472 22.2554C93.1383 22.2554 93.4397 22.076 93.8509 21.7174C94.1413 21.462 94.4307 21.225 94.7218 21.0061L94.9686 21.3526C94.4138 21.9608 93.7777 22.4886 93.0799 22.921C92.6638 23.1763 92.3203 23.304 92.0495 23.304C91.9387 23.3096 91.8278 23.2886 91.7263 23.2426C91.6252 23.1967 91.5357 23.127 91.4664 23.0396C91.3277 22.8633 91.2589 22.5765 91.2589 22.1794C91.2589 21.61 91.6247 20.1915 92.3569 17.924C92.5813 17.1135 92.6938 16.6424 92.6927 16.5107C92.6927 16.3131 92.5704 16.2068 92.3263 16.2068C92.0823 16.2068 91.7241 16.342 91.3086 16.611C90.7117 16.986 90.1843 17.4626 89.7491 18.0198C89.4865 18.3663 89.2653 18.918 89.0868 19.6748L88.2852 23.035H86.812C87.0894 22.0715 87.3302 21.1505 87.535 20.2721L88.4146 16.614C88.4414 16.5105 88.4583 16.4047 88.4643 16.2979C88.4643 16.1247 88.3982 16.038 88.2672 16.038C88.1012 16.0635 87.945 16.1338 87.8151 16.2417C87.393 16.5154 87.0064 16.8405 86.663 17.2098Z" fill="white"/>
<path d="M101.123 20.6216L101.45 21.0456C99.8342 22.538 98.4489 23.2842 97.2941 23.2842C97.0926 23.2978 96.89 23.2636 96.7038 23.1845C96.5171 23.1054 96.3516 22.9834 96.2201 22.8283C95.9733 22.5244 95.8499 22.0315 95.8499 21.3496C95.8499 19.9737 96.2763 18.6059 97.1303 17.2463C98.0973 15.7032 99.2521 14.9316 100.594 14.9316C101.062 14.9316 101.42 15.0456 101.668 15.2736C101.794 15.3933 101.892 15.5389 101.956 15.7005C102.021 15.8621 102.049 16.0358 102.041 16.2098C102.028 16.659 101.869 17.0914 101.589 17.4408C101.287 17.846 100.756 18.2655 99.9947 18.6991C99.6125 18.9119 98.7946 19.2933 97.5414 19.8435C97.4836 20.1701 97.4535 20.5011 97.4524 20.8328C97.4524 21.2888 97.5262 21.6049 97.6752 21.7842C97.7555 21.8763 97.856 21.9484 97.9679 21.995C98.0804 22.0417 98.2016 22.0616 98.3228 22.0532C98.6319 22.0445 98.9355 21.9693 99.2134 21.8329C99.8844 21.4876 100.524 21.0822 101.123 20.6216ZM97.6588 19.228C98.7214 18.767 99.5197 18.2706 100.054 17.7386C100.417 17.3678 100.594 16.9985 100.594 16.6383C100.607 16.3981 100.528 16.1623 100.371 15.9803C100.299 15.8989 100.211 15.8341 100.112 15.7903C100.013 15.7465 99.9057 15.7248 99.7976 15.7265C99.5377 15.7341 99.2876 15.8299 99.0883 15.9985C98.7411 16.2849 98.4719 16.6557 98.3064 17.076C98.0067 17.7626 97.7899 18.4831 97.6605 19.2219L97.6588 19.228Z" fill="white"/>
<path d="M104.823 23.0349H103.348L104.041 20.4513C104.377 19.1838 104.67 17.9797 104.92 16.8389C104.963 16.6651 104.993 16.4883 105.009 16.31C105.009 16.158 104.937 16.079 104.793 16.079C104.628 16.1059 104.473 16.1738 104.341 16.2766C103.945 16.5695 103.573 16.8937 103.229 17.2462L102.928 16.9103C103.473 16.3162 104.11 15.8139 104.812 15.4225C105.442 15.0922 105.925 14.927 106.261 14.927C106.361 14.922 106.461 14.9509 106.543 15.0091C106.575 15.0325 106.602 15.0636 106.62 15.0996C106.638 15.1356 106.647 15.1755 106.647 15.2157C106.621 15.4412 106.578 15.6642 106.517 15.8829L106.086 17.6109C106.714 16.6338 107.474 15.7508 108.346 14.9878C108.748 14.6393 109.084 14.4655 109.356 14.4666C109.449 14.4641 109.541 14.4801 109.627 14.5138C109.713 14.5474 109.792 14.598 109.858 14.6626C109.92 14.7178 109.969 14.7855 110.003 14.8614C110.037 14.9372 110.054 15.0194 110.054 15.1025C110.054 15.1857 110.037 15.2679 110.003 15.3437C109.969 15.4196 109.92 15.4873 109.858 15.5425C109.729 15.6641 109.407 15.808 108.894 15.9741C108.47 16.1033 108.068 16.2981 107.702 16.5516C107.323 16.8488 106.984 17.1946 106.693 17.5805C106.387 17.9476 106.129 18.3532 105.927 18.7872C105.786 19.1266 105.565 19.921 105.264 21.1702L104.823 23.0349Z" fill="white"/>
<path d="M110.658 21.5638C109.913 23.3456 108.86 24.9802 107.551 26.392C106.318 27.7324 104.637 29.4817 100.631 31.2279C96.8648 32.8662 92.739 33.1702 88.0077 32.2234C82.7041 31.1595 79.7141 29.5425 74.3849 25.9923C72.6529 24.8374 71.0579 24.2097 69.2276 24.2112H69.2113C69.3811 23.582 69.8905 21.8115 70.2968 19.9361L71.124 15.4483C71.4762 13.81 71.5685 13.1762 71.8185 12.313C71.9976 11.6975 72.3001 11.1975 72.5868 10.9939C72.7643 10.8592 72.9843 10.7939 73.2054 10.81C73.5036 10.8124 73.8012 10.8414 74.0944 10.8966C74.3739 10.959 74.6579 10.9956 74.944 11.006C75.1968 11.0243 75.4469 10.9438 75.6429 10.7811C75.7248 10.7077 75.7898 10.6169 75.8324 10.5152C75.8755 10.4135 75.8957 10.3034 75.8914 10.1929C75.8919 10.0888 75.869 9.98585 75.8253 9.89152C75.7816 9.79718 75.7177 9.7138 75.6385 9.64736C75.4496 9.48895 75.2083 9.40858 74.9637 9.42243C74.1102 9.42647 73.2764 9.68272 72.5655 10.1595C71.7945 10.6652 71.1841 11.3844 70.8078 12.2309C70.5397 12.8176 70.2094 13.9741 69.8163 15.7006L68.8602 20.5638C68.5861 21.7705 68.277 23.1565 68.0002 24.1899C67.3357 24.3124 66.6815 24.4831 66.0416 24.7005C62.4509 25.9726 62.5776 28.31 63.555 29.0562C64.4843 29.7644 67.3204 29.4848 68.9639 24.9862C69.1719 24.9862 69.3843 24.9999 69.6071 25.0106C73.1983 25.1732 75.4321 27.4331 79.7141 30.0668C84.1882 32.8191 87.9897 33.8221 92.709 33.9878C97.4283 34.1535 101.411 32.5668 104.591 30.0668C106.793 28.3374 108.145 26.7477 109.221 24.7705C109.861 23.6023 110.401 22.3816 110.837 21.1215C110.837 21.1215 110.799 21.2264 110.658 21.5638ZM64.76 28.1778C63.7461 28.1778 64.3079 26.9027 64.8867 26.4088C65.465 25.9149 66.4019 25.389 67.7304 25.1048C67.6884 25.2294 67.6474 25.3404 67.6081 25.4316C67.6081 25.4316 67.6081 25.4316 67.6081 25.4407C66.7978 27.2963 66.1682 28.1778 64.76 28.1778Z" fill="white"/>
</g>
<defs>
<filter id="filter0_d_1890_2" x="0" y="0" width="116.837" height="40" filterUnits="userSpaceOnUse" color-interpolation-filters="sRGB">
<feFlood flood-opacity="0" result="BackgroundImageFix"/>
<feColorMatrix in="SourceAlpha" type="matrix" values="0 0 0 0 0 0 0 0 0 0 0 0 0 0 0 0 0 0 127 0" result="hardAlpha"/>
<feOffset/>
<feGaussianBlur stdDeviation="3"/>
<feColorMatrix type="matrix" values="0 0 0 0 1 0 0 0 0 1 0 0 0 0 1 0 0 0 0.6 0"/>
<feBlend mode="normal" in2="BackgroundImageFix" result="effect1_dropShadow_1890_2"/>
<feBlend mode="normal" in="SourceGraphic" in2="effect1_dropShadow_1890_2" result="shape"/>
</filter>
<clipPath id="clip0_1890_2">
<rect width="104.837" height="28" fill="white" transform="translate(6 6)"/>
</clipPath>
</defs>
</svg>
