<svg width="105" height="36" viewBox="0 0 105 36" fill="none" xmlns="http://www.w3.org/2000/svg">
<mask id="mask0_2884_706" style="mask-type:luminance" maskUnits="userSpaceOnUse" x="0" y="4" width="105" height="29">
<path d="M105 4.5H0V32.3906H105V4.5Z" fill="white"/>
</mask>
<g mask="url(#mask0_2884_706)">
<path d="M28.5265 10.6885V8.51917H22.0605V21.4563H24.2933V16.0716H28.3319V13.9023H24.2933V10.6885H28.5265Z" fill="black"/>
<path d="M32.4761 8.51758H30.3142V21.4562H32.4761V8.51758Z" fill="black"/>
<path d="M39.2483 11.4862C36.3819 11.4862 34.1385 13.7766 34.1385 16.7028C34.1425 18.0504 34.6791 19.3414 35.6306 20.2924C36.582 21.2434 37.8706 21.7769 39.2136 21.7757C41.1597 21.7757 43.136 20.4828 43.7862 18.8071H41.3633C40.8761 19.3263 40.0056 19.6608 39.1245 19.6608C38.5287 19.6659 37.9469 19.4788 37.4649 19.1273C36.9828 18.7758 36.626 18.2783 36.4467 17.708L36.4075 17.5824H44.0713L44.0924 17.4416C44.1437 17.1505 44.1735 16.856 44.1814 16.5605C44.1814 13.8099 41.923 11.4862 39.2483 11.4862ZM36.3728 15.6795L36.412 15.5539C36.7635 14.423 37.9493 13.6026 39.2317 13.6026C39.8393 13.5891 40.4354 13.7709 40.9329 14.1214C41.4304 14.4719 41.8032 14.9727 41.997 15.5508L42.0392 15.678L36.3728 15.6795Z" fill="black"/>
<path d="M50.5975 16.4743L53.565 11.8057H51.0501L49.3333 14.5926L47.5607 11.8057H45.0639L48.0495 16.4728L44.6279 21.4563H47.2951L49.3318 18.1894L51.3684 21.4563H54.0342L50.5975 16.4743Z" fill="black"/>
<path d="M57.5585 11.8057H55.3967V21.4563H57.5585V11.8057Z" fill="black"/>
<path d="M57.5585 8.51758H55.3967V10.4734H57.5585V8.51758Z" fill="black"/>
<path d="M11.0039 4.73155C10.2194 4.18052 8.85866 4.78756 8.85866 4.78756C8.85866 4.78756 7.50088 4.18203 6.71491 4.73155C5.92894 5.28106 6.44032 6.56629 6.53537 6.76006C6.63042 6.95383 6.93519 7.51698 6.93519 7.51698C6.89018 8.24906 6.91747 8.98381 7.01662 9.7105C7.1826 10.6884 7.65931 11.0305 7.69852 11.0305C7.73773 11.0305 7.8494 11.0079 8.02741 9.98755C8.20542 8.96721 8.59917 8.03016 8.85866 7.83034C9.12264 8.03773 9.50736 8.9763 9.68991 9.99663C9.87246 11.0169 9.98107 11.0396 10.0203 11.0396C10.0595 11.0396 10.5363 10.6975 10.7007 9.71958C10.8008 8.99298 10.8286 8.25818 10.7837 7.52606C10.7837 7.52606 11.0854 6.95989 11.1819 6.76915C11.2785 6.57841 11.7869 5.28409 11.0039 4.73155Z" fill="#00A2DB"/>
<path d="M17.6689 12.7063C17.948 11.7889 16.9523 10.6778 16.9523 10.6778C16.9523 10.6778 17.1032 9.19125 16.3413 8.61449C15.5795 8.03772 14.5174 8.91725 14.3635 9.06863C14.2096 9.22001 13.7691 9.68475 13.7691 9.68475C13.0614 9.86837 12.3737 10.1219 11.7159 10.4417C10.8378 10.8958 10.6598 11.4635 10.6749 11.5013C10.69 11.5392 10.7428 11.6361 11.7657 11.5013C12.7885 11.3666 13.7977 11.4363 14.0753 11.624C13.9607 11.9388 13.1913 12.5973 12.2801 13.0878C11.3689 13.5783 11.3749 13.6933 11.393 13.7252C11.4111 13.7569 11.8773 14.1111 12.8564 13.9658C13.5756 13.8343 14.2801 13.6315 14.9594 13.3603C14.9594 13.3603 15.59 13.4739 15.8027 13.5117C16.0154 13.5496 17.3883 13.6252 17.6689 12.7063Z" fill="#00A2DB"/>
<path d="M12.1761 21.5137C13.1341 21.4941 13.8793 20.1982 13.8793 20.1982C13.8793 20.1982 15.3352 19.8818 15.6429 18.972C15.9507 18.0623 14.786 17.3295 14.5869 17.2296C14.3878 17.1297 13.819 16.8542 13.819 16.8542C13.4241 16.2369 12.9693 15.6604 12.4612 15.133C11.7522 14.4396 11.1654 14.4472 11.1336 14.4699C11.102 14.4926 11.0296 14.5759 11.4822 15.5069C11.9347 16.4379 12.1761 17.4249 12.0856 17.7474C11.7507 17.7368 10.8878 17.2084 10.141 16.4924C9.3942 15.7764 9.29161 15.8218 9.25994 15.8445C9.22828 15.8672 9.05175 16.4273 9.49078 17.3144C9.83815 17.9588 10.2479 18.5672 10.7142 19.131C10.7142 19.131 10.8033 19.7668 10.8395 19.9803C10.8757 20.1937 11.2197 21.5319 12.1761 21.5137Z" fill="#00A2DB"/>
<path d="M0.0497811 12.7063C-0.230823 11.789 0.766374 10.6778 0.766374 10.6778C0.766374 10.6778 0.612495 9.19279 1.37736 8.61451C2.14224 8.03623 3.20129 8.91727 3.35366 9.06865C3.50603 9.22003 3.94956 9.68478 3.94956 9.68478C4.65722 9.86839 5.34499 10.1219 6.00277 10.4417C6.8793 10.8958 7.05884 11.4635 7.04375 11.5014C7.02866 11.5392 6.97588 11.6361 5.95301 11.5014C4.93017 11.3666 3.92241 11.4302 3.64331 11.6149C3.75797 11.9298 4.52737 12.5883 5.43857 13.0788C6.34977 13.5693 6.34375 13.6843 6.32565 13.7161C6.30755 13.7479 5.84139 14.1021 4.86228 13.9568C4.14257 13.8251 3.43762 13.6223 2.75775 13.3512C2.75775 13.3512 2.12866 13.4648 1.91594 13.5027C1.70323 13.5405 0.330384 13.6253 0.0497811 12.7063Z" fill="#00A2DB"/>
<path d="M5.54115 21.5137C4.58471 21.4941 3.84398 20.1982 3.84398 20.1982C3.84398 20.1982 2.38816 19.8818 2.0804 18.972C1.77264 18.0623 2.9373 17.3295 3.13644 17.2296C3.33557 17.1297 3.90432 16.8542 3.90432 16.8542C4.29865 16.2365 4.7535 15.6599 5.26208 15.133C5.97116 14.4396 6.55648 14.4472 6.58814 14.4699C6.61986 14.4926 6.69374 14.5759 6.24115 15.5069C5.78861 16.4379 5.54569 17.4249 5.63773 17.7474C5.97116 17.7368 6.83407 17.2084 7.58236 16.4924C8.3306 15.7764 8.43171 15.8218 8.46184 15.8445C8.49203 15.8672 8.67759 16.4273 8.23555 17.3144C7.88795 17.959 7.47763 18.5675 7.01055 19.131C7.01055 19.131 6.92305 19.7668 6.88685 19.9803C6.85064 20.1937 6.49917 21.5319 5.54115 21.5137Z" fill="#00A2DB"/>
<path d="M68.2756 15.6371L67.8408 15.3116C68.5009 14.6052 69.1041 14.1056 69.6515 13.8129C70.1984 13.5202 70.6622 13.3719 71.0422 13.3679C71.215 13.3568 71.3857 13.4042 71.5284 13.5026C71.5825 13.5456 71.6263 13.6009 71.6553 13.6641C71.6843 13.7272 71.6985 13.7964 71.6957 13.8659C71.6957 14.0521 71.4786 14.8726 70.9864 16.2411C70.1661 18.533 69.5821 19.853 69.5821 20.3193C69.5788 20.3997 69.6034 20.4788 69.6515 20.5434C69.6674 20.5697 69.6893 20.5917 69.7155 20.6075C69.7418 20.6234 69.7718 20.6325 69.8025 20.6342C70.0136 20.6342 70.5555 20.2386 71.4283 19.4474L71.815 19.8107C70.9099 20.6342 70.2487 21.161 69.8325 21.3911C69.4158 21.6212 69.0757 21.7363 68.811 21.7363C68.7098 21.7413 68.6092 21.7252 68.5146 21.689C68.42 21.6527 68.3341 21.5972 68.2619 21.5258C68.1914 21.4467 68.1367 21.3544 68.1022 21.2541C68.0672 21.1538 68.0525 21.0476 68.0585 20.9415C68.0585 20.1437 68.7552 18.3029 69.9682 15.0921C70.0114 14.9652 70.0349 14.8325 70.0376 14.6985C70.0376 14.5713 69.9786 14.5078 69.8599 14.5078C69.698 14.5167 69.5416 14.569 69.4071 14.6591C69.0073 14.9576 68.6289 15.2844 68.2756 15.6371ZM71.7362 11.3863C71.8833 11.3809 72.0266 11.4305 72.1393 11.5256C72.1907 11.5696 72.2317 11.6248 72.259 11.6869C72.2864 11.749 72.2995 11.8164 72.2973 11.8843C72.2968 11.9847 72.2749 12.0839 72.2333 12.1752C72.1918 12.2665 72.1316 12.3479 72.0561 12.4142C71.9845 12.4869 71.8992 12.5446 71.8051 12.5839C71.7111 12.6231 71.6104 12.6431 71.5087 12.6428C71.3638 12.6477 71.2232 12.5968 71.115 12.5004C71.0625 12.453 71.0214 12.3947 70.9941 12.3296C70.9668 12.2644 70.9536 12.1941 70.9564 12.1235C70.9553 12.0251 70.9755 11.9276 71.0149 11.8375C71.0543 11.7475 71.1128 11.6669 71.1855 11.6012C71.2588 11.5306 71.3452 11.4752 71.4398 11.4384C71.5339 11.4015 71.635 11.3837 71.7362 11.3863Z" fill="#00A8D6"/>
<path d="M79.655 13.3498L80.4518 13.1757C79.9711 14.6703 79.5298 16.1685 79.1284 17.6702C78.8806 18.5526 78.6794 19.4475 78.5252 20.3512C78.4661 20.7084 78.249 22.9746 78.109 23.5499C77.6245 25.5421 76.1747 26.1643 75.1367 26.1643C74.2448 26.1643 73.5404 25.9624 73.0247 25.5587C72.509 25.1551 72.2531 24.6908 72.2569 24.166C72.2678 23.6223 72.4888 23.1041 72.8721 22.7203C73.174 22.3827 74.5406 21.5093 74.8895 21.1096C74.3973 21.3518 74.0156 21.4744 73.7444 21.4744C73.6175 21.4719 73.4934 21.4407 73.3802 21.3834C73.267 21.326 73.168 21.2438 73.0909 21.1429C72.8929 20.8959 72.7923 20.5846 72.8076 20.2679C72.8076 19.0932 73.1696 17.9265 73.8937 16.768C74.6177 15.6094 75.4889 14.7399 76.5066 14.1597C77.1345 13.8024 77.9209 13.6238 78.8659 13.6238C79.0524 13.6238 79.2799 13.6298 79.5495 13.6419L79.655 13.3498ZM77.3756 19.6684C76.528 20.6782 74.8578 21.6364 73.7898 22.8339C73.3052 23.3788 73.3643 23.7528 73.402 24.1221C73.4119 24.3118 73.4616 24.4972 73.5481 24.6663C73.6345 24.8353 73.7553 24.9842 73.903 25.1031C74.2404 25.3949 74.6746 25.5503 75.1203 25.539C75.5726 25.539 76.1763 25.1227 76.534 24.602C76.861 24.1206 76.9595 23.6483 77.065 23.0322C77.1602 22.362 77.2132 21.6865 77.2247 21.0097C77.2411 20.8129 77.4177 20.2725 77.3756 19.6684ZM78.5476 14.7667C78.2703 14.7131 77.9887 14.6842 77.7059 14.6804C77.1317 14.6646 76.5668 14.8321 76.0932 15.1588C75.6437 15.4777 75.2603 16.0136 74.9437 16.7664C74.5023 17.8332 74.2814 18.7299 74.2814 19.4565C74.2732 19.7324 74.3662 20.0018 74.5423 20.2134C74.6123 20.3047 74.7014 20.3792 74.8031 20.4315C74.9054 20.4839 75.0175 20.5128 75.1323 20.5162C75.3965 20.5162 75.7235 20.3921 76.1129 20.1468C76.4924 19.91 76.8178 19.5954 77.0677 19.2234C77.3155 18.853 77.5665 18.2147 77.8219 17.3084L78.5476 14.7667Z" fill="#00A8D6"/>
<path d="M80.7882 15.6659L80.4519 15.3314C81.2974 14.5482 81.9722 14.0285 82.4764 13.7721C82.8707 13.5468 83.3115 13.4152 83.7649 13.3876C83.8803 13.381 83.9946 13.4112 84.0919 13.4739C84.1269 13.4948 84.1564 13.5242 84.1772 13.5594C84.198 13.5946 84.2095 13.6344 84.2111 13.6752C84.204 13.7775 84.1876 13.8789 84.1614 13.978L83.7091 15.9051C84.4616 15.1214 85.3158 14.4423 86.2477 13.8857C86.7891 13.5607 87.2348 13.3977 87.5848 13.3967C87.6964 13.3908 87.8079 13.4091 87.9124 13.4504C88.0163 13.4916 88.1103 13.5549 88.188 13.6359C88.3444 13.8304 88.4221 14.0769 88.4051 14.3262C88.4013 14.5519 88.3718 14.7765 88.316 14.9953C88.2159 15.4121 87.9392 16.3153 87.4864 17.705C87.0658 19.0069 86.8553 19.8718 86.8542 20.2997C86.8482 20.4017 86.8689 20.5037 86.9149 20.5949C86.9307 20.6251 86.9553 20.6501 86.9849 20.6672C87.0144 20.6843 87.0483 20.6928 87.0822 20.6918C87.2736 20.6918 87.5755 20.5132 87.9873 20.1559C88.2782 19.9016 88.5681 19.6654 88.8596 19.4474L89.1068 19.7926C88.5511 20.3983 87.914 20.9241 87.2151 21.3548C86.7984 21.6092 86.4544 21.7363 86.1832 21.7363C86.0721 21.7419 85.9611 21.721 85.8594 21.6752C85.7582 21.6294 85.6685 21.5601 85.5991 21.473C85.4602 21.2974 85.3913 21.0117 85.3913 20.6161C85.3913 20.0489 85.7577 18.636 86.491 16.3774C86.7158 15.57 86.8285 15.1008 86.8274 14.9696C86.8274 14.7728 86.7049 14.6668 86.4604 14.6668C86.216 14.6668 85.8572 14.8015 85.441 15.0695C84.8433 15.443 84.315 15.9178 83.8792 16.4728C83.6161 16.818 83.3946 17.3675 83.2158 18.1213L82.413 21.4684H80.9375C81.2153 20.5086 81.4565 19.5913 81.6616 18.7163L82.5426 15.0725C82.5694 14.9694 82.5864 14.864 82.5924 14.7576C82.5924 14.5851 82.5262 14.4988 82.3949 14.4988C82.2287 14.5241 82.0723 14.5942 81.9421 14.7016C81.5194 14.9742 81.1322 15.2981 80.7882 15.6659Z" fill="#00A8D6"/>
<path d="M95.271 19.0645L95.598 19.4868C93.9798 20.9734 92.5924 21.7167 91.4357 21.7167C91.2339 21.7302 91.0311 21.6962 90.8446 21.6173C90.6575 21.5385 90.4918 21.417 90.36 21.2625C90.1128 20.9598 89.9893 20.4688 89.9893 19.7896C89.9893 18.4191 90.4164 17.0566 91.2717 15.7023C92.2402 14.1653 93.3968 13.3967 94.7411 13.3967C95.2097 13.3967 95.5685 13.5103 95.8168 13.7373C95.9425 13.8565 96.041 14.0016 96.105 14.1626C96.1695 14.3236 96.1985 14.4966 96.1897 14.6699C96.1766 15.1173 96.0175 15.5481 95.7369 15.8961C95.435 16.2997 94.9035 16.7175 94.1406 17.1495C93.7578 17.3614 92.9386 17.7414 91.6835 18.2894C91.6255 18.6147 91.5954 18.9444 91.5943 19.2749C91.5943 19.729 91.6682 20.0439 91.8175 20.2225C91.8979 20.3142 91.9985 20.3861 92.1106 20.4325C92.2232 20.479 92.3446 20.4988 92.4661 20.4905C92.7756 20.4818 93.0797 20.4069 93.358 20.271C94.0301 19.927 94.6705 19.5233 95.271 19.0645ZM91.8011 17.6763C92.8653 17.2171 93.6648 16.7226 94.1997 16.1927C94.5633 15.8234 94.7411 15.4555 94.7411 15.0967C94.7542 14.8575 94.6743 14.6225 94.5179 14.4413C94.4457 14.3602 94.3571 14.2956 94.2582 14.252C94.1586 14.2084 94.0514 14.1867 93.9432 14.1884C93.6828 14.196 93.4324 14.2915 93.2328 14.4594C92.885 14.7447 92.6153 15.114 92.4496 15.5327C92.1494 16.2166 91.9323 16.9343 91.8027 17.6702L91.8011 17.6763Z" fill="#00A8D6"/>
<path d="M98.976 21.4684H97.4989L98.1929 18.8948C98.5298 17.6323 98.8234 16.4329 99.0739 15.2965C99.1166 15.1234 99.1466 14.9473 99.1631 14.7697C99.1631 14.6183 99.0909 14.5396 98.9459 14.5396C98.7808 14.5664 98.6255 14.6341 98.4931 14.7364C98.0972 15.0282 97.7248 15.3512 97.3797 15.7022L97.0784 15.3677C97.6247 14.7759 98.2618 14.2756 98.9656 13.8856C99.5962 13.5566 100.08 13.3921 100.416 13.3921C100.517 13.3872 100.617 13.4159 100.699 13.4739C100.731 13.4972 100.758 13.5282 100.776 13.564C100.794 13.5999 100.803 13.6396 100.803 13.6797C100.777 13.9043 100.734 14.1265 100.673 14.3443L100.241 16.0655C100.87 15.0923 101.632 14.2127 102.504 13.4527C102.907 13.1055 103.244 12.9324 103.517 12.9335C103.609 12.931 103.702 12.947 103.787 12.9805C103.874 13.014 103.953 13.0645 104.019 13.1287C104.081 13.1837 104.13 13.2512 104.164 13.3267C104.198 13.4023 104.216 13.4842 104.216 13.567C104.216 13.6498 104.198 13.7317 104.164 13.8072C104.13 13.8828 104.081 13.9503 104.019 14.0052C103.89 14.1263 103.568 14.2697 103.054 14.4351C102.629 14.5638 102.226 14.7578 101.86 15.0104C101.481 15.3064 101.141 15.6509 100.85 16.0352C100.543 16.4009 100.285 16.805 100.082 17.2372C99.9407 17.5753 99.7198 18.3666 99.4179 19.6109L98.976 21.4684Z" fill="#00A8D6"/>
<path d="M104.821 20.003C104.074 21.7779 103.02 23.4061 101.708 24.8124C100.474 26.1476 98.7908 27.8901 94.7779 29.6294C91.0061 31.2613 86.8739 31.5641 82.1352 30.621C76.8234 29.5613 73.8287 27.9506 68.4912 24.4143C66.7565 23.2638 65.1591 22.6386 63.326 22.6401H63.3096C63.4797 22.0134 63.9899 20.2498 64.3968 18.3817L65.2253 13.9114C65.578 12.2795 65.6704 11.6483 65.9209 10.7884C66.1003 10.1753 66.4033 9.67726 66.6904 9.47441C66.8681 9.34026 67.0885 9.2752 67.31 9.29124C67.6086 9.29364 67.9066 9.32251 68.2003 9.37752C68.4803 9.43967 68.7647 9.47615 69.0512 9.48652C69.3044 9.50474 69.5549 9.42452 69.7512 9.26247C69.8333 9.18936 69.8983 9.0989 69.941 8.99759C69.9842 8.89629 70.0044 8.78667 70.0001 8.67663C70.0006 8.57288 69.9776 8.47034 69.9339 8.37637C69.8901 8.28241 69.8261 8.19935 69.7468 8.13317C69.5576 7.97538 69.3159 7.89532 69.0709 7.90912C68.2161 7.91314 67.3811 8.16839 66.669 8.64332C65.8968 9.14707 65.2854 9.86342 64.9086 10.7066C64.6401 11.291 64.3093 12.443 63.9155 14.1627L62.9579 19.0069C62.6834 20.2089 62.3739 21.5895 62.0966 22.6189C61.4311 22.741 60.7759 22.9109 60.135 23.1275C56.5387 24.3946 56.6656 26.7229 57.6445 27.4662C58.5753 28.1716 61.4158 27.8931 63.0619 23.4121C63.2702 23.4121 63.4829 23.4258 63.7061 23.4364C67.3029 23.5983 69.5401 25.8494 73.8287 28.4729C78.3098 31.2144 82.1172 32.2135 86.8438 32.3785C91.5704 32.5435 95.5593 30.9631 98.7438 28.4729C100.949 26.7502 102.304 25.1667 103.381 23.1972C104.022 22.0336 104.564 20.8177 105 19.5625C105 19.5625 104.962 19.667 104.821 20.003ZM58.8515 26.5912C57.8359 26.5912 58.3986 25.3211 58.9783 24.8291C59.5575 24.3371 60.4959 23.8133 61.8265 23.5302C61.7843 23.6543 61.7433 23.7649 61.704 23.8557C61.704 23.8557 61.704 23.8557 61.704 23.8648C60.8924 25.7132 60.2618 26.5912 58.8515 26.5912Z" fill="#00A8D6"/>
</g>
</svg>
