<svg width="117" height="25" viewBox="0 0 117 25" fill="none" xmlns="http://www.w3.org/2000/svg">
<path d="M21.0501 3.64865C18.7708 1.28378 15.62 0 12.4021 0C5.56421 0 0.0670386 5.60811 0.134077 12.4324C0.134077 14.5946 0.737425 16.6892 1.743 18.5811L0 25L6.50275 23.3108C8.31279 24.3243 10.3239 24.7973 12.3351 24.7973C19.106 24.7973 24.6032 19.1892 24.6032 12.3649C24.6032 9.05405 23.3294 5.94595 21.0501 3.64865ZM12.4021 22.7027C10.5921 22.7027 8.78206 22.2297 7.24017 21.2838L6.83794 21.0811L2.9497 22.0946L3.95528 18.2432L3.68712 17.8378C0.737425 13.0405 2.14524 6.68919 6.97202 3.71622C11.7988 0.743243 18.0334 2.16216 20.9831 7.02703C23.9328 11.8919 22.525 18.1757 17.6982 21.1486C16.1563 22.1622 14.2792 22.7027 12.4021 22.7027ZM18.3015 15.2027L17.5641 14.8649C17.5641 14.8649 16.4915 14.3919 15.8211 14.0541C15.7541 14.0541 15.687 13.9865 15.62 13.9865C15.4189 13.9865 15.2848 14.0541 15.1507 14.1216C15.1507 14.1216 15.0837 14.1892 14.1451 15.2703C14.0781 15.4054 13.944 15.473 13.81 15.473H13.7429C13.6759 15.473 13.5418 15.4054 13.4748 15.3378L13.1396 15.2027C12.4021 14.8649 11.7318 14.4595 11.1954 13.9189C11.0614 13.7838 10.8603 13.6486 10.7262 13.5135C10.2569 13.0405 9.78764 12.5 9.45245 11.8919L9.38541 11.7568C9.31837 11.6892 9.31837 11.6216 9.25133 11.4865C9.25133 11.3514 9.25133 11.2162 9.31837 11.1486C9.31837 11.1486 9.58652 10.8108 9.78764 10.6081C9.92172 10.473 9.98875 10.2703 10.1228 10.1351C10.2569 9.93243 10.3239 9.66216 10.2569 9.45946C10.1899 9.12162 9.38541 7.2973 9.18429 6.89189C9.05021 6.68919 8.91614 6.62162 8.71502 6.55405H8.5139C8.37983 6.55405 8.17871 6.55405 7.9776 6.55405C7.84352 6.55405 7.70944 6.62162 7.57536 6.62162L7.50833 6.68919C7.37425 6.75676 7.24017 6.89189 7.10609 6.95946C6.97202 7.09459 6.90498 7.22973 6.7709 7.36486C6.30163 7.97297 6.03348 8.71622 6.03348 9.45946C6.03348 10 6.16755 10.5405 6.36867 11.0135L6.43571 11.2162C7.03906 12.5 7.84352 13.6486 8.91614 14.6622L9.18429 14.9324C9.38541 15.1351 9.58652 15.2703 9.7206 15.473C11.1284 16.6892 12.7373 17.5676 14.5474 18.0405C14.7485 18.1081 15.0167 18.1081 15.2178 18.1757C15.4189 18.1757 15.687 18.1757 15.8882 18.1757C16.2233 18.1757 16.6256 18.0405 16.8937 17.9054C17.0948 17.7703 17.2289 17.7703 17.363 17.6351L17.4971 17.5C17.6312 17.3649 17.7652 17.2973 17.8993 17.1622C18.0334 17.027 18.1675 16.8919 18.2345 16.7568C18.3686 16.4865 18.4356 16.1486 18.5027 15.8108C18.5027 15.6757 18.5027 15.473 18.5027 15.3378C18.5027 15.3378 18.4356 15.2703 18.3015 15.2027Z" fill="white"/>
<path d="M42.6261 15.7253H42.533L40.0205 6.63543H38.0663L35.6468 15.7253H35.5537L33.4134 6.63543H31.087L34.4371 18.8158H36.5774L39.0899 10.1805H39.1829L41.6955 18.8158H43.7427L46.9997 6.72633H44.7664L42.6261 15.7253ZM53.979 9.36239C53.3276 9.36239 52.6762 9.54418 52.1178 9.81688C51.6526 10.0896 51.1873 10.5441 51.0012 10.9986H50.8151V5.99915H48.6747V18.8158H50.8151V13.4528C50.8151 12.8165 51.0012 12.2711 51.4664 11.8166C51.9317 11.3622 52.4901 11.1804 53.1415 11.1804C53.6998 11.1804 54.2582 11.3622 54.6304 11.7257C55.0026 12.1802 55.1887 12.7256 55.0957 13.271V18.7249H57.329V12.8165C57.4221 11.9075 57.0499 10.9986 56.4915 10.2714C55.8401 9.63508 54.9096 9.36239 53.979 9.36239ZM63.2847 9.36239C62.261 9.36239 61.3305 9.54418 60.493 10.0896C59.8416 10.5441 59.3763 11.2713 59.2832 11.9984H61.3305C61.4235 11.7257 61.7027 11.4531 61.9819 11.2713C62.3541 11.0895 62.8194 10.9986 63.1916 10.9986C63.6569 10.9986 64.1222 11.0895 64.4944 11.3622C64.7736 11.6348 64.9597 11.9984 64.9597 12.4529V13.271L62.5402 13.4528C61.6096 13.4528 60.6791 13.7255 59.8416 14.2709C59.1902 14.7254 58.911 15.4526 58.911 16.2707C58.911 16.9979 59.1902 17.725 59.7485 18.2704C60.3999 18.8158 61.1444 19.0885 61.9819 18.9976C62.5402 18.9976 63.0986 18.9067 63.6569 18.634C64.1222 18.3613 64.4944 17.9977 64.7736 17.6341H64.9597V18.9067H67.0069V12.5438C67.1 11.6348 66.7278 10.8168 65.9833 10.2714C65.2389 9.54418 64.2152 9.27149 63.2847 9.36239ZM64.9597 15.4526C64.9597 15.998 64.7736 16.4525 64.3083 16.8161C63.843 17.1797 63.2847 17.3614 62.7263 17.3614C62.261 17.3614 61.8888 17.2706 61.5166 16.9979C61.2374 16.8161 61.0513 16.4525 61.0513 16.0889C61.0513 15.3617 61.6096 14.9072 62.8194 14.8163L64.9597 14.7254V15.4526ZM72.032 7.36262H69.8917V9.63508H68.3097V11.2713H69.8917V16.2707C69.7986 16.9979 70.0778 17.725 70.6362 18.1795C71.2876 18.634 72.1251 18.8158 72.9626 18.7249C73.3348 18.7249 73.707 18.7249 74.0793 18.634V17.0888C73.8001 17.0888 73.614 17.0888 73.3348 17.0888C72.9626 17.0888 72.5903 16.9979 72.3112 16.8161C72.1251 16.5434 71.9389 16.1798 72.032 15.8162V11.2713H74.0793V9.63508H72.032V7.36262ZM80.5932 13.5437L78.9182 13.1801C78.546 13.0892 78.1738 12.9983 77.8946 12.7256C77.7085 12.5438 77.5224 12.362 77.5224 12.0893C77.5224 11.7257 77.7085 11.4531 77.9876 11.2713C78.3599 11.0895 78.8251 10.9077 79.1974 10.9986C79.6627 10.9986 80.0349 11.0895 80.4071 11.2713C80.6863 11.4531 80.8724 11.7257 80.9655 12.0893H83.0127C83.0127 11.2713 82.5474 10.5441 81.896 10.0896C81.0585 9.63508 80.1279 9.36239 79.1974 9.36239C78.2668 9.36239 77.2432 9.63508 76.4987 10.1805C75.8473 10.635 75.4751 11.4531 75.4751 12.1802C75.4751 12.8165 75.6612 13.3619 76.1265 13.8164C76.6848 14.2709 77.4293 14.6345 78.1738 14.7254L79.8488 15.089C80.6863 15.2708 81.1516 15.6344 81.1516 16.1798C81.1516 16.5434 80.9655 16.8161 80.6863 16.9979C80.3141 17.1797 79.8488 17.3615 79.3835 17.2706C78.9182 17.2706 78.4529 17.1797 78.0807 16.9979C77.8015 16.8161 77.5224 16.5434 77.4293 16.1798H75.289C75.289 16.9979 75.7543 17.725 76.4987 18.1795C77.3362 18.7249 78.3599 18.9067 79.2904 18.9067C80.3141 18.9067 81.3377 18.634 82.1752 18.0886C82.9196 17.6341 83.2919 16.8161 83.2919 15.9071C83.2919 15.2708 83.1058 14.7254 82.6405 14.2709C81.896 13.9073 81.2446 13.6346 80.5932 13.5437ZM88.41 6.63543L83.9433 18.8158H86.1766L87.2933 15.7253H91.9462L92.9698 18.8158H95.3893L90.9225 6.63543H88.41ZM87.8517 13.9982L89.5267 8.99879H89.7128L91.3878 13.9982H87.8517ZM101.996 9.45329C101.345 9.45329 100.787 9.63508 100.228 9.90778C99.7629 10.1805 99.2976 10.635 99.0185 11.1804H98.8324V9.63508H96.7851V21.8155H98.9254V17.4523H99.1115C99.3907 17.9068 99.7629 18.3613 100.228 18.634C100.787 18.9067 101.345 19.0885 101.996 18.9976C103.113 18.9976 104.137 18.5431 104.788 17.725C105.532 16.7252 105.905 15.4526 105.812 14.2709C105.905 12.9983 105.532 11.8166 104.788 10.8168C104.137 9.81688 103.02 9.36239 101.996 9.45329ZM103.02 16.3616C102.275 17.2706 100.787 17.4523 99.856 16.6343C99.7629 16.5434 99.6699 16.4525 99.5768 16.3616C99.1115 15.7253 98.9254 14.9981 98.9254 14.18C98.9254 13.3619 99.1115 12.6347 99.5768 11.9984C100.414 11.0895 101.81 10.9077 102.741 11.7257C102.834 11.8166 102.927 11.9075 103.02 11.9984C103.485 12.6347 103.671 13.4528 103.671 14.18C103.671 14.9981 103.485 15.7253 103.02 16.3616ZM115.583 10.7259C114.931 9.90778 113.815 9.36239 112.698 9.45329C112.046 9.45329 111.488 9.63508 110.93 9.90778C110.464 10.1805 109.999 10.635 109.72 11.1804H109.534V9.63508H107.58V21.8155H109.72V17.4523H109.906C110.092 17.9068 110.464 18.3613 111.023 18.634C111.581 18.9067 112.139 19.0885 112.791 18.9976C113.908 19.0885 114.931 18.5431 115.676 17.725C116.42 16.7252 116.792 15.4526 116.699 14.2709C116.699 12.9074 116.327 11.7257 115.583 10.7259ZM113.815 16.3616C113.07 17.2706 111.581 17.4523 110.651 16.6343C110.558 16.5434 110.464 16.4525 110.371 16.3616C109.906 15.7253 109.72 14.9981 109.72 14.18C109.72 13.3619 109.906 12.6347 110.371 11.9984C111.209 11.0895 112.605 10.9077 113.535 11.7257C113.628 11.8166 113.721 11.9075 113.815 11.9984C114.28 12.6347 114.466 13.4528 114.466 14.18C114.466 14.9981 114.187 15.7253 113.815 16.3616Z" fill="white"/>
</svg>
