<svg width="14" height="14" viewBox="0 0 14 14" fill="none" xmlns="http://www.w3.org/2000/svg">
<path d="M2.66634 13.9984C2.63365 14.0023 2.60053 13.999 2.56928 13.9885C2.53803 13.978 2.50949 13.9607 2.48571 13.9378C2.2427 13.8699 2.03016 13.7202 1.88361 13.5136C1.46215 12.7864 1.58257 12.7258 3.6899 10.8472L5.19514 9.5746C1.28152 11.938 1.22131 11.8774 0.799841 11.7562C0.573573 11.6866 0.380721 11.5356 0.257953 11.332C-0.163514 10.6048 -0.0430951 10.5442 2.24487 8.5444L3.93074 7.1506C1.22131 8.7262 1.1611 8.7262 0.799841 8.605C0.556835 8.53713 0.344295 8.38739 0.197745 8.1808C-0.103303 7.6354 -0.163514 7.5142 2.36529 4.84778C1.1611 5.51438 1.10089 5.51438 0.799841 5.45378C0.674906 5.43138 0.556292 5.38182 0.45231 5.30856C0.348268 5.2353 0.261447 5.14009 0.197745 5.02958C-0.103303 4.72658 -0.103303 4.72658 0.498793 2.54498C0.62734 2.14861 0.727951 1.74361 0.799841 1.33298C0.619212 1.39358 0.197743 0.726978 0.920258 0.484575C1.46215 0.242175 2.12445 -0.242626 2.60613 0.545178C2.78676 0.908778 2.84697 0.908778 2.36529 2.72678L3.50927 1.99958C7.00143 -0.0608259 7.00143 -0.0608258 7.4229 0.0603746C7.66591 0.128252 7.87845 0.277987 8.025 0.484575C8.38626 1.09058 8.38625 1.09058 5.85745 3.87818L6.45955 3.51458C12.5407 -0.121426 12.5407 -0.121426 13.0224 0.0603746C13.2487 0.130003 13.4415 0.280998 13.5643 0.484575C13.9858 1.21178 13.8653 1.27238 11.5172 3.27218L9.83129 4.66598C12.8418 2.90858 12.902 2.90858 13.2632 3.02978C13.4895 3.0994 13.6824 3.2504 13.8051 3.45398C14.2266 4.18118 14.1062 4.24178 11.9988 6.0598L10.5538 7.3324C12.8418 5.9992 12.902 6.0598 13.2632 6.1204C13.4895 6.19003 13.6824 6.34098 13.8051 6.5446C14.1062 7.09 14.1664 7.1506 12.1193 9.6352C12.902 9.211 12.9622 9.2716 13.2632 9.2716C13.4987 9.34226 13.6984 9.50091 13.8216 9.71489C13.9447 9.92893 13.9819 10.1822 13.9255 10.423C13.8987 10.5641 13.8341 10.6952 13.7385 10.8021C13.643 10.9088 13.5203 10.9873 13.3837 11.029C13.203 11.0896 11.9386 11.8774 11.0355 12.4228C8.32605 14.059 8.32605 14.059 7.90458 13.9378C7.66157 13.8699 7.44903 13.7202 7.30248 13.5136C7.00143 12.9682 6.94122 12.9076 9.04856 10.423L8.32605 10.8472C3.75011 13.5742 3.0276 13.9984 2.66634 13.9984Z" fill="white"/>
</svg>
