<svg width="18" height="16" viewBox="0 0 18 16" fill="none" xmlns="http://www.w3.org/2000/svg">
<path d="M10.8686 0.217407C10.1309 -0.300796 8.85116 0.270081 8.85116 0.270081C8.85116 0.270081 7.57427 -0.299372 6.83512 0.217407C6.09598 0.734185 6.57689 1.94285 6.66628 2.12507C6.75566 2.3073 7.04228 2.83689 7.04228 2.83689C6.99995 3.52536 7.02562 4.21634 7.11886 4.89973C7.27495 5.8194 7.72326 6.14114 7.76013 6.14114C7.79701 6.14114 7.90203 6.1198 8.06943 5.16028C8.23683 4.20073 8.60712 3.3195 8.85116 3.13158C9.09941 3.32662 9.46121 4.20927 9.63288 5.16882C9.80456 6.12834 9.9067 6.14968 9.94357 6.14968C9.9805 6.14968 10.4288 5.82794 10.5835 4.90828C10.6776 4.22497 10.7037 3.53394 10.6615 2.84544C10.6615 2.84544 10.9452 2.313 11.036 2.13362C11.1268 1.95424 11.6049 0.737034 10.8686 0.217407Z" fill="white"/>
<path d="M17.1365 7.71712C17.399 6.85439 16.4627 5.80944 16.4627 5.80944C16.4627 5.80944 16.6046 4.41145 15.8881 3.86905C15.1716 3.32665 14.1728 4.15378 14.0281 4.29614C13.8834 4.43851 13.4691 4.87556 13.4691 4.87556C12.8036 5.04823 12.1568 5.28666 11.5382 5.58737C10.7125 6.01444 10.5451 6.54833 10.5593 6.58392C10.5735 6.61951 10.6231 6.71064 11.585 6.58392C12.5469 6.4572 13.4961 6.52272 13.7571 6.69923C13.6493 6.99536 12.9258 7.61462 12.0688 8.07589C11.2119 8.53716 11.2176 8.64532 11.2346 8.67525C11.2516 8.70513 11.69 9.03824 12.6107 8.90159C13.2871 8.7779 13.9497 8.58715 14.5885 8.33216C14.5885 8.33216 15.1816 8.43893 15.3816 8.47452C15.5816 8.51011 16.8727 8.58129 17.1365 7.71712Z" fill="white"/>
<path d="M11.971 15.9999C12.8719 15.9814 13.5728 14.7627 13.5728 14.7627C13.5728 14.7627 14.9419 14.4652 15.2312 13.6096C15.5207 12.754 14.4254 12.065 14.2381 11.971C14.0509 11.877 13.516 11.6179 13.516 11.6179C13.1447 11.0374 12.7169 10.4952 12.2391 9.99925C11.5724 9.34722 11.0205 9.35437 10.9906 9.37571C10.9609 9.39706 10.8928 9.47539 11.3184 10.3509C11.744 11.2265 11.971 12.1547 11.8859 12.4579C11.5709 12.4479 10.7594 11.951 10.0571 11.2777C9.35482 10.6043 9.25833 10.647 9.22856 10.6683C9.19878 10.6897 9.03276 11.2165 9.44564 12.0507C9.77232 12.6567 10.1577 13.2289 10.5962 13.7591C10.5962 13.7591 10.6799 14.357 10.714 14.5577C10.748 14.7585 11.0715 16.017 11.971 15.9999Z" fill="white"/>
<path d="M0.567079 7.7171C0.303192 6.85437 1.24098 5.80943 1.24098 5.80943C1.24098 5.80943 1.09627 4.41286 1.81557 3.86903C2.53487 3.32521 3.53084 4.15376 3.67413 4.29612C3.81742 4.43849 4.23453 4.87554 4.23453 4.87554C4.90003 5.04821 5.54683 5.28665 6.16542 5.58736C6.98973 6.01443 7.15857 6.54832 7.14438 6.58391C7.13018 6.6195 7.08055 6.71063 6.11862 6.58391C5.15672 6.45719 4.209 6.517 3.94653 6.69067C4.05435 6.98681 4.77791 7.60607 5.63483 8.06734C6.49174 8.52861 6.48608 8.63677 6.46906 8.6667C6.45204 8.69658 6.01365 9.02969 5.09287 8.89304C4.41604 8.76925 3.75308 8.5785 3.11372 8.32356C3.11372 8.32356 2.52211 8.43038 2.32206 8.46597C2.12202 8.50156 0.830965 8.58127 0.567079 7.7171Z" fill="white"/>
<path d="M5.7312 15.9999C4.83174 15.9814 4.13514 14.7627 4.13514 14.7627C4.13514 14.7627 2.76605 14.4652 2.47662 13.6096C2.1872 12.754 3.28247 12.065 3.46975 11.971C3.65702 11.877 4.19188 11.6179 4.19188 11.6179C4.56273 11.037 4.99047 10.4948 5.46875 9.99925C6.13559 9.34722 6.68604 9.35437 6.71582 9.37571C6.74565 9.39706 6.81513 9.47539 6.3895 10.3509C5.96392 11.2265 5.73547 12.1547 5.82202 12.4579C6.13559 12.4479 6.9471 11.951 7.6508 11.2777C8.35446 10.6043 8.44956 10.647 8.47789 10.6683C8.50628 10.6897 8.68078 11.2165 8.26508 12.0507C7.93819 12.6569 7.55232 13.2292 7.11306 13.7591C7.11306 13.7591 7.03077 14.357 6.99672 14.5577C6.96268 14.7585 6.63214 16.017 5.7312 15.9999Z" fill="white"/>
</svg>
