<svg width="40" height="40" viewBox="0 0 40 40" fill="none" xmlns="http://www.w3.org/2000/svg">
<path fill-rule="evenodd" clip-rule="evenodd" d="M19.0966 1.01597C18.3898 1.05234 17.5863 1.12719 17.2785 1.18543C17.1506 1.20962 16.9318 1.24599 16.7923 1.26628C16.3275 1.33378 15.9897 1.39984 15.9218 1.4365C15.8848 1.45642 15.7467 1.48624 15.6147 1.50273C15.4827 1.51922 15.3655 1.54772 15.3542 1.56608C15.3428 1.58443 15.2384 1.61256 15.1222 1.62854C15.006 1.64453 14.9002 1.67485 14.8872 1.69595C14.8742 1.71701 14.8277 1.73427 14.7839 1.73427C14.707 1.73427 13.8782 1.99135 13.7058 2.0687C13.6593 2.08955 13.4976 2.1504 13.3464 2.2039C13.1953 2.25744 13.024 2.32578 12.9659 2.3558C12.9078 2.38583 12.828 2.41049 12.7887 2.41065C12.7494 2.41078 12.7063 2.42846 12.6931 2.44994C12.6798 2.47143 12.6121 2.50149 12.5426 2.51676C12.4731 2.53203 12.4162 2.56049 12.4162 2.58007C12.4162 2.59965 12.3566 2.62874 12.2837 2.64477C12.2108 2.66076 12.0633 2.71726 11.956 2.77029C11.8487 2.82336 11.6562 2.91775 11.5283 2.98009C11.1073 3.18528 10.7099 3.4035 10.2906 3.65969C10.0633 3.79857 9.83977 3.93098 9.79381 3.95395C9.74785 3.97691 9.71026 4.01024 9.71026 4.02795C9.71026 4.04572 9.69047 4.06022 9.66629 4.06022C9.62857 4.06022 9.39341 4.20798 9.32973 4.27167C9.26885 4.33257 9.03174 4.48312 8.99673 4.48312C8.97445 4.48312 8.94992 4.49826 8.94214 4.51679C8.93441 4.53527 8.83293 4.62099 8.71666 4.70722C8.34932 4.97969 8.25994 5.05053 8.10583 5.19127C8.02321 5.26676 7.94398 5.32863 7.92981 5.32871C7.90668 5.32893 7.82466 5.39904 7.46937 5.72231C7.41124 5.77521 7.24 5.92957 7.08885 6.06536C6.93769 6.20112 6.73791 6.38275 6.6449 6.46894C6.46393 6.6367 5.78397 7.36836 5.60901 7.58358C5.55088 7.65513 5.47452 7.74348 5.4393 7.77997C5.40412 7.81647 5.32895 7.91268 5.27225 7.99379C5.21555 8.07486 5.15779 8.15073 5.14393 8.16236C5.09666 8.20203 4.56751 8.90189 4.4405 9.09274C4.37082 9.19741 4.22474 9.41271 4.11582 9.57117C4.00691 9.72963 3.91778 9.86665 3.91778 9.87566C3.91778 9.88467 3.8607 9.97661 3.79094 10.08C3.72117 10.1834 3.66409 10.2827 3.66409 10.3008C3.66409 10.3189 3.63771 10.3637 3.60549 10.4004C3.45641 10.5702 2.39567 12.6775 2.39567 12.8038C2.39567 12.8394 2.23268 13.269 2.17932 13.374C2.15877 13.4144 2.14186 13.4715 2.14173 13.5009C2.14156 13.5303 2.11484 13.6054 2.08228 13.6678C2.04973 13.7302 2.00939 13.8437 1.9926 13.9202C1.97582 13.9965 1.94652 14.0882 1.92741 14.1239C1.90834 14.1595 1.85189 14.3314 1.80196 14.5059C1.75207 14.6803 1.69419 14.8801 1.67343 14.9499C1.63499 15.079 1.52405 15.5574 1.40862 16.0918C1.05596 17.7244 0.923829 19.5946 1.04255 21.2723C1.10593 22.1673 1.26745 23.3421 1.40304 23.8943C1.43445 24.0222 1.5013 24.3172 1.55157 24.5498C1.60184 24.7824 1.65871 25.0203 1.67795 25.0784C1.69715 25.1366 1.75368 25.3269 1.80357 25.5013C1.85346 25.6757 1.91083 25.8565 1.93104 25.9031C1.9513 25.9496 2.01527 26.1304 2.07328 26.3048C2.28181 26.9321 2.30663 26.9963 2.51837 27.4563C2.59041 27.6128 2.64935 27.7541 2.64935 27.7701C2.64935 27.8099 3.31376 29.1278 3.41371 29.2863C3.45772 29.356 3.51112 29.4512 3.53239 29.4977C3.55366 29.5442 3.6167 29.6489 3.67247 29.7303C3.72828 29.8117 3.78747 29.9069 3.804 29.9418C3.82058 29.9767 3.87178 30.0623 3.91778 30.1321C3.96378 30.2018 4.02374 30.3018 4.05096 30.3541C4.07819 30.4064 4.11646 30.4492 4.13599 30.4492C4.15548 30.4492 4.17147 30.467 4.17147 30.4887C4.17147 30.5621 5.07759 31.7991 5.50259 32.306C6.04032 32.9473 7.32985 34.2082 7.95045 34.6994C8.0386 34.7692 8.16684 34.8786 8.23546 34.9426C8.30404 35.0065 8.37059 35.0589 8.38332 35.0589C8.41482 35.0589 8.79767 35.3681 8.8153 35.4078C8.82308 35.4252 8.8534 35.4395 8.88274 35.4395C8.91208 35.4395 8.97056 35.4775 9.01263 35.5241C9.0547 35.5706 9.11473 35.6086 9.14602 35.6086C9.17731 35.6086 9.20289 35.6253 9.20289 35.6458C9.20289 35.6662 9.25997 35.7066 9.32973 35.7355C9.3995 35.7644 9.45658 35.8048 9.45658 35.8252C9.45658 35.8457 9.47636 35.8624 9.50055 35.8624C9.55061 35.8624 9.80865 36.0362 9.83004 36.0844C9.83782 36.1018 9.86023 36.1161 9.87989 36.1161C9.91515 36.1161 10.4304 36.4097 10.4713 36.4531C10.4896 36.4725 10.8182 36.6498 11.2535 36.8751C11.3232 36.9113 11.39 36.9535 11.4019 36.9692C11.4138 36.9848 11.4756 37.0106 11.5393 37.0266C11.603 37.0426 11.6552 37.0726 11.6552 37.0934C11.6552 37.1141 11.6751 37.1311 11.6994 37.1311C11.7238 37.1311 11.8807 37.1952 12.0482 37.2736C12.2157 37.3521 12.4527 37.4517 12.5748 37.495C12.6969 37.5384 12.7968 37.5875 12.7968 37.6043C12.7968 37.621 12.8636 37.6473 12.9452 37.6626C13.0269 37.6779 13.1041 37.7073 13.1168 37.7279C13.1296 37.7486 13.1722 37.7661 13.2115 37.7669C13.2508 37.7677 13.3591 37.8051 13.4521 37.85C13.5451 37.895 13.6534 37.9324 13.6927 37.9332C13.7321 37.934 13.7747 37.9515 13.7874 37.9721C13.8001 37.9927 13.8797 38.0226 13.9642 38.0384C14.0487 38.0543 14.1488 38.084 14.1867 38.1044C14.2506 38.1389 14.5571 38.2299 15.1222 38.3822C15.2501 38.4167 15.4118 38.462 15.4816 38.4831C15.5514 38.5041 15.7226 38.5435 15.8621 38.5706C16.0017 38.5977 16.249 38.6468 16.4118 38.6797C16.5746 38.7126 16.86 38.7588 17.046 38.7823C17.232 38.8058 17.5079 38.8445 17.6591 38.8683C17.8102 38.892 18.4 38.9361 18.9698 38.9663C19.8083 39.0107 20.199 39.0111 21.0204 38.9683C21.5785 38.9392 22.1778 38.8947 22.3522 38.8694C22.5267 38.8441 22.8025 38.8044 22.9653 38.7812C23.5503 38.6978 24.4482 38.5168 24.4911 38.4738C24.5084 38.4563 24.5649 38.4421 24.6165 38.4421C24.6681 38.4421 24.8124 38.4117 24.9371 38.3745C25.7987 38.118 26.1458 38.0088 26.2098 37.9743C26.2502 37.9524 26.3072 37.9345 26.3366 37.9343C26.366 37.9342 26.4376 37.9097 26.4958 37.8798C26.5539 37.85 26.6966 37.7906 26.8129 37.7479C26.9291 37.7051 27.0814 37.6454 27.1511 37.6152C27.2209 37.5849 27.4492 37.4884 27.6585 37.4007C28.0658 37.23 29.2169 36.6506 29.2863 36.5813C29.2979 36.5697 29.4121 36.5044 29.54 36.4363C29.6679 36.3682 29.9285 36.2112 30.1191 36.0874C30.3098 35.9637 30.4857 35.8624 30.5102 35.8624C30.5347 35.8624 30.5547 35.8464 30.5547 35.8269C30.5547 35.8074 30.603 35.7694 30.662 35.7425C30.721 35.7156 30.7924 35.6742 30.8206 35.6505C30.8488 35.6269 31.0731 35.4582 31.3191 35.2758C31.7514 34.9552 31.9325 34.8118 32.074 34.6783C32.1109 34.6434 32.193 34.5742 32.2564 34.5246C32.588 34.2651 34.0218 32.8954 34.0218 32.8382C34.0218 32.828 34.1026 32.7382 34.2015 32.6387C34.3003 32.5391 34.4856 32.3245 34.6133 32.1618C34.741 31.9991 34.8887 31.8184 34.9415 31.7602C34.9943 31.7021 35.048 31.6212 35.0609 31.5805C35.0739 31.5398 35.0993 31.5065 35.1175 31.5065C35.146 31.5065 35.5199 30.9883 35.713 30.6813C35.8438 30.4734 36.0312 30.2161 36.0618 30.2026C36.0793 30.1948 36.0935 30.1706 36.0935 30.1489C36.0935 30.1271 36.1455 30.0288 36.209 29.9303C36.3592 29.6975 36.3891 29.6472 36.5218 29.4048C36.583 29.2931 36.6718 29.1351 36.7191 29.0537C36.8045 28.9068 37.1906 28.1343 37.3004 27.8907C37.3318 27.8209 37.4081 27.6513 37.4699 27.5138C37.5317 27.3764 37.6284 27.1385 37.6847 26.9852C37.7411 26.832 37.8044 26.6685 37.8254 26.622C37.8783 26.5047 38.0966 25.8408 38.2078 25.459C38.2586 25.2846 38.3171 25.0847 38.3379 25.015C38.3587 24.9452 38.4144 24.7168 38.4618 24.5075C38.5091 24.2981 38.5739 24.0127 38.6059 23.8731C38.7787 23.1175 38.9139 22.0431 38.9745 20.9445C39.0597 19.4004 38.9294 17.6956 38.6084 16.1552C38.5106 15.6864 38.3704 15.0818 38.3336 14.9711C38.3142 14.9129 38.2573 14.7226 38.207 14.5482C38.1136 14.2242 38.014 13.917 37.9533 13.7658C37.9346 13.7193 37.8496 13.4814 37.7645 13.2372C37.6793 12.9929 37.5836 12.736 37.5518 12.6663C37.0451 11.5555 36.6977 10.8767 36.3177 10.2557C36.2892 10.2092 36.2523 10.1426 36.2355 10.1077C36.2188 10.0728 36.0058 9.7493 35.7622 9.38877C35.3839 8.82898 35.2122 8.59228 34.9731 8.30133C34.8931 8.20402 34.8423 8.14071 34.675 7.92977C34.5827 7.81347 34.4658 7.67074 34.415 7.61259C34.3643 7.55444 34.2884 7.46673 34.2463 7.41768C34.029 7.16453 33.5227 6.61772 33.433 6.53927C33.3766 6.48996 33.2054 6.33293 33.0525 6.19033C32.8996 6.04773 32.6999 5.86694 32.6088 5.78858C32.5177 5.71021 32.4129 5.61755 32.3758 5.58267C32.3387 5.54778 32.2139 5.44311 32.0985 5.35007C31.8652 5.16213 31.6704 4.99682 31.5877 4.9166C31.5578 4.8875 31.5241 4.86373 31.5129 4.86373C31.4943 4.86373 30.8131 4.37156 30.6939 4.27205C30.6658 4.24858 30.6318 4.22938 30.6182 4.22938C30.5825 4.22938 30.3248 4.04483 30.3081 4.00736C30.3003 3.98994 30.2758 3.97564 30.2536 3.97564C30.2313 3.97564 30.1143 3.90903 29.9934 3.82763C29.8725 3.74622 29.7496 3.67961 29.7202 3.67961C29.6909 3.67961 29.6668 3.66058 29.6668 3.63732C29.6668 3.61406 29.646 3.59503 29.6205 3.59503C29.595 3.59503 29.5195 3.55608 29.4527 3.50851C29.2805 3.38586 27.9808 2.72906 27.782 2.66418C27.6908 2.63445 27.6067 2.59737 27.5951 2.58184C27.5834 2.56628 27.4503 2.50885 27.2991 2.45421C27.148 2.39957 27.0053 2.34202 26.982 2.32633C26.9587 2.31064 26.816 2.25482 26.6649 2.20221C26.5137 2.14964 26.352 2.0898 26.3055 2.0692C26.1557 2.00289 25.3031 1.73427 25.2425 1.73427C25.2103 1.73427 25.1509 1.716 25.1105 1.69367C25.0701 1.67138 24.9419 1.63188 24.8257 1.60596C24.2683 1.48158 24.1445 1.45181 24.0858 1.42796C24.0509 1.41379 23.8987 1.37992 23.7475 1.35268C23.0666 1.22987 22.7138 1.17896 22.162 1.12377C21.8364 1.0912 21.4939 1.0542 21.4009 1.04151C21.1054 1.00121 19.6887 0.985478 19.0966 1.01597ZM18.6738 2.0569C18.6738 2.07153 18.5706 2.18093 18.4444 2.30007C17.6048 3.09292 16.9056 3.76165 16.5156 4.1448C16.2671 4.38903 15.8191 4.81721 15.5202 5.09633C15.2213 5.37544 14.8548 5.72417 14.7057 5.87125C14.5567 6.01834 14.3905 6.15553 14.3365 6.17608C14.2824 6.19663 13.4144 6.23347 12.4076 6.25791C11.4008 6.2824 10.0646 6.32092 9.43822 6.34355C8.81188 6.36622 8.28916 6.37442 8.27656 6.36182C8.24882 6.33412 8.59789 6.00557 8.65506 6.00557C8.67734 6.00557 8.69552 5.99081 8.69552 5.97275C8.69552 5.94057 9.11177 5.62102 9.42457 5.413C9.51162 5.35514 9.58295 5.29349 9.58312 5.27606C9.58329 5.25864 9.609 5.24434 9.64029 5.24434C9.67157 5.24434 9.73161 5.20628 9.77368 5.15976C9.81575 5.11325 9.87423 5.07518 9.90357 5.07518C9.93291 5.07518 9.96323 5.06089 9.97101 5.04347C9.9924 4.9953 10.2504 4.82144 10.3005 4.82144C10.3247 4.82144 10.3445 4.80694 10.3445 4.78918C10.3445 4.77146 10.3821 4.73813 10.428 4.71517C10.474 4.69221 10.6913 4.56398 10.911 4.43026C11.1307 4.2965 11.3293 4.18709 11.3524 4.18709C11.3755 4.18709 11.4008 4.1728 11.4086 4.15537C11.4268 4.11427 12.3025 3.67961 12.367 3.67961C12.3941 3.67961 12.4162 3.66058 12.4162 3.63732C12.4162 3.61406 12.437 3.59503 12.4622 3.59503C12.4876 3.59503 12.6257 3.54069 12.7692 3.47425C12.9127 3.40781 13.0775 3.33989 13.1354 3.32332C13.1933 3.30674 13.2978 3.26771 13.3676 3.23654C13.5306 3.16376 13.9369 3.01117 14.3189 2.87927C14.5477 2.80027 14.8703 2.70728 15.0799 2.65987C15.1846 2.63623 15.2987 2.6051 15.3336 2.59073C15.3945 2.56565 15.5051 2.53879 16.1581 2.39048C16.6397 2.28112 17.1404 2.19679 17.6744 2.13513C17.9502 2.10329 18.1865 2.06667 18.1994 2.05377C18.2319 2.0212 18.6738 2.02412 18.6738 2.0569ZM21.9269 2.07225C22.0562 2.0953 22.3142 2.13298 22.5002 2.15594C23.0823 2.22779 23.6648 2.33948 24.3712 2.51456C25.2446 2.73109 25.3784 2.77033 25.9673 2.98314C26.1998 3.06717 26.4281 3.14705 26.4746 3.16063C26.5211 3.17416 26.5967 3.21087 26.6426 3.24212C26.6884 3.27341 26.7514 3.299 26.7823 3.299C26.8332 3.299 26.9719 3.35474 27.3689 3.53464C27.4422 3.56788 27.5231 3.59503 27.5486 3.59503C27.5742 3.59503 27.5951 3.61406 27.5951 3.63732C27.5951 3.66058 27.6171 3.67961 27.6441 3.67961C27.6975 3.67961 28.3218 3.9805 28.3561 4.0228C28.3678 4.03709 28.4248 4.06348 28.483 4.08137C28.5411 4.09926 28.5982 4.12721 28.6098 4.14349C28.6214 4.15973 28.7641 4.24524 28.9269 4.3335C29.0897 4.42176 29.298 4.54863 29.3898 4.61545C29.4816 4.68222 29.5799 4.73686 29.6082 4.73686C29.6366 4.73686 29.6661 4.75116 29.6739 4.76858C29.6944 4.81489 29.9524 4.9906 29.9998 4.9906C30.0221 4.9906 30.0466 5.0049 30.0544 5.02232C30.075 5.06863 30.333 5.24434 30.3804 5.24434C30.4026 5.24434 30.4272 5.26033 30.435 5.27991C30.4427 5.29945 30.644 5.45457 30.8824 5.62462C31.1208 5.79467 31.3158 5.94995 31.3158 5.96966C31.3158 5.98941 31.3343 6.00557 31.3568 6.00557C31.3794 6.00557 31.4888 6.09281 31.6 6.19942L31.802 6.39328L30.745 6.36913C30.1636 6.35586 28.8072 6.32207 27.7307 6.29411L25.7734 6.24324L25.636 6.11383C25.2788 5.77733 24.4675 5.01814 24.2972 4.86094C24.1925 4.76439 23.8139 4.40675 23.4557 4.06618C22.5392 3.19471 22.3873 3.05135 22.133 2.81732C21.6692 2.39052 21.3375 2.07098 21.3375 2.05098C21.3375 2.01579 21.6798 2.02814 21.9269 2.07225ZM21.2318 3.30585C21.3481 3.41462 21.5288 3.58327 21.6335 3.68058C21.7381 3.77794 22.1091 4.12915 22.4579 4.46113C22.8068 4.79311 23.1998 5.16695 23.3315 5.29196C23.6141 5.56029 24.4336 6.32591 24.6126 6.48882C24.7155 6.58245 24.7268 6.60968 24.676 6.64182C24.6421 6.6633 24.5905 6.68119 24.5614 6.68157C24.5324 6.68191 24.5086 6.69972 24.5086 6.72116C24.5086 6.74256 24.4515 6.77262 24.3817 6.78793C24.312 6.80324 24.2549 6.83179 24.2549 6.85137C24.2549 6.87095 24.1978 6.89949 24.128 6.9148C24.0583 6.93011 24.0012 6.95866 24.0012 6.97824C24.0012 6.99782 23.9441 7.02636 23.8744 7.04167C23.8046 7.05698 23.7475 7.08553 23.7475 7.10511C23.7475 7.12469 23.6904 7.15323 23.6207 7.16854C23.5509 7.18385 23.4938 7.2124 23.4938 7.23198C23.4938 7.25156 23.4367 7.28011 23.367 7.29541C23.2972 7.31072 23.2401 7.33927 23.2401 7.35885C23.2401 7.37843 23.1831 7.40698 23.1133 7.42228C23.0435 7.43759 22.9865 7.46559 22.9865 7.48449C22.9865 7.5034 22.9343 7.53194 22.8706 7.54793C22.8069 7.56391 22.7451 7.58975 22.7332 7.60536C22.7214 7.62096 22.645 7.66621 22.5636 7.70588C22.4823 7.74559 21.8754 8.04568 21.2151 8.3728L20.0147 8.96752L19.841 8.87829C19.7455 8.82923 19.5628 8.734 19.4349 8.66671C19.307 8.59943 19.1801 8.54407 19.153 8.54369C19.1259 8.54331 19.0973 8.52868 19.0896 8.51125C19.0818 8.49383 18.9237 8.40342 18.7381 8.31038C18.5526 8.21734 18.2577 8.06328 18.0828 7.968C17.9079 7.87272 17.546 7.68017 17.2785 7.5401C17.0111 7.40004 16.6591 7.21329 16.4963 7.12511C16.3336 7.0369 16.0387 6.88097 15.841 6.77854C15.6433 6.67612 15.4675 6.57851 15.4503 6.56155C15.4331 6.54464 15.641 6.32224 15.9124 6.06731C16.506 5.50959 16.5261 5.4903 17.4354 4.60999C17.8318 4.22621 18.4581 3.62675 18.8272 3.27786C19.1963 2.92896 19.6114 2.53609 19.7497 2.40482L20.0012 2.16618L20.5108 2.63716C20.7911 2.89619 21.1155 3.19708 21.2318 3.30585ZM13.8336 7.34828C13.8173 7.43552 13.7888 7.5259 13.7703 7.54916C13.7518 7.57241 13.7228 7.65805 13.7058 7.73946C13.6888 7.82087 13.6603 7.90651 13.6424 7.92977C13.6245 7.95303 13.5956 8.03858 13.5782 8.1199C13.5608 8.20123 13.523 8.32492 13.4943 8.39479C13.4282 8.55545 13.3495 8.78115 13.3026 8.94473C13.2826 9.01451 13.0547 9.69009 12.7961 10.446C12.5376 11.202 12.3102 11.8828 12.2908 11.9591C12.2714 12.0353 12.2346 12.123 12.209 12.1538C12.166 12.2056 11.8739 12.3059 11.1267 12.5252C10.9639 12.573 10.8015 12.6266 10.7659 12.6444C10.7302 12.6621 10.6351 12.6908 10.5545 12.708C10.4739 12.7253 10.3889 12.7538 10.3656 12.7713C10.3424 12.7889 10.2496 12.8166 10.1596 12.8328C10.0695 12.849 9.96488 12.8787 9.92703 12.8987C9.88919 12.9187 9.76311 12.9627 9.64684 12.9965C9.14065 13.1435 8.41507 13.3733 8.3519 13.4066C8.31406 13.4265 8.20942 13.4562 8.11936 13.4724C8.0293 13.4886 7.93658 13.5163 7.91332 13.5338C7.89007 13.5514 7.80445 13.5796 7.72306 13.5966C7.64167 13.6136 7.55605 13.6418 7.53279 13.6591C7.50954 13.6765 7.43817 13.7032 7.37424 13.7185L7.25797 13.7463L7.2589 13.0582C7.25945 12.6798 7.28761 11.5139 7.32152 10.4672C7.35543 9.42049 7.38354 8.30492 7.38397 7.98813L7.38481 7.41214L7.58565 7.38647C7.69613 7.37234 8.85018 7.33204 10.1502 7.29685C11.4503 7.26167 12.5237 7.22314 12.5356 7.2113C12.5475 7.19942 12.851 7.18969 13.2102 7.18969H13.8632L13.8336 7.34828ZM29.6668 7.31838C30.8644 7.34257 32.0203 7.37374 32.2354 7.38761L32.6265 7.41285V7.88938C32.6265 8.15149 32.6539 9.04804 32.6873 9.88175C32.7207 10.7154 32.7595 11.9542 32.7735 12.6345C32.8009 13.9712 32.8074 13.9323 32.5765 13.8118C32.5141 13.7792 32.4 13.7391 32.3228 13.7226C32.2457 13.7061 32.1635 13.678 32.1403 13.6601C32.117 13.6422 32.032 13.6134 31.9514 13.5961C31.8708 13.5789 31.7756 13.5489 31.74 13.5295C31.7044 13.5102 31.1234 13.3124 30.449 13.0902C29.7747 12.8679 29.1937 12.6697 29.1581 12.6498C29.1224 12.6299 29.0273 12.5994 28.9467 12.5822C28.866 12.5649 28.7811 12.5369 28.7578 12.5201C28.7345 12.5031 28.5728 12.4464 28.3984 12.394C27.7968 12.213 27.7738 12.1974 27.7202 11.936C27.7025 11.8492 27.6643 11.7116 27.6355 11.6301C27.5059 11.2642 27.4753 11.172 27.411 10.9535C27.3734 10.8256 27.2849 10.5401 27.2145 10.3192C27.1441 10.0982 27.0557 9.81273 27.0181 9.6848C26.9804 9.55688 26.9256 9.3856 26.8961 9.30419C26.8667 9.22279 26.7812 8.95636 26.7062 8.71213C26.6312 8.46791 26.545 8.19196 26.5145 8.09893C26.4069 7.76987 26.2844 7.34401 26.2843 7.29888C26.2842 7.24881 26.1991 7.2483 29.6668 7.31838ZM15.4529 7.68491C15.7478 7.84096 16.1031 8.02653 16.2427 8.09724C16.3822 8.16794 16.5059 8.23531 16.5175 8.24694C16.5374 8.2669 16.7049 8.35372 17.9339 8.98156C18.2129 9.12412 18.4549 9.25979 18.4715 9.28305C18.4903 9.30927 18.3699 9.34475 18.1544 9.37643C17.9634 9.40455 17.6929 9.45585 17.5534 9.49044C17.4138 9.52503 17.2045 9.57561 17.0883 9.60281C16.972 9.63004 16.8578 9.66742 16.8346 9.6859C16.8113 9.70439 16.7208 9.73289 16.6333 9.74926C16.5458 9.76558 16.4638 9.79586 16.4511 9.81645C16.4384 9.83709 16.3995 9.85397 16.3647 9.85397C16.3299 9.85397 16.2216 9.88991 16.1241 9.93389C16.0265 9.97783 15.8468 10.0489 15.7247 10.0918C15.6027 10.1347 15.5027 10.1829 15.5027 10.1988C15.5027 10.2148 15.4457 10.2404 15.3759 10.2557C15.3061 10.271 15.2491 10.2996 15.2491 10.3192C15.2491 10.3387 15.192 10.3673 15.1222 10.3826C15.0525 10.3979 14.9954 10.428 14.9954 10.4494C14.9954 10.4708 14.9742 10.4883 14.9484 10.4883C14.8944 10.4883 14.2914 10.8474 13.9172 11.1024C13.5186 11.374 13.542 11.3685 13.5769 11.1817C13.5938 11.0911 13.6228 10.9979 13.6413 10.9747C13.6598 10.9514 13.6888 10.8658 13.7058 10.7843C13.7228 10.7029 13.7513 10.6173 13.7692 10.594C13.7871 10.5708 13.8156 10.4851 13.8326 10.4037C13.8496 10.3223 13.8782 10.2367 13.8961 10.2134C13.914 10.1902 13.9427 10.1052 13.96 10.0245C13.9772 9.94387 14.0065 9.84872 14.0249 9.81307C14.0433 9.77742 14.0998 9.62454 14.1505 9.47335C14.2011 9.32217 14.2594 9.16041 14.28 9.11389C14.3005 9.06737 14.3351 8.95319 14.3567 8.86015C14.3997 8.67504 14.4673 8.47112 14.557 8.25608C14.5888 8.1797 14.6148 8.09148 14.6148 8.06002C14.6148 8.0286 14.6433 7.94837 14.678 7.88172C14.7127 7.81512 14.7413 7.73109 14.7414 7.69501C14.7418 7.60549 14.8394 7.40186 14.8821 7.40148C14.9012 7.40131 15.1581 7.52881 15.4529 7.68491ZM25.4173 7.81347C25.4793 8.01701 25.5557 8.25963 25.5869 8.35267C25.6181 8.44571 25.6571 8.5878 25.6735 8.66845C25.6898 8.74909 25.7184 8.84425 25.737 8.8799C25.7555 8.91555 25.8407 9.17309 25.9262 9.45221C26.0117 9.73132 26.1252 10.0929 26.1784 10.2557C26.4166 10.985 26.5142 11.3764 26.4578 11.3764C26.4361 11.3764 26.4119 11.3595 26.4041 11.3389C26.387 11.2932 25.4363 10.6698 25.2037 10.5518C25.112 10.5052 25.0274 10.4544 25.0155 10.4388C25.0036 10.4232 24.9418 10.3974 24.8781 10.3814C24.8144 10.3654 24.7623 10.3353 24.7623 10.3146C24.7623 10.2938 24.7415 10.2769 24.7163 10.2769C24.6909 10.2769 24.5469 10.2198 24.3962 10.15C24.2455 10.0802 24.1121 10.0231 24.0998 10.0231C24.0875 10.0231 24.0174 9.99526 23.9442 9.96121C23.8709 9.92717 23.6397 9.84365 23.4304 9.7756C22.6586 9.52469 22.4425 9.47001 21.8449 9.37435C21.6111 9.33697 21.5444 9.31274 21.5912 9.2822C21.6828 9.22232 25.2431 7.44783 25.2764 7.44546C25.2918 7.44432 25.3552 7.60997 25.4173 7.81347ZM6.33083 11.2284C6.3058 12.089 6.27346 13.1189 6.25887 13.5171L6.2324 14.2411L6.03698 14.4531C5.9295 14.5696 5.5847 14.9366 5.27077 15.2686C4.55707 16.0233 4.15755 16.4502 3.89207 16.7419C3.7783 16.8668 3.50448 17.1559 3.28357 17.3842C3.06265 17.6125 2.70115 17.9904 2.48023 18.2239C2.25931 18.4574 2.06165 18.6489 2.04097 18.6494C2.02 18.6499 2.01649 18.5521 2.03303 18.4283C2.04935 18.3062 2.08909 17.9969 2.12139 17.7411C2.25348 16.6937 2.41719 15.8592 2.63155 15.1402C2.66973 15.0123 2.72635 14.8171 2.75738 14.7065C2.78846 14.5958 2.82693 14.4841 2.84287 14.4583C2.85886 14.4325 2.88693 14.3517 2.90528 14.2789C2.92363 14.206 2.99965 13.9847 3.07415 13.7869C3.14869 13.5892 3.23697 13.3525 3.27033 13.2609C3.39553 12.9169 3.95833 11.7445 4.18432 11.3569C4.25163 11.2415 4.37408 11.0226 4.45644 10.8705C4.53884 10.7185 4.63207 10.564 4.66366 10.5273C4.69528 10.4906 4.72112 10.4382 4.72112 10.411C4.72112 10.3837 4.73887 10.3614 4.76056 10.3614C4.78225 10.3614 4.81312 10.3201 4.82914 10.2696C4.84517 10.219 4.87536 10.1571 4.8962 10.1321C5.06752 9.9262 5.10164 9.87862 5.10164 9.84572C5.10164 9.82504 5.12118 9.78512 5.14502 9.75704C5.16891 9.72896 5.34489 9.49513 5.53612 9.23746C5.72736 8.97974 5.91238 8.73954 5.94726 8.70359C5.98214 8.66764 6.08679 8.54771 6.17981 8.43708L6.34893 8.2359L6.36259 8.9498C6.37011 9.34242 6.35582 10.3678 6.33083 11.2284ZM34.0013 8.63432C34.0482 8.68875 34.1434 8.8094 34.2127 8.90244C34.2821 8.99548 34.3531 9.07794 34.3706 9.08568C34.388 9.09346 34.4023 9.12674 34.4023 9.15969C34.4023 9.19267 34.419 9.21961 34.4394 9.21961C34.4599 9.21961 34.5879 9.38615 34.7239 9.58965C34.8599 9.79319 34.9859 9.96603 35.0039 9.97377C35.0218 9.98155 35.0365 10.004 35.0365 10.0237C35.0365 10.0433 35.1127 10.1741 35.2058 10.3144C35.3857 10.5853 35.5919 10.9348 35.6951 11.1438C35.7296 11.2136 35.7979 11.3373 35.847 11.4187C36.1262 11.8821 36.5812 12.8679 36.9206 13.7447C36.9893 13.922 37.3409 15.0323 37.4228 15.3305C37.4548 15.4468 37.5112 15.6483 37.5483 15.7783C37.5853 15.9083 37.6156 16.0624 37.6156 16.1209C37.6156 16.1793 37.6344 16.2823 37.6573 16.3498C37.711 16.5081 37.8175 17.1813 37.8906 17.8256C37.9223 18.1048 37.9615 18.414 37.9776 18.5129C38.0144 18.738 37.9644 18.7434 37.783 18.534C37.7075 18.4468 37.3488 18.0693 36.9859 17.6952C36.4336 17.1259 35.2928 15.9318 34.804 15.4114C34.7342 15.3372 34.4881 15.0833 34.2571 14.8473C33.7576 14.337 33.7762 14.402 33.7704 13.1526C33.7683 12.699 33.7388 11.6999 33.7048 10.9324C33.6709 10.1648 33.6427 9.24182 33.6422 8.88129L33.6413 8.2258L33.7787 8.38058C33.8542 8.46571 33.9545 8.57989 34.0013 8.63432ZM21.2741 10.2752C21.687 10.333 22.0673 10.4005 22.2254 10.444C22.9086 10.632 23.2638 10.7431 23.515 10.8473C23.5847 10.8762 23.7076 10.9262 23.7881 10.9584C24.0333 11.0565 25.2142 11.6594 25.2696 11.7147C25.3335 11.7785 25.5685 11.9262 25.6062 11.9262C25.6304 11.9262 25.6502 11.9413 25.6502 11.9598C25.6502 11.9782 25.8162 12.1162 26.0192 12.2664C26.3459 12.5081 27.1736 13.291 27.4705 13.6392C27.6614 13.8632 28.0778 14.4339 28.2726 14.7386C28.5502 15.173 28.5445 15.1627 28.8006 15.69C28.9305 15.9575 29.0549 16.2094 29.077 16.2498C29.0991 16.2901 29.1172 16.3444 29.1172 16.3702C29.1172 16.3961 29.1434 16.4773 29.1754 16.5506C29.3793 17.0168 29.5714 17.79 29.711 18.707C29.8588 19.678 29.8142 20.9926 29.6002 21.9701C29.4673 22.5772 29.2521 23.3377 29.1938 23.4058C29.1749 23.4279 29.1588 23.4755 29.158 23.5116C29.1572 23.5476 29.1198 23.6532 29.0749 23.7463C29.03 23.8393 28.9926 23.9392 28.9918 23.9683C28.991 23.9974 28.9713 24.0211 28.9481 24.0211C28.9248 24.0211 28.9058 24.042 28.9058 24.0676C28.9058 24.1218 28.5985 24.7452 28.4805 24.9304C28.436 25.0002 28.3804 25.0953 28.3568 25.1418C28.286 25.2817 28.2246 25.3703 27.8294 25.9014C27.3652 26.5255 26.6598 27.243 26.0402 27.7215C26.0101 27.7448 25.9599 27.7866 25.9288 27.8144C25.8203 27.9112 24.8669 28.5291 24.6988 28.6114C24.6058 28.6569 24.52 28.707 24.5081 28.7226C24.4963 28.7382 24.4345 28.764 24.3707 28.78C24.307 28.796 24.2549 28.8261 24.2549 28.8468C24.2549 28.8675 24.234 28.8845 24.2084 28.8845C24.1829 28.8845 24.102 28.9117 24.0287 28.9449C23.6542 29.1146 23.4948 29.1805 23.4587 29.1805C23.4368 29.1805 23.3644 29.209 23.2978 29.2437C23.2312 29.2784 23.1445 29.307 23.1052 29.3072C23.0659 29.3073 23.023 29.3248 23.0099 29.346C22.9967 29.3673 22.9052 29.398 22.8066 29.4142C22.7078 29.4305 22.608 29.4583 22.5848 29.476C22.5615 29.4937 22.4497 29.5217 22.3362 29.5381C22.2227 29.5545 22.0895 29.585 22.0402 29.6058C21.8665 29.679 20.5445 29.8149 20.0057 29.8149C19.4701 29.8149 18.1628 29.6802 17.955 29.6036C17.8969 29.5821 17.7732 29.5522 17.6802 29.537C17.4387 29.4976 16.869 29.3234 16.5809 29.2008C16.5111 29.1712 16.3542 29.1119 16.2321 29.0692C16.11 29.0265 16.0101 28.977 16.0101 28.9592C16.0101 28.9413 15.9881 28.9268 15.9611 28.9268C15.8966 28.9268 15.2743 28.6188 15.2561 28.5779C15.2483 28.5604 15.2195 28.5462 15.1921 28.5462C15.1647 28.5462 15.0434 28.4796 14.9225 28.3982C14.8016 28.3168 14.6846 28.2502 14.6623 28.2502C14.6401 28.2502 14.6156 28.2359 14.6078 28.2184C14.6 28.201 14.5176 28.1351 14.4246 28.072C13.7937 27.6441 12.7669 26.6822 12.3349 26.1145C12.211 25.9517 12.093 25.8121 12.0727 25.8044C12.0523 25.7966 12.0357 25.7708 12.0357 25.747C12.0357 25.7232 11.982 25.6344 11.9163 25.5497C11.5936 25.1333 11.0096 24.0017 10.7893 23.3657C10.749 23.2494 10.6999 23.1161 10.6803 23.0696C10.5933 22.864 10.3685 21.8603 10.2821 21.2916C10.1956 20.7219 10.1953 19.2888 10.2815 18.7156C10.3711 18.1202 10.6184 17.0302 10.6849 16.9376C10.7016 16.9143 10.7294 16.8293 10.7466 16.7486C10.7639 16.668 10.7937 16.5728 10.8129 16.5372C10.8321 16.5015 10.8758 16.4058 10.9101 16.3244C11.1408 15.7774 11.2473 15.5507 11.4166 15.246C11.6014 14.9133 11.6768 14.7827 11.7086 14.7397C11.7264 14.7158 11.896 14.4868 12.0855 14.231C12.5202 13.644 12.5475 13.6128 13.1376 13.0257C13.6634 12.5026 13.8826 12.3068 13.9427 12.3068C13.9635 12.3068 13.9807 12.2925 13.9807 12.2751C13.9808 12.2576 14.0664 12.1893 14.171 12.1232C14.2756 12.0571 14.3612 11.9857 14.3612 11.9646C14.3612 11.9435 14.3809 11.9262 14.4051 11.9262C14.4428 11.9262 14.6778 11.7785 14.7417 11.7147C14.7534 11.7031 14.8295 11.658 14.9109 11.6144C14.9922 11.5709 15.2015 11.4561 15.3759 11.3593C15.5503 11.2625 15.8642 11.1111 16.0735 11.023C16.2828 10.9348 16.5111 10.8387 16.5809 10.8093C16.6507 10.7799 16.8219 10.7216 16.9614 10.6796C17.101 10.6377 17.2532 10.5881 17.2997 10.5694C17.3887 10.5337 17.6259 10.4777 18.0819 10.3845C18.233 10.3537 18.4138 10.3158 18.4835 10.3004C18.9316 10.2015 20.6375 10.1861 21.2741 10.2752ZM19.8287 11.1206C19.7545 11.1658 19.6737 11.2405 19.649 11.2868C19.6182 11.3444 19.604 12.5385 19.604 15.0755C19.604 18.627 19.6009 18.7785 19.5281 18.7395C19.4863 18.7171 18.7088 17.9552 17.8003 17.0464L16.1486 15.394L15.9208 15.3954C15.7666 15.3963 15.6641 15.4209 15.6037 15.4714C15.4819 15.5733 15.3988 15.8186 15.436 15.9666C15.4564 16.0482 16.0081 16.6291 17.1545 17.7761C18.0831 18.7052 18.8429 19.4717 18.8429 19.4795C18.8429 19.4873 17.6256 19.499 16.1378 19.5055L13.4325 19.5173L13.2944 19.6555C13.1745 19.7755 13.1562 19.8223 13.1562 20.0093C13.1562 20.2073 13.1696 20.2363 13.3218 20.3679L13.4873 20.5111L16.1757 20.5113L18.8641 20.5115L17.7286 21.6383C17.104 22.2581 16.5571 22.8241 16.5132 22.8962C16.4102 23.0652 16.4117 23.2458 16.5177 23.4196C16.6186 23.5851 16.7781 23.6551 16.9911 23.6273C17.1301 23.6091 17.284 23.4709 18.3652 22.3929L19.5828 21.1789L19.604 24.9508L19.6251 28.7227L19.7438 28.8248C19.8345 28.9028 19.9115 28.9268 20.0711 28.9268C20.2511 28.9268 20.2959 28.9088 20.3964 28.7959L20.513 28.665L20.5342 24.9189L20.5553 21.1728L22.2465 22.8728C24.0995 24.7355 24.0949 24.7317 24.4041 24.5857C24.4952 24.5427 24.5937 24.4599 24.6231 24.4018C24.6883 24.2725 24.6933 24.0447 24.6332 23.9324C24.6087 23.8867 23.8477 23.1029 22.9421 22.1907C22.0365 21.2786 21.2955 20.5274 21.2954 20.5216C21.2953 20.5159 22.4856 20.5111 23.9406 20.5111C25.8171 20.5111 26.6127 20.4972 26.6783 20.4635C26.9004 20.3491 26.9609 20.2527 26.9609 20.0132C26.9609 19.8135 26.9447 19.7686 26.8355 19.6667C26.7666 19.6023 26.6501 19.5376 26.5766 19.5228C26.503 19.5081 25.2847 19.4961 23.8691 19.4961C22.4535 19.4961 21.2952 19.4884 21.2952 19.4789C21.2952 19.4695 21.8157 18.9413 22.4518 18.3053C23.6794 17.0781 23.7576 16.9756 23.6614 16.7216C23.5559 16.4433 23.3203 16.3197 23.0593 16.4058C22.9657 16.4367 22.5354 16.8337 21.7379 17.625L20.5553 18.7983L20.5342 15.0768C20.5109 10.9733 20.5288 11.2193 20.2436 11.0985C20.0556 11.0188 19.9897 11.0224 19.8287 11.1206ZM11.3592 13.514C11.3592 13.5267 11.2292 13.7313 11.0703 13.9686C10.625 14.6336 10.366 15.1083 10.0965 15.7534C9.7339 16.6216 9.56993 17.1576 9.39138 18.0582C9.35223 18.256 9.31671 18.4345 9.31257 18.4549C9.30563 18.4888 9.09731 18.0757 7.85717 15.5689C7.47064 14.7875 7.45572 14.7473 7.5322 14.6914C7.5763 14.6591 7.63702 14.6327 7.66708 14.6327C7.69718 14.6327 7.88855 14.5784 8.09238 14.5118C8.29622 14.4454 8.60567 14.3481 8.78008 14.2958C8.95449 14.2434 9.12814 14.1849 9.16598 14.1658C9.20382 14.1467 9.30847 14.1177 9.39852 14.1015C9.48858 14.0853 9.5813 14.0576 9.60456 14.0401C9.62781 14.0225 9.7128 13.994 9.79343 13.9767C9.87406 13.9595 9.96919 13.9308 10.0048 13.9131C10.0405 13.8953 10.2123 13.839 10.3868 13.7878C10.5612 13.7367 10.7419 13.679 10.7884 13.6596C11.051 13.55 11.3592 13.4714 11.3592 13.514ZM29.0172 13.6407C29.2001 13.6997 29.3789 13.7639 29.4145 13.7833C29.4502 13.8026 29.5453 13.8326 29.626 13.8499C29.7066 13.8672 29.7916 13.8959 29.8148 13.9138C29.8381 13.9317 29.9237 13.9602 30.0051 13.9773C30.0865 13.9943 30.1721 14.0228 30.1953 14.0407C30.2186 14.0586 30.3042 14.0871 30.3856 14.1041C30.467 14.1211 30.5526 14.1497 30.5759 14.1676C30.5991 14.1854 30.6847 14.214 30.7661 14.231C30.8475 14.248 30.9331 14.2765 30.9564 14.2944C30.9797 14.3123 31.0653 14.3409 31.1467 14.3579C31.2281 14.3749 31.3137 14.4019 31.3369 14.4179C31.3602 14.4339 31.6075 14.52 31.8866 14.6093C32.1656 14.6985 32.444 14.7915 32.5052 14.8159L32.6164 14.8604L32.277 15.5183C32.0904 15.8803 31.7862 16.4713 31.6012 16.8318C31.4161 17.1924 31.1718 17.6586 31.0583 17.8679C30.9448 18.0773 30.8192 18.3139 30.7793 18.3939L30.7067 18.5392L30.6286 18.1402C30.5122 17.5459 30.3376 16.88 30.2325 16.6295C30.2004 16.5531 30.1742 16.4634 30.1742 16.4301C30.1742 16.3624 30.1088 16.2015 29.7959 15.4997C29.7233 15.3369 29.6251 15.1371 29.5778 15.0556C29.5305 14.9742 29.4616 14.8363 29.4249 14.749C29.3881 14.6618 29.344 14.5905 29.3268 14.5905C29.3096 14.5905 29.2835 14.5429 29.2689 14.4847C29.2543 14.4266 29.2237 14.379 29.2009 14.379C29.1781 14.379 29.1595 14.3609 29.1595 14.3388C29.1595 14.2934 28.9503 13.9699 28.7713 13.7386C28.6601 13.5948 28.6292 13.5332 28.6684 13.5332C28.6774 13.5332 28.8344 13.5815 29.0172 13.6407ZM7.05329 16.1129C7.2304 16.4734 7.67422 17.3774 8.03957 18.1217C8.40488 18.866 8.76317 19.5944 8.83576 19.7405L8.96777 20.006L8.84748 20.2268C8.7192 20.4623 8.28886 21.2882 7.95015 21.9489C7.83688 22.1699 7.73469 22.3602 7.72302 22.3718C7.71139 22.3835 7.65786 22.4881 7.60412 22.6044C7.55038 22.7207 7.49009 22.8444 7.47009 22.8793C7.45009 22.9142 7.34029 23.1235 7.22601 23.3445C7.11176 23.5655 6.94543 23.8795 6.85643 24.0423C6.76743 24.2051 6.66777 24.3906 6.63496 24.4546C6.60215 24.5186 6.56042 24.5709 6.54224 24.5709C6.52406 24.5709 6.40783 24.4615 6.28394 24.3278C6.16006 24.194 5.82909 23.8465 5.54847 23.5555C5.26785 23.2645 4.8973 22.8744 4.72505 22.6885C4.38147 22.3179 3.67209 21.5791 2.76859 20.6508C2.44721 20.3207 2.18426 20.0333 2.18426 20.0122C2.18426 19.9713 2.45393 19.6659 2.90304 19.1983C3.71559 18.3522 4.39395 17.6351 4.53766 17.4705C4.62691 17.3682 4.82365 17.1575 4.9748 17.0022C5.12596 16.8469 5.44196 16.512 5.677 16.2578C5.91204 16.0037 6.21422 15.6774 6.34851 15.5328L6.59264 15.2699L6.66194 15.3636C6.70007 15.4152 6.87617 15.7524 7.05329 16.1129ZM33.8251 15.791C34.0147 15.9861 34.3981 16.3888 34.6771 16.6861C34.9562 16.9832 35.3319 17.3772 35.5122 17.5614C35.6924 17.7457 35.8398 17.9022 35.8398 17.9092C35.8398 17.9162 36.1015 18.1879 36.4212 18.5128C37.1098 19.2126 37.7434 19.8889 37.7924 19.9765C37.8277 20.0395 37.7852 20.0869 36.3073 21.6365C35.5813 22.3976 34.894 23.135 34.7564 23.3003C34.6896 23.3806 34.4636 23.6224 34.2543 23.8375C34.045 24.0527 33.7734 24.3342 33.6507 24.4632C33.528 24.5922 33.4115 24.6978 33.3917 24.6978C33.372 24.6978 33.2756 24.5313 33.1775 24.3278C33.0795 24.1243 32.9786 23.9197 32.9532 23.8731C32.9279 23.8266 32.7515 23.4745 32.5611 23.0908C31.511 20.9733 31.0621 20.0525 31.0621 20.0156C31.0621 19.9548 31.9864 18.1436 32.0394 18.1005C32.0538 18.0889 32.0801 18.0318 32.098 17.9737C32.1159 17.9155 32.1422 17.8584 32.1565 17.8468C32.1708 17.8352 32.2695 17.6544 32.3758 17.445C32.4821 17.2357 32.7088 16.798 32.8797 16.4724C33.0505 16.1467 33.2395 15.7812 33.2995 15.6601C33.3596 15.5391 33.4248 15.4392 33.4446 15.4381C33.4643 15.4371 33.6356 15.5959 33.8251 15.791ZM2.36886 21.6273C2.53477 21.7993 2.81125 22.0895 2.98325 22.2722C3.31181 22.6212 3.90332 23.2396 5.02025 24.4018C5.38907 24.7855 5.80275 25.2187 5.93948 25.3644L6.18809 25.6291L6.21545 26.1044C6.2305 26.3658 6.24327 26.8937 6.24382 27.2775C6.24433 27.6613 6.27253 28.6033 6.30648 29.3708C6.38563 31.1599 6.38838 31.7652 6.31722 31.7355C6.28817 31.7233 6.18826 31.6102 6.09525 31.4842C6.00223 31.3581 5.91183 31.2544 5.89441 31.2539C5.87699 31.2533 5.8627 31.2242 5.8627 31.1893C5.8627 31.1544 5.84761 31.1259 5.82913 31.1259C5.75776 31.1259 4.73427 29.6536 4.48291 29.1893C4.41627 29.0663 4.30156 28.8569 4.22799 28.7241C4.09371 28.4818 3.69564 27.6922 3.64786 27.5735C3.63382 27.5386 3.60528 27.4815 3.58444 27.4466C3.56359 27.4118 3.51848 27.3166 3.48419 27.2352C3.34762 26.9112 3.27355 26.7435 3.21647 26.6291C3.18361 26.5633 3.15672 26.4767 3.15672 26.4367C3.15672 26.3968 3.13622 26.3435 3.11115 26.3184C3.08612 26.2934 3.0495 26.2087 3.02984 26.1302C3.01018 26.0518 2.94494 25.8449 2.88486 25.6705C2.60927 24.8705 2.30544 23.6641 2.24591 23.1331C2.23153 23.0051 2.20354 22.8339 2.18363 22.7524C2.16376 22.671 2.12672 22.4046 2.10135 22.1604C2.07598 21.9162 2.04372 21.626 2.02969 21.5155C2.01565 21.405 2.01831 21.3146 2.03569 21.3146C2.05302 21.3146 2.20295 21.4553 2.36886 21.6273ZM37.9815 21.452C37.9682 21.5276 37.9373 21.7988 37.9128 22.0547C37.8883 22.3105 37.8502 22.596 37.8281 22.689C37.8059 22.782 37.776 22.9628 37.7615 23.0908C37.7321 23.3495 37.6455 23.789 37.551 24.1586C37.3298 25.0236 37.3165 25.0694 37.09 25.755C36.9249 26.2548 36.8346 26.4985 36.6667 26.8969C36.5341 27.2116 36.1115 28.1131 36.0522 28.2079C36.0304 28.2428 35.9644 28.3665 35.9056 28.4828C35.8468 28.5991 35.7322 28.8084 35.651 28.9479C35.5698 29.0875 35.4794 29.2493 35.4501 29.3074C35.4208 29.3656 35.3729 29.4383 35.3436 29.469C35.3142 29.4997 35.2902 29.5439 35.2902 29.5672C35.2902 29.5905 35.2664 29.636 35.2373 29.6684C35.1237 29.7952 35.0788 29.8546 35.0788 29.8782C35.0788 29.914 34.8943 30.1718 34.8568 30.1884C34.8394 30.1962 34.8251 30.2265 34.8251 30.2559C34.8251 30.2852 34.7871 30.3437 34.7405 30.3858C34.694 30.4279 34.656 30.4859 34.656 30.5147C34.656 30.5435 34.6274 30.578 34.5926 30.5914C34.5577 30.6048 34.5291 30.6449 34.5291 30.6805C34.5291 30.7161 34.5146 30.7453 34.4968 30.7453C34.4791 30.7453 34.4175 30.8214 34.36 30.9144C34.3025 31.0075 34.2442 31.0836 34.2303 31.0836C34.2166 31.0836 34.1462 31.1645 34.0741 31.2633C34.0019 31.3622 33.8754 31.5192 33.7929 31.6122L33.6428 31.7814L33.643 30.6395C33.6431 30.0115 33.67 28.6568 33.7028 27.6289L33.7625 25.7601L34.0295 25.489C34.1764 25.3398 34.379 25.1246 34.4796 25.0107C34.5803 24.8967 34.8181 24.6399 35.0081 24.4399C35.8141 23.5914 36.4379 22.9315 36.5832 22.7736C36.6688 22.6806 36.8838 22.4508 37.061 22.2631C37.2381 22.0754 37.5068 21.7862 37.6579 21.6204C37.8091 21.4547 37.9492 21.3181 37.9692 21.3168C37.9893 21.3156 37.9949 21.3764 37.9815 21.452ZM9.52482 22.5621C9.64168 23.0158 9.71939 23.2784 9.77884 23.42C9.81089 23.4963 9.8371 23.5852 9.8371 23.6174C9.8371 23.6496 9.86332 23.7299 9.89537 23.7957C9.92737 23.8615 9.98162 23.982 10.0159 24.0634C10.1329 24.3417 10.3628 24.8458 10.392 24.8881C10.4079 24.9114 10.4955 25.0744 10.5864 25.2505C10.7274 25.5236 11.1201 26.1538 11.1907 26.2202C11.2031 26.2319 11.2477 26.2956 11.2899 26.3619L11.3666 26.4823L11.2269 26.4516C11.1501 26.4347 11.058 26.405 11.0224 26.3856C10.9867 26.3662 10.3202 26.14 9.54114 25.883C8.76211 25.6259 8.09555 25.3993 8.05991 25.3793C8.02427 25.3593 7.9326 25.3292 7.85624 25.3124C7.77984 25.2956 7.66632 25.2553 7.60395 25.2227C7.54155 25.1901 7.46675 25.1634 7.43766 25.1632C7.40862 25.1631 7.38481 25.1565 7.38481 25.1486C7.38481 25.1407 7.47728 24.9552 7.59025 24.7363C7.70327 24.5174 7.88876 24.1575 8.00249 23.9366C8.11623 23.7156 8.22358 23.5285 8.241 23.5207C8.25842 23.5129 8.27284 23.4844 8.27296 23.4573C8.27313 23.4301 8.29854 23.3604 8.32945 23.3022C8.7364 22.5368 8.8643 22.294 9.03119 21.97C9.13905 21.7606 9.24399 21.5621 9.26445 21.529C9.28961 21.4884 9.32732 21.6051 9.3806 21.8886C9.42398 22.1195 9.48888 22.4226 9.52482 22.5621ZM31.6335 23.4068C32.1367 24.418 32.5363 25.2648 32.5215 25.2887C32.5068 25.3126 32.467 25.3321 32.4331 25.3321C32.3993 25.3321 32.3386 25.3498 32.2982 25.3713C32.2315 25.4069 31.5247 25.6316 30.9987 25.7843C30.8824 25.8181 30.7581 25.861 30.7225 25.8796C30.6868 25.8982 30.5917 25.9265 30.5111 25.9424C30.4304 25.9584 30.3264 25.9876 30.2799 26.0074C30.2334 26.0271 29.967 26.1132 29.688 26.1986C29.4089 26.284 29.1426 26.3696 29.096 26.3889C28.9176 26.4628 28.6098 26.5457 28.6098 26.5199C28.6098 26.4938 28.9823 25.9566 29.073 25.852C29.0973 25.8239 29.1172 25.7914 29.1172 25.7799C29.1172 25.7683 29.1619 25.6929 29.2166 25.6123C29.3163 25.4653 29.8118 24.486 29.9467 24.1692C30.1033 23.8016 30.2438 23.4007 30.3618 22.985C30.5277 22.4009 30.5547 22.296 30.5547 22.2359C30.5547 22.1529 30.6861 21.5683 30.7047 21.5683C30.7124 21.5683 31.1304 22.3956 31.6335 23.4068ZM8.10359 26.4265C8.39427 26.5228 8.67015 26.6182 8.71666 26.6384C8.76317 26.6587 9.20078 26.8047 9.68912 26.9628C10.1775 27.1209 10.6341 27.274 10.7039 27.3029C10.7736 27.3319 10.9734 27.3965 11.1478 27.4466C11.3222 27.4968 11.4941 27.5529 11.5297 27.5714C11.5654 27.5899 11.6605 27.6192 11.7411 27.6364C11.8218 27.6537 11.9068 27.6821 11.93 27.6995C11.9533 27.7168 12.0205 27.7425 12.0796 27.7565C12.1911 27.7831 12.2038 27.8089 12.3526 28.3136C12.3938 28.4532 12.4509 28.6339 12.4797 28.7153C12.5084 28.7968 12.563 28.968 12.6012 29.096C12.6696 29.3256 12.9445 30.1952 13.1828 30.9356C13.2501 31.1449 13.3359 31.4209 13.3733 31.5488C13.4107 31.6767 13.4675 31.8439 13.4996 31.9203C13.5316 31.9966 13.5578 32.0838 13.5578 32.114C13.5578 32.1442 13.598 32.2969 13.6471 32.4533C13.6962 32.6097 13.7287 32.7453 13.7194 32.7546C13.7101 32.7639 12.885 32.7524 11.886 32.729C10.887 32.7056 9.46939 32.6755 8.73577 32.6622L7.40185 32.6378L7.34959 31.2792C7.32084 30.532 7.27953 29.1499 7.25784 28.2079C7.23615 27.2659 7.2085 26.4267 7.19645 26.343C7.16127 26.0994 7.09827 26.0936 8.10359 26.4265ZM32.7533 26.696C32.7534 26.9111 32.7245 28.0387 32.6892 29.2017C32.6538 30.3647 32.6205 31.6112 32.6151 31.9717L32.6054 32.6272L31.802 32.6521C30.3574 32.697 27.76 32.7716 26.9462 32.7915L26.1493 32.8111L26.1783 32.6557C26.1943 32.5702 26.2225 32.4813 26.241 32.458C26.2595 32.4348 26.2887 32.3498 26.306 32.2691C26.3233 32.1885 26.3519 32.0933 26.3696 32.0577C26.3873 32.022 26.5647 31.498 26.7638 30.8933C27.1718 29.6539 27.1993 29.5721 27.3814 29.0537C27.41 28.9723 27.4491 28.8486 27.4682 28.7788C27.5107 28.6242 27.5897 28.4013 27.6655 28.2226C27.6965 28.1493 27.7219 28.0693 27.7219 28.0449C27.7219 27.9205 27.8283 27.7869 27.9483 27.7605C28.02 27.7448 28.1077 27.7174 28.1433 27.6997C28.179 27.6819 28.3508 27.6257 28.5253 27.5748C28.6997 27.5239 28.9185 27.4577 29.0115 27.4277C29.1045 27.3978 29.2948 27.3396 29.4343 27.2986C29.5738 27.2576 29.7546 27.2005 29.836 27.1718C29.9174 27.143 30.0886 27.0884 30.2165 27.0503C30.3444 27.0122 30.6282 26.9243 30.8471 26.855C31.0661 26.7857 31.3089 26.717 31.3867 26.7024C31.4645 26.6878 31.5375 26.6606 31.549 26.642C31.5605 26.6234 31.6507 26.5949 31.7494 26.5786C31.8481 26.5623 31.9479 26.5343 31.9711 26.5163C31.9944 26.4984 32.08 26.4698 32.1614 26.4528C32.2428 26.4358 32.3284 26.4071 32.3517 26.3891C32.403 26.3492 32.5298 26.3164 32.6582 26.3097C32.7504 26.305 32.7533 26.3171 32.7533 26.696ZM14.192 29.096C14.2349 29.1388 14.3856 29.2273 14.4986 29.2759C14.5625 29.3034 14.6148 29.3408 14.6148 29.359C14.6148 29.3771 14.6365 29.392 14.663 29.392C14.6895 29.392 14.7989 29.4454 14.9061 29.5108C15.0133 29.5761 15.3389 29.7306 15.6296 29.854C15.9203 29.9775 16.1961 30.0953 16.2427 30.1159C16.592 30.2706 17.4212 30.4909 18.027 30.5898C18.1944 30.6172 18.3506 30.6587 18.374 30.6822C18.4027 30.7109 18.1218 30.8737 17.5167 31.1791C17.0218 31.429 16.5945 31.6334 16.5672 31.6334C16.5398 31.6334 16.5175 31.6509 16.5175 31.6723C16.5175 31.6937 16.4604 31.7238 16.3906 31.7391C16.3209 31.7544 16.2638 31.7829 16.2638 31.8025C16.2638 31.8221 16.2067 31.8507 16.137 31.866C16.0672 31.8813 16.0101 31.9098 16.0101 31.9294C16.0101 31.949 15.953 31.9775 15.8833 31.9928C15.8135 32.0081 15.7564 32.0367 15.7564 32.0563C15.7564 32.0758 15.6993 32.1044 15.6296 32.1197C15.5598 32.135 15.5027 32.1636 15.5027 32.1831C15.5027 32.2027 15.4457 32.2313 15.3759 32.2466C15.3061 32.2619 15.2491 32.2904 15.2491 32.31C15.2491 32.3296 15.192 32.3581 15.1222 32.3734C15.0525 32.3888 14.9954 32.4156 14.9954 32.4332C14.9954 32.4507 14.9302 32.485 14.8505 32.5094C14.6865 32.5598 14.6944 32.5712 14.5513 32.0774C14.5108 31.9379 14.4515 31.7612 14.4194 31.6848C14.3874 31.6084 14.3612 31.5183 14.3612 31.4845C14.3612 31.4508 14.3068 31.2564 14.2403 31.0525C14.1738 30.8486 14.0763 30.5391 14.0236 30.3647C13.9709 30.1902 13.9126 30.0094 13.8941 29.9629C13.8321 29.8066 13.5623 28.9071 13.5343 28.7628L13.5064 28.6199L13.8387 28.8474C14.0214 28.9725 14.1804 29.0843 14.192 29.096ZM26.4535 28.7111C26.4535 28.7479 26.1458 29.6845 25.8478 30.555C25.7681 30.7876 25.5927 31.3165 25.4579 31.7303C25.3232 32.1441 25.1896 32.5146 25.1612 32.5535C25.1132 32.6192 25.0979 32.6183 24.9464 32.5411C24.8568 32.4954 24.7739 32.4463 24.7623 32.432C24.7506 32.4177 24.6935 32.3913 24.6354 32.3734C24.5773 32.3556 24.5202 32.3289 24.5086 32.3143C24.4969 32.2997 24.3828 32.2358 24.2549 32.1724C24.127 32.1089 23.8511 31.9651 23.6418 31.8529C23.2116 31.6222 22.3236 31.1517 21.8358 30.8962C21.6565 30.8022 21.5249 30.71 21.5436 30.6914C21.5622 30.6728 21.7375 30.6309 21.9331 30.5984C22.6439 30.4803 23.0641 30.3675 23.8295 30.0894C24.2348 29.9422 25.3629 29.3999 25.3894 29.3394C25.3972 29.3218 25.4237 29.3074 25.4483 29.3074C25.4977 29.3074 26.3183 28.7631 26.3526 28.7077C26.3813 28.6611 26.4535 28.6636 26.4535 28.7111ZM20.2579 31.1645C20.3019 31.1985 21.1834 31.6666 21.6546 31.9061C21.7941 31.9771 21.9178 32.0468 21.9294 32.0611C21.9411 32.0755 21.9981 32.1018 22.0563 32.1197C22.1144 32.1376 22.1715 32.1639 22.1831 32.1783C22.1947 32.1926 22.3279 32.2676 22.4791 32.3451C22.6302 32.4225 23.0583 32.6414 23.4304 32.8314C23.8025 33.0215 24.1164 33.1885 24.128 33.2026C24.1397 33.2168 24.2495 33.2761 24.3722 33.3344L24.5952 33.4405L24.3359 33.6893C24.1933 33.8262 23.8724 34.138 23.6227 34.3822C22.978 35.0129 21.6044 36.3256 21.384 36.5215C21.2817 36.6126 20.9403 36.9392 20.6252 37.2474C20.3102 37.5556 20.0254 37.8077 19.9924 37.8077C19.9594 37.8077 19.7854 37.6603 19.6058 37.48C19.4262 37.2997 19.1198 37.0095 18.9248 36.835C18.7298 36.6606 18.4498 36.399 18.3026 36.2536C18.1554 36.1082 18.0255 35.9892 18.0141 35.9892C18.0026 35.9892 17.9514 35.9457 17.9002 35.8926C17.7948 35.7832 16.1638 34.231 15.9044 33.9933C15.49 33.6135 15.2913 33.422 15.2913 33.4021C15.2913 33.3722 17.5925 32.2254 17.6525 32.2254C17.6794 32.2254 17.7013 32.2079 17.7013 32.1865C17.7013 32.1651 17.7584 32.135 17.8282 32.1197C17.898 32.1044 17.955 32.0758 17.955 32.0563C17.955 32.0367 18.0121 32.0081 18.0819 31.9928C18.1516 31.9775 18.2087 31.949 18.2087 31.9294C18.2087 31.9098 18.2658 31.8813 18.3356 31.866C18.4053 31.8507 18.4624 31.8221 18.4624 31.8025C18.4624 31.7829 18.5195 31.7544 18.5892 31.7391C18.659 31.7238 18.7161 31.6952 18.7161 31.6757C18.7161 31.6561 18.7732 31.6275 18.8429 31.6122C18.9127 31.5969 18.9698 31.5684 18.9698 31.5488C18.9698 31.5292 19.0269 31.5007 19.0966 31.4854C19.1664 31.47 19.2235 31.4415 19.2235 31.4219C19.2235 31.4023 19.2805 31.3738 19.3503 31.3585C19.4201 31.3432 19.4771 31.3146 19.4771 31.295C19.4771 31.2755 19.5342 31.2469 19.604 31.2316C19.6737 31.2163 19.7308 31.189 19.7308 31.1709C19.7308 31.1529 19.7926 31.1195 19.8682 31.0968C19.9993 31.0574 20.1541 31.0843 20.2579 31.1645ZM11.8454 33.6853C12.8686 33.6979 13.8251 33.7187 13.9709 33.7315C14.2358 33.7548 14.2364 33.7551 14.5905 34.1002C14.7855 34.2902 15.0439 34.5349 15.1647 34.644C15.2855 34.753 15.5408 34.9909 15.7321 35.1726C15.9233 35.3543 16.3334 35.7408 16.6434 36.0315C16.9534 36.3223 17.3991 36.7433 17.6339 36.9672C17.8687 37.1911 18.1178 37.4255 18.1876 37.4881C18.4831 37.7535 18.676 37.9464 18.661 37.9615C18.6409 37.9817 17.5841 37.8985 17.4688 37.8677C17.4223 37.8553 17.2225 37.8185 17.0249 37.7859C16.8272 37.7534 16.5323 37.6985 16.3695 37.6639C16.2067 37.6293 15.9784 37.5814 15.8621 37.5575C15.7459 37.5337 15.5841 37.4954 15.5027 37.4724C15.4214 37.4494 15.2121 37.3905 15.0377 37.3413C14.8632 37.2922 14.6825 37.2371 14.636 37.2188C14.5895 37.2005 14.4087 37.1408 14.2343 37.086C14.0599 37.0312 13.8991 36.9714 13.877 36.953C13.8549 36.9346 13.8111 36.9196 13.7796 36.9196C13.7481 36.9196 13.6425 36.8837 13.5449 36.8397C13.4474 36.7958 13.2676 36.7247 13.1456 36.6817C13.0235 36.6389 12.9236 36.5907 12.9236 36.5748C12.9236 36.5588 12.8639 36.5326 12.7911 36.5166C12.7182 36.5006 12.5707 36.4443 12.4634 36.3916C11.7326 36.0321 11.5349 35.9324 11.4226 35.8668C11.3529 35.826 11.1911 35.7353 11.0632 35.6654C10.72 35.4777 10.6278 35.423 10.5755 35.376C10.5497 35.3528 10.4586 35.2961 10.3731 35.2501C10.2876 35.2041 10.2176 35.1518 10.2176 35.1338C10.2176 35.1159 10.1978 35.1012 10.1737 35.1012C10.1236 35.1012 9.86556 34.9273 9.84416 34.8791C9.83638 34.8617 9.81186 34.8474 9.78958 34.8474C9.7465 34.8474 9.53513 34.7052 9.39827 34.584C9.35286 34.5438 9.23798 34.4581 9.14302 34.3937C9.04806 34.3292 8.93851 34.248 8.89957 34.2131C8.86063 34.1782 8.71518 34.064 8.57637 33.9593C8.09911 33.5994 8.09086 33.6045 9.10349 33.6354C9.58836 33.6502 10.8222 33.6727 11.8454 33.6853ZM31.7386 33.6541C31.7386 33.6723 31.6033 33.8007 31.4378 33.9395C31.2724 34.0783 31.112 34.2157 31.0814 34.2448C31.0509 34.2739 31.0134 34.2976 30.9983 34.2976C30.9636 34.2976 30.5809 34.6036 30.5618 34.6465C30.554 34.664 30.5295 34.6783 30.5072 34.6783C30.4722 34.6783 30.2351 34.8288 30.1742 34.8897C30.1133 34.9506 29.8762 35.1012 29.8412 35.1012C29.8189 35.1012 29.7944 35.1165 29.7866 35.1353C29.7789 35.1541 29.6013 35.2718 29.392 35.3969C29.1827 35.5219 29.002 35.635 28.9903 35.6482C28.9717 35.6692 28.7732 35.7737 28.0602 36.1374C27.6925 36.325 27.3191 36.4918 27.204 36.5199C27.14 36.5354 27.0877 36.5611 27.0877 36.5769C27.0877 36.5926 26.9497 36.6524 26.7812 36.7097C26.6126 36.767 26.4683 36.8282 26.4606 36.8456C26.4528 36.8631 26.4147 36.8775 26.376 36.8776C26.3372 36.8778 26.2545 36.9045 26.1921 36.9371C26.1297 36.9696 26.0155 37.0098 25.9384 37.0262C25.8613 37.0428 25.7791 37.0709 25.7559 37.0888C25.7326 37.1067 25.6476 37.1354 25.567 37.1527C25.4864 37.17 25.3912 37.1994 25.3556 37.218C25.2701 37.2626 24.9063 37.3693 24.72 37.4042C24.6386 37.4195 24.5339 37.4493 24.4874 37.4704C24.4409 37.4915 24.2982 37.5294 24.1703 37.5547C24.0424 37.5799 23.8046 37.6293 23.6418 37.6643C23.2344 37.7519 22.6616 37.8424 22.1831 37.8945C21.9622 37.9186 21.6721 37.9532 21.5383 37.9715C21.4046 37.9897 21.2952 37.9958 21.2952 37.9849C21.2952 37.9584 22.9306 36.3792 23.89 35.4794C24.0499 35.3295 24.3857 35.0071 24.6363 34.7628C24.887 34.5186 25.2153 34.2027 25.366 34.0608L25.6399 33.8028L26.6703 33.7726C27.2371 33.7559 28.5284 33.7181 29.54 33.6884C30.5516 33.6587 31.4601 33.6314 31.5589 33.6277C31.6577 33.624 31.7386 33.6359 31.7386 33.6541Z" fill="url(#paint0_linear_1896_2)" stroke="url(#paint1_linear_1896_2)" stroke-width="0.191429"/>
<defs>
<linearGradient id="paint0_linear_1896_2" x1="2.1875" y1="0.999998" x2="40.3773" y2="2.4386" gradientUnits="userSpaceOnUse">
<stop stop-color="#5173EC"/>
<stop offset="0.24279" stop-color="#455FE1"/>
<stop offset="1" stop-color="#1211A9"/>
</linearGradient>
<linearGradient id="paint1_linear_1896_2" x1="2.1875" y1="0.999998" x2="40.3773" y2="2.4386" gradientUnits="userSpaceOnUse">
<stop stop-color="#5173EC"/>
<stop offset="0.24279" stop-color="#455FE1"/>
<stop offset="1" stop-color="#1211A9"/>
</linearGradient>
</defs>
</svg>
