<svg width="60" height="16" viewBox="0 0 60 16" fill="none" xmlns="http://www.w3.org/2000/svg">
<path d="M3.79678 1.23903C3.79678 1.32055 3.61893 1.38725 3.40254 1.38725C2.96531 1.38725 1.93078 2.26912 1.93078 2.64261C1.93078 2.76711 1.86112 2.86938 1.77516 2.86938C1.68919 2.86938 1.61953 3.00277 1.61953 3.16581C1.61953 3.32884 1.55135 3.46223 1.46687 3.46223C1.38239 3.46223 1.31125 3.59563 1.31125 3.75866C1.31125 3.92169 1.24159 4.05509 1.15562 4.05509C1.05929 4.05509 1 4.89546 1 6.27829C1 7.66112 1.05929 8.50149 1.15562 8.50149C1.24159 8.50149 1.31125 8.67045 1.31125 8.87646C1.31125 9.37743 2.25685 10.28 2.78152 10.28C2.99792 10.28 3.17577 10.3467 3.17577 10.4283C3.17577 10.5172 3.77603 10.5765 4.6668 10.5765C6.12373 10.5765 6.1682 10.5868 6.59357 11.0211C6.83368 11.2657 7.14048 11.4658 7.27683 11.4658C7.41319 11.4658 7.52583 11.5324 7.52583 11.614C7.52583 11.8437 10.2811 11.8066 10.3626 11.5769C10.4027 11.4643 10.6768 11.6392 11.0622 12.0216C11.4876 12.444 11.8299 12.6515 12.0982 12.6515C12.319 12.6515 12.4984 12.7182 12.4984 12.7997C12.4984 12.8871 13.0675 12.9479 13.8975 12.9479C14.726 12.9479 15.2967 12.8871 15.2967 12.7997C15.2967 12.7182 15.5071 12.6515 15.7635 12.6515C16.0199 12.6515 16.2304 12.5848 16.2304 12.5032C16.2304 12.2409 16.7758 12.3447 17.007 12.6515C17.1301 12.8145 17.3553 12.9479 17.508 12.9479C17.6592 12.9479 17.7852 13.0146 17.7852 13.0961C17.7852 13.1776 17.9245 13.2443 18.0964 13.2443C18.2668 13.2443 18.4076 13.311 18.4076 13.3925C18.4076 13.4815 19.0287 13.5407 19.9609 13.5407C20.8932 13.5407 21.5142 13.4815 21.5142 13.3925C21.5142 13.311 21.6535 13.2443 21.8254 13.2443C21.9974 13.2443 22.1367 13.1776 22.1367 13.0961C22.1367 12.8219 22.9934 12.939 23.2246 13.2443C23.3476 13.4073 23.5729 13.5407 23.7255 13.5407C23.8782 13.5407 24.0012 13.6074 24.0012 13.689C24.0012 13.7705 24.2117 13.8372 24.4681 13.8372C24.7245 13.8372 24.935 13.9039 24.935 13.9854C24.935 14.0713 25.4522 14.1336 26.1785 14.1336C26.9047 14.1336 27.422 14.0713 27.422 13.9854C27.422 13.9039 27.7021 13.8372 28.043 13.8372C28.3854 13.8372 28.664 13.7705 28.664 13.689C28.664 13.6074 28.8033 13.5407 28.9753 13.5407C29.1457 13.5407 29.2865 13.474 29.2865 13.3925C29.2865 13.0946 29.7949 13.2562 30.2188 13.689C30.487 13.9617 30.8101 14.1336 31.0577 14.1336C31.28 14.1336 31.4623 14.2003 31.4623 14.2818C31.4623 14.3722 32.187 14.43 33.3268 14.43C34.4666 14.43 35.1913 14.3722 35.1913 14.2818C35.1913 14.2003 35.4003 14.1336 35.6567 14.1336C35.9131 14.1336 36.1236 14.0669 36.1236 13.9854C36.1236 13.9039 36.2347 13.8372 36.3726 13.8372C36.5089 13.8372 36.835 13.6208 37.0959 13.3555C37.3967 13.0516 37.5953 12.942 37.6368 13.059C37.6665 13.1613 37.9007 13.2443 38.1497 13.2443C38.3987 13.2443 38.6032 13.311 38.6032 13.3925C38.6032 13.48 39.1723 13.5407 40.0023 13.5407C40.8308 13.5407 41.4015 13.48 41.4015 13.3925C41.4015 13.311 41.6104 13.2443 41.8669 13.2443C42.1233 13.2443 42.3337 13.1776 42.3337 13.0961C42.3337 13.0146 42.4478 12.9479 42.5872 12.9479C42.7265 12.9479 42.9814 12.7982 43.1519 12.6144C43.3623 12.3876 43.4853 12.3402 43.5328 12.4662C43.5698 12.5685 43.8055 12.6515 44.0545 12.6515C44.3035 12.6515 44.508 12.7182 44.508 12.7997C44.508 12.8871 45.0786 12.9479 45.9071 12.9479C46.7357 12.9479 47.3048 12.8871 47.3048 12.7997C47.3048 12.7182 47.4871 12.6515 47.7094 12.6515C47.9569 12.6515 48.2815 12.4795 48.5483 12.2068C48.9796 11.7666 49.0018 11.7622 50.6307 11.7622C51.6252 11.7622 52.2774 11.7029 52.2774 11.614C52.2774 11.5324 52.3885 11.4658 52.5263 11.4658C52.6642 11.4658 52.971 11.2657 53.2096 11.0211C53.635 10.5868 53.6795 10.5765 55.1364 10.5765C56.0271 10.5765 56.6274 10.5172 56.6274 10.4283C56.6274 10.3467 56.7667 10.28 56.9387 10.28C57.1091 10.28 57.2499 10.2133 57.2499 10.1318C57.2499 10.0503 57.3596 9.98362 57.4945 9.98362C57.8087 9.98362 58.1822 9.62642 58.1822 9.32703C58.1822 9.19957 58.2518 9.09434 58.3378 9.09434C58.4238 9.09434 58.4934 8.89425 58.4934 8.6497C58.4934 8.40515 58.5631 8.20506 58.649 8.20506C58.7439 8.20506 58.8032 7.46399 58.8032 6.27829C58.8032 5.09258 58.7439 4.35151 58.6476 4.35151C58.5616 4.35151 58.4919 4.15143 58.4919 3.90687C58.4919 3.66232 58.4223 3.46223 58.3363 3.46223C58.2504 3.46223 58.1807 3.34366 58.1807 3.19841C58.1807 3.05316 58.0414 2.83826 57.8694 2.72117C57.699 2.60408 57.5582 2.41881 57.5582 2.31062C57.5582 1.97714 56.8171 1.38725 56.3992 1.38725C56.1813 1.38725 56.0034 1.32055 56.0034 1.23903C56.0034 1.15752 55.7945 1.09082 55.538 1.09082C55.2816 1.09082 55.0712 1.15752 55.0712 1.23903C55.0712 1.32055 54.9645 1.38725 54.834 1.38725C54.5257 1.38725 53.2066 2.64558 53.2066 2.93904C53.2066 3.26659 53.0747 3.22065 52.5856 2.72117C52.3455 2.47661 52.0387 2.27653 51.9024 2.27653C51.766 2.27653 51.6534 2.20983 51.6534 2.12831C51.6534 2.0468 51.3036 1.9801 50.8767 1.9801C50.4499 1.9801 50.1001 2.0468 50.1001 2.12831C50.1001 2.20983 49.9904 2.27653 49.8555 2.27653C49.7207 2.27653 49.3412 2.54331 49.0137 2.86938C48.4505 3.42814 47.9258 3.64305 47.9258 3.31402C47.9258 3.2325 47.8013 3.16581 47.6487 3.16581C47.496 3.16581 47.2707 3.03241 47.1477 2.86938C47.0187 2.69893 46.746 2.57295 46.5044 2.57295C46.2732 2.57295 46.045 2.48995 45.9946 2.38769C45.922 2.23947 45.8864 2.23947 45.8138 2.38769C45.7663 2.48995 45.5203 2.57295 45.2713 2.57295C45.0223 2.57295 44.8178 2.63965 44.8178 2.72117C44.8178 2.80268 44.7081 2.86938 44.5732 2.86938C44.2901 2.86938 43.8855 3.2162 43.8855 3.45779C43.8855 3.5482 43.7091 3.79127 43.4957 3.9958C43.1504 4.32483 43.0792 4.34262 42.8747 4.14846C42.7472 4.02693 42.6435 3.85352 42.6435 3.76311C42.6435 3.51707 41.9172 2.86938 41.6401 2.86938C41.5082 2.86938 41.4 2.80268 41.4 2.72117C41.4 2.63965 41.1895 2.57295 40.9331 2.57295C40.6767 2.57295 40.4662 2.50626 40.4662 2.42474C40.4662 2.34322 40.2558 2.27653 40.0008 2.27653C39.7444 2.27653 39.534 2.34322 39.534 2.42474C39.534 2.50626 39.3947 2.57295 39.2227 2.57295C39.0523 2.57295 38.9115 2.63965 38.9115 2.72117C38.9115 2.80268 38.8048 2.86938 38.6729 2.86938C38.3631 2.86938 37.3567 3.8298 37.3567 4.12475C37.3567 4.25369 37.2218 4.35151 37.0455 4.35151C36.8706 4.35151 36.7342 4.25221 36.7342 4.12623C36.7342 3.83277 35.1024 2.27653 34.7956 2.27653C34.6652 2.27653 34.5585 2.20983 34.5585 2.12831C34.5585 2.04235 34.0516 1.9801 33.349 1.9801C32.319 1.9801 32.107 2.02308 31.9158 2.27653C31.7928 2.43956 31.6001 2.57295 31.4875 2.57295C31.2044 2.57295 30.2054 3.55116 30.2054 3.82832C30.2054 3.95282 30.0958 4.05509 29.9609 4.05509C29.6763 4.05509 29.2732 3.70678 29.2732 3.46223C29.2732 3.22954 28.876 2.86938 28.6195 2.86938C28.5039 2.86938 28.3083 2.73599 28.1853 2.57295C28.0623 2.40992 27.837 2.27653 27.6843 2.27653C27.5331 2.27653 27.4072 2.20983 27.4072 2.12831C27.4072 2.04383 26.9418 1.9801 26.3193 1.9801C25.6983 1.9801 25.2314 2.04383 25.2314 2.12831C25.2314 2.20983 25.0921 2.27653 24.9201 2.27653C24.7497 2.27653 24.6089 2.34322 24.6089 2.42474C24.6089 2.50626 24.4992 2.57295 24.3643 2.57295C24.0813 2.57295 23.6766 2.91977 23.6766 3.16136C23.6766 3.37627 22.9652 4.05509 22.7414 4.05509C22.6466 4.05509 22.2286 3.72161 21.8121 3.31402C21.2919 2.80417 20.9302 2.57295 20.656 2.57295C20.4367 2.57295 20.2574 2.50626 20.2574 2.42474C20.2574 2.34322 20.0469 2.27653 19.792 2.27653C19.5356 2.27653 19.3266 2.34322 19.3266 2.42474C19.3266 2.50626 19.1502 2.57295 18.9353 2.57295C18.4951 2.57295 16.841 4.03434 16.841 4.42266C16.841 4.54715 16.7714 4.64794 16.6854 4.64794C16.5994 4.64794 16.5298 4.52937 16.5298 4.38412C16.5298 4.23887 16.3905 4.02396 16.2185 3.90687C16.0481 3.78978 15.9073 3.60304 15.9073 3.49336C15.9073 3.22213 15.519 2.86938 15.2196 2.86938C15.0847 2.86938 14.975 2.80268 14.975 2.72117C14.975 2.63965 14.7705 2.57295 14.5215 2.57295C14.2725 2.57295 14.0279 2.48995 13.9776 2.38769C13.9049 2.23947 13.8694 2.23947 13.7967 2.38769C13.7567 2.48995 13.527 2.57295 13.2973 2.57295C13.0572 2.57295 12.783 2.69893 12.654 2.86938C12.531 3.03241 12.3205 3.16581 12.1871 3.16581C12.0537 3.16581 11.8448 3.2992 11.7203 3.46223C11.4535 3.81646 11.2534 3.84462 11.2534 3.53189C11.2549 3.23695 10.2485 2.27653 9.94023 2.27653C9.8098 2.27653 9.7016 2.20983 9.7016 2.12831C9.7016 2.04531 9.2866 1.9801 8.76934 1.9801C8.25208 1.9801 7.83708 2.04531 7.83708 2.12831C7.83708 2.20983 7.72295 2.27653 7.58363 2.27653C7.44431 2.27653 7.20273 2.41733 7.04562 2.58926L6.76105 2.90199L5.98886 2.14462C5.45529 1.62291 5.09217 1.38725 4.81649 1.38725C4.59714 1.38725 4.4178 1.32055 4.4178 1.23903C4.4178 1.15752 4.27848 1.09082 4.10655 1.09082C3.93611 1.09082 3.79678 1.15752 3.79678 1.23903Z" fill="white" stroke="url(#paint0_linear_1896_67)" stroke-width="1.5" stroke-miterlimit="10"/>
<path d="M6.8661 2.69067C5.79955 4.29049 5.79955 9.08993 6.33283 10.6897" stroke="#4C6BE8" stroke-width="0.8"/>
<path d="M11.6655 3.22388C11.1322 4.29042 10.0656 7.49005 10.5989 11.2229" stroke="#4965E5" stroke-width="0.8"/>
<path d="M22.8641 3.75708C22.3308 4.82362 21.9429 8.55652 22.4762 12.2894" stroke="#3D53D9" stroke-width="0.8"/>
<path d="M25.5001 7C25.5 8 25.5 8.62503 25.5 10.5" stroke="#3D53D9" stroke-width="2" stroke-linecap="round"/>
<path d="M19 7C18.9999 8 19.0001 8.12503 19 10" stroke="#3D53D9" stroke-width="2" stroke-linecap="round"/>
<path d="M14 7C14 7.66667 14 7.75002 14 9" stroke="#3D53D9" stroke-width="2" stroke-linecap="round"/>
<path d="M8 6C8 6.66667 8 6.75002 8 8" stroke="#3D53D9" stroke-width="2" stroke-linecap="round"/>
<path d="M4 5C4 5.66667 4 5.75002 4 7" stroke="#3D53D9" stroke-width="2" stroke-linecap="round"/>
<path d="M16.4647 4.29041C16.998 5.35695 15.3983 8.0233 16.4648 11.7562" stroke="#4965E5" stroke-width="0.8"/>
<path d="M53.2605 3.22388C54.327 4.82369 54.327 9.62313 53.7938 11.2229" stroke="#1A1DB2" stroke-width="0.8"/>
<path d="M48.4611 3.7572C48.9943 4.82374 50.0609 8.02337 49.5277 11.7563" stroke="#2128BA" stroke-width="0.8"/>
<path d="M37.2625 4.29041C37.7958 5.35695 38.1837 9.08984 37.6504 12.8227" stroke="#2E3BC8" stroke-width="0.8"/>
<path d="M43.7739 4.29041C43.2407 5.35695 44.8404 8.0233 43.7738 11.7562" stroke="#262FBF" stroke-width="0.8"/>
<path d="M29.7966 4.29053C29.7966 5.57038 29.7966 10.512 29.7966 12.8229" stroke="#3547D0" stroke-width="0.8"/>
<path d="M3.5 5.5C5 6 28.5 13 56 5.5" stroke="url(#paint1_linear_1896_67)"/>
<path d="M34 7C34.0001 8 34.0001 8.62503 34.0001 10.5" stroke="#3D53D9" stroke-width="2" stroke-linecap="round"/>
<path d="M40.5001 7C40.5002 8 40.5 8.12503 40.5001 10" stroke="#3D53D9" stroke-width="2" stroke-linecap="round"/>
<path d="M45.5001 7C45.5001 7.66667 45.5001 7.75002 45.5001 9" stroke="#3D53D9" stroke-width="2" stroke-linecap="round"/>
<path d="M51.5001 6C51.5001 6.66667 51.5001 6.75002 51.5001 8" stroke="#3D53D9" stroke-width="2" stroke-linecap="round"/>
<path d="M55.5001 5C55.5001 5.66667 55.5001 5.75002 55.5001 7" stroke="#3D53D9" stroke-width="2" stroke-linecap="round"/>
<defs>
<linearGradient id="paint0_linear_1896_67" x1="2.80635" y1="1.09082" x2="59.4707" y2="10.3405" gradientUnits="userSpaceOnUse">
<stop stop-color="#5173EC"/>
<stop offset="0.24279" stop-color="#455FE1"/>
<stop offset="1" stop-color="#1211A9"/>
</linearGradient>
<linearGradient id="paint1_linear_1896_67" x1="5.14063" y1="5.5" x2="44.8938" y2="28.3062" gradientUnits="userSpaceOnUse">
<stop stop-color="#5173EC"/>
<stop offset="0.24279" stop-color="#455FE1"/>
<stop offset="1" stop-color="#1211A9"/>
</linearGradient>
</defs>
</svg>
