<svg width="36" height="36" viewBox="0 0 36 36" fill="none" xmlns="http://www.w3.org/2000/svg">
<path d="M30.7279 5.27208C37.7574 12.3015 37.7574 23.6985 30.7279 30.7279C23.6985 37.7574 12.3015 37.7574 5.27208 30.7279C-1.75736 23.6985 -1.75736 12.3015 5.27208 5.27208C12.3015 -1.75736 23.6985 -1.75736 30.7279 5.27208Z" fill="#3178FE"/>
<path fill-rule="evenodd" clip-rule="evenodd" d="M9.75043 11.25H7.12483C6.37465 11.25 6.22461 11.6031 6.22461 11.9924C6.22461 12.6877 7.11475 16.1361 10.3693 20.6969C12.5389 23.8116 15.5958 25.5 18.3775 25.5C20.0464 25.5 20.2529 25.125 20.2529 24.4791V22.125C20.2529 21.375 20.411 21.2253 20.9395 21.2253C21.3289 21.2253 21.9965 21.42 23.5543 22.9217C25.3345 24.7015 25.628 25.5 26.6293 25.5H29.2549C30.0052 25.5 30.3802 25.125 30.1639 24.385C29.9271 23.6474 29.0771 22.5772 27.9493 21.3088C27.3373 20.5857 26.4193 19.807 26.1412 19.4177C25.7518 18.9171 25.863 18.6946 26.1412 18.2497C26.1412 18.2497 29.3401 13.7444 29.6739 12.215C29.8408 11.6587 29.6739 11.25 28.8799 11.25H26.2543C25.5867 11.25 25.2789 11.6031 25.1119 11.9924C25.1119 11.9924 23.7768 15.2461 21.8853 17.3597C21.2733 17.9715 20.9951 18.1662 20.6613 18.1662C20.4944 18.1662 20.2528 17.9715 20.2528 17.4154V12.215C20.2528 11.5475 20.0591 11.25 19.5027 11.25H15.3767C14.9596 11.25 14.7086 11.5597 14.7086 11.8534C14.7086 12.4861 15.6544 12.632 15.7519 14.4118V18.2775C15.7519 19.125 15.5987 19.2787 15.265 19.2787C14.3749 19.2787 12.2097 16.0103 10.9255 12.2705C10.6739 11.5436 10.4215 11.25 9.75043 11.25Z" fill="white"/>
</svg>
