<svg width="60" height="16" viewBox="0 0 60 16" fill="none" xmlns="http://www.w3.org/2000/svg">
<path d="M3.99356 1.23903C3.99356 1.32055 3.81571 1.38725 3.59931 1.38725C3.16209 1.38725 2.12756 2.26912 2.12756 2.64261C2.12756 2.76711 2.0579 2.86938 1.97193 2.86938C1.88597 2.86938 1.81631 3.00277 1.81631 3.16581C1.81631 3.32884 1.74813 3.46223 1.66365 3.46223C1.57917 3.46223 1.50803 3.59563 1.50803 3.75866C1.50803 3.92169 1.43837 4.05509 1.3524 4.05509C1.25606 4.05509 1.19678 4.89546 1.19678 6.27829C1.19678 7.66112 1.25606 8.50149 1.3524 8.50149C1.43837 8.50149 1.50803 8.67045 1.50803 8.87646C1.50803 9.37743 2.45363 10.28 2.9783 10.28C3.19469 10.28 3.37255 10.3467 3.37255 10.4283C3.37255 10.5172 3.97281 10.5765 4.86357 10.5765C6.32051 10.5765 6.36497 10.5868 6.79035 11.0211C7.03045 11.2657 7.33725 11.4658 7.47361 11.4658C7.60997 11.4658 7.72261 11.5324 7.72261 11.614C7.72261 11.8437 10.4779 11.8066 10.5594 11.5769C10.5994 11.4643 10.8736 11.6392 11.259 12.0216C11.6844 12.444 12.0267 12.6515 12.295 12.6515C12.5158 12.6515 12.6952 12.7182 12.6952 12.7997C12.6952 12.8871 13.2643 12.9479 14.0943 12.9479C14.9228 12.9479 15.4934 12.8871 15.4934 12.7997C15.4934 12.7182 15.7039 12.6515 15.9603 12.6515C16.2167 12.6515 16.4272 12.5848 16.4272 12.5032C16.4272 12.2409 16.9726 12.3447 17.2038 12.6515C17.3268 12.8145 17.5521 12.9479 17.7048 12.9479C17.856 12.9479 17.9819 13.0146 17.9819 13.0961C17.9819 13.1776 18.1213 13.2443 18.2932 13.2443C18.4636 13.2443 18.6044 13.311 18.6044 13.3925C18.6044 13.4815 19.2254 13.5407 20.1577 13.5407C21.09 13.5407 21.711 13.4815 21.711 13.3925C21.711 13.311 21.8503 13.2443 22.0222 13.2443C22.1942 13.2443 22.3335 13.1776 22.3335 13.0961C22.3335 12.8219 23.1901 12.939 23.4214 13.2443C23.5444 13.4073 23.7697 13.5407 23.9223 13.5407C24.075 13.5407 24.198 13.6074 24.198 13.689C24.198 13.7705 24.4085 13.8372 24.6649 13.8372C24.9213 13.8372 25.1317 13.9039 25.1317 13.9854C25.1317 14.0713 25.649 14.1336 26.3753 14.1336C27.1015 14.1336 27.6188 14.0713 27.6188 13.9854C27.6188 13.9039 27.8989 13.8372 28.2398 13.8372C28.5821 13.8372 28.8608 13.7705 28.8608 13.689C28.8608 13.6074 29.0001 13.5407 29.172 13.5407C29.3425 13.5407 29.4833 13.474 29.4833 13.3925C29.4833 13.0946 29.9917 13.2562 30.4155 13.689C30.6838 13.9617 31.0069 14.1336 31.2544 14.1336C31.4768 14.1336 31.6591 14.2003 31.6591 14.2818C31.6591 14.3722 32.3838 14.43 33.5236 14.43C34.6633 14.43 35.3881 14.3722 35.3881 14.2818C35.3881 14.2003 35.5971 14.1336 35.8535 14.1336C36.1099 14.1336 36.3204 14.0669 36.3204 13.9854C36.3204 13.9039 36.4315 13.8372 36.5694 13.8372C36.7057 13.8372 37.0318 13.6208 37.2926 13.3555C37.5935 13.0516 37.7921 12.942 37.8336 13.059C37.8633 13.1613 38.0974 13.2443 38.3464 13.2443C38.5954 13.2443 38.8 13.311 38.8 13.3925C38.8 13.48 39.3691 13.5407 40.1991 13.5407C41.0276 13.5407 41.5982 13.48 41.5982 13.3925C41.5982 13.311 41.8072 13.2443 42.0636 13.2443C42.32 13.2443 42.5305 13.1776 42.5305 13.0961C42.5305 13.0146 42.6446 12.9479 42.7839 12.9479C42.9233 12.9479 43.1782 12.7982 43.3486 12.6144C43.5591 12.3876 43.6821 12.3402 43.7295 12.4662C43.7666 12.5685 44.0023 12.6515 44.2513 12.6515C44.5003 12.6515 44.7048 12.7182 44.7048 12.7997C44.7048 12.8871 45.2754 12.9479 46.1039 12.9479C46.9324 12.9479 47.5016 12.8871 47.5016 12.7997C47.5016 12.7182 47.6839 12.6515 47.9062 12.6515C48.1537 12.6515 48.4783 12.4795 48.7451 12.2068C49.1764 11.7666 49.1986 11.7622 50.8275 11.7622C51.822 11.7622 52.4741 11.7029 52.4741 11.614C52.4741 11.5324 52.5853 11.4658 52.7231 11.4658C52.861 11.4658 53.1678 11.2657 53.4064 11.0211C53.8318 10.5868 53.8762 10.5765 55.3332 10.5765C56.2239 10.5765 56.8242 10.5172 56.8242 10.4283C56.8242 10.3467 56.9635 10.28 57.1354 10.28C57.3059 10.28 57.4467 10.2133 57.4467 10.1318C57.4467 10.0503 57.5564 9.98362 57.6912 9.98362C58.0055 9.98362 58.3789 9.62642 58.3789 9.32703C58.3789 9.19957 58.4486 9.09434 58.5346 9.09434C58.6205 9.09434 58.6902 8.89425 58.6902 8.6497C58.6902 8.40515 58.7599 8.20506 58.8458 8.20506C58.9407 8.20506 59 7.46399 59 6.27829C59 5.09258 58.9407 4.35151 58.8443 4.35151C58.7584 4.35151 58.6887 4.15143 58.6887 3.90687C58.6887 3.66232 58.6191 3.46223 58.5331 3.46223C58.4471 3.46223 58.3775 3.34366 58.3775 3.19841C58.3775 3.05316 58.2381 2.83826 58.0662 2.72117C57.8958 2.60408 57.755 2.41881 57.755 2.31062C57.755 1.97714 57.0139 1.38725 56.5959 1.38725C56.3781 1.38725 56.2002 1.32055 56.2002 1.23903C56.2002 1.15752 55.9912 1.09082 55.7348 1.09082C55.4784 1.09082 55.2679 1.15752 55.2679 1.23903C55.2679 1.32055 55.1612 1.38725 55.0308 1.38725C54.7225 1.38725 53.4034 2.64558 53.4034 2.93904C53.4034 3.26659 53.2715 3.22065 52.7824 2.72117C52.5423 2.47661 52.2355 2.27653 52.0992 2.27653C51.9628 2.27653 51.8502 2.20983 51.8502 2.12831C51.8502 2.0468 51.5004 1.9801 51.0735 1.9801C50.6467 1.9801 50.2969 2.0468 50.2969 2.12831C50.2969 2.20983 50.1872 2.27653 50.0523 2.27653C49.9175 2.27653 49.538 2.54331 49.2105 2.86938C48.6473 3.42814 48.1226 3.64305 48.1226 3.31402C48.1226 3.2325 47.9981 3.16581 47.8454 3.16581C47.6928 3.16581 47.4675 3.03241 47.3445 2.86938C47.2155 2.69893 46.9428 2.57295 46.7012 2.57295C46.47 2.57295 46.2418 2.48995 46.1914 2.38769C46.1187 2.23947 46.0832 2.23947 46.0105 2.38769C45.9631 2.48995 45.7171 2.57295 45.4681 2.57295C45.2191 2.57295 45.0146 2.63965 45.0146 2.72117C45.0146 2.80268 44.9049 2.86938 44.77 2.86938C44.4869 2.86938 44.0823 3.2162 44.0823 3.45779C44.0823 3.5482 43.9059 3.79127 43.6925 3.9958C43.3472 4.32483 43.276 4.34262 43.0715 4.14846C42.944 4.02693 42.8403 3.85352 42.8403 3.76311C42.8403 3.51707 42.114 2.86938 41.8369 2.86938C41.705 2.86938 41.5968 2.80268 41.5968 2.72117C41.5968 2.63965 41.3863 2.57295 41.1299 2.57295C40.8735 2.57295 40.663 2.50626 40.663 2.42474C40.663 2.34322 40.4525 2.27653 40.1976 2.27653C39.9412 2.27653 39.7308 2.34322 39.7308 2.42474C39.7308 2.50626 39.5914 2.57295 39.4195 2.57295C39.2491 2.57295 39.1083 2.63965 39.1083 2.72117C39.1083 2.80268 39.0015 2.86938 38.8696 2.86938C38.5599 2.86938 37.5535 3.8298 37.5535 4.12475C37.5535 4.25369 37.4186 4.35151 37.2422 4.35151C37.0674 4.35151 36.931 4.25221 36.931 4.12623C36.931 3.83277 35.2992 2.27653 34.9924 2.27653C34.8619 2.27653 34.7552 2.20983 34.7552 2.12831C34.7552 2.04235 34.2483 1.9801 33.5458 1.9801C32.5157 1.9801 32.3038 2.02308 32.1126 2.27653C31.9896 2.43956 31.7969 2.57295 31.6843 2.57295C31.4012 2.57295 30.4022 3.55116 30.4022 3.82832C30.4022 3.95282 30.2925 4.05509 30.1577 4.05509C29.8731 4.05509 29.4699 3.70678 29.4699 3.46223C29.4699 3.22954 29.0727 2.86938 28.8163 2.86938C28.7007 2.86938 28.5051 2.73599 28.3821 2.57295C28.259 2.40992 28.0338 2.27653 27.8811 2.27653C27.7299 2.27653 27.6039 2.20983 27.6039 2.12831C27.6039 2.04383 27.1385 1.9801 26.5161 1.9801C25.895 1.9801 25.4282 2.04383 25.4282 2.12831C25.4282 2.20983 25.2888 2.27653 25.1169 2.27653C24.9465 2.27653 24.8057 2.34322 24.8057 2.42474C24.8057 2.50626 24.696 2.57295 24.5611 2.57295C24.278 2.57295 23.8734 2.91977 23.8734 3.16136C23.8734 3.37627 23.162 4.05509 22.9382 4.05509C22.8433 4.05509 22.4254 3.72161 22.0089 3.31402C21.4887 2.80417 21.127 2.57295 20.8528 2.57295C20.6335 2.57295 20.4541 2.50626 20.4541 2.42474C20.4541 2.34322 20.2437 2.27653 19.9887 2.27653C19.7323 2.27653 19.5233 2.34322 19.5233 2.42474C19.5233 2.50626 19.347 2.57295 19.1321 2.57295C18.6919 2.57295 17.0378 4.03434 17.0378 4.42266C17.0378 4.54715 16.9682 4.64794 16.8822 4.64794C16.7962 4.64794 16.7266 4.52937 16.7266 4.38412C16.7266 4.23887 16.5872 4.02396 16.4153 3.90687C16.2449 3.78978 16.1041 3.60304 16.1041 3.49336C16.1041 3.22213 15.7158 2.86938 15.4164 2.86938C15.2815 2.86938 15.1718 2.80268 15.1718 2.72117C15.1718 2.63965 14.9673 2.57295 14.7183 2.57295C14.4693 2.57295 14.2247 2.48995 14.1743 2.38769C14.1017 2.23947 14.0661 2.23947 13.9935 2.38769C13.9535 2.48995 13.7238 2.57295 13.494 2.57295C13.2539 2.57295 12.9797 2.69893 12.8508 2.86938C12.7278 3.03241 12.5173 3.16581 12.3839 3.16581C12.2505 3.16581 12.0415 3.2992 11.917 3.46223C11.6503 3.81646 11.4502 3.84462 11.4502 3.53189C11.4517 3.23695 10.4453 2.27653 10.137 2.27653C10.0066 2.27653 9.89838 2.20983 9.89838 2.12831C9.89838 2.04531 9.48338 1.9801 8.96612 1.9801C8.44885 1.9801 8.03386 2.04531 8.03386 2.12831C8.03386 2.20983 7.91973 2.27653 7.78041 2.27653C7.64109 2.27653 7.3995 2.41733 7.2424 2.58926L6.95783 2.90199L6.18564 2.14462C5.65207 1.62291 5.28895 1.38725 5.01327 1.38725C4.79391 1.38725 4.61458 1.32055 4.61458 1.23903C4.61458 1.15752 4.47526 1.09082 4.30333 1.09082C4.13288 1.09082 3.99356 1.15752 3.99356 1.23903Z" fill="white" stroke="url(#paint0_linear_1896_24)" stroke-width="1.5" stroke-miterlimit="10"/>
<path d="M7.06287 2.69067C5.99633 4.29049 5.99633 9.08993 6.5296 10.6897" stroke="#4C6BE8" stroke-width="0.8"/>
<path d="M11.8623 3.22388C11.329 4.29042 10.2624 7.49005 10.7957 11.2229" stroke="#4965E5" stroke-width="0.8"/>
<path d="M23.061 3.7572C22.5277 4.82374 22.1398 8.55664 22.6731 12.2895" stroke="#3D53D9" stroke-width="0.8"/>
<path d="M16.6616 4.29041C17.1949 5.35695 15.5952 8.0233 16.6617 11.7562" stroke="#4965E5" stroke-width="0.8"/>
<path d="M53.4573 3.22388C54.5238 4.82369 54.5238 9.62313 53.9905 11.2229" stroke="#1A1DB2" stroke-width="0.8"/>
<path d="M48.6578 3.7572C49.1911 4.82374 50.2577 8.02337 49.7244 11.7563" stroke="#2128BA" stroke-width="0.8"/>
<path d="M37.4593 4.29041C37.9926 5.35695 38.3805 9.08984 37.8472 12.8227" stroke="#2E3BC8" stroke-width="0.8"/>
<path d="M43.9707 4.29041C43.4374 5.35695 45.0372 8.0233 43.9706 11.7562" stroke="#262FBF" stroke-width="0.8"/>
<path d="M29.9934 4.29041C29.9934 5.57026 29.9934 10.5119 29.9934 12.8227" stroke="#3547D0" stroke-width="0.8"/>
<defs>
<linearGradient id="paint0_linear_1896_24" x1="3.00313" y1="1.09082" x2="59.6675" y2="10.3405" gradientUnits="userSpaceOnUse">
<stop stop-color="#5173EC"/>
<stop offset="0.24279" stop-color="#455FE1"/>
<stop offset="1" stop-color="#1211A9"/>
</linearGradient>
</defs>
</svg>
