<svg width="17" height="17" viewBox="0 0 17 17" fill="none" xmlns="http://www.w3.org/2000/svg">
<path d="M14.1627 13.1059L13.1221 12.0653C12.6023 11.5454 11.7595 11.5454 11.2405 12.0653L10.4226 12.8832C10.2398 13.066 9.96303 13.1272 9.72705 13.0234C8.54184 12.5044 7.37082 11.7175 6.32665 10.6734C5.28693 9.63363 4.5027 8.46793 3.98284 7.28715C3.87461 7.04319 3.93759 6.75664 4.12655 6.56768L4.85933 5.83491C5.4546 5.23964 5.4546 4.39774 4.93474 3.87788L3.89412 2.83727C3.20127 2.14441 2.07815 2.14441 1.3853 2.83727L0.806884 3.41479C0.149515 4.07216 -0.124611 5.02051 0.052817 5.96088C0.491063 8.27897 1.83774 10.8171 4.01034 12.9897C6.18294 15.1623 8.72104 16.5089 11.0391 16.9472C11.9795 17.1246 12.9278 16.8505 13.5852 16.1931L14.1627 15.6156C14.8556 14.9227 14.8556 13.7996 14.1627 13.1059Z" fill="white"/>
<path d="M8.87097 4.57259C9.78561 4.56017 10.7047 4.89906 11.4029 5.59724" stroke="white" stroke-width="1.7"/>
<path d="M12.4275 8.12906C12.4399 7.21442 12.101 6.29535 11.4028 5.59717" stroke="white" stroke-width="1.7"/>
<g opacity="0.4">
<path d="M13.9117 3.08832C12.5198 1.6964 10.6949 1 8.87097 1" stroke="white" stroke-width="1.7"/>
<path d="M13.9117 3.08838C15.3036 4.4803 16 6.30514 16 8.1291" stroke="white" stroke-width="1.7"/>
</g>
</svg>
