<svg width="18" height="12" viewBox="0 0 18 12" fill="none" xmlns="http://www.w3.org/2000/svg">
<g clip-path="url(#clip0_2596_1673)">
<path d="M14.6816 1.71158C14.8792 3.21579 14.524 4.74165 13.6854 5.99154C12.8468 7.24143 11.5848 8.12571 10.1457 8.4719C8.70659 8.8181 7.19348 8.60138 5.90152 7.86401C4.60957 7.12665 3.63142 5.92153 3.15787 4.4837L0 5.41264C1.18618 9.23291 4.66971 12 8.78233 12C13.8731 12 18 7.76209 18 2.53447C18 2.02445 17.9602 1.51526 17.8809 1.01178L14.6816 1.71158Z" fill="white"/>
<path d="M8.2245 0L7.83891 3.1673L4.77527 4.05831L7.59504 5.38438L7.49704 8.71889L9.69752 6.30132L12.6164 7.41412L11.1068 4.60987L13.0559 2.03593L9.97493 2.68154L8.2245 0Z" fill="white"/>
</g>
<defs>
<clipPath id="clip0_2596_1673">
<rect width="18" height="12" fill="white"/>
</clipPath>
</defs>
</svg>
