<svg width="8" height="13" viewBox="0 0 8 13" fill="none" xmlns="http://www.w3.org/2000/svg">
<path fill-rule="evenodd" clip-rule="evenodd" d="M3.76489 0.0271201C3.31781 0.130002 2.953 0.504042 2.84555 0.969764C2.70291 1.58789 3.0002 2.23146 3.55746 2.51098C3.9306 2.69813 4.26864 2.69891 4.63847 2.51347C5.40347 2.12985 5.54591 1.05372 4.91821 0.399738C4.61163 0.0803005 4.16328 -0.0645614 3.76489 0.0271201ZM3.58766 2.81597C3.50385 2.82658 3.3919 2.85838 3.33889 2.88659C3.20236 2.9593 1.0208 4.48373 0.935569 4.56599C0.896797 4.6034 0.854668 4.65363 0.841943 4.67761C0.829193 4.70158 0.634434 5.26104 0.409129 5.92087C0.136078 6.72046 -0.000372054 7.15479 7.61886e-07 7.22328C0.00159144 7.52329 0.267459 7.75293 0.561064 7.70795C0.683919 7.68913 0.852208 7.5733 0.90311 7.47257C0.92267 7.43387 1.11912 6.95088 1.33968 6.39924C1.56023 5.8476 1.75435 5.3829 1.77105 5.36659C1.78773 5.35026 2.0139 5.22493 2.27363 5.08802C2.66439 4.88208 2.78123 4.807 2.95091 4.65287C3.06368 4.55042 3.15596 4.47667 3.15596 4.48896C3.15596 4.51715 2.97994 4.77554 2.85816 4.92606L2.76572 5.04035L2.73694 5.63717C2.72113 5.96542 2.6976 6.30827 2.68467 6.39906C2.64684 6.66448 2.56301 7.36253 2.5474 7.54191C2.53952 7.6327 2.47204 8.16298 2.3975 8.72031L2.26195 9.73363L1.62319 11.006C0.937235 12.3724 0.921949 12.412 0.993977 12.635C1.03553 12.7636 1.20514 12.9322 1.33205 12.9709C1.48846 13.0187 1.59327 13.0088 1.74103 12.9323C1.87201 12.8645 1.89323 12.8368 2.46556 11.9863C2.78983 11.5044 3.1841 10.9158 3.3417 10.6784L3.62827 10.2466L3.81269 9.44665C3.91412 9.00665 4.01684 8.53362 4.041 8.39546C4.09528 8.08486 4.12106 8.1275 4.12372 8.53237L4.12563 8.82443L4.49839 9.32977C4.75382 9.67603 4.88177 9.87189 4.90489 9.95199C4.92346 10.0163 5.10457 10.656 5.30738 11.3736C5.70736 12.7888 5.72116 12.8238 5.92069 12.9305C6.24369 13.1033 6.64256 12.899 6.69811 12.5323C6.71749 12.4043 6.23281 9.30539 6.17577 9.19268C6.15457 9.1508 5.84212 8.63147 5.48146 8.03859L4.82568 6.96063L4.85041 6.76239C4.86403 6.65336 4.87124 6.21321 4.86644 5.78429C4.86152 5.34569 4.86699 5.02138 4.87892 5.04317C4.89057 5.06445 4.93114 5.20763 4.96904 5.36131C5.03189 5.61606 5.04758 5.65073 5.14657 5.75379C5.35602 5.97187 5.33119 5.9673 6.51242 6.00544C7.14464 6.02586 7.58837 6.03025 7.63522 6.01651C8.05889 5.89235 8.1331 5.32459 7.75415 5.10696C7.66783 5.05739 7.54455 5.03938 6.76718 4.96279C6.02672 4.8898 5.87202 4.86783 5.83772 4.8308C5.81511 4.80637 5.492 4.40924 5.11968 3.9483C4.74739 3.48735 4.40768 3.07204 4.3648 3.02541C4.19338 2.83895 3.94171 2.77112 3.58766 2.81597Z" fill="black"/>
</svg>
